999
dxfrw 0.6.3
  0
SECTION
  2
HEADER
  9
$ACADVER
  1
AC1021
  9
$DWGCODEPAGE
  3
ANSI_936
  9
$INSBASE
 10
0
 20
0
 30
0
  9
$EXTMIN
 10
15.51356080275461
 20
11.22268243003023
 30
0
  9
$EXTMAX
 10
390.5136828730676
 20
229.2227129476083
 30
0
  9
$LIMMIN
 10
0
 20
0
  9
$LIMMAX
 10
12
 20
9
  9
$ORTHOMODE
 70
    0
  9
$REGENMODE
 70
    1
  9
$FILLMODE
 70
    1
  9
$QTEXTMODE
 70
    0
  9
$MIRRTEXT
 70
    0
  9
$LTSCALE
 40
1
  9
$ATTMODE
 70
    1
  9
$TEXTSIZE
 40
0.2
  9
$TRACEWID
 40
0.05
  9
$TEXTSTYLE
  7
Standard
  9
$CLAYER
  8
0
  9
$CELTYPE
  6
ByLayer
  9
$CECOLOR
 62
  256
  9
$CELTSCALE
 40
1
  9
$DISPSILH
 70
    0
  9
$DIMSCALE
 40
1
  9
$DIMASZ
 40
0.18
  9
$DIMEXO
 40
0.0625
  9
$DIMDLI
 40
0.38
  9
$DIMRND
 40
0
  9
$DIMDLE
 40
0
  9
$DIMEXE
 40
0.18
  9
$DIMTP
 40
0
  9
$DIMTM
 40
0
  9
$DIMTXT
 40
0.18
  9
$DIMCEN
 40
0.09
  9
$DIMTSZ
 40
0
  9
$DIMTOL
 70
    0
  9
$DIMLIM
 70
    0
  9
$DIMTIH
 70
    1
  9
$DIMTOH
 70
    1
  9
$DIMSE1
 70
    0
  9
$DIMSE2
 70
    0
  9
$DIMTAD
 70
    0
  9
$DIMZIN
 70
    0
  9
$DIMBLK
  1

  9
$DIMASO
 70
    1
  9
$DIMSHO
 70
    1
  9
$DIMPOST
  1

  9
$DIMAPOST
  1

  9
$DIMALT
 70
    0
  9
$DIMALTD
 70
    2
  9
$DIMALTF
 40
25.4
  9
$DIMLFAC
 40
1
  9
$DIMTOFL
 70
    0
  9
$DIMTVP
 40
0
  9
$DIMTIX
 70
    0
  9
$DIMSOXD
 70
    0
  9
$DIMSAH
 70
    0
  9
$DIMBLK1
  1

  9
$DIMBLK2
  1

  9
$DIMSTYLE
  2
Standard
  9
$DIMCLRD
 70
    0
  9
$DIMCLRE
 70
    0
  9
$DIMCLRT
 70
    0
  9
$DIMTFAC
 40
1
  9
$DIMGAP
 40
0.09
  9
$DIMJUST
 70
    0
  9
$DIMSD1
 70
    0
  9
$DIMSD2
 70
    0
  9
$DIMTOLJ
 70
    1
  9
$DIMTZIN
 70
    0
  9
$DIMALTZ
 70
    0
  9
$DIMALTTZ
 70
    0
  9
$DIMUPT
 70
    0
  9
$DIMDEC
 70
    4
  9
$DIMTDEC
 70
    4
  9
$DIMALTU
 70
    2
  9
$DIMALTTD
 70
    2
  9
$DIMTXSTY
  7
Standard
  9
$DIMAUNIT
 70
    0
  9
$DIMADEC
 70
    0
  9
$DIMALTRND
 40
0
  9
$DIMAZIN
 70
    0
  9
$DIMDSEP
 70
   46
  9
$DIMATFIT
 70
    3
  9
$DIMFRAC
 70
    0
  9
$DIMLDRBLK
  1

  9
$DIMLUNIT
 70
    2
  9
$DIMLWD
 70
   -2
  9
$DIMLWE
 70
   -2
  9
$DIMTMOVE
 70
    0
  9
$DIMFXL
 40
1
  9
$DIMFXLON
 70
    0
  9
$DIMJOGANG
 40
0.7854
  9
$DIMTFILL
 70
    0
  9
$DIMTFILLCLR
 70
    0
  9
$DIMARCSYM
 70
    0
  9
$DIMLTYPE
  6

  9
$DIMLTEX1
  6

  9
$DIMLTEX2
  6

  9
$LUNITS
 70
    2
  9
$LUPREC
 70
    4
  9
$SKETCHINC
 40
0.1
  9
$FILLETRAD
 40
0
  9
$AUNITS
 70
    0
  9
$AUPREC
 70
    0
  9
$MENU
  1
.
  9
$ELEVATION
 40
0
  9
$PELEVATION
 40
0
  9
$THICKNESS
 40
0
  9
$LIMCHECK
 70
    0
  9
$CHAMFERA
 40
0
  9
$CHAMFERB
 40
0
  9
$CHAMFERC
 40
0
  9
$CHAMFERD
 40
0
  9
$SKPOLY
 70
    0
  9
$USRTIMER
 70
    1
  9
$ANGBASE
 50
0
  9
$ANGDIR
 70
    0
  9
$PDMODE
 70
    0
  9
$PDSIZE
 40
0
  9
$PLINEWID
 40
0
  9
$SPLFRAME
 70
    0
  9
$SPLINETYPE
 70
    6
  9
$SPLINESEGS
 70
    8
  9
$HANDSEED
  5
20000
  9
$SURFTAB1
 70
    6
  9
$SURFTAB2
 70
    6
  9
$SURFTYPE
 70
    6
  9
$SURFU
 70
    6
  9
$SURFV
 70
    6
  9
$UCSBASE
  2

  9
$UCSNAME
  2

  9
$UCSORG
 10
0
 20
0
 30
0
  9
$UCSXDIR
 10
1
 20
0
 30
0
  9
$UCSYDIR
 10
0
 20
1
 30
0
  9
$UCSORTHOREF
  2

  9
$UCSORTHOVIEW
 70
    0
  9
$UCSORGTOP
 10
0
 20
0
 30
0
  9
$UCSORGBOTTOM
 10
0
 20
0
 30
0
  9
$UCSORGLEFT
 10
0
 20
0
 30
0
  9
$UCSORGRIGHT
 10
0
 20
0
 30
0
  9
$UCSORGFRONT
 10
0
 20
0
 30
0
  9
$UCSORGBACK
 10
0
 20
0
 30
0
  9
$PUCSBASE
  2

  9
$PUCSNAME
  2

  9
$PUCSORG
 10
0
 20
0
 30
0
  9
$PUCSXDIR
 10
1
 20
0
 30
0
  9
$PUCSYDIR
 10
0
 20
1
 30
0
  9
$PUCSORTHOREF
  2

  9
$PUCSORTHOVIEW
 70
    0
  9
$PUCSORGTOP
 10
0
 20
0
 30
0
  9
$PUCSORGBOTTOM
 10
0
 20
0
 30
0
  9
$PUCSORGLEFT
 10
0
 20
0
 30
0
  9
$PUCSORGRIGHT
 10
0
 20
0
 30
0
  9
$PUCSORGFRONT
 10
0
 20
0
 30
0
  9
$PUCSORGBACK
 10
0
 20
0
 30
0
  9
$USERI1
 70
    0
  9
$USERI2
 70
    0
  9
$USERI3
 70
    0
  9
$USERI4
 70
    0
  9
$USERI5
 70
    0
  9
$USERR1
 40
0
  9
$USERR2
 40
0
  9
$USERR3
 40
0
  9
$USERR4
 40
0
  9
$USERR5
 40
0
  9
$WORLDVIEW
 70
    1
  9
$SHADEDGE
 70
    3
  9
$SHADEDIF
 70
   70
  9
$TILEMODE
 70
    1
  9
$MAXACTVP
 70
   64
  9
$PINSBASE
 10
0
 20
0
 30
0
  9
$PLIMCHECK
 70
    0
  9
$PEXTMIN
 10
0
 20
0
 30
0
  9
$PEXTMAX
 10
0
 20
0
 30
0
  9
$GRIDMODE
 70
    1
  9
$SNAPSTYLE
 70
    0
  9
$PLIMMIN
 10
0
 20
0
  9
$PLIMMAX
 10
12
 20
9
  9
$UNITMODE
 70
    0
  9
$VISRETAIN
 70
    1
  9
$PLINEGEN
 70
    0
  9
$PSLTSCALE
 70
    1
  9
$TREEDEPTH
 70
 3020
  9
$CMLSTYLE
  2
Standard
  9
$CMLJUST
 70
    0
  9
$CMLSCALE
 40
1
  9
$PROXYGRAPHICS
 70
    1
  9
$MEASUREMENT
 70
    1
  9
$CELWEIGHT
370
   -1
  9
$ENDCAPS
280
    0
  9
$JOINSTYLE
280
    0
  9
$LWDISPLAY
290
    0
  9
$INSUNITS
 70
    4
  9
$HYPERLINKBASE
  1

  9
$STYLESHEET
  1

  9
$XEDIT
290
    1
  9
$CEPSNTYPE
380
    0
  9
$PSTYLEMODE
290
    1
  9
$EXTNAMES
290
    1
  9
$PSVPSCALE
 40
0
  9
$OLESTARTUP
290
    0
  9
$SORTENTS
280
  127
  9
$INDEXCTL
280
    0
  9
$HIDETEXT
280
    1
  9
$XCLIPFRAME
290
    0
  9
$HALOGAP
280
    0
  9
$OBSCOLOR
 70
  257
  9
$OBSLTYPE
280
    0
  9
$INTERSECTIONDISPLAY
280
    0
  9
$INTERSECTIONCOLOR
 70
  257
  9
$DIMASSOC
280
    2
  9
$PROJECTNAME
  1

  9
$CAMERADISPLAY
290
    0
  9
$LENSLENGTH
 40
50
  9
$CAMERAHEIGHT
 40
0
  9
$STEPSPERSEC
 40
2
  9
$STEPSIZE
 40
50
  9
$3DDWFPREC
 40
2
  9
$PSOLWIDTH
 40
5
  9
$PSOLHEIGHT
 40
80
  9
$LOFTANG1
 40
1.570796326794897
  9
$LOFTANG2
 40
1.570796326794897
  9
$LOFTMAG1
 40
0
  9
$LOFTMAG2
 40
0
  9
$LOFTPARAM
 70
    7
  9
$LOFTNORMALS
280
    1
  9
$LATITUDE
 40
1
  9
$LONGITUDE
 40
1
  9
$NORTHDIRECTION
 40
0
  9
$TIMEZONE
 70
-8000
  9
$LIGHTGLYPHDISPLAY
280
    1
  9
$TILEMODELIGHTSYNCH
280
    1
  9
$SOLIDHIST
280
    1
  9
$SHOWHIST
280
    1
  9
$DWFFRAME
280
    2
  9
$DGNFRAME
280
    0
  9
$REALWORLDSCALE
290
    1
  9
$INTERFERECOLOR
 62
    1
  9
$CSHADOW
280
    0
  9
$SHADOWPLANELOCATION
 40
0
  0
ENDSEC
  0
SECTION
  2
CLASSES
  0
ENDSEC
  0
SECTION
  2
TABLES
  0
TABLE
  2
VPORT
  5
8
330
0
100
AcDbSymbolTable
 70
    1
  0
VPORT
  5
31
330
2
100
AcDbSymbolTableRecord
100
AcDbViewportTableRecord
  2
*ACTIVE
 70
    0
 10
0
 20
0
 11
1
 21
1
 12
200.1871500850824
 22
98.51106792724408
 13
0
 23
0
 14
10
 24
10
 15
10
 25
10
 16
0
 26
0
 36
1
 17
0
 27
0
 37
0
 40
221.1553693627689
 41
2.446332737030411
 42
50
 43
0
 44
0
 50
0
 51
0
 71
    0
 72
  100
 73
    1
 74
    3
 75
    0
 76
    1
 77
    0
 78
    0
281
    0
 65
    1
110
0
120
0
130
0
111
1
121
0
131
0
112
0
122
1
132
0
 79
    0
146
0
348
10020
 60
    7
 61
    5
292
1
282
    1
141
0
142
0
 63
  250
421
3358443
  0
ENDTAB
  0
TABLE
  2
LTYPE
  5
5
330
0
100
AcDbSymbolTable
 70
    4
  0
LTYPE
  5
14
330
5
100
AcDbSymbolTableRecord
100
AcDbLinetypeTableRecord
  2
ByBlock
 70
    0
  3

 72
   65
 73
    0
 40
0
  0
LTYPE
  5
15
330
5
100
AcDbSymbolTableRecord
100
AcDbLinetypeTableRecord
  2
ByLayer
 70
    0
  3

 72
   65
 73
    0
 40
0
  0
LTYPE
  5
16
330
5
100
AcDbSymbolTableRecord
100
AcDbLinetypeTableRecord
  2
Continuous
 70
    0
  3
Solid line
 72
   65
 73
    0
 40
0
  0
LTYPE
  5
32
330
5
100
AcDbSymbolTableRecord
100
AcDbLinetypeTableRecord
  2
DOT
 70
    0
  3
Dot . . . . . . . . . . . . . . . . . . . . . .
 72
   65
 73
    2
 40
6.35
 49
0
 74
    0
 49
-6.35
 74
    0
  0
LTYPE
  5
33
330
5
100
AcDbSymbolTableRecord
100
AcDbLinetypeTableRecord
  2
DOTTINY
 70
    0
  3
Dot (.15x) .....................................
 72
   65
 73
    2
 40
0.9525
 49
0
 74
    0
 49
-0.9525
 74
    0
  0
LTYPE
  5
34
330
5
100
AcDbSymbolTableRecord
100
AcDbLinetypeTableRecord
  2
DOT2
 70
    0
  3
Dot (.5x) .....................................
 72
   65
 73
    2
 40
3.175
 49
0
 74
    0
 49
-3.175
 74
    0
  0
LTYPE
  5
35
330
5
100
AcDbSymbolTableRecord
100
AcDbLinetypeTableRecord
  2
DOTX2
 70
    0
  3
Dot (2x) .  .  .  .  .  .  .  .  .  .  .  .  .
 72
   65
 73
    2
 40
12.7
 49
0
 74
    0
 49
-12.7
 74
    0
  0
LTYPE
  5
36
330
5
100
AcDbSymbolTableRecord
100
AcDbLinetypeTableRecord
  2
DASHED
 70
    0
  3
Dashed _ _ _ _ _ _ _ _ _ _ _ _ _ _ _ _ _
 72
   65
 73
    2
 40
19.05
 49
12.7
 74
    0
 49
-6.35
 74
    0
  0
LTYPE
  5
37
330
5
100
AcDbSymbolTableRecord
100
AcDbLinetypeTableRecord
  2
DASHEDTINY
 70
    0
  3
Dashed (.15x) _ _ _ _ _ _ _ _ _ _ _ _ _ _ _ _ _
 72
   65
 73
    2
 40
2.8575
 49
1.905
 74
    0
 49
-0.9525
 74
    0
  0
LTYPE
  5
38
330
5
100
AcDbSymbolTableRecord
100
AcDbLinetypeTableRecord
  2
DASHED2
 70
    0
  3
Dashed (.5x) _ _ _ _ _ _ _ _ _ _ _ _ _ _ _ _ _
 72
   65
 73
    2
 40
9.524999999999999
 49
6.35
 74
    0
 49
-3.175
 74
    0
  0
LTYPE
  5
39
330
5
100
AcDbSymbolTableRecord
100
AcDbLinetypeTableRecord
  2
DASHEDX2
 70
    0
  3
Dashed (2x) ____  ____  ____  ____  ____  ___
 72
   65
 73
    2
 40
38.09999999999999
 49
25.4
 74
    0
 49
-12.7
 74
    0
  0
LTYPE
  5
3A
330
5
100
AcDbSymbolTableRecord
100
AcDbLinetypeTableRecord
  2
DASHDOT
 70
    0
  3
Dash dot __ . __ . __ . __ . __ . __ . __ . __
 72
   65
 73
    4
 40
25.4
 49
12.7
 74
    0
 49
-6.35
 74
    0
 49
0
 74
    0
 49
-6.35
 74
    0
  0
LTYPE
  5
3B
330
5
100
AcDbSymbolTableRecord
100
AcDbLinetypeTableRecord
  2
DASHDOTTINY
 70
    0
  3
Dash dot (.15x) _._._._._._._._._._._._._._._.
 72
   65
 73
    4
 40
3.81
 49
1.905
 74
    0
 49
-0.9525
 74
    0
 49
0
 74
    0
 49
-0.9525
 74
    0
  0
LTYPE
  5
3C
330
5
100
AcDbSymbolTableRecord
100
AcDbLinetypeTableRecord
  2
DASHDOT2
 70
    0
  3
Dash dot (.5x) _._._._._._._._._._._._._._._.
 72
   65
 73
    4
 40
12.7
 49
6.35
 74
    0
 49
-3.175
 74
    0
 49
0
 74
    0
 49
-3.175
 74
    0
  0
LTYPE
  5
3D
330
5
100
AcDbSymbolTableRecord
100
AcDbLinetypeTableRecord
  2
DASHDOTX2
 70
    0
  3
Dash dot (2x) ____  .  ____  .  ____  .  ___
 72
   65
 73
    4
 40
50.8
 49
25.4
 74
    0
 49
-12.7
 74
    0
 49
0
 74
    0
 49
-12.7
 74
    0
  0
LTYPE
  5
3E
330
5
100
AcDbSymbolTableRecord
100
AcDbLinetypeTableRecord
  2
DIVIDE
 70
    0
  3
Divide ____ . . ____ . . ____ . . ____ . . ____
 72
   65
 73
    6
 40
31.75
 49
12.7
 74
    0
 49
-6.35
 74
    0
 49
0
 74
    0
 49
-6.35
 74
    0
 49
0
 74
    0
 49
-6.35
 74
    0
  0
LTYPE
  5
3F
330
5
100
AcDbSymbolTableRecord
100
AcDbLinetypeTableRecord
  2
DIVIDETINY
 70
    0
  3
Divide (.15x) __..__..__..__..__..__..__..__.._
 72
   65
 73
    6
 40
4.7625
 49
1.905
 74
    0
 49
-0.9525
 74
    0
 49
0
 74
    0
 49
-0.9525
 74
    0
 49
0
 74
    0
 49
-0.9525
 74
    0
  0
LTYPE
  5
40
330
5
100
AcDbSymbolTableRecord
100
AcDbLinetypeTableRecord
  2
DIVIDE2
 70
    0
  3
Divide (.5x) __..__..__..__..__..__..__..__.._
 72
   65
 73
    6
 40
15.875
 49
6.35
 74
    0
 49
-3.175
 74
    0
 49
0
 74
    0
 49
-3.175
 74
    0
 49
0
 74
    0
 49
-3.175
 74
    0
  0
LTYPE
  5
41
330
5
100
AcDbSymbolTableRecord
100
AcDbLinetypeTableRecord
  2
DIVIDEX2
 70
    0
  3
Divide (2x) ________  .  .  ________  .  .  _
 72
   65
 73
    6
 40
63.5
 49
25.4
 74
    0
 49
-12.7
 74
    0
 49
0
 74
    0
 49
-12.7
 74
    0
 49
0
 74
    0
 49
-12.7
 74
    0
  0
LTYPE
  5
42
330
5
100
AcDbSymbolTableRecord
100
AcDbLinetypeTableRecord
  2
BORDER
 70
    0
  3
Border __ __ . __ __ . __ __ . __ __ . __ __ .
 72
   65
 73
    6
 40
44.45
 49
12.7
 74
    0
 49
-6.35
 74
    0
 49
12.7
 74
    0
 49
-6.35
 74
    0
 49
0
 74
    0
 49
-6.35
 74
    0
  0
LTYPE
  5
43
330
5
100
AcDbSymbolTableRecord
100
AcDbLinetypeTableRecord
  2
BORDERTINY
 70
    0
  3
Border (.15x) __.__.__.__.__.__.__.__.__.__.__.
 72
   65
 73
    6
 40
6.6675
 49
1.905
 74
    0
 49
-0.9525
 74
    0
 49
1.905
 74
    0
 49
-0.9525
 74
    0
 49
0
 74
    0
 49
-0.9525
 74
    0
  0
LTYPE
  5
44
330
5
100
AcDbSymbolTableRecord
100
AcDbLinetypeTableRecord
  2
BORDER2
 70
    0
  3
Border (.5x) __.__.__.__.__.__.__.__.__.__.__.
 72
   65
 73
    6
 40
22.225
 49
6.35
 74
    0
 49
-3.175
 74
    0
 49
6.35
 74
    0
 49
-3.175
 74
    0
 49
0
 74
    0
 49
-3.175
 74
    0
  0
LTYPE
  5
45
330
5
100
AcDbSymbolTableRecord
100
AcDbLinetypeTableRecord
  2
BORDERX2
 70
    0
  3
Border (2x) ____  ____  .  ____  ____  .  ___
 72
   65
 73
    6
 40
88.89999999999999
 49
25.4
 74
    0
 49
-12.7
 74
    0
 49
25.4
 74
    0
 49
-12.7
 74
    0
 49
0
 74
    0
 49
-12.7
 74
    0
  0
LTYPE
  5
46
330
5
100
AcDbSymbolTableRecord
100
AcDbLinetypeTableRecord
  2
CENTER
 70
    0
  3
Center ____ _ ____ _ ____ _ ____ _ ____ _ ____
 72
   65
 73
    4
 40
50.8
 49
31.75
 74
    0
 49
-6.35
 74
    0
 49
6.35
 74
    0
 49
-6.35
 74
    0
  0
LTYPE
  5
47
330
5
100
AcDbSymbolTableRecord
100
AcDbLinetypeTableRecord
  2
CENTERTINY
 70
    0
  3
Center (.15x) ___ _ ___ _ ___ _ ___ _ ___ _ ___
 72
   65
 73
    4
 40
7.619999999999999
 49
4.7625
 74
    0
 49
-0.9525
 74
    0
 49
0.9525
 74
    0
 49
-0.9525
 74
    0
  0
LTYPE
  5
48
330
5
100
AcDbSymbolTableRecord
100
AcDbLinetypeTableRecord
  2
CENTER2
 70
    0
  3
Center (.5x) ___ _ ___ _ ___ _ ___ _ ___ _ ___
 72
   65
 73
    4
 40
28.575
 49
19.05
 74
    0
 49
-3.175
 74
    0
 49
3.175
 74
    0
 49
-3.175
 74
    0
  0
LTYPE
  5
49
330
5
100
AcDbSymbolTableRecord
100
AcDbLinetypeTableRecord
  2
CENTERX2
 70
    0
  3
Center (2x) ________  __  ________  __  _____
 72
   65
 73
    4
 40
101.6
 49
63.5
 74
    0
 49
-12.7
 74
    0
 49
12.7
 74
    0
 49
-12.7
 74
    0
  0
ENDTAB
  0
TABLE
  2
LAYER
  5
2
330
0
100
AcDbSymbolTable
 70
    1
  0
LAYER
  5
10
330
2
100
AcDbSymbolTableRecord
100
AcDbLayerTableRecord
  2
0
 70
    0
 62
    7
  6
CONTINUOUS
370
   -3
390
F
  0
LAYER
  5
4A
330
2
100
AcDbSymbolTableRecord
100
AcDbLayerTableRecord
  2
layer0
 70
    0
 62
  255
  6
CONTINUOUS
370
   -3
390
F
  0
ENDTAB
  0
TABLE
  2
STYLE
  5
3
330
0
100
AcDbSymbolTable
 70
    3
  0
STYLE
  5
4B
330
2
100
AcDbSymbolTableRecord
100
AcDbTextStyleTableRecord
  2
Standard
 70
    0
 40
0
 41
1
 50
0
 71
    0
 42
1
  3
txt
  4

  0
ENDTAB
  0
TABLE
  2
VIEW
  5
6
330
0
100
AcDbSymbolTable
 70
    0
  0
ENDTAB
  0
TABLE
  2
UCS
  5
7
330
0
100
AcDbSymbolTable
 70
    0
  0
ENDTAB
  0
TABLE
  2
APPID
  5
9
330
0
100
AcDbSymbolTable
 70
    1
  0
APPID
  5
12
330
9
100
AcDbSymbolTableRecord
100
AcDbRegAppTableRecord
  2
ACAD
 70
    0
  0
APPID
  5
4C
330
9
100
AcDbSymbolTableRecord
100
AcDbRegAppTableRecord
  2
LibreCad
 70
    0
  0
ENDTAB
  0
TABLE
  2
DIMSTYLE
  5
A
330
0
100
AcDbSymbolTable
 70
    1
100
AcDbDimStyleTable
 71
    1
  0
DIMSTYLE
105
4D
330
A
100
AcDbSymbolTableRecord
100
AcDbDimStyleTableRecord
  2
Standard
 70
    0
 40
1
 41
0.18
 42
0.0625
 43
0.38
 44
0.18
 45
0
 46
0
 47
0
 48
0
 49
1
140
0.18
141
0.09
142
0
143
25.4
144
1
145
0
146
1
147
0.09
148
0
 71
    0
 72
    0
 73
    1
 74
    1
 75
    0
 76
    0
 77
    0
 78
    0
 79
    0
170
    0
171
    2
172
    0
173
    0
174
    0
175
    0
176
    0
177
    0
178
    0
179
    0
271
    4
272
    4
273
    2
274
    2
275
    0
276
    0
277
    2
278
   46
279
    0
280
    0
281
    0
282
    0
283
    1
284
    0
285
    0
286
    0
288
    0
289
    3
340
4B
  0
ENDTAB
  0
TABLE
  2
BLOCK_RECORD
  5
1
330
0
100
AcDbSymbolTable
 70
    2
  0
BLOCK_RECORD
  5
1F
330
1
100
AcDbSymbolTableRecord
100
AcDbBlockTableRecord
  2
*Model_Space
 70
    0
280
    1
281
    0
  0
BLOCK_RECORD
  5
1E
330
1
100
AcDbSymbolTableRecord
100
AcDbBlockTableRecord
  2
*Paper_Space
 70
    0
280
    1
281
    0
  0
ENDTAB
  0
ENDSEC
  0
SECTION
  2
BLOCKS
  0
BLOCK
  5
20
330
1F
100
AcDbEntity
  8
0
100
AcDbBlockBegin
  2
*Model_Space
 70
    0
 10
0
 20
0
 30
0
  3
*Model_Space
  1

  0
ENDBLK
  5
21
330
1F
100
AcDbEntity
  8
0
100
AcDbBlockEnd
  0
BLOCK
  5
1C
330
1B
100
AcDbEntity
  8
0
100
AcDbBlockBegin
  2
*Paper_Space
 70
    0
 10
0
 20
0
 30
0
  3
*Paper_Space
  1

  0
ENDBLK
  5
1D
330
1F
100
AcDbEntity
  8
0
100
AcDbBlockEnd
  0
ENDSEC
  0
SECTION
  2
ENTITIES
  0
LWPOLYLINE
  5
4E
100
AcDbEntity
  8
0
  6
CONTINUOUS
 62
  256
370
   -3
100
AcDbPolyline
 90
   80
 70
    0
 43
0
 10
68.70693176997401
 20
172.9351443095193
 10
53.46744838327291
 20
128.0080479804573
 10
52.26304288612634
 20
123.9743114877135
 10
51.28244543647738
 20
120.2251747193286
 10
50.13206550278998
 20
114.942318974561
 10
49.36581935979726
 20
110.24157532055
 10
48.98010464356063
 20
106.9709795787117
 10
48.60806314594324
 20
100.1083348554002
 10
48.77659797742823
 20
94.65785229726876
 10
49.36304724002972
 20
89.36504202695214
 10
50.13099028393313
 20
85.2183701718415
 10
52.0594314976594
 20
78.41357934077419
 10
54.22061089456988
 20
73.0882210756462
 10
56.37395166384763
 20
68.8531170555348
 10
59.87198099288859
 20
63.33574718400384
 10
63.26356301194634
 20
58.9643959647747
 10
67.11811625986974
 20
54.7274798109801
 10
70.42348806413125
 20
51.53996721050717
 10
74.30590088654449
 20
48.23058087499877
 10
78.47969374436401
 20
45.1394863610142
 10
82.84475978887092
 20
42.36394019083095
 10
87.51956983606139
 20
39.85441989532095
 10
92.21265991984244
 20
37.74499657411551
 10
96.99632070008526
 20
35.95433771067693
 10
102.6779599283719
 20
34.2456942054504
 10
106.4430697116455
 20
33.33405374605983
 10
111.0843454569546
 20
32.4291162917173
 10
115.7957432835625
 20
31.74499674553685
 10
121.0093479346884
 20
31.24357618444223
 10
125.0760169572264
 20
31.02606737260933
 10
129.6756015703728
 20
30.95846824427817
 10
134.3029765860725
 20
31.08302742382605
 10
138.9031370405992
 20
31.39877708356793
 10
143.1477008926
 20
31.8605890635985
 10
148.0725332481885
 20
32.60523466983844
 10
152.6114769115312
 20
33.49179392176556
 10
157.0791100530942
 20
34.5520733440633
 10
161.489530934283
 20
35.78368831517664
 10
165.838777908015
 20
37.18083427930438
 10
169.5663018997148
 20
38.53552554989714
 42
-0.2142234122366312
 10
236.4609417761077
 20
38.5355255498969
 10
240.1884657678071
 20
37.18083427930438
 10
244.5377127415392
 20
35.78368831517664
 10
248.9481336227278
 20
34.5520733440633
 10
253.415766764291
 20
33.49179392176556
 10
257.9547104276337
 20
32.60523466983844
 10
262.8795427832226
 20
31.8605890635985
 10
267.1241066352229
 20
31.39877708356793
 10
271.7242670897501
 20
31.08302742382605
 10
276.3516421054498
 20
30.95846824427817
 10
280.9512267185953
 20
31.02606737260933
 10
285.0178957411342
 20
31.24357618444223
 10
290.2315003922588
 20
31.74499674553673
 10
294.9428982188671
 20
32.4291162917173
 10
299.5841739641765
 20
33.33405374605983
 10
303.349283747453
 20
34.2456942054511
 10
309.0309229757365
 20
35.95433771067669
 10
313.8145837559807
 20
37.74499657411585
 10
318.5076738397595
 20
39.85441989532038
 10
323.1824838869504
 20
42.36394019083072
 10
327.5475499314608
 20
45.13948636101568
 10
331.7213427892755
 20
48.23058087499706
 10
335.6037556116905
 20
51.53996721050717
 10
338.9091274159512
 20
54.72747981097907
 10
342.7636806638768
 20
58.96439596477538
 10
346.1552626829349
 20
63.33574718400521
 10
349.6532920119739
 20
68.8531170555333
 10
351.8066327812523
 20
73.088221075647
 10
353.9678121781624
 20
78.41357934077396
 10
355.8962533918895
 20
85.21837017184203
 10
356.664196435792
 20
89.36504202694915
 10
357.250645698394
 20
94.65785229726887
 10
357.4191805298785
 20
100.1083348554006
 10
357.0471390322614
 20
106.9709795787133
 10
356.661424316025
 20
110.2415753205486
 10
355.8951781730318
 20
114.9423189745621
 10
354.7447982393442
 20
120.2251747193317
 10
353.7642007896961
 20
123.974311487712
 10
352.5597952925501
 20
128.0080479804549
 10
337.3203119058492
 20
172.9351443095182
  0
POINT
  5
4F
100
AcDbEntity
  8
0
  6
CONTINUOUS
 62
    7
370
   -3
100
AcDbPoint
 10
364.4541872636389
 20
21.41709698843355
  0
POINT
  5
50
100
AcDbEntity
  8
0
  6
CONTINUOUS
 62
    7
370
   -3
100
AcDbPoint
 10
356.0978163797983
 20
19.94364334080583
  0
POINT
  5
51
100
AcDbEntity
  8
0
  6
CONTINUOUS
 62
    7
370
   -3
100
AcDbPoint
 10
359.5392749979049
 20
24.8585556065398
  0
POINT
  5
52
100
AcDbEntity
  8
0
  6
CONTINUOUS
 62
    7
370
   -3
100
AcDbPoint
 10
362.980733616011
 20
29.77346787227375
  0
POINT
  5
53
100
AcDbEntity
  8
0
  6
CONTINUOUS
 62
    7
370
   -3
100
AcDbPoint
 10
351.1829041140642
 20
23.3851019589121
  0
POINT
  5
54
100
AcDbEntity
  8
0
  6
CONTINUOUS
 62
    7
370
   -3
100
AcDbPoint
 10
358.065821350277
 20
33.21492649038
  0
POINT
  5
55
100
AcDbEntity
  8
0
  6
CONTINUOUS
 62
    7
370
   -3
100
AcDbPoint
 10
361.5072799683832
 20
38.12983875611397
  0
POINT
  5
56
100
AcDbEntity
  8
0
  6
CONTINUOUS
 62
    7
370
   -3
100
AcDbPoint
 10
364.9487385864895
 20
43.0447510218478
  0
POINT
  5
57
100
AcDbEntity
  8
0
  6
CONTINUOUS
 62
    7
370
   -3
100
AcDbPoint
 10
342.826533230224
 20
21.91164831128439
  0
POINT
  5
58
100
AcDbEntity
  8
0
  6
CONTINUOUS
 62
    7
370
   -3
100
AcDbPoint
 10
346.2679918483301
 20
26.82656057701834
  0
POINT
  5
59
100
AcDbEntity
  8
0
  6
CONTINUOUS
 62
    7
370
   -3
100
AcDbPoint
 10
353.1509090845428
 20
36.65638510848626
  0
POINT
  5
5A
100
AcDbEntity
  8
0
  6
CONTINUOUS
 62
    7
370
   -3
100
AcDbPoint
 10
356.5923677026491
 20
41.57129737422023
  0
POINT
  5
5B
100
AcDbEntity
  8
0
  6
CONTINUOUS
 62
    7
370
   -3
100
AcDbPoint
 10
360.0338263207554
 20
46.48620963995406
  0
POINT
  5
5C
100
AcDbEntity
  8
0
  6
CONTINUOUS
 62
    7
370
   -3
100
AcDbPoint
 10
363.4752849388617
 20
51.40112190568802
  0
POINT
  5
5D
100
AcDbEntity
  8
0
  6
CONTINUOUS
 62
    7
370
   -3
100
AcDbPoint
 10
366.9167435569682
 20
56.31603417142199
  0
POINT
  5
5E
100
AcDbEntity
  8
0
  6
CONTINUOUS
 62
    7
370
   -3
100
AcDbPoint
 10
334.470162346384
 20
20.43819466365691
  0
POINT
  5
5F
100
AcDbEntity
  8
0
  6
CONTINUOUS
 62
    7
370
   -3
100
AcDbPoint
 10
337.9116209644903
 20
25.35310692939076
  0
POINT
  5
60
100
AcDbEntity
  8
0
  6
CONTINUOUS
 62
    7
370
   -3
100
AcDbPoint
 10
341.3530795825965
 20
30.26801919512472
  0
POINT
  5
61
100
AcDbEntity
  8
0
  6
CONTINUOUS
 62
    7
370
   -3
100
AcDbPoint
 10
348.2359968188093
 20
40.09784372659263
  0
POINT
  5
62
100
AcDbEntity
  8
0
  6
CONTINUOUS
 62
    7
370
   -3
100
AcDbPoint
 10
355.1189140550218
 20
49.92766825806044
  0
POINT
  5
63
100
AcDbEntity
  8
0
  6
CONTINUOUS
 62
    7
370
   -3
100
AcDbPoint
 10
358.560372673128
 20
54.84258052379439
  0
POINT
  5
64
100
AcDbEntity
  8
0
  6
CONTINUOUS
 62
    7
370
   -3
100
AcDbPoint
 10
362.0018312912345
 20
59.75749278952836
  0
POINT
  5
65
100
AcDbEntity
  8
0
  6
CONTINUOUS
 62
    7
370
   -3
100
AcDbPoint
 10
365.4432899093408
 20
64.67240505526233
  0
POINT
  5
66
100
AcDbEntity
  8
0
  6
CONTINUOUS
 62
    7
370
   -3
100
AcDbPoint
 10
368.8847485274471
 20
69.58731732099625
  0
POINT
  5
67
100
AcDbEntity
  8
0
  6
CONTINUOUS
 62
    7
370
   -3
100
AcDbPoint
 10
329.55525008065
 20
23.87965328176316
  0
POINT
  5
68
100
AcDbEntity
  8
0
  6
CONTINUOUS
 62
    7
370
   -3
100
AcDbPoint
 10
332.996708698756
 20
28.79456554749701
  0
POINT
  5
69
100
AcDbEntity
  8
0
  6
CONTINUOUS
 62
    7
370
   -3
100
AcDbPoint
 10
346.7625431711815
 20
48.45421461043283
  0
POINT
  5
6A
100
AcDbEntity
  8
0
  6
CONTINUOUS
 62
    7
370
   -3
100
AcDbPoint
 10
350.2040017892876
 20
53.36912687616668
  0
POINT
  5
6B
100
AcDbEntity
  8
0
  6
CONTINUOUS
 62
    7
370
   -3
100
AcDbPoint
 10
353.645460407394
 20
58.28403914190065
  0
POINT
  5
6C
100
AcDbEntity
  8
0
  6
CONTINUOUS
 62
    7
370
   -3
100
AcDbPoint
 10
357.0869190255005
 20
63.19895140763462
  0
POINT
  5
6D
100
AcDbEntity
  8
0
  6
CONTINUOUS
 62
    7
370
   -3
100
AcDbPoint
 10
360.5283776436067
 20
68.11386367336854
  0
POINT
  5
6E
100
AcDbEntity
  8
0
  6
CONTINUOUS
 62
    7
370
   -3
100
AcDbPoint
 10
363.9698362617129
 20
73.02877593910253
  0
POINT
  5
6F
100
AcDbEntity
  8
0
  6
CONTINUOUS
 62
    7
370
   -3
100
AcDbPoint
 10
367.4112948798192
 20
77.94368820483639
  0
POINT
  5
70
100
AcDbEntity
  8
0
  6
CONTINUOUS
 62
    7
370
   -3
100
AcDbPoint
 10
370.8527534979255
 20
82.85860047057032
  0
POINT
  5
71
100
AcDbEntity
  8
0
  6
CONTINUOUS
 62
    7
370
   -3
100
AcDbPoint
 10
321.1988791968094
 20
22.40619963413545
  0
POINT
  5
72
100
AcDbEntity
  8
0
  6
CONTINUOUS
 62
    7
370
   -3
100
AcDbPoint
 10
324.6403378149159
 20
27.32111189986941
  0
POINT
  5
73
100
AcDbEntity
  8
0
  6
CONTINUOUS
 62
    7
370
   -3
100
AcDbPoint
 10
341.8476309054473
 20
51.89567322853909
  0
POINT
  5
74
100
AcDbEntity
  8
0
  6
CONTINUOUS
 62
    7
370
   -3
100
AcDbPoint
 10
345.2890895235537
 20
56.81058549427294
  0
POINT
  5
75
100
AcDbEntity
  8
0
  6
CONTINUOUS
 62
    7
370
   -3
100
AcDbPoint
 10
348.7305481416599
 20
61.72549776000691
  0
POINT
  5
76
100
AcDbEntity
  8
0
  6
CONTINUOUS
 62
    7
370
   -3
100
AcDbPoint
 10
352.1720067597663
 20
66.64041002574083
  0
POINT
  5
77
100
AcDbEntity
  8
0
  6
CONTINUOUS
 62
    7
370
   -3
100
AcDbPoint
 10
355.6134653778725
 20
71.55532229147482
  0
POINT
  5
78
100
AcDbEntity
  8
0
  6
CONTINUOUS
 62
    7
370
   -3
100
AcDbPoint
 10
359.0549239959789
 20
76.47023455720878
  0
POINT
  5
79
100
AcDbEntity
  8
0
  6
CONTINUOUS
 62
    7
370
   -3
100
AcDbPoint
 10
362.4963826140852
 20
81.38514682294262
  0
POINT
  5
7A
100
AcDbEntity
  8
0
  6
CONTINUOUS
 62
    7
370
   -3
100
AcDbPoint
 10
365.9378412321913
 20
86.30005908867659
  0
POINT
  5
7B
100
AcDbEntity
  8
0
  6
CONTINUOUS
 62
    7
370
   -3
100
AcDbPoint
 10
369.3792998502979
 20
91.21497135441054
  0
POINT
  5
7C
100
AcDbEntity
  8
0
  6
CONTINUOUS
 62
    7
370
   -3
100
AcDbPoint
 10
372.820758468404
 20
96.12988362014453
  0
POINT
  5
7D
100
AcDbEntity
  8
0
  6
CONTINUOUS
 62
    7
370
   -3
100
AcDbPoint
 10
316.2839669310758
 20
25.84765825224171
  0
POINT
  5
7E
100
AcDbEntity
  8
0
  6
CONTINUOUS
 62
    7
370
   -3
100
AcDbPoint
 10
319.7254255491818
 20
30.76257051797567
  0
POINT
  5
7F
100
AcDbEntity
  8
0
  6
CONTINUOUS
 62
    7
370
   -3
100
AcDbPoint
 10
323.1668841672879
 20
35.6774827837095
  0
POINT
  5
80
100
AcDbEntity
  8
0
  6
CONTINUOUS
 62
    7
370
   -3
100
AcDbPoint
 10
326.6083427853943
 20
40.59239504944347
  0
POINT
  5
81
100
AcDbEntity
  8
0
  6
CONTINUOUS
 62
    7
370
   -3
100
AcDbPoint
 10
330.0498014035008
 20
45.50730731517741
  0
POINT
  5
82
100
AcDbEntity
  8
0
  6
CONTINUOUS
 62
    7
370
   -3
100
AcDbPoint
 10
357.581470348351
 20
84.82660544104888
  0
POINT
  5
83
100
AcDbEntity
  8
0
  6
CONTINUOUS
 62
    7
370
   -3
100
AcDbPoint
 10
361.0229289664573
 20
89.74151770678286
  0
POINT
  5
84
100
AcDbEntity
  8
0
  6
CONTINUOUS
 62
    7
370
   -3
100
AcDbPoint
 10
364.4643875845638
 20
94.6564299725168
  0
POINT
  5
85
100
AcDbEntity
  8
0
  6
CONTINUOUS
 62
    7
370
   -3
100
AcDbPoint
 10
367.9058462026701
 20
99.57134223825079
  0
POINT
  5
86
100
AcDbEntity
  8
0
  6
CONTINUOUS
 62
    7
370
   -3
100
AcDbPoint
 10
371.3473048207763
 20
104.4862545039846
  0
POINT
  5
87
100
AcDbEntity
  8
0
  6
CONTINUOUS
 62
    7
370
   -3
100
AcDbPoint
 10
374.7887634388825
 20
109.4011667697185
  0
POINT
  5
88
100
AcDbEntity
  8
0
  6
CONTINUOUS
 62
    7
370
   -3
100
AcDbPoint
 10
307.9275960472357
 20
24.374204604614
  0
POINT
  5
89
100
AcDbEntity
  8
0
  6
CONTINUOUS
 62
    7
370
   -3
100
AcDbPoint
 10
311.3690546653422
 20
29.28911687034796
  0
POINT
  5
8A
100
AcDbEntity
  8
0
  6
CONTINUOUS
 62
    7
370
   -3
100
AcDbPoint
 10
314.8105132834481
 20
34.20402913608191
  0
POINT
  5
8B
100
AcDbEntity
  8
0
  6
CONTINUOUS
 62
    7
370
   -3
100
AcDbPoint
 10
318.2519719015543
 20
39.11894140181577
  0
POINT
  5
8C
100
AcDbEntity
  8
0
  6
CONTINUOUS
 62
    7
370
   -3
100
AcDbPoint
 10
359.5494753188302
 20
98.09788859062309
  0
POINT
  5
8D
100
AcDbEntity
  8
0
  6
CONTINUOUS
 62
    7
370
   -3
100
AcDbPoint
 10
362.9909339369365
 20
103.0128008563569
  0
POINT
  5
8E
100
AcDbEntity
  8
0
  6
CONTINUOUS
 62
    7
370
   -3
100
AcDbPoint
 10
366.4323925550427
 20
107.9277131220909
  0
POINT
  5
8F
100
AcDbEntity
  8
0
  6
CONTINUOUS
 62
    7
370
   -3
100
AcDbPoint
 10
369.873851173149
 20
112.8426253878249
  0
POINT
  5
90
100
AcDbEntity
  8
0
  6
CONTINUOUS
 62
    7
370
   -3
100
AcDbPoint
 10
373.3153097912552
 20
117.7575376535587
  0
POINT
  5
91
100
AcDbEntity
  8
0
  6
CONTINUOUS
 62
    7
370
   -3
100
AcDbPoint
 10
376.7567684093616
 20
122.6724499192927
  0
POINT
  5
92
100
AcDbEntity
  8
0
  6
CONTINUOUS
 62
    7
370
   -3
100
AcDbPoint
 10
303.0126837815016
 20
27.81566322272025
  0
POINT
  5
93
100
AcDbEntity
  8
0
  6
CONTINUOUS
 62
    7
370
   -3
100
AcDbPoint
 10
306.4541423996077
 20
32.73057548845421
  0
POINT
  5
94
100
AcDbEntity
  8
0
  6
CONTINUOUS
 62
    7
370
   -3
100
AcDbPoint
 10
358.0760216712024
 20
106.4542594744632
  0
POINT
  5
95
100
AcDbEntity
  8
0
  6
CONTINUOUS
 62
    7
370
   -3
100
AcDbPoint
 10
361.5174802893085
 20
111.3691717401972
  0
POINT
  5
96
100
AcDbEntity
  8
0
  6
CONTINUOUS
 62
    7
370
   -3
100
AcDbPoint
 10
364.9589389074149
 20
116.284084005931
  0
POINT
  5
97
100
AcDbEntity
  8
0
  6
CONTINUOUS
 62
    7
370
   -3
100
AcDbPoint
 10
368.400397525521
 20
121.198996271665
  0
POINT
  5
98
100
AcDbEntity
  8
0
  6
CONTINUOUS
 62
    7
370
   -3
100
AcDbPoint
 10
371.8418561436276
 20
126.1139085373989
  0
POINT
  5
99
100
AcDbEntity
  8
0
  6
CONTINUOUS
 62
    7
370
   -3
100
AcDbPoint
 10
375.2833147617338
 20
131.0288208031329
  0
POINT
  5
9A
100
AcDbEntity
  8
0
  6
CONTINUOUS
 62
    7
370
   -3
100
AcDbPoint
 10
378.72477337984
 20
135.9437330688669
  0
POINT
  5
9B
100
AcDbEntity
  8
0
  6
CONTINUOUS
 62
    7
370
   -3
100
AcDbPoint
 10
294.656312897661
 20
26.34220957509255
  0
POINT
  5
9C
100
AcDbEntity
  8
0
  6
CONTINUOUS
 62
    7
370
   -3
100
AcDbPoint
 10
298.0977715157676
 20
31.2571218408265
  0
POINT
  5
9D
100
AcDbEntity
  8
0
  6
CONTINUOUS
 62
    7
370
   -3
100
AcDbPoint
 10
356.6025680235745
 20
114.8106303583034
  0
POINT
  5
9E
100
AcDbEntity
  8
0
  6
CONTINUOUS
 62
    7
370
   -3
100
AcDbPoint
 10
360.0440266416808
 20
119.7255426240373
  0
POINT
  5
9F
100
AcDbEntity
  8
0
  6
CONTINUOUS
 62
    7
370
   -3
100
AcDbPoint
 10
363.4854852597871
 20
124.6404548897712
  0
POINT
  5
A0
100
AcDbEntity
  8
0
  6
CONTINUOUS
 62
    7
370
   -3
100
AcDbPoint
 10
366.9269438778935
 20
129.5553671555052
  0
POINT
  5
A1
100
AcDbEntity
  8
0
  6
CONTINUOUS
 62
    7
370
   -3
100
AcDbPoint
 10
370.3684024959998
 20
134.4702794212391
  0
POINT
  5
A2
100
AcDbEntity
  8
0
  6
CONTINUOUS
 62
    7
370
   -3
100
AcDbPoint
 10
373.8098611141061
 20
139.3851916869731
  0
POINT
  5
A3
100
AcDbEntity
  8
0
  6
CONTINUOUS
 62
    7
370
   -3
100
AcDbPoint
 10
286.299942013821
 20
24.86875592746483
  0
POINT
  5
A4
100
AcDbEntity
  8
0
  6
CONTINUOUS
 62
    7
370
   -3
100
AcDbPoint
 10
289.741400631927
 20
29.7836681931988
  0
POINT
  5
A5
100
AcDbEntity
  8
0
  6
CONTINUOUS
 62
    7
370
   -3
100
AcDbPoint
 10
355.1291143759466
 20
123.1670012421435
  0
POINT
  5
A6
100
AcDbEntity
  8
0
  6
CONTINUOUS
 62
    7
370
   -3
100
AcDbPoint
 10
358.570572994053
 20
128.0819135078775
  0
POINT
  5
A7
100
AcDbEntity
  8
0
  6
CONTINUOUS
 62
    7
370
   -3
100
AcDbPoint
 10
362.0120316121595
 20
132.9968257736114
  0
POINT
  5
A8
100
AcDbEntity
  8
0
  6
CONTINUOUS
 62
    7
370
   -3
100
AcDbPoint
 10
365.4534902302657
 20
137.9117380393454
  0
POINT
  5
A9
100
AcDbEntity
  8
0
  6
CONTINUOUS
 62
    7
370
   -3
100
AcDbPoint
 10
368.894948848372
 20
142.8266503050794
  0
POINT
  5
AA
100
AcDbEntity
  8
0
  6
CONTINUOUS
 62
    7
370
   -3
100
AcDbPoint
 10
281.3850297480873
 20
28.31021454557109
  0
POINT
  5
AB
100
AcDbEntity
  8
0
  6
CONTINUOUS
 62
    7
370
   -3
100
AcDbPoint
 10
353.6556607283193
 20
131.5233721259837
  0
POINT
  5
AC
100
AcDbEntity
  8
0
  6
CONTINUOUS
 62
    7
370
   -3
100
AcDbPoint
 10
357.0971193464258
 20
136.4382843917177
  0
POINT
  5
AD
100
AcDbEntity
  8
0
  6
CONTINUOUS
 62
    7
370
   -3
100
AcDbPoint
 10
360.538577964532
 20
141.3531966574517
  0
POINT
  5
AE
100
AcDbEntity
  8
0
  6
CONTINUOUS
 62
    7
370
   -3
100
AcDbPoint
 10
363.9800365826383
 20
146.2681089231856
  0
POINT
  5
AF
100
AcDbEntity
  8
0
  6
CONTINUOUS
 62
    7
370
   -3
100
AcDbPoint
 10
273.0286588642468
 20
26.83676089794361
  0
POINT
  5
B0
100
AcDbEntity
  8
0
  6
CONTINUOUS
 62
    7
370
   -3
100
AcDbPoint
 10
352.1822070806917
 20
139.879743009824
  0
POINT
  5
B1
100
AcDbEntity
  8
0
  6
CONTINUOUS
 62
    7
370
   -3
100
AcDbPoint
 10
355.623665698798
 20
144.794655275558
  0
POINT
  5
B2
100
AcDbEntity
  8
0
  6
CONTINUOUS
 62
    7
370
   -3
100
AcDbPoint
 10
359.0651243169043
 20
149.709567541292
  0
POINT
  5
B3
100
AcDbEntity
  8
0
  6
CONTINUOUS
 62
    7
370
   -3
100
AcDbPoint
 10
268.1137465985127
 20
30.27821951604986
  0
POINT
  5
B4
100
AcDbEntity
  8
0
  6
CONTINUOUS
 62
    7
370
   -3
100
AcDbPoint
 10
350.7087534330638
 20
148.2361138936644
  0
POINT
  5
B5
100
AcDbEntity
  8
0
  6
CONTINUOUS
 62
    7
370
   -3
100
AcDbPoint
 10
354.1502120511702
 20
153.1510261593983
  0
POINT
  5
B6
100
AcDbEntity
  8
0
  6
CONTINUOUS
 62
    7
370
   -3
100
AcDbPoint
 10
259.7573757146726
 20
28.80476586842216
  0
POINT
  5
B7
100
AcDbEntity
  8
0
  6
CONTINUOUS
 62
    7
370
   -3
100
AcDbPoint
 10
345.7938411673298
 20
151.6775725117705
  0
POINT
  5
B8
100
AcDbEntity
  8
0
  6
CONTINUOUS
 62
    7
370
   -3
100
AcDbPoint
 10
349.235299785436
 20
156.5924847775045
  0
POINT
  5
B9
100
AcDbEntity
  8
0
  6
CONTINUOUS
 62
    7
370
   -3
100
AcDbPoint
 10
254.842463448939
 20
32.24622448652841
  0
POINT
  5
BA
100
AcDbEntity
  8
0
  6
CONTINUOUS
 62
    7
370
   -3
100
AcDbPoint
 10
344.3203875197025
 20
160.0339433956108
  0
POINT
  5
BB
100
AcDbEntity
  8
0
  6
CONTINUOUS
 62
    7
370
   -3
100
AcDbPoint
 10
246.4860925650983
 20
30.7727708389007
  0
POINT
  5
BC
100
AcDbEntity
  8
0
  6
CONTINUOUS
 62
    7
370
   -3
100
AcDbPoint
 10
241.5711802993643
 20
34.21422945700695
  0
POINT
  5
BD
100
AcDbEntity
  8
0
  6
CONTINUOUS
 62
    7
370
   -3
100
AcDbPoint
 10
233.2148094155237
 20
32.74077580937925
  0
POINT
  5
BE
100
AcDbEntity
  8
0
  6
CONTINUOUS
 62
    7
370
   -3
100
AcDbPoint
 10
236.6562680336302
 20
37.6556880751132
  0
POINT
  5
BF
100
AcDbEntity
  8
0
  6
CONTINUOUS
 62
    7
370
   -3
100
AcDbPoint
 10
224.8584385316842
 20
31.26732216175155
  0
POINT
  5
C0
100
AcDbEntity
  8
0
  6
CONTINUOUS
 62
    7
370
   -3
100
AcDbPoint
 10
228.2998971497901
 20
36.1822344274855
  0
POINT
  5
C1
100
AcDbEntity
  8
0
  6
CONTINUOUS
 62
    7
370
   -3
100
AcDbPoint
 10
219.94352626595
 20
34.7087807798578
  0
POINT
  5
C2
100
AcDbEntity
  8
0
  6
CONTINUOUS
 62
    7
370
   -3
100
AcDbPoint
 10
223.3849848840561
 20
39.62369304559176
  0
POINT
  5
C3
100
AcDbEntity
  8
0
  6
CONTINUOUS
 62
    7
370
   -3
100
AcDbPoint
 10
211.5871553821095
 20
33.2353271322302
  0
POINT
  5
C4
100
AcDbEntity
  8
0
  6
CONTINUOUS
 62
    7
370
   -3
100
AcDbPoint
 10
215.028614000216
 20
38.15023939796405
  0
POINT
  5
C5
100
AcDbEntity
  8
0
  6
CONTINUOUS
 62
    7
370
   -3
100
AcDbPoint
 10
218.470072618322
 20
43.06515166369798
  0
POINT
  5
C6
100
AcDbEntity
  8
0
  6
CONTINUOUS
 62
    7
370
   -3
100
AcDbPoint
 10
203.230784498269
 20
31.7618734846026
  0
POINT
  5
C7
100
AcDbEntity
  8
0
  6
CONTINUOUS
 62
    7
370
   -3
100
AcDbPoint
 10
206.6722431163754
 20
36.67678575033657
  0
POINT
  5
C8
100
AcDbEntity
  8
0
  6
CONTINUOUS
 62
    7
370
   -3
100
AcDbPoint
 10
210.1137017344819
 20
41.59169801607041
  0
POINT
  5
C9
100
AcDbEntity
  8
0
  6
CONTINUOUS
 62
    7
370
   -3
100
AcDbPoint
 10
198.3158722325353
 20
35.20333210270886
  0
POINT
  5
CA
100
AcDbEntity
  8
0
  6
CONTINUOUS
 62
    7
370
   -3
100
AcDbPoint
 10
201.7573308506418
 20
40.11824436844281
  0
POINT
  5
CB
100
AcDbEntity
  8
0
  6
CONTINUOUS
 62
    7
370
   -3
100
AcDbPoint
 10
205.1987894687484
 20
45.03315663417665
  0
POINT
  5
CC
100
AcDbEntity
  8
0
  6
CONTINUOUS
 62
    7
370
   -3
100
AcDbPoint
 10
189.9595013486952
 20
33.72987845508114
  0
POINT
  5
CD
100
AcDbEntity
  8
0
  6
CONTINUOUS
 62
    7
370
   -3
100
AcDbPoint
 10
193.4009599668013
 20
38.64479072081512
  0
POINT
  5
CE
100
AcDbEntity
  8
0
  6
CONTINUOUS
 62
    7
370
   -3
100
AcDbPoint
 10
196.8424185849077
 20
43.55970298654906
  0
POINT
  5
CF
100
AcDbEntity
  8
0
  6
CONTINUOUS
 62
    7
370
   -3
100
AcDbPoint
 10
181.6031304648546
 20
32.25642480745345
  0
POINT
  5
D0
100
AcDbEntity
  8
0
  6
CONTINUOUS
 62
    7
370
   -3
100
AcDbPoint
 10
185.0445890829611
 20
37.1713370731874
  0
POINT
  5
D1
100
AcDbEntity
  8
0
  6
CONTINUOUS
 62
    7
370
   -3
100
AcDbPoint
 10
188.4860477010671
 20
42.08624933892134
  0
POINT
  5
D2
100
AcDbEntity
  8
0
  6
CONTINUOUS
 62
    7
370
   -3
100
AcDbPoint
 10
173.2467595810145
 20
30.78297115982586
  0
POINT
  5
D3
100
AcDbEntity
  8
0
  6
CONTINUOUS
 62
    7
370
   -3
100
AcDbPoint
 10
176.6882181991205
 20
35.69788342555969
  0
POINT
  5
D4
100
AcDbEntity
  8
0
  6
CONTINUOUS
 62
    7
370
   -3
100
AcDbPoint
 10
180.129676817227
 20
40.61279569129365
  0
POINT
  5
D5
100
AcDbEntity
  8
0
  6
CONTINUOUS
 62
    7
370
   -3
100
AcDbPoint
 10
168.331847315281
 20
34.2244297779321
  0
POINT
  5
D6
100
AcDbEntity
  8
0
  6
CONTINUOUS
 62
    7
370
   -3
100
AcDbPoint
 10
171.7733059333869
 20
39.13934204366595
  0
POINT
  5
D7
100
AcDbEntity
  8
0
  6
CONTINUOUS
 62
    7
370
   -3
100
AcDbPoint
 10
159.9754764314403
 20
32.75097613030439
  0
POINT
  5
D8
100
AcDbEntity
  8
0
  6
CONTINUOUS
 62
    7
370
   -3
100
AcDbPoint
 10
151.6191055475998
 20
31.27752248267668
  0
POINT
  5
D9
100
AcDbEntity
  8
0
  6
CONTINUOUS
 62
    7
370
   -3
100
AcDbPoint
 10
143.2627346637597
 20
29.80406883504899
  0
POINT
  5
DA
100
AcDbEntity
  8
0
  6
CONTINUOUS
 62
    7
370
   -3
100
AcDbPoint
 10
134.9063637799196
 20
28.3306151874215
  0
POINT
  5
DB
100
AcDbEntity
  8
0
  6
CONTINUOUS
 62
    7
370
   -3
100
AcDbPoint
 10
126.5499928960795
 20
26.8571615397938
  0
POINT
  5
DC
100
AcDbEntity
  8
0
  6
CONTINUOUS
 62
    7
370
   -3
100
AcDbPoint
 10
121.6350806303454
 20
30.29862015790005
  0
POINT
  5
DD
100
AcDbEntity
  8
0
  6
CONTINUOUS
 62
    7
370
   -3
100
AcDbPoint
 10
113.2787097465048
 20
28.82516651027234
  0
POINT
  5
DE
100
AcDbEntity
  8
0
  6
CONTINUOUS
 62
    7
370
   -3
100
AcDbPoint
 10
104.9223388626647
 20
27.35171286264463
  0
POINT
  5
DF
100
AcDbEntity
  8
0
  6
CONTINUOUS
 62
    7
370
   -3
100
AcDbPoint
 10
108.3637974807712
 20
32.26662512837859
  0
POINT
  5
E0
100
AcDbEntity
  8
0
  6
CONTINUOUS
 62
    7
370
   -3
100
AcDbPoint
 10
96.56596797882465
 20
25.87825921501693
  0
POINT
  5
E1
100
AcDbEntity
  8
0
  6
CONTINUOUS
 62
    7
370
   -3
100
AcDbPoint
 10
100.0074265969307
 20
30.79317148075089
  0
POINT
  5
E2
100
AcDbEntity
  8
0
  6
CONTINUOUS
 62
    7
370
   -3
100
AcDbPoint
 10
88.20959709498418
 20
24.40480556738934
  0
POINT
  5
E3
100
AcDbEntity
  8
0
  6
CONTINUOUS
 62
    7
370
   -3
100
AcDbPoint
 10
91.65105571309066
 20
29.31971783312319
  0
POINT
  5
E4
100
AcDbEntity
  8
0
  6
CONTINUOUS
 62
    7
370
   -3
100
AcDbPoint
 10
95.09251433119668
 20
34.23463009885715
  0
POINT
  5
E5
100
AcDbEntity
  8
0
  6
CONTINUOUS
 62
    7
370
   -3
100
AcDbPoint
 10
79.85322621114408
 20
22.93135191976162
  0
POINT
  5
E6
100
AcDbEntity
  8
0
  6
CONTINUOUS
 62
    7
370
   -3
100
AcDbPoint
 10
83.2946848292501
 20
27.84626418549559
  0
POINT
  5
E7
100
AcDbEntity
  8
0
  6
CONTINUOUS
 62
    7
370
   -3
100
AcDbPoint
 10
86.7361434473566
 20
32.76117645122943
  0
POINT
  5
E8
100
AcDbEntity
  8
0
  6
CONTINUOUS
 62
    7
370
   -3
100
AcDbPoint
 10
90.17760206546261
 20
37.67608871696339
  0
POINT
  5
E9
100
AcDbEntity
  8
0
  6
CONTINUOUS
 62
    7
370
   -3
100
AcDbPoint
 10
71.49685532730396
 20
21.45789827213392
  0
POINT
  5
EA
100
AcDbEntity
  8
0
  6
CONTINUOUS
 62
    7
370
   -3
100
AcDbPoint
 10
74.93831394541047
 20
26.37281053786788
  0
POINT
  5
EB
100
AcDbEntity
  8
0
  6
CONTINUOUS
 62
    7
370
   -3
100
AcDbPoint
 10
78.37977256351645
 20
31.28772280360184
  0
POINT
  5
EC
100
AcDbEntity
  8
0
  6
CONTINUOUS
 62
    7
370
   -3
100
AcDbPoint
 10
81.82123118162296
 20
36.20263506933568
  0
POINT
  5
ED
100
AcDbEntity
  8
0
  6
CONTINUOUS
 62
    7
370
   -3
100
AcDbPoint
 10
66.58194306156989
 20
24.89935689024018
  0
POINT
  5
EE
100
AcDbEntity
  8
0
  6
CONTINUOUS
 62
    7
370
   -3
100
AcDbPoint
 10
70.02340167967637
 20
29.81426915597414
  0
POINT
  5
EF
100
AcDbEntity
  8
0
  6
CONTINUOUS
 62
    7
370
   -3
100
AcDbPoint
 10
73.46486029778239
 20
34.72918142170809
  0
POINT
  5
F0
100
AcDbEntity
  8
0
  6
CONTINUOUS
 62
    7
370
   -3
100
AcDbPoint
 10
76.90631891588887
 20
39.64409368744194
  0
POINT
  5
F1
100
AcDbEntity
  8
0
  6
CONTINUOUS
 62
    7
370
   -3
100
AcDbPoint
 10
58.22557217772934
 20
23.42590324261246
  0
POINT
  5
F2
100
AcDbEntity
  8
0
  6
CONTINUOUS
 62
    7
370
   -3
100
AcDbPoint
 10
61.66703079583582
 20
28.34081550834643
  0
POINT
  5
F3
100
AcDbEntity
  8
0
  6
CONTINUOUS
 62
    7
370
   -3
100
AcDbPoint
 10
65.10848941394229
 20
33.25572777408039
  0
POINT
  5
F4
100
AcDbEntity
  8
0
  6
CONTINUOUS
 62
    7
370
   -3
100
AcDbPoint
 10
68.54994803204832
 20
38.17064003981434
  0
POINT
  5
F5
100
AcDbEntity
  8
0
  6
CONTINUOUS
 62
    7
370
   -3
100
AcDbPoint
 10
71.99140665015483
 20
43.08555230554819
  0
POINT
  5
F6
100
AcDbEntity
  8
0
  6
CONTINUOUS
 62
    7
370
   -3
100
AcDbPoint
 10
49.86920129388924
 20
21.95244959498488
  0
POINT
  5
F7
100
AcDbEntity
  8
0
  6
CONTINUOUS
 62
    7
370
   -3
100
AcDbPoint
 10
53.31065991199526
 20
26.86736186071884
  0
POINT
  5
F8
100
AcDbEntity
  8
0
  6
CONTINUOUS
 62
    7
370
   -3
100
AcDbPoint
 10
56.75211853010175
 20
31.7822741264528
  0
POINT
  5
F9
100
AcDbEntity
  8
0
  6
CONTINUOUS
 62
    7
370
   -3
100
AcDbPoint
 10
60.19357714820823
 20
36.69718639218675
  0
POINT
  5
FA
100
AcDbEntity
  8
0
  6
CONTINUOUS
 62
    7
370
   -3
100
AcDbPoint
 10
63.63503576631425
 20
41.61209865792072
  0
POINT
  5
FB
100
AcDbEntity
  8
0
  6
CONTINUOUS
 62
    7
370
   -3
100
AcDbPoint
 10
67.07649438442073
 20
46.52701092365455
  0
POINT
  5
FC
100
AcDbEntity
  8
0
  6
CONTINUOUS
 62
    7
370
   -3
100
AcDbPoint
 10
44.95428902815562
 20
25.39390821309112
  0
POINT
  5
FD
100
AcDbEntity
  8
0
  6
CONTINUOUS
 62
    7
370
   -3
100
AcDbPoint
 10
48.39574764626163
 20
30.30882047882509
  0
POINT
  5
FE
100
AcDbEntity
  8
0
  6
CONTINUOUS
 62
    7
370
   -3
100
AcDbPoint
 10
51.83720626436813
 20
35.22373274455905
  0
POINT
  5
FF
100
AcDbEntity
  8
0
  6
CONTINUOUS
 62
    7
370
   -3
100
AcDbPoint
 10
55.27866488247461
 20
40.138645010293
  0
POINT
  5
100
100
AcDbEntity
  8
0
  6
CONTINUOUS
 62
    7
370
   -3
100
AcDbPoint
 10
58.72012350058062
 20
45.05355727602696
  0
POINT
  5
101
100
AcDbEntity
  8
0
  6
CONTINUOUS
 62
    7
370
   -3
100
AcDbPoint
 10
62.16158211868711
 20
49.96846954176081
  0
POINT
  5
102
100
AcDbEntity
  8
0
  6
CONTINUOUS
 62
    7
370
   -3
100
AcDbPoint
 10
65.60304073679313
 20
54.88338180749477
  0
POINT
  5
103
100
AcDbEntity
  8
0
  6
CONTINUOUS
 62
    7
370
   -3
100
AcDbPoint
 10
43.48083538052756
 20
33.75027909693134
  0
POINT
  5
104
100
AcDbEntity
  8
0
  6
CONTINUOUS
 62
    7
370
   -3
100
AcDbPoint
 10
46.92229399863405
 20
38.66519136266531
  0
POINT
  5
105
100
AcDbEntity
  8
0
  6
CONTINUOUS
 62
    7
370
   -3
100
AcDbPoint
 10
50.36375261674052
 20
43.58010362839926
  0
POINT
  5
106
100
AcDbEntity
  8
0
  6
CONTINUOUS
 62
    7
370
   -3
100
AcDbPoint
 10
53.80521123484656
 20
48.49501589413321
  0
POINT
  5
107
100
AcDbEntity
  8
0
  6
CONTINUOUS
 62
    7
370
   -3
100
AcDbPoint
 10
57.24666985295304
 20
53.40992815986706
  0
POINT
  5
108
100
AcDbEntity
  8
0
  6
CONTINUOUS
 62
    7
370
   -3
100
AcDbPoint
 10
60.68812847105906
 20
58.32484042560102
  0
POINT
  5
109
100
AcDbEntity
  8
0
  6
CONTINUOUS
 62
    7
370
   -3
100
AcDbPoint
 10
42.00738173289997
 20
42.10664998077154
  0
POINT
  5
10A
100
AcDbEntity
  8
0
  6
CONTINUOUS
 62
    7
370
   -3
100
AcDbPoint
 10
45.44884035100646
 20
47.02156224650551
  0
POINT
  5
10B
100
AcDbEntity
  8
0
  6
CONTINUOUS
 62
    7
370
   -3
100
AcDbPoint
 10
48.89029896911248
 20
51.93647451223947
  0
POINT
  5
10C
100
AcDbEntity
  8
0
  6
CONTINUOUS
 62
    7
370
   -3
100
AcDbPoint
 10
52.33175758721896
 20
56.85138677797331
  0
POINT
  5
10D
100
AcDbEntity
  8
0
  6
CONTINUOUS
 62
    7
370
   -3
100
AcDbPoint
 10
55.77321620532499
 20
61.76629904370727
  0
POINT
  5
10E
100
AcDbEntity
  8
0
  6
CONTINUOUS
 62
    7
370
   -3
100
AcDbPoint
 10
40.53392808527237
 20
50.46302086461176
  0
POINT
  5
10F
100
AcDbEntity
  8
0
  6
CONTINUOUS
 62
    7
370
   -3
100
AcDbPoint
 10
43.97538670337841
 20
55.37793313034572
  0
POINT
  5
110
100
AcDbEntity
  8
0
  6
CONTINUOUS
 62
    7
370
   -3
100
AcDbPoint
 10
47.41684532148489
 20
60.29284539607957
  0
POINT
  5
111
100
AcDbEntity
  8
0
  6
CONTINUOUS
 62
    7
370
   -3
100
AcDbPoint
 10
50.85830393959092
 20
65.20775766181353
  0
POINT
  5
112
100
AcDbEntity
  8
0
  6
CONTINUOUS
 62
    7
370
   -3
100
AcDbPoint
 10
54.2997625576974
 20
70.12266992754749
  0
POINT
  5
113
100
AcDbEntity
  8
0
  6
CONTINUOUS
 62
    7
370
   -3
100
AcDbPoint
 10
39.06047443764479
 20
58.81939174845197
  0
POINT
  5
114
100
AcDbEntity
  8
0
  6
CONTINUOUS
 62
    7
370
   -3
100
AcDbPoint
 10
42.50193305575127
 20
63.73430401418582
  0
POINT
  5
115
100
AcDbEntity
  8
0
  6
CONTINUOUS
 62
    7
370
   -3
100
AcDbPoint
 10
45.94339167385729
 20
68.64921627991978
  0
POINT
  5
116
100
AcDbEntity
  8
0
  6
CONTINUOUS
 62
    7
370
   -3
100
AcDbPoint
 10
49.38485029196377
 20
73.56412854565374
  0
POINT
  5
117
100
AcDbEntity
  8
0
  6
CONTINUOUS
 62
    7
370
   -3
100
AcDbPoint
 10
37.5870207900172
 20
67.17576263229208
  0
POINT
  5
118
100
AcDbEntity
  8
0
  6
CONTINUOUS
 62
    7
370
   -3
100
AcDbPoint
 10
41.02847940812322
 20
72.09067489802602
  0
POINT
  5
119
100
AcDbEntity
  8
0
  6
CONTINUOUS
 62
    7
370
   -3
100
AcDbPoint
 10
44.46993802622968
 20
77.00558716376
  0
POINT
  5
11A
100
AcDbEntity
  8
0
  6
CONTINUOUS
 62
    7
370
   -3
100
AcDbPoint
 10
47.91139664433619
 20
81.92049942949394
  0
POINT
  5
11B
100
AcDbEntity
  8
0
  6
CONTINUOUS
 62
    7
370
   -3
100
AcDbPoint
 10
36.11356714238915
 20
75.53213351613228
  0
POINT
  5
11C
100
AcDbEntity
  8
0
  6
CONTINUOUS
 62
    7
370
   -3
100
AcDbPoint
 10
39.55502576049563
 20
80.44704578186625
  0
POINT
  5
11D
100
AcDbEntity
  8
0
  6
CONTINUOUS
 62
    7
370
   -3
100
AcDbPoint
 10
42.99648437860211
 20
85.36195804760021
  0
POINT
  5
11E
100
AcDbEntity
  8
0
  6
CONTINUOUS
 62
    7
370
   -3
100
AcDbPoint
 10
46.43794299670813
 20
90.27687031333419
  0
POINT
  5
11F
100
AcDbEntity
  8
0
  6
CONTINUOUS
 62
    7
370
   -3
100
AcDbPoint
 10
34.64011349476155
 20
83.8885043999726
  0
POINT
  5
120
100
AcDbEntity
  8
0
  6
CONTINUOUS
 62
    7
370
   -3
100
AcDbPoint
 10
38.08157211286804
 20
88.80341666570656
  0
POINT
  5
121
100
AcDbEntity
  8
0
  6
CONTINUOUS
 62
    7
370
   -3
100
AcDbPoint
 10
41.52303073097406
 20
93.71832893144054
  0
POINT
  5
122
100
AcDbEntity
  8
0
  6
CONTINUOUS
 62
    7
370
   -3
100
AcDbPoint
 10
44.96448934908054
 20
98.63324119717439
  0
POINT
  5
123
100
AcDbEntity
  8
0
  6
CONTINUOUS
 62
    7
370
   -3
100
AcDbPoint
 10
48.40594796718656
 20
103.5481534629083
  0
POINT
  5
124
100
AcDbEntity
  8
0
  6
CONTINUOUS
 62
    7
370
   -3
100
AcDbPoint
 10
33.16665984713442
 20
92.24487528381283
  0
POINT
  5
125
100
AcDbEntity
  8
0
  6
CONTINUOUS
 62
    7
370
   -3
100
AcDbPoint
 10
36.60811846524044
 20
97.15978754954679
  0
POINT
  5
126
100
AcDbEntity
  8
0
  6
CONTINUOUS
 62
    7
370
   -3
100
AcDbPoint
 10
40.04957708334694
 20
102.0746998152806
  0
POINT
  5
127
100
AcDbEntity
  8
0
  6
CONTINUOUS
 62
    7
370
   -3
100
AcDbPoint
 10
43.49103570145294
 20
106.9896120810145
  0
POINT
  5
128
100
AcDbEntity
  8
0
  6
CONTINUOUS
 62
    7
370
   -3
100
AcDbPoint
 10
46.93249431955943
 20
111.9045243467485
  0
POINT
  5
129
100
AcDbEntity
  8
0
  6
CONTINUOUS
 62
    7
370
   -3
100
AcDbPoint
 10
50.37395293766591
 20
116.8194366124824
  0
POINT
  5
12A
100
AcDbEntity
  8
0
  6
CONTINUOUS
 62
    7
370
   -3
100
AcDbPoint
 10
31.69320619950637
 20
100.601246167653
  0
POINT
  5
12B
100
AcDbEntity
  8
0
  6
CONTINUOUS
 62
    7
370
   -3
100
AcDbPoint
 10
35.13466481761284
 20
105.5161584333868
  0
POINT
  5
12C
100
AcDbEntity
  8
0
  6
CONTINUOUS
 62
    7
370
   -3
100
AcDbPoint
 10
38.57612343571887
 20
110.4310706991208
  0
POINT
  5
12D
100
AcDbEntity
  8
0
  6
CONTINUOUS
 62
    7
370
   -3
100
AcDbPoint
 10
42.01758205382536
 20
115.3459829648547
  0
POINT
  5
12E
100
AcDbEntity
  8
0
  6
CONTINUOUS
 62
    7
370
   -3
100
AcDbPoint
 10
45.45904067193183
 20
120.2608952305887
  0
POINT
  5
12F
100
AcDbEntity
  8
0
  6
CONTINUOUS
 62
    7
370
   -3
100
AcDbPoint
 10
48.90049929003786
 20
125.1758074963225
  0
POINT
  5
130
100
AcDbEntity
  8
0
  6
CONTINUOUS
 62
    7
370
   -3
100
AcDbPoint
 10
52.34195790814434
 20
130.0907197620565
  0
POINT
  5
131
100
AcDbEntity
  8
0
  6
CONTINUOUS
 62
    7
370
   -3
100
AcDbPoint
 10
30.21975255187878
 20
108.9576170514931
  0
POINT
  5
132
100
AcDbEntity
  8
0
  6
CONTINUOUS
 62
    7
370
   -3
100
AcDbPoint
 10
33.6612111699848
 20
113.872529317227
  0
POINT
  5
133
100
AcDbEntity
  8
0
  6
CONTINUOUS
 62
    7
370
   -3
100
AcDbPoint
 10
37.10266978809128
 20
118.787441582961
  0
POINT
  5
134
100
AcDbEntity
  8
0
  6
CONTINUOUS
 62
    7
370
   -3
100
AcDbPoint
 10
40.54412840619776
 20
123.702353848695
  0
POINT
  5
135
100
AcDbEntity
  8
0
  6
CONTINUOUS
 62
    7
370
   -3
100
AcDbPoint
 10
43.9855870243038
 20
128.6172661144288
  0
POINT
  5
136
100
AcDbEntity
  8
0
  6
CONTINUOUS
 62
    7
370
   -3
100
AcDbPoint
 10
47.42704564241026
 20
133.5321783801628
  0
POINT
  5
137
100
AcDbEntity
  8
0
  6
CONTINUOUS
 62
    7
370
   -3
100
AcDbPoint
 10
50.86850426051629
 20
138.4470906458967
  0
POINT
  5
138
100
AcDbEntity
  8
0
  6
CONTINUOUS
 62
    7
370
   -3
100
AcDbPoint
 10
54.30996287862278
 20
143.3620029116307
  0
POINT
  5
139
100
AcDbEntity
  8
0
  6
CONTINUOUS
 62
    7
370
   -3
100
AcDbPoint
 10
57.75142149672926
 20
148.2769151773645
  0
POINT
  5
13A
100
AcDbEntity
  8
0
  6
CONTINUOUS
 62
    7
370
   -3
100
AcDbPoint
 10
61.19288011483528
 20
153.1918274430985
  0
POINT
  5
13B
100
AcDbEntity
  8
0
  6
CONTINUOUS
 62
    7
370
   -3
100
AcDbPoint
 10
28.74629890425073
 20
117.3139879353333
  0
POINT
  5
13C
100
AcDbEntity
  8
0
  6
CONTINUOUS
 62
    7
370
   -3
100
AcDbPoint
 10
32.1877575223572
 20
122.2289002010673
  0
POINT
  5
13D
100
AcDbEntity
  8
0
  6
CONTINUOUS
 62
    7
370
   -3
100
AcDbPoint
 10
35.62921614046369
 20
127.1438124668012
  0
POINT
  5
13E
100
AcDbEntity
  8
0
  6
CONTINUOUS
 62
    7
370
   -3
100
AcDbPoint
 10
39.07067475856971
 20
132.058724732535
  0
POINT
  5
13F
100
AcDbEntity
  8
0
  6
CONTINUOUS
 62
    7
370
   -3
100
AcDbPoint
 10
42.51213337667619
 20
136.973636998269
  0
POINT
  5
140
100
AcDbEntity
  8
0
  6
CONTINUOUS
 62
    7
370
   -3
100
AcDbPoint
 10
45.95359199478223
 20
141.888549264003
  0
POINT
  5
141
100
AcDbEntity
  8
0
  6
CONTINUOUS
 62
    7
370
   -3
100
AcDbPoint
 10
49.39505061288869
 20
146.8034615297369
  0
POINT
  5
142
100
AcDbEntity
  8
0
  6
CONTINUOUS
 62
    7
370
   -3
100
AcDbPoint
 10
52.8365092309952
 20
151.7183737954708
  0
POINT
  5
143
100
AcDbEntity
  8
0
  6
CONTINUOUS
 62
    7
370
   -3
100
AcDbPoint
 10
56.2779678491012
 20
156.6332860612047
  0
POINT
  5
144
100
AcDbEntity
  8
0
  6
CONTINUOUS
 62
    7
370
   -3
100
AcDbPoint
 10
59.71942646720769
 20
161.5481983269388
  0
POINT
  5
145
100
AcDbEntity
  8
0
  6
CONTINUOUS
 62
    7
370
   -3
100
AcDbPoint
 10
63.16088508531417
 20
166.4631105926726
  0
POINT
  5
146
100
AcDbEntity
  8
0
  6
CONTINUOUS
 62
    7
370
   -3
100
AcDbPoint
 10
30.71430387473006
 20
130.5852710849075
  0
POINT
  5
147
100
AcDbEntity
  8
0
  6
CONTINUOUS
 62
    7
370
   -3
100
AcDbPoint
 10
34.1557624928361
 20
135.5001833506414
  0
POINT
  5
148
100
AcDbEntity
  8
0
  6
CONTINUOUS
 62
    7
370
   -3
100
AcDbPoint
 10
37.59722111094259
 20
140.4150956163753
  0
POINT
  5
149
100
AcDbEntity
  8
0
  6
CONTINUOUS
 62
    7
370
   -3
100
AcDbPoint
 10
41.03867972904859
 20
145.3300078821093
  0
LWPOLYLINE
  5
14A
100
AcDbEntity
  8
0
  6
CONTINUOUS
 62
    7
370
   -3
100
AcDbPolyline
 90
  107
 70
    1
 43
0
 10
322.8260427551073
 20
150.6252710675793
 10
324.1342879416563
 20
147.0687327830584
 10
325.449810686837
 20
143.514627264308
 10
326.7798885492813
 20
139.9653872770986
 10
328.2912771981524
 20
136.0108099154789
 10
329.5070384532275
 20
132.8892822532171
 10
330.8741958649053
 20
129.3522628074367
 10
332.1902342282735
 20
125.7978259207324
 10
333.5013074968846
 20
121.9326873501731
 10
334.5019769270968
 20
118.5812938142039
 10
335.2908817888803
 20
115.5650589411401
 10
336.2407120907245
 20
111.2031813390432
 10
336.8508421148333
 20
107.4601741276153
 10
337.1107054116805
 20
105.2567119407935
 10
337.4024267065859
 20
99.87564660807766
 10
337.2847648018945
 20
96.07041445738994
 10
336.8660205311105
 20
92.29117195785852
 10
336.4001828607488
 20
89.77578234390957
 10
335.0240805637052
 20
84.92000129812097
 10
333.5938935680567
 20
81.39588009428043
 10
332.2547733844
 20
78.76215237494675
 10
329.7720080157348
 20
74.84613751211273
 10
327.4423984283173
 20
71.84354413443126
 10
324.5552713223767
 20
68.67002059319921
 10
322.1624363383923
 20
66.36250660870031
 10
319.2681422836055
 20
63.89539720174617
 10
316.2160194108261
 20
61.63500705076367
 10
313.073301153702
 20
59.636696020968
 10
309.6673471115657
 20
57.8083199569069
 10
306.2013569048974
 20
56.2504464785599
 10
302.638336985032
 20
54.91670784339877
 10
298.1122021443235
 20
53.55556001464279
 10
295.3150041452475
 20
52.87827860303233
 10
291.5902323025845
 20
52.15203742834822
 10
287.835783577491
 20
51.60687188459749
 10
283.5257930229752
 20
51.19235677906662
 10
280.2699250898733
 20
51.01821426545453
 10
276.4738243984258
 20
50.96242377144645
 10
272.6785388977611
 20
51.06458485554029
 10
268.8912100089872
 20
51.32454270261579
 10
265.45731680232
 20
51.69815306077716
 10
261.3683072735136
 20
52.31642039652584
 10
257.6435795816116
 20
53.04394469316631
 10
253.9487835663592
 20
53.92081082349298
 10
250.2879070985493
 20
54.94311467761738
 10
246.6649380489759
 20
56.1069521456533
 10
243.0838642884315
 20
57.40841911771306
 10
239.5486736877103
 20
58.84361148390897
 10
237.7714434362093
 20
59.62275233914661
 10
232.6464676843303
 20
62.11633140982158
 10
229.3261911661308
 20
63.99066847219617
 10
226.1333667999313
 20
66.05864251879021
 10
223.0983143420842
 20
68.34665835364731
 10
219.5999806262881
 20
71.52844703151496
 10
217.6241068522638
 20
73.68391446703609
 10
215.2591570074135
 20
76.73889298760608
 10
213.2045739465791
 20
80.0108700307501
 10
211.5084684895844
 20
83.46451740919942
 10
210.2189514562502
 20
87.0645069356863
 10
209.5311271894459
 20
89.92585305538526
 10
209.0235531020681
 20
94.56049186853696
 10
209.1001701691217
 20
98.37903359535144
 10
209.5690708055178
 20
102.1902472647319
 10
210.3855215356427
 20
105.9532553317808
 10
211.2916702021378
 20
109.0004295161628
 10
212.8861891139028
 20
113.1844035557471
 10
214.498591383189
 20
116.6285834928668
 10
216.3123375451007
 20
119.96820000154
 10
218.2977564972658
 20
123.2116906025565
 10
220.4251771373139
 20
126.3674928167051
 10
222.4768485195256
 20
129.1933356460739
 10
224.9925837340621
 20
132.4485880003356
 10
227.4000844979353
 20
135.3846408870544
 10
229.8825765217163
 20
138.2549897225118
 10
232.4352033589582
 20
141.0624219310922
 10
235.0531085632143
 20
143.80972493718
 10
237.7314356880384
 20
146.4996861651598
 10
240.4653282869824
 20
149.1350930394159
 10
243.2499299135999
 20
151.7187329843329
 10
246.7924886956713
 20
154.8778941283869
 10
248.952191998467
 20
156.7414900644628
 10
251.863958884103
 20
159.182211200405
 10
254.8158852519775
 20
161.5730867081262
 10
257.8081846626998
 20
163.9116328574324
 10
260.8410706768806
 20
166.1953659181298
 10
263.9147568551295
 20
168.4218021600237
 10
267.0294567580574
 20
170.5884578529205
 10
270.1853839462743
 20
172.6928492666257
 10
273.382751980391
 20
174.7324926709452
 10
277.6941841100285
 20
177.3373208311807
 10
279.9038765216343
 20
178.604987207135
 10
283.2443140270627
 20
180.3978152632966
 10
285.9795677134982
 20
181.7208034869841
 10
290.1916704131206
 20
183.4358439094119
 10
294.737118471425
 20
184.7426137134824
 10
298.8993312522423
 20
185.2144517840776
 10
302.9395829627504
 20
184.4050433927449
 10
304.876278716825
 20
183.4871086065879
 10
308.2649384337776
 20
180.879479040673
 10
310.3997419554673
 20
178.3500278200844
 10
312.3814382203752
 20
175.1138927396474
 10
314.036764359079
 20
171.6476931783497
 10
315.1585852953555
 20
168.9958538563704
 10
316.972980319647
 20
164.5768802587298
 10
318.4047861586383
 20
161.0748590022399
 10
319.8464803104759
 20
157.5873576637008
 10
320.7203717765194
 20
155.5112004704338
  0
LWPOLYLINE
  5
14B
100
AcDbEntity
  8
0
  6
CONTINUOUS
 62
    7
370
   -3
100
AcDbPolyline
 90
  107
 70
    1
 43
0
 10
83.20120092071483
 20
150.6252710675793
 10
81.89295573416591
 20
147.0687327830584
 10
80.57743298898519
 20
143.514627264308
 10
79.24735512654084
 20
139.9653872770986
 10
77.73596647766971
 20
136.0108099154789
 10
76.52020522259468
 20
132.8892822532171
 10
75.15304781091677
 20
129.3522628074367
 10
73.83700944754824
 20
125.7978259207324
 10
72.52593617893731
 20
121.9326873501731
 10
71.52526674872539
 20
118.5812938142039
 10
70.73636188694186
 20
115.5650589411401
 10
69.78653158509738
 20
111.2031813390432
 10
69.17640156098892
 20
107.4601741276153
 10
68.91653826414191
 20
105.2567119407935
 10
68.62481696923636
 20
99.87564660807766
 10
68.74247887392781
 20
96.07041445738994
 10
69.16122314471173
 20
92.29117195785852
 10
69.62706081507318
 20
89.77578234390957
 10
71.00316311211708
 20
84.92000129812097
 10
72.43335010776553
 20
81.39588009428043
 10
73.77247029142214
 20
78.76215237494675
 10
76.25523566008695
 20
74.84613751211273
 10
78.58484524750489
 20
71.84354413443126
 10
81.47197235344554
 20
68.67002059319921
 10
83.86480733743034
 20
66.36250660870031
 10
86.75910139221666
 20
63.89539720174617
 10
89.81122426499601
 20
61.63500705076367
 10
92.95394252212024
 20
59.636696020968
 10
96.35989656425646
 20
57.8083199569069
 10
99.82588677092515
 20
56.2504464785599
 10
103.3889066907901
 20
54.91670784339877
 10
107.9150415314986
 20
53.55556001464279
 10
110.7122395305747
 20
52.87827860303233
 10
114.4370113732376
 20
52.15203742834822
 10
118.191460098331
 20
51.60687188459749
 10
122.5014506528469
 20
51.19235677906662
 10
125.7573185859488
 20
51.01821426545453
 10
129.5534192773963
 20
50.96242377144645
 10
133.348704778061
 20
51.06458485554029
 10
137.1360336668346
 20
51.32454270261579
 10
140.5699268735021
 20
51.69815306077716
 10
144.6589364023085
 20
52.31642039652584
 10
148.3836640942105
 20
53.04394469316631
 10
152.0784601094629
 20
53.92081082349298
 10
155.7393365772728
 20
54.94311467761738
 10
159.3623056268462
 20
56.1069521456533
 10
162.9433793873905
 20
57.40841911771306
 10
166.4785699881118
 20
58.84361148390897
 10
168.2558002396127
 20
59.62275233914661
 10
173.3807759914917
 20
62.11633140982158
 10
176.7010525096917
 20
63.99066847219617
 10
179.8938768758909
 20
66.05864251879021
 10
182.9289293337375
 20
68.34665835364731
 10
186.4272630495339
 20
71.52844703151496
 10
188.403136823558
 20
73.68391446703609
 10
190.7680866684087
 20
76.73889298760608
 10
192.8226697292426
 20
80.0108700307501
 10
194.5187751862378
 20
83.46451740919942
 10
195.8082922195718
 20
87.0645069356863
 10
196.4961164863763
 20
89.92585305538526
 10
197.0036905737539
 20
94.56049186853696
 10
196.9270735067
 20
98.37903359535144
 10
196.4581728703043
 20
102.1902472647319
 10
195.6417221401795
 20
105.9532553317808
 10
194.7355734736844
 20
109.0004295161628
 10
193.1410545619197
 20
113.1844035557471
 10
191.5286522926331
 20
116.6285834928668
 10
189.7149061307215
 20
119.96820000154
 10
187.7294871785562
 20
123.2116906025565
 10
185.6020665385083
 20
126.3674928167051
 10
183.5503951562966
 20
129.1933356460739
 10
181.03465994176
 20
132.4485880003356
 10
178.6271591778869
 20
135.3846408870544
 10
176.1446671541058
 20
138.2549897225118
 10
173.5920403168639
 20
141.0624219310922
 10
170.9741351126073
 20
143.80972493718
 10
168.2958079877836
 20
146.4996861651598
 10
165.5619153888398
 20
149.1350930394159
 10
162.7773137622222
 20
151.7187329843329
 10
159.2347549801503
 20
154.8778941283869
 10
157.0750516773552
 20
156.7414900644628
 10
154.1632847917186
 20
159.182211200405
 10
151.2113584238447
 20
161.5730867081262
 10
148.2190590131223
 20
163.9116328574324
 10
145.1861729989415
 20
166.1953659181298
 10
142.1124868206926
 20
168.4218021600237
 10
138.9977869177647
 20
170.5884578529205
 10
135.8418597295473
 20
172.6928492666257
 10
132.6444916954311
 20
174.7324926709452
 10
128.3330595657941
 20
177.3373208311807
 10
126.1233671541879
 20
178.604987207135
 10
122.7829296487596
 20
180.3978152632966
 10
120.0476759623239
 20
181.7208034869841
 10
115.8355732627015
 20
183.4358439094119
 10
111.2901252043972
 20
184.7426137134824
 10
107.1279124235799
 20
185.2144517840776
 10
103.0876607130718
 20
184.4050433927449
 10
101.1509649589971
 20
183.4871086065879
 10
97.76230524204455
 20
180.879479040673
 10
95.62750172035484
 20
178.3500278200844
 10
93.64580545544702
 20
175.1138927396474
 10
91.99047931674311
 20
171.6476931783497
 10
90.86865838046621
 20
168.9958538563704
 10
89.0542633561751
 20
164.5768802587298
 10
87.6224575171838
 20
161.0748590022399
 10
86.18076336534627
 20
157.5873576637008
 10
85.30687189930283
 20
155.5112004704338
  0
LWPOLYLINE
  5
14C
100
AcDbEntity
  8
0
  6
CONTINUOUS
 62
    5
370
   -3
100
AcDbPolyline
 90
   80
 70
    0
 43
0
 10
72.87884002526621
 20
177.4515861078126
 10
55.84975935773097
 20
127.2486279016733
 10
54.67082086895076
 20
123.3001842785225
 10
53.7141849927854
 20
119.6426602470547
 10
52.58887376307908
 20
114.4749267701234
 10
51.84214213494638
 20
109.8939001714325
 10
51.47215884613311
 20
106.7566961239725
 10
51.11015737385483
 20
100.0792488244842
 10
51.27233308949023
 20
94.83442256728395
 10
51.8378192281149
 20
89.73080826831452
 10
52.56799910032547
 20
85.78804669335037
 10
54.42739794946616
 20
79.22688208544346
 10
56.49720329621976
 20
74.12667845297518
 10
58.54876649229495
 20
70.09174647046041
 10
61.91988782628838
 20
64.77454597501711
 10
65.17872329138994
 20
60.57428948598308
 10
68.91234827156646
 20
56.47029740875749
 10
72.10365297329432
 20
53.39278463528106
 10
75.86255094975482
 20
50.18868291584149
 10
79.89613505944196
 20
47.20142644723344
 10
84.10840763052663
 20
44.52303466959827
 10
88.62461067708605
 20
42.09865740301907
 10
93.16431327622801
 20
40.05817781217095
 10
97.79539394892406
 20
38.32463397726692
 10
103.3325951287622
 20
36.65942743159965
 10
106.9767159390113
 20
35.77708185318151
 10
111.5034286964911
 20
34.89448143379596
 10
116.0952078854086
 20
34.2277311379195
 10
121.1958607744587
 20
33.73717375877018
 10
125.1611796608155
 20
33.52508573421496
 10
129.6603287837507
 20
33.45896268517416
 10
134.183692610071
 20
33.58072210279037
 10
138.6822491188796
 20
33.88949778594898
 10
142.825479140212
 20
34.34028456324578
 10
147.6458336424544
 20
35.06913288567459
 10
152.0830003093662
 20
35.93581276819057
 10
156.4540288101403
 20
36.97316552899205
 10
160.7707566396558
 20
38.17861661048144
 10
165.0292188728687
 20
39.54659901259802
 10
168.6266620854836
 20
40.85401512244293
 42
-0.2136481238143243
 10
237.400581590339
 20
40.85401512244279
 10
240.9980248029535
 20
39.54659901259802
 10
245.2564870361663
 20
38.17861661048144
 10
249.5732148656817
 20
36.97316552899205
 10
253.944243366456
 20
35.93581276819057
 10
258.3814100333677
 20
35.06913288567459
 10
263.2017645356102
 20
34.34028456324578
 10
267.3449945569425
 20
33.88949778594898
 10
271.8435510657516
 20
33.58072210279037
 10
276.3669148920714
 20
33.45896268517416
 10
280.8660640150066
 20
33.52508573421496
 10
284.8313829013633
 20
33.73717375877018
 10
289.9320357904132
 20
34.22773113791939
 10
294.523814979331
 20
34.89448143379596
 10
299.0505277368098
 20
35.77708185318139
 10
302.6946485470623
 20
36.65942743160034
 10
308.2318497268977
 20
38.32463397726682
 10
312.862930399595
 20
40.05817781217129
 10
317.4026329987348
 20
42.0986574030185
 10
321.9188360452955
 20
44.5230346695985
 10
326.1311086163811
 20
47.20142644723401
 10
330.1646927260665
 20
50.18868291584047
 10
333.9235907025279
 20
53.39278463528106
 10
337.1148954042553
 20
56.47029740875737
 10
340.8485203844315
 20
60.57428948598218
 10
344.107355849535
 20
64.77454597501881
 10
347.4784771835268
 20
70.09174647045953
 10
349.5300403796028
 20
74.12667845297629
 10
351.5998457263553
 20
79.22688208544267
 10
353.4592445754967
 20
85.78804669335037
 10
354.1894244477068
 20
89.7308082683129
 10
354.7549105863315
 20
94.83442256728395
 10
354.9170863019669
 20
100.0792488244846
 10
354.5550848296886
 20
106.7566961239741
 10
354.1851015408763
 20
109.893900171431
 10
353.4383699127431
 20
114.4749267701229
 10
352.3130586830363
 20
119.6426602470567
 10
351.3564228068708
 20
123.3001842785249
 10
350.1774843180917
 20
127.2486279016708
 10
333.1484036505568
 20
177.4515861078119
  0
LINE
  5
14D
100
AcDbEntity
  8
0
  6
CONTINUOUS
 62
  256
370
   -3
100
AcDbLine
 10
50.06315532542672
 20
18.15431775375171
 11
41.2458557449078
 21
24.32825738668479
  0
LINE
  5
14E
100
AcDbEntity
  8
0
  6
CONTINUOUS
 62
  256
370
   -3
100
AcDbLine
 10
59.08714674525906
 20
19.1602984694139
 11
40.08549053484526
 21
32.46540138641573
  0
LINE
  5
14F
100
AcDbEntity
  8
0
  6
CONTINUOUS
 62
  256
370
   -3
100
AcDbLine
 10
68.1111381650914
 20
20.16627918507609
 11
38.92512532478319
 21
40.60254538614643
  0
LINE
  5
150
100
AcDbEntity
  8
0
  6
CONTINUOUS
 62
  256
370
   -3
100
AcDbLine
 10
77.15378475095636
 20
21.15919741285566
 11
37.7647601147211
 21
48.73968938587726
  0
LINE
  5
151
100
AcDbEntity
  8
0
  6
CONTINUOUS
 62
  256
370
   -3
100
AcDbLine
 10
86.25035080454899
 20
22.11436082287607
 11
36.60439490465902
 21
56.87683338560797
  0
LINE
  5
152
100
AcDbEntity
  8
0
  6
CONTINUOUS
 62
  256
370
   -3
100
AcDbLine
 10
95.34691685814157
 20
23.06952423289662
 11
35.44402969459695
 21
65.01397738533879
  0
LINE
  5
153
100
AcDbEntity
  8
0
  6
CONTINUOUS
 62
  256
370
   -3
100
AcDbLine
 10
104.4434829117341
 20
24.02468764291703
 11
34.28366448453486
 21
73.1511213850695
  0
LINE
  5
154
100
AcDbEntity
  8
0
  6
CONTINUOUS
 62
  256
370
   -3
100
AcDbLine
 10
113.5400489653262
 20
24.9798510529378
 11
98.52220798349445
 21
35.49545651605175
  0
LINE
  5
155
100
AcDbEntity
  8
0
  6
CONTINUOUS
 62
  256
370
   -3
100
AcDbLine
 10
61.19208160612894
 20
61.63429240780581
 11
33.12329927447278
 21
81.28826538480021
  0
LINE
  5
156
100
AcDbEntity
  8
0
  6
CONTINUOUS
 62
  256
370
   -3
100
AcDbLine
 10
122.6929221666252
 20
25.89558777367919
 11
113.9579990300486
 21
32.01184679959287
  0
LINE
  5
157
100
AcDbEntity
  8
0
  6
CONTINUOUS
 62
  256
370
   -3
100
AcDbLine
 10
53.79416994502086
 20
74.13901345249249
 11
31.96293406441024
 21
89.42540938453126
  0
LINE
  5
158
100
AcDbEntity
  8
0
  6
CONTINUOUS
 62
  256
370
   -3
100
AcDbLine
 10
131.8842573617154
 20
26.78439311643334
 11
125.8426088716902
 21
31.01480093236253
  0
LINE
  5
159
100
AcDbEntity
  8
0
  6
CONTINUOUS
 62
  256
370
   -3
100
AcDbLine
 10
50.55161891644608
 20
83.73411965829919
 11
30.80256885434816
 21
97.56255338426197
  0
LINE
  5
15A
100
AcDbEntity
  8
0
  6
CONTINUOUS
 62
  256
370
   -3
100
AcDbLine
 10
141.0755925568052
 20
27.67319845918772
 11
136.0359727162332
 21
31.20197826126768
  0
LINE
  5
15B
100
AcDbEntity
  8
0
  6
CONTINUOUS
 62
  256
370
   -3
100
AcDbLine
 10
49.0596261820248
 20
92.10347175046412
 11
29.64220364428609
 21
105.6996973839926
  0
LINE
  5
15C
100
AcDbEntity
  8
0
  6
CONTINUOUS
 62
  256
370
   -3
100
AcDbLine
 10
150.3710611534495
 20
28.48908880919432
 11
145.128358298464
 21
32.16006886884898
  0
LINE
  5
15D
100
AcDbEntity
  8
0
  6
CONTINUOUS
 62
  256
370
   -3
100
AcDbLine
 10
48.61956837999393
 20
99.73625107326303
 11
28.481838434224
 21
113.8368413837233
  0
LINE
  5
15E
100
AcDbEntity
  8
0
  6
CONTINUOUS
 62
  256
370
   -3
100
AcDbLine
 10
159.7780644581468
 20
29.22688171585016
 11
153.4148481832713
 21
33.68245371877689
  0
LINE
  5
15F
100
AcDbEntity
  8
0
  6
CONTINUOUS
 62
  256
370
   -3
100
AcDbLine
 10
48.97161565537968
 20
106.8143924498007
 11
27.32147322416192
 21
121.9739853834541
  0
LINE
  5
160
100
AcDbEntity
  8
0
  6
CONTINUOUS
 62
  256
370
   -3
100
AcDbLine
 10
28.73429114599882
 20
112.0664986924547
 11
66.21878218763882
 21
165.5998998573195
  0
LINE
  5
161
100
AcDbEntity
  8
0
  6
CONTINUOUS
 62
  256
370
   -3
100
AcDbLine
 10
27.49497964329536
 20
120.7572592138631
 11
53.40887162199184
 21
157.7661323901719
  0
LINE
  5
162
100
AcDbEntity
  8
0
  6
CONTINUOUS
 62
  256
370
   -3
100
AcDbLine
 10
26.25566814059145
 20
129.448019735271
 11
35.24859504456723
 21
142.2912503679626
  0
LINE
  5
163
100
AcDbEntity
  8
0
  6
CONTINUOUS
 62
  256
370
   -3
100
AcDbLine
 10
29.97360264870273
 20
103.3757381710468
 11
59.33641182650095
 21
145.3101755706716
  0
LINE
  5
164
100
AcDbEntity
  8
0
  6
CONTINUOUS
 62
  256
370
   -3
100
AcDbLine
 10
31.21291415140665
 20
94.68497764963878
 11
52.66562703220429
 21
125.322626789563
  0
LINE
  5
165
100
AcDbEntity
  8
0
  6
CONTINUOUS
 62
  256
370
   -3
100
AcDbLine
 10
32.45222565411056
 20
85.99421712823099
 11
49.35273740000519
 21
110.1306492910539
  0
LINE
  5
166
100
AcDbEntity
  8
0
  6
CONTINUOUS
 62
  256
370
   -3
100
AcDbLine
 10
33.69153715681401
 20
77.30345660682272
 11
48.65253860677846
 21
98.66998100645702
  0
LINE
  5
167
100
AcDbEntity
  8
0
  6
CONTINUOUS
 62
  256
370
   -3
100
AcDbLine
 10
34.93084865951793
 20
68.6126960854148
 11
49.38370236330108
 21
89.25351029420975
  0
LINE
  5
168
100
AcDbEntity
  8
0
  6
CONTINUOUS
 62
  256
370
   -3
100
AcDbLine
 10
36.17016016222184
 20
59.92193556400686
 11
51.21199151010994
 21
81.40389702124597
  0
LINE
  5
169
100
AcDbEntity
  8
0
  6
CONTINUOUS
 62
  256
370
   -3
100
AcDbLine
 10
37.4094716649253
 20
51.23117504259848
 11
53.66778128572938
 21
74.45044752054751
  0
LINE
  5
16A
100
AcDbEntity
  8
0
  6
CONTINUOUS
 62
  256
370
   -3
100
AcDbLine
 10
169.3192309295169
 20
29.87073256185173
 11
161.0499607787735
 21
35.66093785689523
  0
LINE
  5
16B
100
AcDbEntity
  8
0
  6
CONTINUOUS
 62
  256
370
   -3
100
AcDbLine
 10
49.89565875899341
 20
113.4920180355886
 11
26.16110801409983
 21
130.1111293831851
  0
LINE
  5
16C
100
AcDbEntity
  8
0
  6
CONTINUOUS
 62
  256
370
   -3
100
AcDbLine
 10
179.0181079122686
 20
30.40415331892886
 11
168.1436861913413
 21
38.01850538159411
  0
LINE
  5
16D
100
AcDbEntity
  8
0
  6
CONTINUOUS
 62
  256
370
   -3
100
AcDbLine
 10
51.21073089379812
 20
119.8958421460778
 11
27.58183916448221
 21
136.4409702544868
  0
LINE
  5
16E
100
AcDbEntity
  8
0
  6
CONTINUOUS
 62
  256
370
   -3
100
AcDbLine
 10
188.8831774723163
 20
30.82120478058884
 11
174.810394497386
 21
40.6750735032248
  0
LINE
  5
16F
100
AcDbEntity
  8
0
  6
CONTINUOUS
 62
  256
370
   -3
100
AcDbLine
 10
52.88273142689845
 20
126.0497423014791
 11
32.61665662459078
 21
140.2402006479776
  0
LINE
  5
170
100
AcDbEntity
  8
0
  6
CONTINUOUS
 62
  256
370
   -3
100
AcDbLine
 10
198.9144587903221
 20
31.12187351638752
 11
182.0157204511421
 21
42.95449748771548
  0
LINE
  5
171
100
AcDbEntity
  8
0
  6
CONTINUOUS
 62
  256
370
   -3
100
AcDbLine
 10
54.82614866850023
 20
132.0135944315917
 11
37.54554368842916
 21
144.1136043034624
  0
LINE
  5
172
100
AcDbEntity
  8
0
  6
CONTINUOUS
 62
  256
370
   -3
100
AcDbLine
 10
209.4588103854099
 20
31.06328657654174
 11
190.0365979802678
 21
44.66286611133321
  0
LINE
  5
173
100
AcDbEntity
  8
0
  6
CONTINUOUS
 62
  256
370
   -3
100
AcDbLine
 10
56.83384769050931
 20
137.9324359744933
 11
42.37099940180011
 21
148.0594313702315
  0
LINE
  5
174
100
AcDbEntity
  8
0
  6
CONTINUOUS
 62
  256
370
   -3
100
AcDbLine
 10
220.436661741445
 20
30.70115983626889
 11
199.1459611821767
 21
45.60906886163516
  0
LINE
  5
175
100
AcDbEntity
  8
0
  6
CONTINUOUS
 62
  256
370
   -3
100
AcDbLine
 10
58.84154671251842
 20
143.8512775173953
 11
47.07161524786229
 21
152.0926722531596
  0
LINE
  5
176
100
AcDbEntity
  8
0
  6
CONTINUOUS
 62
  256
370
   -3
100
AcDbLine
 10
231.646062531325
 20
30.17690043694952
 11
209.8900163003883
 21
45.41064800949119
  0
LINE
  5
177
100
AcDbEntity
  8
0
  6
CONTINUOUS
 62
  256
370
   -3
100
AcDbLine
 10
60.84924573452751
 20
149.7701190602971
 11
51.67166583756141
 21
156.196329686675
  0
LINE
  5
178
100
AcDbEntity
  8
0
  6
CONTINUOUS
 62
  256
370
   -3
100
AcDbLine
 10
243.1341380658598
 20
29.45751088071418
 11
223.7655401611583
 21
43.01954913813975
  0
LINE
  5
179
100
AcDbEntity
  8
0
  6
CONTINUOUS
 62
  256
370
   -3
100
AcDbLine
 10
62.85694475653659
 20
155.6889606031989
 11
56.17261816142642
 21
160.3693764729509
  0
LINE
  5
17A
100
AcDbEntity
  8
0
  6
CONTINUOUS
 62
  256
370
   -3
100
AcDbLine
 10
254.8849669348672
 20
28.55413945899127
 11
244.5749530093682
 21
35.77328892867311
  0
LINE
  5
17B
100
AcDbEntity
  8
0
  6
CONTINUOUS
 62
  256
370
   -3
100
AcDbLine
 10
64.86464377854568
 20
161.6078021461006
 11
60.57678170229489
 21
164.6101954946951
  0
LINE
  5
17C
100
AcDbEntity
  8
0
  6
CONTINUOUS
 62
  256
370
   -3
100
AcDbLine
 10
266.8684806233616
 20
27.48784037263673
 11
260.0022220985417
 21
32.2956463510125
  0
LINE
  5
17D
100
AcDbEntity
  8
0
  6
CONTINUOUS
 62
  256
370
   -3
100
AcDbLine
 10
66.87234280055478
 20
167.5266436890026
 11
64.88683141345987
 21
168.9169137294477
  0
LINE
  5
17E
100
AcDbEntity
  8
0
  6
CONTINUOUS
 62
  256
370
   -3
100
AcDbLine
 10
279.0052831206101
 20
26.31420730686934
 11
272.2135100112583
 21
31.06985803584772
  0
LINE
  5
17F
100
AcDbEntity
  8
0
  6
CONTINUOUS
 62
  256
370
   -3
100
AcDbLine
 10
291.1748191996164
 20
25.11765394040246
 11
282.6100223092228
 21
31.11478928629143
  0
LINE
  5
180
100
AcDbEntity
  8
0
  6
CONTINUOUS
 62
  256
370
   -3
100
AcDbLine
 10
303.4809132854595
 20
23.82548162814559
 11
291.8376077736503
 21
31.97821191719348
  0
LINE
  5
181
100
AcDbEntity
  8
0
  6
CONTINUOUS
 62
  256
370
   -3
100
AcDbLine
 10
315.7870073713027
 20
22.53330931588871
 11
300.1621011878262
 21
33.47398640937902
  0
LINE
  5
182
100
AcDbEntity
  8
0
  6
CONTINUOUS
 62
  256
370
   -3
100
AcDbLine
 10
328.0931014571454
 20
21.24113700363208
 11
307.6664835444173
 21
35.54400884625469
  0
LINE
  5
183
100
AcDbEntity
  8
0
  6
CONTINUOUS
 62
  256
370
   -3
100
AcDbLine
 10
340.5002548848939
 20
19.87820217836648
 11
331.5214932446124
 21
26.16519876268019
  0
LINE
  5
184
100
AcDbEntity
  8
0
  6
CONTINUOUS
 62
  256
370
   -3
100
AcDbLine
 10
327.6020185613334
 20
28.90964448173445
 11
314.5267057297744
 21
38.06507709084284
  0
LINE
  5
185
100
AcDbEntity
  8
0
  6
CONTINUOUS
 62
  256
370
   -3
100
AcDbLine
 10
352.9417120362424
 20
18.49124762724753
 11
339.9716220194418
 21
27.57300242827041
  0
LINE
  5
186
100
AcDbEntity
  8
0
  6
CONTINUOUS
 62
  256
370
   -3
100
AcDbLine
 10
328.3056010092016
 20
35.74163828055392
 11
320.7289713462625
 21
41.04685148476747
  0
LINE
  5
187
100
AcDbEntity
  8
0
  6
CONTINUOUS
 62
  256
370
   -3
100
AcDbLine
 10
363.8993981181563
 20
18.1432407639243
 11
355.1294639117381
 21
24.2840148048619
  0
LINE
  5
188
100
AcDbEntity
  8
0
  6
CONTINUOUS
 62
  256
370
   -3
100
AcDbLine
 10
347.3547837860078
 20
29.72790443606776
 11
343.5586225071768
 21
32.38600517976524
  0
LINE
  5
189
100
AcDbEntity
  8
0
  6
CONTINUOUS
 62
  256
370
   -3
100
AcDbLine
 10
342.2992541147632
 20
33.26782442151634
 11
340.67520446731
 21
34.40499622708993
  0
LINE
  5
18A
100
AcDbEntity
  8
0
  6
CONTINUOUS
 62
  256
370
   -3
100
AcDbLine
 10
336.755729784031
 20
37.14944194614421
 11
326.3931067885298
 21
44.40542868321986
  0
LINE
  5
18B
100
AcDbEntity
  8
0
  6
CONTINUOUS
 62
  256
370
   -3
100
AcDbLine
 10
364.8490749464269
 20
24.80291742247508
 11
357.9701366051439
 21
29.61960190392149
  0
LINE
  5
18C
100
AcDbEntity
  8
0
  6
CONTINUOUS
 62
  256
370
   -3
100
AcDbLine
 10
348.7053533392171
 20
36.10687298660301
 11
347.43283980526
 21
36.99789655555373
  0
LINE
  5
18D
100
AcDbEntity
  8
0
  6
CONTINUOUS
 62
  256
370
   -3
100
AcDbLine
 10
345.3079540528929
 20
38.48575757719563
 11
341.7774223083488
 21
40.95786251861425
  0
LINE
  5
18E
100
AcDbEntity
  8
0
  6
CONTINUOUS
 62
  256
370
   -3
100
AcDbLine
 10
335.2996668860511
 20
45.49363569598621
 11
331.5607548550135
 21
48.11165008482184
  0
LINE
  5
18F
100
AcDbEntity
  8
0
  6
CONTINUOUS
 62
  256
370
   -3
100
AcDbLine
 10
365.7987517746974
 20
31.46259408102586
 11
353.8609465210736
 21
39.82153530929319
  0
LINE
  5
190
100
AcDbEntity
  8
0
  6
CONTINUOUS
 62
  256
370
   -3
100
AcDbLine
 10
343.458609533576
 20
47.10533008293714
 11
336.2438026938775
 21
52.15719221882127
  0
LINE
  5
191
100
AcDbEntity
  8
0
  6
CONTINUOUS
 62
  256
370
   -3
100
AcDbLine
 10
366.748428602968
 20
38.12227073957652
 11
340.5141463298621
 21
56.49171294672774
  0
LINE
  5
192
100
AcDbEntity
  8
0
  6
CONTINUOUS
 62
  256
370
   -3
100
AcDbLine
 10
367.6981054312386
 20
44.7819473981273
 11
344.4110788745672
 21
61.08769893559931
  0
LINE
  5
193
100
AcDbEntity
  8
0
  6
CONTINUOUS
 62
  256
370
   -3
100
AcDbLine
 10
368.6477822595092
 20
51.44162405667796
 11
347.8480532926476
 21
66.0057510719943
  0
LINE
  5
194
100
AcDbEntity
  8
0
  6
CONTINUOUS
 62
  256
370
   -3
100
AcDbLine
 10
369.5974590877797
 20
58.10130071522874
 11
350.8581210948695
 21
71.22272643892472
  0
LINE
  5
195
100
AcDbEntity
  8
0
  6
CONTINUOUS
 62
  256
370
   -3
100
AcDbLine
 10
370.5471359160504
 20
64.76097737377964
 11
353.3219724030628
 21
76.82216671246908
  0
LINE
  5
196
100
AcDbEntity
  8
0
  6
CONTINUOUS
 62
  256
370
   -3
100
AcDbLine
 10
371.496812744321
 20
71.4206540323303
 11
355.2166163970737
 21
82.82017023820779
  0
LINE
  5
197
100
AcDbEntity
  8
0
  6
CONTINUOUS
 62
  256
370
   -3
100
AcDbLine
 10
372.4464895725913
 20
78.0803306908812
 11
356.6258630314337
 21
89.15805265420114
  0
LINE
  5
198
100
AcDbEntity
  8
0
  6
CONTINUOUS
 62
  256
370
   -3
100
AcDbLine
 10
373.396166400862
 20
84.74000734943186
 11
357.2926355643533
 21
96.01582103294849
  0
LINE
  5
199
100
AcDbEntity
  8
0
  6
CONTINUOUS
 62
  256
370
   -3
100
AcDbLine
 10
374.3458432291327
 20
91.39968400798266
 11
357.2420376061308
 21
103.3758976372828
  0
LINE
  5
19A
100
AcDbEntity
  8
0
  6
CONTINUOUS
 62
  256
370
   -3
100
AcDbLine
 10
375.2955200574033
 20
98.05936066653318
 11
356.5021622413361
 21
111.2186114776165
  0
LINE
  5
19B
100
AcDbEntity
  8
0
  6
CONTINUOUS
 62
  256
370
   -3
100
AcDbLine
 10
376.2451968856737
 20
104.719037325084
 11
354.8607768863821
 21
119.6925694088314
  0
LINE
  5
19C
100
AcDbEntity
  8
0
  6
CONTINUOUS
 62
  256
370
   -3
100
AcDbLine
 10
377.1948737139443
 20
111.3787139836347
 11
352.283829551987
 21
128.8216148905132
  0
LINE
  5
19D
100
AcDbEntity
  8
0
  6
CONTINUOUS
 62
  256
370
   -3
100
AcDbLine
 10
378.144550542215
 20
118.0383906421854
 11
349.0253381188406
 21
138.4278826877632
  0
LINE
  5
19E
100
AcDbEntity
  8
0
  6
CONTINUOUS
 62
  256
370
   -3
100
AcDbLine
 10
379.0942273704854
 20
124.6980673007362
 11
345.7668466856944
 21
148.034150485013
  0
LINE
  5
19F
100
AcDbEntity
  8
0
  6
CONTINUOUS
 62
  256
370
   -3
100
AcDbLine
 10
380.043904198756
 20
131.357743959287
 11
342.5083552525482
 21
157.6404182822629
  0
LINE
  5
1A0
100
AcDbEntity
  8
0
  6
CONTINUOUS
 62
  256
370
   -3
100
AcDbLine
 10
352.0526118379052
 20
158.2821054071566
 11
339.249863819402
 21
167.2466860795126
  0
LINE
  5
1A1
100
AcDbEntity
  8
0
  6
CONTINUOUS
 62
  256
370
   -3
100
AcDbLine
 10
38.64878316762921
 20
42.54041452119045
 11
56.70619673800652
 21
68.32907371864488
  0
LINE
  5
1A2
100
AcDbEntity
  8
0
  6
CONTINUOUS
 62
  256
370
   -3
100
AcDbLine
 10
39.88809467033313
 20
33.84965399978253
 11
60.22020885092722
 21
62.88692233965313
  0
LINE
  5
1A3
100
AcDbEntity
  8
0
  6
CONTINUOUS
 62
  256
370
   -3
100
AcDbLine
 10
41.12740617303702
 20
25.15889347837461
 11
64.13079466690911
 21
58.01113690421485
  0
LINE
  5
1A4
100
AcDbEntity
  8
0
  6
CONTINUOUS
 62
  256
370
   -3
100
AcDbLine
 10
42.99572724286159
 20
17.36645171647186
 11
68.33470856151612
 21
53.55426737958683
  0
LINE
  5
1A5
100
AcDbEntity
  8
0
  6
CONTINUOUS
 62
  256
370
   -3
100
AcDbLine
 10
50.9405307380595
 20
18.25212621837026
 11
72.81908921667549
 21
49.49794589999887
  0
LINE
  5
1A6
100
AcDbEntity
  8
0
  6
CONTINUOUS
 62
  256
370
   -3
100
AcDbLine
 10
58.8853342332574
 20
19.13780072026864
 11
77.565819269371
 21
45.81629818957199
  0
LINE
  5
1A7
100
AcDbEntity
  8
0
  6
CONTINUOUS
 62
  256
370
   -3
100
AcDbLine
 10
66.83013772845533
 20
20.02347522216692
 11
82.58759651210325
 21
42.52745857535639
  0
LINE
  5
1A8
100
AcDbEntity
  8
0
  6
CONTINUOUS
 62
  256
370
   -3
100
AcDbLine
 10
74.7749412236532
 20
20.90914972406531
 11
87.91584454162297
 21
39.67630460441606
  0
LINE
  5
1A9
100
AcDbEntity
  8
0
  6
CONTINUOUS
 62
  256
370
   -3
100
AcDbLine
 10
82.68105936479618
 20
21.73957581468009
 11
93.54021392055996
 21
37.2480557483997
  0
LINE
  5
1AA
100
AcDbEntity
  8
0
  6
CONTINUOUS
 62
  256
370
   -3
100
AcDbLine
 10
90.5869788513666
 20
22.56971819716275
 11
99.44364719039604
 21
35.21835143192485
  0
LINE
  5
1AB
100
AcDbEntity
  8
0
  6
CONTINUOUS
 62
  256
370
   -3
100
AcDbLine
 10
98.49289833793648
 20
23.39986057964521
 11
105.5930139205889
 21
33.53987649664979
  0
LINE
  5
1AC
100
AcDbEntity
  8
0
  6
CONTINUOUS
 62
  256
370
   -3
100
AcDbLine
 10
106.3988178245068
 20
24.230002962128
 11
112.0424814670624
 21
32.28998994396719
  0
LINE
  5
1AD
100
AcDbEntity
  8
0
  6
CONTINUOUS
 62
  256
370
   -3
100
AcDbLine
 10
114.3047373110772
 20
25.06014534461068
 11
118.7842653684607
 21
31.45757441090886
  0
LINE
  5
1AE
100
AcDbEntity
  8
0
  6
CONTINUOUS
 62
  256
370
   -3
100
AcDbLine
 10
122.1796115035482
 20
25.84595045220696
 11
125.7993249994352
 21
31.01543706633587
  0
LINE
  5
1AF
100
AcDbEntity
  8
0
  6
CONTINUOUS
 62
  256
370
   -3
100
AcDbLine
 10
130.0362333777721
 20
26.60568854788009
 11
133.1495600880086
 21
31.05197988344143
  0
LINE
  5
1B0
100
AcDbEntity
  8
0
  6
CONTINUOUS
 62
  256
370
   -3
100
AcDbLine
 10
137.8928552519961
 20
27.36542664355321
 11
140.866622104562
 21
31.6124058465612
  0
LINE
  5
1B1
100
AcDbEntity
  8
0
  6
CONTINUOUS
 62
  256
370
   -3
100
AcDbLine
 10
145.7302047294853
 20
28.09764090424441
 11
149.0154097954411
 21
32.78939997092872
  0
LINE
  5
1B2
100
AcDbEntity
  8
0
  6
CONTINUOUS
 62
  256
370
   -3
100
AcDbLine
 10
153.5146088894881
 20
28.75424141530099
 11
157.6946541503413
 21
34.72396472268056
  0
LINE
  5
1B3
100
AcDbEntity
  8
0
  6
CONTINUOUS
 62
  256
370
   -3
100
AcDbLine
 10
161.2463191916941
 20
29.33558729837788
 11
167.0471122386817
 21
37.61997832595742
  0
LINE
  5
1B4
100
AcDbEntity
  8
0
  6
CONTINUOUS
 62
  256
370
   -3
100
AcDbLine
 10
168.9288447065785
 20
29.8466900254788
 11
177.0662314147426
 21
41.46808263283438
  0
LINE
  5
1B5
100
AcDbEntity
  8
0
  6
CONTINUOUS
 62
  256
370
   -3
100
AcDbLine
 10
176.559459455149
 20
30.28365649514072
 11
186.1170369344842
 21
43.9332917215377
  0
LINE
  5
1B6
100
AcDbEntity
  8
0
  6
CONTINUOUS
 62
  256
370
   -3
100
AcDbLine
 10
184.139398852201
 20
30.64825106253991
 11
194.3570244308495
 21
45.24053266632519
  0
LINE
  5
1B7
100
AcDbEntity
  8
0
  6
CONTINUOUS
 62
  256
370
   -3
100
AcDbLine
 10
191.655935368509
 20
30.92229693218341
 11
201.9994916802882
 21
45.6944262614768
  0
LINE
  5
1B8
100
AcDbEntity
  8
0
  6
CONTINUOUS
 62
  256
370
   -3
100
AcDbLine
 10
199.1239918621492
 20
31.12710615408687
 11
209.1660126773332
 21
45.46859816495591
  0
LINE
  5
1B9
100
AcDbEntity
  8
0
  6
CONTINUOUS
 62
  256
370
   -3
100
AcDbLine
 10
206.4564522116017
 20
31.13826401294663
 11
215.9329673210006
 21
44.67213017729729
  0
LINE
  5
1BA
100
AcDbEntity
  8
0
  6
CONTINUOUS
 62
  256
370
   -3
100
AcDbLine
 10
213.6483346944621
 20
30.94865587184055
 11
222.3512652524766
 21
43.37772880108493
  0
LINE
  5
1BB
100
AcDbEntity
  8
0
  6
CONTINUOUS
 62
  256
370
   -3
100
AcDbLine
 10
220.7906467849526
 20
30.68825387367841
 11
228.4560027526961
 21
41.63551671998053
  0
LINE
  5
1BC
100
AcDbEntity
  8
0
  6
CONTINUOUS
 62
  256
370
   -3
100
AcDbLine
 10
227.886264765115
 20
30.36116577492467
 11
234.2716649488659
 21
39.48046231959965
  0
LINE
  5
1BD
100
AcDbEntity
  8
0
  6
CONTINUOUS
 62
  256
370
   -3
100
AcDbLine
 10
234.9435948894148
 20
29.97939695113818
 11
240.0271472645761
 21
37.23946214289416
  0
LINE
  5
1BE
100
AcDbEntity
  8
0
  6
CONTINUOUS
 62
  256
370
   -3
100
AcDbLine
 10
241.9635013759558
 20
29.54418163368135
 11
246.0389152492204
 21
35.36447583343377
  0
LINE
  5
1BF
100
AcDbEntity
  8
0
  6
CONTINUOUS
 62
  256
370
   -3
100
AcDbLine
 10
338.9672408889215
 20
168.079878865665
 11
340.2264753904867
 21
169.8782521090961
  0
LINE
  5
1C0
100
AcDbEntity
  8
0
  6
CONTINUOUS
 62
  256
370
   -3
100
AcDbLine
 10
248.9271435354168
 20
29.02861252965445
 11
252.246586994059
 21
33.76926908860756
  0
LINE
  5
1C1
100
AcDbEntity
  8
0
  6
CONTINUOUS
 62
  256
370
   -3
100
AcDbLine
 10
341.3575869944968
 20
161.0329661180391
 11
344.5149417958865
 21
165.5421360842219
  0
LINE
  5
1C2
100
AcDbEntity
  8
0
  6
CONTINUOUS
 62
  256
370
   -3
100
AcDbLine
 10
255.8618646487281
 20
28.471739891216
 11
258.6794396413294
 21
32.49565400074621
  0
LINE
  5
1C3
100
AcDbEntity
  8
0
  6
CONTINUOUS
 62
  256
370
   -3
100
AcDbLine
 10
343.747933100072
 20
153.9860533704131
 11
348.8713803620062
 21
161.3030943651933
  0
LINE
  5
1C4
100
AcDbEntity
  8
0
  6
CONTINUOUS
 62
  256
370
   -3
100
AcDbLine
 10
262.7747650897032
 20
27.88370410307474
 11
265.3697017707647
 21
31.58965775175469
  0
LINE
  5
1C5
100
AcDbEntity
  8
0
  6
CONTINUOUS
 62
  256
370
   -3
100
AcDbLine
 10
346.1382792056471
 20
146.939140622787
 11
353.2927311210971
 21
157.1567568651698
  0
LINE
  5
1C6
100
AcDbEntity
  8
0
  6
CONTINUOUS
 62
  256
370
   -3
100
AcDbLine
 10
269.6349100465465
 20
27.22032567542593
 11
272.3282195655207
 21
31.06677029648873
  0
LINE
  5
1C7
100
AcDbEntity
  8
0
  6
CONTINUOUS
 62
  256
370
   -3
100
AcDbLine
 10
348.5286253112224
 20
139.8922278751612
 11
357.7794645558233
 21
153.1037955030307
  0
LINE
  5
1C8
100
AcDbEntity
  8
0
  6
CONTINUOUS
 62
  256
370
   -3
100
AcDbLine
 10
276.4950550033898
 20
26.55694724777712
 11
279.6105701715165
 21
31.00636402511251
  0
LINE
  5
1C9
100
AcDbEntity
  8
0
  6
CONTINUOUS
 62
  256
370
   -3
100
AcDbLine
 10
350.9189714167975
 20
132.8453151275351
 11
362.3517863504127
 21
149.1730669864304
  0
LINE
  5
1CA
100
AcDbEntity
  8
0
  6
CONTINUOUS
 62
  256
370
   -3
100
AcDbLine
 10
283.355199960233
 20
25.8935688201283
 11
287.251749278848
 21
31.45841796268136
  0
LINE
  5
1CB
100
AcDbEntity
  8
0
  6
CONTINUOUS
 62
  256
370
   -3
100
AcDbLine
 10
353.2463911958812
 20
125.7085342721586
 11
366.9886382247553
 21
145.3344969746043
  0
LINE
  5
1CC
100
AcDbEntity
  8
0
  6
CONTINUOUS
 62
  256
370
   -3
100
AcDbLine
 10
290.2076554419852
 20
25.21920868395561
 11
295.3056051874844
 21
32.49983545146225
  0
LINE
  5
1CD
100
AcDbEntity
  8
0
  6
CONTINUOUS
 62
  256
370
   -3
100
AcDbLine
 10
355.2160900974713
 20
118.06087505862
 11
371.6868218778488
 21
141.5835178203519
  0
LINE
  5
1CE
100
AcDbEntity
  8
0
  6
CONTINUOUS
 62
  256
370
   -3
100
AcDbLine
 10
297.0306514902619
 20
24.50277611658547
 11
303.9870032852075
 21
34.43747606673426
  0
LINE
  5
1CF
100
AcDbEntity
  8
0
  6
CONTINUOUS
 62
  256
370
   -3
100
AcDbLine
 10
356.7196864542158
 20
109.7475524247229
 11
376.4460656485785
 21
137.919741551393
  0
LINE
  5
1D0
100
AcDbEntity
  8
0
  6
CONTINUOUS
 62
  256
370
   -3
100
AcDbLine
 10
303.8536475385392
 20
23.786343549215
 11
313.5611835413198
 21
37.65014174196441
  0
LINE
  5
1D1
100
AcDbEntity
  8
0
  6
CONTINUOUS
 62
  256
370
   -3
100
AcDbLine
 10
357.410248390926
 20
100.2730963044401
 11
380.2658721018463
 21
132.914309750041
  0
LINE
  5
1D2
100
AcDbEntity
  8
0
  6
CONTINUOUS
 62
  256
370
   -3
100
AcDbLine
 10
310.676643586816
 20
23.06991098184486
 11
324.992214753404
 21
43.51466540878427
  0
LINE
  5
1D3
100
AcDbEntity
  8
0
  6
CONTINUOUS
 62
  256
370
   -3
100
AcDbLine
 10
356.5085653062791
 20
88.52467863066195
 11
378.3926830807248
 21
119.7784378095485
  0
LINE
  5
1D4
100
AcDbEntity
  8
0
  6
CONTINUOUS
 62
  256
370
   -3
100
AcDbLine
 10
317.4996396350932
 20
22.35347841447439
 11
328.5524394312645
 21
38.13851241229727
  0
LINE
  5
1D5
100
AcDbEntity
  8
0
  6
CONTINUOUS
 62
  256
370
   -3
100
AcDbLine
 10
330.2163465500198
 20
40.5148180473518
 11
376.5194940596035
 21
106.6425658690548
  0
LINE
  5
1D6
100
AcDbEntity
  8
0
  6
CONTINUOUS
 62
  256
370
   -3
100
AcDbLine
 10
324.32263568337
 20
21.63704584710425
 11
327.6539049543936
 21
26.39459141643817
  0
LINE
  5
1D7
100
AcDbEntity
  8
0
  6
CONTINUOUS
 62
  256
370
   -3
100
AcDbLine
 10
334.7755891026892
 20
36.56541043747438
 11
338.1152926154955
 21
41.33500135239859
  0
LINE
  5
1D8
100
AcDbEntity
  8
0
  6
CONTINUOUS
 62
  256
370
   -3
100
AcDbLine
 10
342.2433386047156
 20
47.23046200364357
 11
374.6463050384821
 21
93.5066939285623
  0
LINE
  5
1D9
100
AcDbEntity
  8
0
  6
CONTINUOUS
 62
  256
370
   -3
100
AcDbLine
 10
331.1456317316471
 20
20.92061327973377
 11
335.4988187074309
 21
27.13760858217546
  0
LINE
  5
1DA
100
AcDbEntity
  8
0
  6
CONTINUOUS
 62
  256
370
   -3
100
AcDbLine
 10
340.6903282444921
 20
34.55185257951266
 11
341.5434033336565
 21
35.77017006770425
  0
LINE
  5
1DB
100
AcDbEntity
  8
0
  6
CONTINUOUS
 62
  256
370
   -3
100
AcDbLine
 10
343.2350861334957
 20
38.18614348633474
 11
344.9472864143151
 21
40.63141890453039
  0
LINE
  5
1DC
100
AcDbEntity
  8
0
  6
CONTINUOUS
 62
  256
370
   -3
100
AcDbLine
 10
349.075409141976
 20
46.5269891496266
 11
372.7731160173607
 21
80.37082198806857
  0
LINE
  5
1DD
100
AcDbEntity
  8
0
  6
CONTINUOUS
 62
  256
370
   -3
100
AcDbLine
 10
337.9402074909453
 20
20.16359233330766
 11
348.6366442227865
 21
35.43968713113108
  0
LINE
  5
1DE
100
AcDbEntity
  8
0
  6
CONTINUOUS
 62
  256
370
   -3
100
AcDbLine
 10
350.6707190834104
 20
38.34464708889559
 11
351.779280213134
 21
39.92783645666224
  0
LINE
  5
1DF
100
AcDbEntity
  8
0
  6
CONTINUOUS
 62
  256
370
   -3
100
AcDbLine
 10
352.8128467830095
 20
41.40392249326531
 11
370.899926996239
 21
67.23495004757584
  0
LINE
  5
1E0
100
AcDbEntity
  8
0
  6
CONTINUOUS
 62
  256
370
   -3
100
AcDbLine
 10
344.7345053045406
 20
19.40617443927888
 11
348.8725266379552
 21
25.31588135845173
  0
LINE
  5
1E1
100
AcDbEntity
  8
0
  6
CONTINUOUS
 62
  256
370
   -3
100
AcDbLine
 10
357.5027128822303
 20
37.64106464102737
 11
369.0267379751178
 21
54.09907810708197
  0
LINE
  5
1E2
100
AcDbEntity
  8
0
  6
CONTINUOUS
 62
  256
370
   -3
100
AcDbLine
 10
351.5288031181348
 20
18.64875654525033
 11
355.7152850652192
 21
24.62767239324125
  0
LINE
  5
1E3
100
AcDbEntity
  8
0
  6
CONTINUOUS
 62
  256
370
   -3
100
AcDbLine
 10
357.7574325000784
 20
27.54416118180913
 11
367.1535489539965
 21
40.96320616658979
  0
LINE
  5
1E4
100
AcDbEntity
  8
0
  6
CONTINUOUS
 62
  256
370
   -3
100
AcDbLine
 10
358.32310093173
 20
17.89133865122155
 11
365.2803599328748
 21
27.82733422609581
  0
POINT
  5
1E5
100
AcDbEntity
  8
0
  6
CONTINUOUS
 62
    7
370
   -3
100
AcDbPoint
 10
27.27284525662541
 20
125.6703588191758
  0
LINE
  5
1E6
100
AcDbEntity
  8
0
  6
CONTINUOUS
 62
  256
370
   -3
100
AcDbLine
 10
338.6384950258594
 20
153.4837560236397
 11
325.7124528275983
 21
148.5716913643573
  0
LINE
  5
1E7
100
AcDbEntity
  8
0
  6
CONTINUOUS
 62
  256
370
   -3
100
AcDbLine
 10
195.5136218379108
 20
117.2585281621898
 11
195.5136218379108
 21
133.2482370637334
  0
LINE
  5
1E8
100
AcDbEntity
  8
0
  6
CONTINUOUS
 62
  256
370
   -3
100
AcDbLine
 10
198.0136218379108
 20
116.6852828581276
 11
198.0136218379108
 21
132.1579766304251
  0
LINE
  5
1E9
100
AcDbEntity
  8
0
  6
CONTINUOUS
 62
  256
370
   -3
100
AcDbLine
 10
200.5136218379108
 20
116.3794179792236
 11
200.5136218379108
 21
131.4912649765066
  0
LINE
  5
1EA
100
AcDbEntity
  8
0
  6
CONTINUOUS
 62
  256
370
   -3
100
AcDbLine
 10
193.0136218379108
 20
118.0849533585363
 11
193.0136218379108
 21
134.8733411419564
  0
LINE
  5
1EB
100
AcDbEntity
  8
0
  6
CONTINUOUS
 62
  256
370
   -3
100
AcDbLine
 10
190.5136218379108
 20
122.4942118793494
 11
190.5136218379108
 21
136.8993871839821
  0
LINE
  5
1EC
100
AcDbEntity
  8
0
  6
CONTINUOUS
 62
  256
370
   -3
100
AcDbLine
 10
188.0136218379108
 20
126.3681710877413
 11
188.0136218379108
 21
139.2009410949515
  0
LINE
  5
1ED
100
AcDbEntity
  8
0
  6
CONTINUOUS
 62
  256
370
   -3
100
AcDbLine
 10
185.5136218379108
 20
129.8934596807763
 11
185.5136218379108
 21
141.5789856859714
  0
LINE
  5
1EE
100
AcDbEntity
  8
0
  6
CONTINUOUS
 62
  256
370
   -3
100
AcDbLine
 10
183.0136218379108
 20
133.158569075087
 11
183.0136218379108
 21
144.0559042604699
  0
LINE
  5
1EF
100
AcDbEntity
  8
0
  6
CONTINUOUS
 62
  256
370
   -3
100
AcDbLine
 10
180.5136218379108
 20
136.2382440658038
 11
180.5136218379108
 21
146.6626615749206
  0
LINE
  5
1F0
100
AcDbEntity
  8
0
  6
CONTINUOUS
 62
  256
370
   -3
100
AcDbLine
 10
178.0136218379108
 20
139.1514092448179
 11
178.0136218379108
 21
149.2926167037223
  0
LINE
  5
1F1
100
AcDbEntity
  8
0
  6
CONTINUOUS
 62
  256
370
   -3
100
AcDbLine
 10
175.5136218379108
 20
141.9219751495827
 11
175.5136218379108
 21
152.0783424874562
  0
LINE
  5
1F2
100
AcDbEntity
  8
0
  6
CONTINUOUS
 62
  256
370
   -3
100
AcDbLine
 10
67.38874864994173
 20
153.4837560236115
 11
80.31479084821301
 21
148.5716913643283
  0
LINE
  5
1F3
100
AcDbEntity
  8
0
  6
CONTINUOUS
 62
  256
370
   -3
100
AcDbLine
 10
68.10370941527222
 20
155.5915119336973
 11
80.83134734553246
 21
149.9759793202283
  0
LINE
  5
1F4
100
AcDbEntity
  8
0
  6
CONTINUOUS
 62
  256
370
   -3
100
AcDbLine
 10
68.82535017099022
 20
157.718960937343
 11
81.35251282109824
 21
151.3889927223294
  0
LINE
  5
1F5
100
AcDbEntity
  8
0
  6
CONTINUOUS
 62
  256
370
   -3
100
AcDbLine
 10
69.55779622320202
 20
159.8782647344971
 11
81.95126576784939
 21
152.7783192872702
  0
LINE
  5
1F6
100
AcDbEntity
  8
0
  6
CONTINUOUS
 62
  256
370
   -3
100
AcDbLine
 10
70.30541853423861
 20
162.0823092374098
 11
82.55720428222655
 21
154.1843190060406
  0
LINE
  5
1F7
100
AcDbEntity
  8
0
  6
CONTINUOUS
 62
  256
370
   -3
100
AcDbLine
 10
71.07294231010715
 20
164.3450246942465
 11
83.17385697523667
 21
155.6151795510952
  0
LINE
  5
1F8
100
AcDbEntity
  8
0
  6
CONTINUOUS
 62
  256
370
   -3
100
AcDbLine
 10
71.86557361578492
 20
166.6817589601001
 11
83.79910780648257
 21
157.0843981095284
  0
LINE
  5
1F9
100
AcDbEntity
  8
0
  6
CONTINUOUS
 62
  256
370
   -3
100
AcDbLine
 10
72.6891515943486
 20
169.1097262499707
 11
84.4366668413151
 21
158.6034886180973
  0
LINE
  5
1FA
100
AcDbEntity
  8
0
  6
CONTINUOUS
 62
  256
370
   -3
100
AcDbLine
 10
73.55033629429605
 20
171.6485608672534
 11
85.09066817394357
 21
160.1855374320172
  0
LINE
  5
1FB
100
AcDbEntity
  8
0
  6
CONTINUOUS
 62
  256
370
   -3
100
AcDbLine
 10
74.45684571269263
 20
174.3210160240356
 11
85.77346505247
 21
161.8372646880658
  0
LINE
  5
1FC
100
AcDbEntity
  8
0
  6
CONTINUOUS
 62
  256
370
   -3
100
AcDbLine
 10
75.41776102293457
 20
177.1538636745665
 11
86.48578860791181
 21
163.5795206313799
  0
LINE
  5
1FD
100
AcDbEntity
  8
0
  6
CONTINUOUS
 62
  256
370
   -3
100
AcDbLine
 10
76.44392701514212
 20
180.1790750424098
 11
87.24006273355477
 21
165.4240042011896
  0
LINE
  5
1FE
100
AcDbEntity
  8
0
  6
CONTINUOUS
 62
  256
370
   -3
100
AcDbLine
 10
77.81695869569435
 20
183.0250137871197
 11
88.04652871036951
 21
167.388158539814
  0
LINE
  5
1FF
100
AcDbEntity
  8
0
  6
CONTINUOUS
 62
  256
370
   -3
100
AcDbLine
 10
79.72651648311843
 20
185.2880716544946
 11
88.91322585238017
 21
169.4990063631496
  0
LINE
  5
200
100
AcDbEntity
  8
0
  6
CONTINUOUS
 62
  256
370
   -3
100
AcDbLine
 10
81.708904419551
 20
187.6374420926551
 11
89.8663023533251
 21
171.7597885592384
  0
LINE
  5
201
100
AcDbEntity
  8
0
  6
CONTINUOUS
 62
  256
370
   -3
100
AcDbLine
 10
83.76039541064137
 20
190.13536085808
 11
90.95515061820073
 21
174.1207399557871
  0
LINE
  5
202
100
AcDbEntity
  8
0
  6
CONTINUOUS
 62
  256
370
   -3
100
AcDbLine
 10
85.89801196379688
 20
192.8274656130708
 11
92.19788503571424
 21
176.5791620496815
  0
LINE
  5
203
100
AcDbEntity
  8
0
  6
CONTINUOUS
 62
  256
370
   -3
100
AcDbLine
 10
88.17100928013058
 20
195.6900682975196
 11
93.66450837974357
 21
178.9741765316923
  0
LINE
  5
204
100
AcDbEntity
  8
0
  6
CONTINUOUS
 62
  256
370
   -3
100
AcDbLine
 10
90.57283906680517
 20
198.8810081709487
 11
95.38430423251357
 21
181.1627763337125
  0
LINE
  5
205
100
AcDbEntity
  8
0
  6
CONTINUOUS
 62
  256
370
   -3
100
AcDbLine
 10
93.1729191613728
 20
202.3686662808124
 11
97.34090822388505
 21
183.0788200826066
  0
LINE
  5
206
100
AcDbEntity
  8
0
  6
CONTINUOUS
 62
  256
370
   -3
100
AcDbLine
 10
96.00088709594785
 20
206.3219535118514
 11
99.49420069154458
 21
184.7358141663264
  0
LINE
  5
207
100
AcDbEntity
  8
0
  6
CONTINUOUS
 62
  256
370
   -3
100
AcDbLine
 10
99.13712878382707
 20
210.7825216677855
 11
101.82401078035
 21
186.0193873310784
  0
LINE
  5
208
100
AcDbEntity
  8
0
  6
CONTINUOUS
 62
  256
370
   -3
100
AcDbLine
 10
102.6552384379389
 20
216.0957345542035
 11
104.2956213233493
 21
186.6867812993633
  0
LINE
  5
209
100
AcDbEntity
  8
0
  6
CONTINUOUS
 62
  256
370
   -3
100
AcDbLine
 10
106.7045971993171
 20
222.4582944852091
 11
106.8231144769025
 21
187.1931294959871
  0
LINE
  5
20A
100
AcDbEntity
  8
0
  6
CONTINUOUS
 62
  256
370
   -3
100
AcDbLine
 10
173.0136218379108
 20
144.5686021593298
 11
173.0136218379108
 21
154.8894562420116
  0
LINE
  5
20B
100
AcDbEntity
  8
0
  6
CONTINUOUS
 62
  256
370
   -3
100
AcDbLine
 10
170.5136218379108
 20
147.1068154216876
 11
170.5136218379108
 21
157.7669088650243
  0
LINE
  5
20C
100
AcDbEntity
  8
0
  6
CONTINUOUS
 62
  256
370
   -3
100
AcDbLine
 10
168.0136218379108
 20
149.5496555429973
 11
168.0136218379108
 21
160.644361488037
  0
LINE
  5
20D
100
AcDbEntity
  8
0
  6
CONTINUOUS
 62
  256
370
   -3
100
AcDbLine
 10
165.5136218379108
 20
151.9081758579952
 11
165.5136218379108
 21
163.5218141110497
  0
LINE
  5
20E
100
AcDbEntity
  8
0
  6
CONTINUOUS
 62
  256
370
   -3
100
AcDbLine
 10
163.0136218379108
 20
154.1877462827661
 11
163.0136218379108
 21
166.3845029381818
  0
LINE
  5
20F
100
AcDbEntity
  8
0
  6
CONTINUOUS
 62
  256
370
   -3
100
AcDbLine
 10
160.5136218379108
 20
156.4160231850967
 11
160.5136218379108
 21
169.186208365558
  0
LINE
  5
210
100
AcDbEntity
  8
0
  6
CONTINUOUS
 62
  256
370
   -3
100
AcDbLine
 10
158.0136218379108
 20
158.5644482448935
 11
158.0136218379108
 21
171.9317695410893
  0
LINE
  5
211
100
AcDbEntity
  8
0
  6
CONTINUOUS
 62
  256
370
   -3
100
AcDbLine
 10
155.5136218379108
 20
160.6600153282184
 11
155.5136218379108
 21
174.5802292420901
  0
LINE
  5
212
100
AcDbEntity
  8
0
  6
CONTINUOUS
 62
  256
370
   -3
100
AcDbLine
 10
153.0136218379108
 20
162.6870783519484
 11
153.0136218379108
 21
177.228688943091
  0
LINE
  5
213
100
AcDbEntity
  8
0
  6
CONTINUOUS
 62
  256
370
   -3
100
AcDbLine
 10
150.5136218379108
 20
164.6567096326016
 11
150.5136218379108
 21
179.826899279576
  0
LINE
  5
214
100
AcDbEntity
  8
0
  6
CONTINUOUS
 62
  256
370
   -3
100
AcDbLine
 10
148.0136218379108
 20
166.5699176693398
 11
148.0136218379108
 21
182.3603302569078
  0
LINE
  5
215
100
AcDbEntity
  8
0
  6
CONTINUOUS
 62
  256
370
   -3
100
AcDbLine
 10
145.5136218379108
 20
168.4277425916297
 11
145.5136218379108
 21
184.8937612342395
  0
LINE
  5
216
100
AcDbEntity
  8
0
  6
CONTINUOUS
 62
  256
370
   -3
100
AcDbLine
 10
143.0136218379108
 20
170.2312534122761
 11
143.0136218379108
 21
187.4271922115713
  0
LINE
  5
217
100
AcDbEntity
  8
0
  6
CONTINUOUS
 62
  256
370
   -3
100
AcDbLine
 10
140.5136218379108
 20
171.9703099509655
 11
140.5136218379108
 21
189.960623188903
  0
LINE
  5
218
100
AcDbEntity
  8
0
  6
CONTINUOUS
 62
  256
370
   -3
100
AcDbLine
 10
138.0136218379108
 20
173.6485606230542
 11
138.0136218379108
 21
192.4974172545045
  0
LINE
  5
219
100
AcDbEntity
  8
0
  6
CONTINUOUS
 62
  256
370
   -3
100
AcDbLine
 10
135.5136218379108
 20
175.2745209503293
 11
135.5136218379108
 21
195.0861269319239
  0
LINE
  5
21A
100
AcDbEntity
  8
0
  6
CONTINUOUS
 62
  256
370
   -3
100
AcDbLine
 10
133.0136218379109
 20
176.8461563988263
 11
133.0136218379109
 21
197.6748366093434
  0
LINE
  5
21B
100
AcDbEntity
  8
0
  6
CONTINUOUS
 62
  256
370
   -3
100
AcDbLine
 10
130.5136218379109
 20
178.3565757223324
 11
130.5136218379109
 21
200.263546286763
  0
LINE
  5
21C
100
AcDbEntity
  8
0
  6
CONTINUOUS
 62
  256
370
   -3
100
AcDbLine
 10
128.0136218379108
 20
179.8263214072964
 11
128.0136218379108
 21
202.9280115497701
  0
LINE
  5
21D
100
AcDbEntity
  8
0
  6
CONTINUOUS
 62
  256
370
   -3
100
AcDbLine
 10
125.5136218379108
 20
181.2020876879122
 11
125.5136218379108
 21
205.6022176989636
  0
LINE
  5
21E
100
AcDbEntity
  8
0
  6
CONTINUOUS
 62
  256
370
   -3
100
AcDbLine
 10
123.0136218379108
 20
182.5078969827463
 11
123.0136218379108
 21
208.2764238481571
  0
LINE
  5
21F
100
AcDbEntity
  8
0
  6
CONTINUOUS
 62
  256
370
   -3
100
AcDbLine
 10
120.5136218379108
 20
183.6905169182197
 11
120.5136218379108
 21
211.0155785927575
  0
LINE
  5
220
100
AcDbEntity
  8
0
  6
CONTINUOUS
 62
  256
370
   -3
100
AcDbLine
 10
118.0136218379108
 20
184.708441067233
 11
118.0136218379108
 21
213.774757901666
  0
LINE
  5
221
100
AcDbEntity
  8
0
  6
CONTINUOUS
 62
  256
370
   -3
100
AcDbLine
 10
115.5136218379108
 20
185.6094113720302
 11
115.5136218379108
 21
216.5339372105745
  0
LINE
  5
222
100
AcDbEntity
  8
0
  6
CONTINUOUS
 62
  256
370
   -3
100
AcDbLine
 10
112.7136218379106
 20
186.4143827201711
 11
112.7136218379106
 21
219.6993700518135
  0
LINE
  5
223
100
AcDbEntity
  8
0
  6
CONTINUOUS
 62
  256
370
   -3
100
AcDbLine
 10
109.9136218379104
 20
186.9114673099936
 11
109.9136218379104
 21
222.8929381012299
  0
LINE
  5
224
100
AcDbEntity
  8
0
  6
CONTINUOUS
 62
  256
370
   -3
100
AcDbLine
 10
339.154900875267
 20
167.5266436890026
 11
341.1404122623618
 21
168.9169137294477
  0
LINE
  5
225
100
AcDbEntity
  8
0
  6
CONTINUOUS
 62
  256
370
   -3
100
AcDbLine
 10
210.5136218379108
 20
117.2585281621897
 11
210.5136218379108
 21
133.2482370637334
  0
LINE
  5
226
100
AcDbEntity
  8
0
  6
CONTINUOUS
 62
  256
370
   -3
100
AcDbLine
 10
208.0136218379108
 20
116.6852828581275
 11
208.0136218379108
 21
132.157976630425
  0
LINE
  5
227
100
AcDbEntity
  8
0
  6
CONTINUOUS
 62
  256
370
   -3
100
AcDbLine
 10
205.5136218379108
 20
116.3794179792236
 11
205.5136218379108
 21
131.4912649765066
  0
LINE
  5
228
100
AcDbEntity
  8
0
  6
CONTINUOUS
 62
  256
370
   -3
100
AcDbLine
 10
213.0136218379108
 20
118.0849533585363
 11
213.0136218379108
 21
134.8733411419564
  0
LINE
  5
229
100
AcDbEntity
  8
0
  6
CONTINUOUS
 62
  256
370
   -3
100
AcDbLine
 10
215.5136218379108
 20
122.4942118793494
 11
215.5136218379108
 21
136.8993871839821
  0
LINE
  5
22A
100
AcDbEntity
  8
0
  6
CONTINUOUS
 62
  256
370
   -3
100
AcDbLine
 10
218.0136218379108
 20
126.3681710877413
 11
218.0136218379108
 21
139.2009410949515
  0
LINE
  5
22B
100
AcDbEntity
  8
0
  6
CONTINUOUS
 62
  256
370
   -3
100
AcDbLine
 10
220.5136218379108
 20
129.8934596807763
 11
220.5136218379108
 21
141.5789856859714
  0
LINE
  5
22C
100
AcDbEntity
  8
0
  6
CONTINUOUS
 62
  256
370
   -3
100
AcDbLine
 10
223.0136218379108
 20
133.158569075087
 11
223.0136218379108
 21
144.0559042604699
  0
LINE
  5
22D
100
AcDbEntity
  8
0
  6
CONTINUOUS
 62
  256
370
   -3
100
AcDbLine
 10
225.5136218379108
 20
136.2382440658038
 11
225.5136218379108
 21
146.6626615749206
  0
LINE
  5
22E
100
AcDbEntity
  8
0
  6
CONTINUOUS
 62
  256
370
   -3
100
AcDbLine
 10
228.0136218379108
 20
139.1514092448179
 11
228.0136218379108
 21
149.2926167037223
  0
LINE
  5
22F
100
AcDbEntity
  8
0
  6
CONTINUOUS
 62
  256
370
   -3
100
AcDbLine
 10
230.5136218379108
 20
141.9219751495827
 11
230.5136218379108
 21
152.0783424874562
  0
LINE
  5
230
100
AcDbEntity
  8
0
  6
CONTINUOUS
 62
  256
370
   -3
100
AcDbLine
 10
338.63849502588
 20
153.4837560236115
 11
325.7124528276088
 21
148.5716913643283
  0
LINE
  5
231
100
AcDbEntity
  8
0
  6
CONTINUOUS
 62
  256
370
   -3
100
AcDbLine
 10
337.9235342605495
 20
155.5915119336973
 11
325.1958963302893
 21
149.9759793202283
  0
LINE
  5
232
100
AcDbEntity
  8
0
  6
CONTINUOUS
 62
  256
370
   -3
100
AcDbLine
 10
337.2018935048314
 20
157.718960937343
 11
324.6747308547235
 21
151.3889927223294
  0
LINE
  5
233
100
AcDbEntity
  8
0
  6
CONTINUOUS
 62
  256
370
   -3
100
AcDbLine
 10
336.4694474526197
 20
159.8782647344971
 11
324.0759779079724
 21
152.7783192872702
  0
LINE
  5
234
100
AcDbEntity
  8
0
  6
CONTINUOUS
 62
  256
370
   -3
100
AcDbLine
 10
335.7218251415832
 20
162.0823092374098
 11
323.4700393935952
 21
154.1843190060406
  0
LINE
  5
235
100
AcDbEntity
  8
0
  6
CONTINUOUS
 62
  256
370
   -3
100
AcDbLine
 10
334.9543013657145
 20
164.3450246942465
 11
322.853386700585
 21
155.6151795510952
  0
LINE
  5
236
100
AcDbEntity
  8
0
  6
CONTINUOUS
 62
  256
370
   -3
100
AcDbLine
 10
334.1616700600368
 20
166.6817589601001
 11
322.2281358693392
 21
157.0843981095284
  0
LINE
  5
237
100
AcDbEntity
  8
0
  6
CONTINUOUS
 62
  256
370
   -3
100
AcDbLine
 10
333.3380920814731
 20
169.1097262499707
 11
321.5905768345067
 21
158.6034886180973
  0
LINE
  5
238
100
AcDbEntity
  8
0
  6
CONTINUOUS
 62
  256
370
   -3
100
AcDbLine
 10
332.4769073815257
 20
171.6485608672534
 11
320.9365755018782
 21
160.1855374320172
  0
LINE
  5
239
100
AcDbEntity
  8
0
  6
CONTINUOUS
 62
  256
370
   -3
100
AcDbLine
 10
331.570397963129
 20
174.3210160240356
 11
320.2537786233516
 21
161.8372646880658
  0
LINE
  5
23A
100
AcDbEntity
  8
0
  6
CONTINUOUS
 62
  256
370
   -3
100
AcDbLine
 10
330.6094826528871
 20
177.1538636745665
 11
319.54145506791
 21
163.5795206313799
  0
LINE
  5
23B
100
AcDbEntity
  8
0
  6
CONTINUOUS
 62
  256
370
   -3
100
AcDbLine
 10
329.5833166606795
 20
180.1790750424098
 11
318.787180942267
 21
165.4240042011896
  0
LINE
  5
23C
100
AcDbEntity
  8
0
  6
CONTINUOUS
 62
  256
370
   -3
100
AcDbLine
 10
328.2102849801273
 20
183.0250137871197
 11
317.9807149654522
 21
167.388158539814
  0
LINE
  5
23D
100
AcDbEntity
  8
0
  6
CONTINUOUS
 62
  256
370
   -3
100
AcDbLine
 10
326.3007271927033
 20
185.2880716544946
 11
317.1140178234415
 21
169.4990063631496
  0
LINE
  5
23E
100
AcDbEntity
  8
0
  6
CONTINUOUS
 62
  256
370
   -3
100
AcDbLine
 10
324.3183392562707
 20
187.6374420926551
 11
316.1609413224965
 21
171.7597885592384
  0
LINE
  5
23F
100
AcDbEntity
  8
0
  6
CONTINUOUS
 62
  256
370
   -3
100
AcDbLine
 10
322.2668482651804
 20
190.13536085808
 11
315.072093057621
 21
174.1207399557871
  0
LINE
  5
240
100
AcDbEntity
  8
0
  6
CONTINUOUS
 62
  256
370
   -3
100
AcDbLine
 10
320.1292317120248
 20
192.8274656130708
 11
313.8293586401074
 21
176.5791620496815
  0
LINE
  5
241
100
AcDbEntity
  8
0
  6
CONTINUOUS
 62
  256
370
   -3
100
AcDbLine
 10
317.8562343956912
 20
195.6900682975196
 11
312.3627352960781
 21
178.9741765316923
  0
LINE
  5
242
100
AcDbEntity
  8
0
  6
CONTINUOUS
 62
  256
370
   -3
100
AcDbLine
 10
315.4544046090165
 20
198.8810081709487
 11
310.6429394433082
 21
181.1627763337125
  0
LINE
  5
243
100
AcDbEntity
  8
0
  6
CONTINUOUS
 62
  256
370
   -3
100
AcDbLine
 10
312.854324514449
 20
202.3686662808124
 11
308.6863354519365
 21
183.0788200826066
  0
LINE
  5
244
100
AcDbEntity
  8
0
  6
CONTINUOUS
 62
  256
370
   -3
100
AcDbLine
 10
310.0263565798738
 20
206.3219535118514
 11
306.5330429842771
 21
184.7358141663264
  0
LINE
  5
245
100
AcDbEntity
  8
0
  6
CONTINUOUS
 62
  256
370
   -3
100
AcDbLine
 10
306.8901148919947
 20
210.7825216677855
 11
304.2032328954717
 21
186.0193873310784
  0
LINE
  5
246
100
AcDbEntity
  8
0
  6
CONTINUOUS
 62
  256
370
   -3
100
AcDbLine
 10
303.3720052378829
 20
216.0957345542035
 11
301.7316223524724
 21
186.6867812993633
  0
LINE
  5
247
100
AcDbEntity
  8
0
  6
CONTINUOUS
 62
  256
370
   -3
100
AcDbLine
 10
299.3226464765046
 20
222.4582944852091
 11
299.2041291989191
 21
187.1931294959871
  0
LINE
  5
248
100
AcDbEntity
  8
0
  6
CONTINUOUS
 62
  256
370
   -3
100
AcDbLine
 10
233.0136218379108
 20
144.5686021593298
 11
233.0136218379108
 21
154.8894562420116
  0
LINE
  5
249
100
AcDbEntity
  8
0
  6
CONTINUOUS
 62
  256
370
   -3
100
AcDbLine
 10
235.5136218379108
 20
147.1068154216876
 11
235.5136218379108
 21
157.7669088650243
  0
LINE
  5
24A
100
AcDbEntity
  8
0
  6
CONTINUOUS
 62
  256
370
   -3
100
AcDbLine
 10
238.0136218379108
 20
149.5496555429973
 11
238.0136218379108
 21
160.644361488037
  0
LINE
  5
24B
100
AcDbEntity
  8
0
  6
CONTINUOUS
 62
  256
370
   -3
100
AcDbLine
 10
240.5136218379108
 20
151.9081758579952
 11
240.5136218379108
 21
163.5218141110497
  0
LINE
  5
24C
100
AcDbEntity
  8
0
  6
CONTINUOUS
 62
  256
370
   -3
100
AcDbLine
 10
243.0136218379108
 20
154.1877462827661
 11
243.0136218379108
 21
166.3845029381818
  0
LINE
  5
24D
100
AcDbEntity
  8
0
  6
CONTINUOUS
 62
  256
370
   -3
100
AcDbLine
 10
245.5136218379108
 20
156.4160231850967
 11
245.5136218379108
 21
169.186208365558
  0
LINE
  5
24E
100
AcDbEntity
  8
0
  6
CONTINUOUS
 62
  256
370
   -3
100
AcDbLine
 10
248.0136218379108
 20
158.5644482448935
 11
248.0136218379108
 21
171.9317695410893
  0
LINE
  5
24F
100
AcDbEntity
  8
0
  6
CONTINUOUS
 62
  256
370
   -3
100
AcDbLine
 10
250.5136218379109
 20
160.6600153282184
 11
250.5136218379109
 21
174.5802292420901
  0
LINE
  5
250
100
AcDbEntity
  8
0
  6
CONTINUOUS
 62
  256
370
   -3
100
AcDbLine
 10
253.0136218379109
 20
162.6870783519484
 11
253.0136218379109
 21
177.228688943091
  0
LINE
  5
251
100
AcDbEntity
  8
0
  6
CONTINUOUS
 62
  256
370
   -3
100
AcDbLine
 10
255.5136218379109
 20
164.6567096326016
 11
255.5136218379109
 21
179.826899279576
  0
LINE
  5
252
100
AcDbEntity
  8
0
  6
CONTINUOUS
 62
  256
370
   -3
100
AcDbLine
 10
258.0136218379109
 20
166.5699176693398
 11
258.0136218379109
 21
182.3603302569078
  0
LINE
  5
253
100
AcDbEntity
  8
0
  6
CONTINUOUS
 62
  256
370
   -3
100
AcDbLine
 10
260.5136218379109
 20
168.4277425916297
 11
260.5136218379109
 21
184.8937612342395
  0
LINE
  5
254
100
AcDbEntity
  8
0
  6
CONTINUOUS
 62
  256
370
   -3
100
AcDbLine
 10
263.0136218379109
 20
170.2312534122761
 11
263.0136218379109
 21
187.4271922115713
  0
LINE
  5
255
100
AcDbEntity
  8
0
  6
CONTINUOUS
 62
  256
370
   -3
100
AcDbLine
 10
265.5136218379109
 20
171.9703099509655
 11
265.5136218379109
 21
189.960623188903
  0
LINE
  5
256
100
AcDbEntity
  8
0
  6
CONTINUOUS
 62
  256
370
   -3
100
AcDbLine
 10
268.0136218379109
 20
173.6485606230542
 11
268.0136218379109
 21
192.4974172545045
  0
LINE
  5
257
100
AcDbEntity
  8
0
  6
CONTINUOUS
 62
  256
370
   -3
100
AcDbLine
 10
270.5136218379109
 20
175.2745209503293
 11
270.5136218379109
 21
195.0861269319239
  0
LINE
  5
258
100
AcDbEntity
  8
0
  6
CONTINUOUS
 62
  256
370
   -3
100
AcDbLine
 10
273.0136218379109
 20
176.8461563988263
 11
273.0136218379109
 21
197.6748366093434
  0
LINE
  5
259
100
AcDbEntity
  8
0
  6
CONTINUOUS
 62
  256
370
   -3
100
AcDbLine
 10
275.5136218379109
 20
178.3565757223324
 11
275.5136218379109
 21
200.263546286763
  0
LINE
  5
25A
100
AcDbEntity
  8
0
  6
CONTINUOUS
 62
  256
370
   -3
100
AcDbLine
 10
278.0136218379109
 20
179.8263214072964
 11
278.0136218379109
 21
202.9280115497701
  0
LINE
  5
25B
100
AcDbEntity
  8
0
  6
CONTINUOUS
 62
  256
370
   -3
100
AcDbLine
 10
280.5136218379109
 20
181.2020876879122
 11
280.5136218379109
 21
205.6022176989636
  0
LINE
  5
25C
100
AcDbEntity
  8
0
  6
CONTINUOUS
 62
  256
370
   -3
100
AcDbLine
 10
283.0136218379109
 20
182.5078969827463
 11
283.0136218379109
 21
208.2764238481571
  0
LINE
  5
25D
100
AcDbEntity
  8
0
  6
CONTINUOUS
 62
  256
370
   -3
100
AcDbLine
 10
285.5136218379109
 20
183.6905169182197
 11
285.5136218379109
 21
211.0155785927575
  0
LINE
  5
25E
100
AcDbEntity
  8
0
  6
CONTINUOUS
 62
  256
370
   -3
100
AcDbLine
 10
288.0136218379109
 20
184.708441067233
 11
288.0136218379109
 21
213.774757901666
  0
LINE
  5
25F
100
AcDbEntity
  8
0
  6
CONTINUOUS
 62
  256
370
   -3
100
AcDbLine
 10
290.5136218379109
 20
185.6094113720302
 11
290.5136218379109
 21
216.5339372105745
  0
LINE
  5
260
100
AcDbEntity
  8
0
  6
CONTINUOUS
 62
  256
370
   -3
100
AcDbLine
 10
293.3136218379111
 20
186.4143827201711
 11
293.3136218379111
 21
219.6993700518135
  0
LINE
  5
261
100
AcDbEntity
  8
0
  6
CONTINUOUS
 62
  256
370
   -3
100
AcDbLine
 10
296.1136218379113
 20
186.9114673099936
 11
296.1136218379113
 21
222.8929381012299
  0
LINE
  5
262
100
AcDbEntity
  8
0
  6
CONTINUOUS
 62
  256
370
   -3
100
AcDbLine
 10
203.0136218379108
 20
116.1594974068544
 11
203.0136218379108
 21
131.1854000976026
  0
LINE
  5
263
100
AcDbEntity
  8
0
  6
CONTINUOUS
 62
  256
370
   -3
100
AcDbLine
 10
53.71079508971675
 20
100.910361889094
 11
63.72482820687734
 21
101.0245583404662
  0
LINE
  5
264
100
AcDbEntity
  8
0
  6
CONTINUOUS
 62
  256
370
   -3
100
AcDbLine
 10
53.67794291309034
 20
97.76726595326788
 11
63.68216000630644
 21
98.22502184114914
  0
LINE
  5
265
100
AcDbEntity
  8
0
  6
CONTINUOUS
 62
  256
370
   -3
100
AcDbLine
 10
53.80602015062109
 20
94.39820922052446
 11
63.76775070601222
 21
95.4267151480133
  0
LINE
  5
266
100
AcDbEntity
  8
0
  6
CONTINUOUS
 62
  256
370
   -3
100
AcDbLine
 10
54.15623218243369
 20
90.96416427718044
 11
64.02979004030263
 21
92.63950165466623
  0
LINE
  5
267
100
AcDbEntity
  8
0
  6
CONTINUOUS
 62
  256
370
   -3
100
AcDbLine
 10
54.72350026341852
 20
87.57532582533057
 11
64.47059622679049
 21
89.87489543330175
  0
LINE
  5
268
100
AcDbEntity
  8
0
  6
CONTINUOUS
 62
  256
370
   -3
100
AcDbLine
 10
55.49961636368941
 20
84.24095813652765
 11
65.08446205954866
 21
87.14347998617077
  0
LINE
  5
269
100
AcDbEntity
  8
0
  6
CONTINUOUS
 62
  256
370
   -3
100
AcDbLine
 10
56.47764574414456
 20
80.96938544352763
 11
65.86607940665102
 21
84.45524451494842
  0
LINE
  5
26A
100
AcDbEntity
  8
0
  6
CONTINUOUS
 62
  256
370
   -3
100
AcDbLine
 10
57.6519788960051
 20
77.76848131378441
 11
66.81060998795024
 21
81.81982388418557
  0
LINE
  5
26B
100
AcDbEntity
  8
0
  6
CONTINUOUS
 62
  256
370
   -3
100
AcDbLine
 10
59.01828595074508
 20
74.64611764107772
 11
67.91369211404631
 21
79.2467316534668
  0
LINE
  5
26C
100
AcDbEntity
  8
0
  6
CONTINUOUS
 62
  256
370
   -3
100
AcDbLine
 10
60.56582845911604
 20
71.62091050143547
 11
69.17032458340796
 21
76.74502472226801
  0
LINE
  5
26D
100
AcDbEntity
  8
0
  6
CONTINUOUS
 62
  256
370
   -3
100
AcDbLine
 10
62.27759562454381
 20
68.70896980704757
 11
70.57180301650456
 21
74.32145801106518
  0
LINE
  5
26E
100
AcDbEntity
  8
0
  6
CONTINUOUS
 62
  256
370
   -3
100
AcDbLine
 10
64.14045085792364
 20
65.91483401566668
 11
72.10860719171811
 21
71.98133092420451
  0
LINE
  5
26F
100
AcDbEntity
  8
0
  6
CONTINUOUS
 62
  256
370
   -3
100
AcDbLine
 10
66.1422627348858
 20
63.24143657626192
 11
73.77149321947687
 21
69.72902028008244
  0
LINE
  5
270
100
AcDbEntity
  8
0
  6
CONTINUOUS
 62
  256
370
   -3
100
AcDbLine
 10
68.2720752703523
 20
60.6905635291279
 11
75.55165579787277
 21
67.56817993631697
  0
LINE
  5
271
100
AcDbEntity
  8
0
  6
CONTINUOUS
 62
  256
370
   -3
100
AcDbLine
 10
70.52016831550708
 20
58.26326354372943
 11
77.4408244795483
 21
65.50193872363675
  0
LINE
  5
272
100
AcDbEntity
  8
0
  6
CONTINUOUS
 62
  256
370
   -3
100
AcDbLine
 10
72.87804211155679
 20
55.96019961490618
 11
79.43130673756664
 21
63.53308696667491
  0
LINE
  5
273
100
AcDbEntity
  8
0
  6
CONTINUOUS
 62
  256
370
   -3
100
AcDbLine
 10
75.33835377586155
 20
53.78194347789226
 11
81.51599009615681
 21
61.66424704951763
  0
LINE
  5
274
100
AcDbEntity
  8
0
  6
CONTINUOUS
 62
  256
370
   -3
100
AcDbLine
 10
77.89482610159453
 20
51.72922048619867
 11
83.68831368291255
 21
59.89802711545634
  0
LINE
  5
275
100
AcDbEntity
  8
0
  6
CONTINUOUS
 62
  256
370
   -3
100
AcDbLine
 10
80.54214212552293
 20
49.80311570449058
 11
85.94221708690807
 21
58.23715924910848
  0
LINE
  5
276
100
AcDbEntity
  8
0
  6
CONTINUOUS
 62
  256
370
   -3
100
AcDbLine
 10
83.27583306658347
 20
48.00525269079585
 11
88.27207186194316
 21
56.68462467273276
  0
LINE
  5
277
100
AcDbEntity
  8
0
  6
CONTINUOUS
 62
  256
370
   -3
100
AcDbLine
 10
86.08730947813012
 20
46.34001493624444
 11
90.67239382599989
 21
55.24343571839395
  0
LINE
  5
278
100
AcDbEntity
  8
0
  6
CONTINUOUS
 62
  256
370
   -3
100
AcDbLine
 10
88.96016153037878
 20
44.81209335083146
 11
93.13658352382814
 21
53.91436776076458
  0
LINE
  5
279
100
AcDbEntity
  8
0
  6
CONTINUOUS
 62
  256
370
   -3
100
AcDbLine
 10
91.88459272796187
 20
43.41984502526123
 11
95.65764518472184
 21
52.69658881064336
  0
LINE
  5
27A
100
AcDbEntity
  8
0
  6
CONTINUOUS
 62
  256
370
   -3
100
AcDbLine
 10
94.85178005172256
 20
42.16048547844198
 11
98.22886410605507
 21
51.58859257324437
  0
LINE
  5
27B
100
AcDbEntity
  8
0
  6
CONTINUOUS
 62
  256
370
   -3
100
AcDbLine
 10
97.85376214792868
 20
41.03046002741021
 11
100.8438962044584
 21
50.5883362781822
  0
LINE
  5
27C
100
AcDbEntity
  8
0
  6
CONTINUOUS
 62
  256
370
   -3
100
AcDbLine
 10
100.8834675766494
 20
40.02568041012152
 11
103.4968238831121
 21
49.69337242613872
  0
LINE
  5
27D
100
AcDbEntity
  8
0
  6
CONTINUOUS
 62
  256
370
   -3
100
AcDbLine
 10
103.9346981138515
 20
39.14173437320259
 11
106.1821845883729
 21
48.90097126180879
  0
LINE
  5
27E
100
AcDbEntity
  8
0
  6
CONTINUOUS
 62
  256
370
   -3
100
AcDbLine
 10
107.002080668583
 20
38.37406292832227
 11
108.8949771006774
 21
48.208230061255
  0
LINE
  5
27F
100
AcDbEntity
  8
0
  6
CONTINUOUS
 62
  256
370
   -3
100
AcDbLine
 10
110.0809997843249
 20
37.71810448438808
 11
111.6306507694699
 21
47.61216744786922
  0
LINE
  5
280
100
AcDbEntity
  8
0
  6
CONTINUOUS
 62
  256
370
   -3
100
AcDbLine
 10
113.1675202790048
 20
37.16940811653902
 11
114.3850824340207
 21
47.10980260065096
  0
LINE
  5
281
100
AcDbEntity
  8
0
  6
CONTINUOUS
 62
  256
370
   -3
100
AcDbLine
 10
116.2583070395463
 20
36.72371997461656
 11
117.154544996995
 21
46.69822034429515
  0
LINE
  5
282
100
AcDbEntity
  8
0
  6
CONTINUOUS
 62
  256
370
   -3
100
AcDbLine
 10
119.3533125202994
 20
36.37710405695341
 11
119.935692298423
 21
46.37484049552405
  0
LINE
  5
283
100
AcDbEntity
  8
0
  6
CONTINUOUS
 62
  256
370
   -3
100
AcDbLine
 10
122.4546251725693
 20
36.12755574292592
 11
122.7255928078562
 21
46.13857350545722
  0
LINE
  5
284
100
AcDbEntity
  8
0
  6
CONTINUOUS
 62
  256
370
   -3
100
AcDbLine
 10
125.559341707498
 20
35.97423123862738
 11
125.5214752914067
 21
45.9888438739529
  0
LINE
  5
285
100
AcDbEntity
  8
0
  6
CONTINUOUS
 62
  256
370
   -3
100
AcDbLine
 10
128.6645794786028
 20
35.91624047558653
 11
128.3206384422829
 21
45.92501685757374
  0
LINE
  5
286
100
AcDbEntity
  8
0
  6
CONTINUOUS
 62
  256
370
   -3
100
AcDbLine
 10
131.7675705900989
 20
35.95265597362838
 11
131.1204491958602
 21
45.9464107235814
  0
LINE
  5
287
100
AcDbEntity
  8
0
  6
CONTINUOUS
 62
  256
370
   -3
100
AcDbLine
 10
134.8656543186822
 20
36.08253011208026
 11
133.9183399113177
 21
46.05230922270701
  0
LINE
  5
288
100
AcDbEntity
  8
0
  6
CONTINUOUS
 62
  256
370
   -3
100
AcDbLine
 10
137.9562680272685
 20
36.30491031493889
 11
136.7118042347807
 21
46.24197275664053
  0
LINE
  5
289
100
AcDbEntity
  8
0
  6
CONTINUOUS
 62
  256
370
   -3
100
AcDbLine
 10
141.0369369305096
 20
36.6188521541915
 11
139.4983918848326
 21
46.51464819309162
  0
LINE
  5
28A
100
AcDbEntity
  8
0
  6
CONTINUOUS
 62
  256
370
   -3
100
AcDbLine
 10
144.1052629949473
 20
37.02343041729128
 11
142.2757025555348
 21
46.86957731339364
  0
LINE
  5
28B
100
AcDbEntity
  8
0
  6
CONTINUOUS
 62
  256
370
   -3
100
AcDbLine
 10
147.158913261872
 20
37.51774821831148
 11
145.0413791582342
 21
47.30600390668726
  0
LINE
  5
28C
100
AcDbEntity
  8
0
  6
CONTINUOUS
 62
  256
370
   -3
100
AcDbLine
 10
150.1925486049882
 20
38.09993494880681
 11
147.7931483594285
 21
47.82293749754139
  0
LINE
  5
28D
100
AcDbEntity
  8
0
  6
CONTINUOUS
 62
  256
370
   -3
100
AcDbLine
 10
153.1985108114828
 20
38.76538205005741
 11
150.5291453511623
 21
48.41775938107471
  0
LINE
  5
28E
100
AcDbEntity
  8
0
  6
CONTINUOUS
 62
  256
370
   -3
100
AcDbLine
 10
156.1752153137369
 20
39.50988210187805
 11
153.247861009827
 21
49.08717278768634
  0
LINE
  5
28F
100
AcDbEntity
  8
0
  6
CONTINUOUS
 62
  256
370
   -3
100
AcDbLine
 10
159.1215602902699
 20
40.32934429719901
 11
155.9480251473002
 21
49.82790075581037
  0
LINE
  5
290
100
AcDbEntity
  8
0
  6
CONTINUOUS
 62
  256
370
   -3
100
AcDbLine
 10
162.036754479404
 20
41.21980198720021
 11
158.6285873036637
 21
50.63671743777619
  0
LINE
  5
291
100
AcDbEntity
  8
0
  6
CONTINUOUS
 62
  256
370
   -3
100
AcDbLine
 10
164.9202771147326
 20
42.17743734817397
 11
161.288696851833
 21
51.51047141514315
  0
LINE
  5
292
100
AcDbEntity
  8
0
  6
CONTINUOUS
 62
  256
370
   -3
100
AcDbLine
 10
167.7718409628774
 20
43.19859861010709
 11
163.9276839301511
 21
52.44610404718756
  0
LINE
  5
293
100
AcDbEntity
  8
0
  6
CONTINUOUS
 62
  256
370
   -3
100
AcDbLine
 10
170.5309809999709
 20
44.24649293528889
 11
166.5473042240829
 21
53.43475824743237
  0
LINE
  5
294
100
AcDbEntity
  8
0
  6
CONTINUOUS
 62
  256
370
   -3
100
AcDbLine
 10
173.1461470895666
 20
45.25683657363518
 11
169.1592111345463
 21
54.44368814485679
  0
LINE
  5
295
100
AcDbEntity
  8
0
  6
CONTINUOUS
 62
  256
370
   -3
100
AcDbLine
 10
175.6318581239144
 20
46.19064982313901
 11
171.778141299903
 21
55.43417548932407
  0
LINE
  5
296
100
AcDbEntity
  8
0
  6
CONTINUOUS
 62
  256
370
   -3
100
AcDbLine
 10
177.999548598527
 20
47.01477445363301
 11
174.4180314352535
 21
56.3671343114585
  0
LINE
  5
297
100
AcDbEntity
  8
0
  6
CONTINUOUS
 62
  256
370
   -3
100
AcDbLine
 10
180.3178876032886
 20
47.7283041553758
 11
177.0886009585152
 21
57.20805140237454
  0
LINE
  5
298
100
AcDbEntity
  8
0
  6
CONTINUOUS
 62
  256
370
   -3
100
AcDbLine
 10
182.6733145196586
 20
48.36006859133103
 11
179.78829863264
 21
57.95019807078747
  0
LINE
  5
299
100
AcDbEntity
  8
0
  6
CONTINUOUS
 62
  256
370
   -3
100
AcDbLine
 10
185.0621986363486
 20
48.91150499215988
 11
182.5126110724101
 21
58.59620960071143
  0
LINE
  5
29A
100
AcDbEntity
  8
0
  6
CONTINUOUS
 62
  256
370
   -3
100
AcDbLine
 10
187.4803862498312
 20
49.38388135759422
 11
185.2574213644512
 21
59.14873298060709
  0
LINE
  5
29B
100
AcDbEntity
  8
0
  6
CONTINUOUS
 62
  256
370
   -3
100
AcDbLine
 10
189.9238955655829
 20
49.77851436655502
 11
188.0189819171679
 21
59.61036078994735
  0
LINE
  5
29C
100
AcDbEntity
  8
0
  6
CONTINUOUS
 62
  256
370
   -3
100
AcDbLine
 10
192.3889201292005
 20
50.09673515793181
 11
190.793881810325
 21
59.98358262628133
  0
LINE
  5
29D
100
AcDbEntity
  8
0
  6
CONTINUOUS
 62
  256
370
   -3
100
AcDbLine
 10
194.871823097026
 20
50.33985776328055
 11
193.5790109759256
 21
60.270745786042
  0
LINE
  5
29E
100
AcDbEntity
  8
0
  6
CONTINUOUS
 62
  256
370
   -3
100
AcDbLine
 10
197.3691233682086
 20
50.50915058698073
 11
196.3715223830197
 21
60.47402351017652
  0
LINE
  5
29F
100
AcDbEntity
  8
0
  6
CONTINUOUS
 62
  256
370
   -3
100
AcDbLine
 10
199.9297023109422
 20
50.61426053543962
 11
199.168621602295
 21
60.59998315606232
  0
LINE
  5
2A0
100
AcDbEntity
  8
0
  6
CONTINUOUS
 62
  256
370
   -3
100
AcDbLine
 10
352.2104834086619
 20
103.8225116375099
 11
342.1957991849287
 21
103.8225116375099
  0
LINE
  5
2A1
100
AcDbEntity
  8
0
  6
CONTINUOUS
 62
  256
370
   -3
100
AcDbLine
 10
352.3164485861048
 20
100.910361889094
 11
342.3024154689443
 21
101.0245583404662
  0
LINE
  5
2A2
100
AcDbEntity
  8
0
  6
CONTINUOUS
 62
  256
370
   -3
100
AcDbLine
 10
352.3493007627316
 20
97.76726595326788
 11
342.3450836695153
 21
98.22502184114914
  0
LINE
  5
2A3
100
AcDbEntity
  8
0
  6
CONTINUOUS
 62
  256
370
   -3
100
AcDbLine
 10
352.2212235252007
 20
94.39820922052446
 11
342.2594929698095
 21
95.4267151480133
  0
LINE
  5
2A4
100
AcDbEntity
  8
0
  6
CONTINUOUS
 62
  256
370
   -3
100
AcDbLine
 10
351.8710114933883
 20
90.96416427718044
 11
341.997453635519
 21
92.63950165466623
  0
LINE
  5
2A5
100
AcDbEntity
  8
0
  6
CONTINUOUS
 62
  256
370
   -3
100
AcDbLine
 10
351.3037434124035
 20
87.57532582533057
 11
341.5566474490313
 21
89.87489543330175
  0
LINE
  5
2A6
100
AcDbEntity
  8
0
  6
CONTINUOUS
 62
  256
370
   -3
100
AcDbLine
 10
350.5276273121325
 20
84.24095813652765
 11
340.9427816162731
 21
87.14347998617077
  0
LINE
  5
2A7
100
AcDbEntity
  8
0
  6
CONTINUOUS
 62
  256
370
   -3
100
AcDbLine
 10
349.5495979316772
 20
80.96938544352763
 11
340.1611642691707
 21
84.45524451494842
  0
LINE
  5
2A8
100
AcDbEntity
  8
0
  6
CONTINUOUS
 62
  256
370
   -3
100
AcDbLine
 10
348.3752647798167
 20
77.76848131378441
 11
339.2166336878715
 21
81.81982388418557
  0
LINE
  5
2A9
100
AcDbEntity
  8
0
  6
CONTINUOUS
 62
  256
370
   -3
100
AcDbLine
 10
347.0089577250767
 20
74.64611764107772
 11
338.1135515617755
 21
79.2467316534668
  0
LINE
  5
2AA
100
AcDbEntity
  8
0
  6
CONTINUOUS
 62
  256
370
   -3
100
AcDbLine
 10
345.4614152167055
 20
71.62091050143547
 11
336.8569190924138
 21
76.74502472226801
  0
LINE
  5
2AB
100
AcDbEntity
  8
0
  6
CONTINUOUS
 62
  256
370
   -3
100
AcDbLine
 10
343.7496480512777
 20
68.70896980704757
 11
335.4554406593172
 21
74.32145801106518
  0
LINE
  5
2AC
100
AcDbEntity
  8
0
  6
CONTINUOUS
 62
  256
370
   -3
100
AcDbLine
 10
341.8867928178983
 20
65.91483401566668
 11
333.9186364841037
 21
71.98133092420451
  0
LINE
  5
2AD
100
AcDbEntity
  8
0
  6
CONTINUOUS
 62
  256
370
   -3
100
AcDbLine
 10
339.884980940936
 20
63.24143657626192
 11
332.2557504563449
 21
69.72902028008244
  0
LINE
  5
2AE
100
AcDbEntity
  8
0
  6
CONTINUOUS
 62
  256
370
   -3
100
AcDbLine
 10
337.7551684054694
 20
60.6905635291279
 11
330.475587877949
 21
67.56817993631697
  0
LINE
  5
2AF
100
AcDbEntity
  8
0
  6
CONTINUOUS
 62
  256
370
   -3
100
AcDbLine
 10
335.507075360315
 20
58.26326354372943
 11
328.5864191962735
 21
65.50193872363675
  0
LINE
  5
2B0
100
AcDbEntity
  8
0
  6
CONTINUOUS
 62
  256
370
   -3
100
AcDbLine
 10
333.149201564265
 20
55.96019961490618
 11
326.595936938255
 21
63.53308696667491
  0
LINE
  5
2B1
100
AcDbEntity
  8
0
  6
CONTINUOUS
 62
  256
370
   -3
100
AcDbLine
 10
330.6888898999602
 20
53.78194347789226
 11
324.5112535796649
 21
61.66424704951763
  0
LINE
  5
2B2
100
AcDbEntity
  8
0
  6
CONTINUOUS
 62
  256
370
   -3
100
AcDbLine
 10
328.1324175742271
 20
51.72922048619867
 11
322.3389299929092
 21
59.89802711545634
  0
LINE
  5
2B3
100
AcDbEntity
  8
0
  6
CONTINUOUS
 62
  256
370
   -3
100
AcDbLine
 10
325.4851015502988
 20
49.80311570449058
 11
320.0850265889136
 21
58.23715924910848
  0
LINE
  5
2B4
100
AcDbEntity
  8
0
  6
CONTINUOUS
 62
  256
370
   -3
100
AcDbLine
 10
322.7514106092383
 20
48.00525269079585
 11
317.7551718138786
 21
56.68462467273276
  0
LINE
  5
2B5
100
AcDbEntity
  8
0
  6
CONTINUOUS
 62
  256
370
   -3
100
AcDbLine
 10
319.9399341976915
 20
46.34001493624444
 11
315.3548498498218
 21
55.24343571839395
  0
LINE
  5
2B6
100
AcDbEntity
  8
0
  6
CONTINUOUS
 62
  256
370
   -3
100
AcDbLine
 10
317.067082145443
 20
44.81209335083146
 11
312.8906601519935
 21
53.91436776076458
  0
LINE
  5
2B7
100
AcDbEntity
  8
0
  6
CONTINUOUS
 62
  256
370
   -3
100
AcDbLine
 10
314.1426509478599
 20
43.41984502526123
 11
310.3695984910998
 21
52.69658881064336
  0
LINE
  5
2B8
100
AcDbEntity
  8
0
  6
CONTINUOUS
 62
  256
370
   -3
100
AcDbLine
 10
311.175463624099
 20
42.16048547844198
 11
307.7983795697666
 21
51.58859257324437
  0
LINE
  5
2B9
100
AcDbEntity
  8
0
  6
CONTINUOUS
 62
  256
370
   -3
100
AcDbLine
 10
308.173481527893
 20
41.03046002741021
 11
305.1833474713633
 21
50.5883362781822
  0
LINE
  5
2BA
100
AcDbEntity
  8
0
  6
CONTINUOUS
 62
  256
370
   -3
100
AcDbLine
 10
305.1437760991723
 20
40.02568041012152
 11
302.5304197927095
 21
49.69337242613872
  0
LINE
  5
2BB
100
AcDbEntity
  8
0
  6
CONTINUOUS
 62
  256
370
   -3
100
AcDbLine
 10
302.09254556197
 20
39.14173437320259
 11
299.8450590874488
 21
48.90097126180879
  0
LINE
  5
2BC
100
AcDbEntity
  8
0
  6
CONTINUOUS
 62
  256
370
   -3
100
AcDbLine
 10
299.0251630072386
 20
38.37406292832227
 11
297.1322665751443
 21
48.208230061255
  0
LINE
  5
2BD
100
AcDbEntity
  8
0
  6
CONTINUOUS
 62
  256
370
   -3
100
AcDbLine
 10
295.9462438914968
 20
37.71810448438808
 11
294.3965929063518
 21
47.61216744786922
  0
LINE
  5
2BE
100
AcDbEntity
  8
0
  6
CONTINUOUS
 62
  256
370
   -3
100
AcDbLine
 10
292.8597233968169
 20
37.16940811653902
 11
291.642161241801
 21
47.10980260065096
  0
LINE
  5
2BF
100
AcDbEntity
  8
0
  6
CONTINUOUS
 62
  256
370
   -3
100
AcDbLine
 10
289.7689366362754
 20
36.72371997461656
 11
288.8726986788266
 21
46.69822034429515
  0
LINE
  5
2C0
100
AcDbEntity
  8
0
  6
CONTINUOUS
 62
  256
370
   -3
100
AcDbLine
 10
286.6739311555221
 20
36.37710405695341
 11
286.0915513773987
 21
46.37484049552405
  0
LINE
  5
2C1
100
AcDbEntity
  8
0
  6
CONTINUOUS
 62
  256
370
   -3
100
AcDbLine
 10
283.5726185032523
 20
36.12755574292592
 11
283.3016508679654
 21
46.13857350545722
  0
LINE
  5
2C2
100
AcDbEntity
  8
0
  6
CONTINUOUS
 62
  256
370
   -3
100
AcDbLine
 10
280.4679019683237
 20
35.97423123862738
 11
280.5057683844148
 21
45.9888438739529
  0
LINE
  5
2C3
100
AcDbEntity
  8
0
  6
CONTINUOUS
 62
  256
370
   -3
100
AcDbLine
 10
277.3626641972189
 20
35.91624047558653
 11
277.7066052335388
 21
45.92501685757374
  0
LINE
  5
2C4
100
AcDbEntity
  8
0
  6
CONTINUOUS
 62
  256
370
   -3
100
AcDbLine
 10
274.2596730857228
 20
35.95265597362838
 11
274.9067944799615
 21
45.9464107235814
  0
LINE
  5
2C5
100
AcDbEntity
  8
0
  6
CONTINUOUS
 62
  256
370
   -3
100
AcDbLine
 10
271.1615893571395
 20
36.08253011208026
 11
272.108903764504
 21
46.05230922270701
  0
LINE
  5
2C6
100
AcDbEntity
  8
0
  6
CONTINUOUS
 62
  256
370
   -3
100
AcDbLine
 10
268.0709756485533
 20
36.30491031493889
 11
269.315439441041
 21
46.24197275664053
  0
LINE
  5
2C7
100
AcDbEntity
  8
0
  6
CONTINUOUS
 62
  256
370
   -3
100
AcDbLine
 10
264.9903067453122
 20
36.6188521541915
 11
266.5288517909892
 21
46.51464819309162
  0
LINE
  5
2C8
100
AcDbEntity
  8
0
  6
CONTINUOUS
 62
  256
370
   -3
100
AcDbLine
 10
261.9219806808743
 20
37.02343041729128
 11
263.7515411202869
 21
46.86957731339364
  0
LINE
  5
2C9
100
AcDbEntity
  8
0
  6
CONTINUOUS
 62
  256
370
   -3
100
AcDbLine
 10
258.8683304139497
 20
37.51774821831148
 11
260.9858645175874
 21
47.30600390668726
  0
LINE
  5
2CA
100
AcDbEntity
  8
0
  6
CONTINUOUS
 62
  256
370
   -3
100
AcDbLine
 10
255.8346950708335
 20
38.09993494880681
 11
258.2340953163932
 21
47.82293749754139
  0
LINE
  5
2CB
100
AcDbEntity
  8
0
  6
CONTINUOUS
 62
  256
370
   -3
100
AcDbLine
 10
252.8287328643389
 20
38.76538205005741
 11
255.4980983246593
 21
48.41775938107471
  0
LINE
  5
2CC
100
AcDbEntity
  8
0
  6
CONTINUOUS
 62
  256
370
   -3
100
AcDbLine
 10
249.8520283620849
 20
39.50988210187805
 11
252.7793826659947
 21
49.08717278768634
  0
LINE
  5
2CD
100
AcDbEntity
  8
0
  6
CONTINUOUS
 62
  256
370
   -3
100
AcDbLine
 10
246.9056833855518
 20
40.32934429719901
 11
250.0792185285215
 21
49.82790075581037
  0
LINE
  5
2CE
100
AcDbEntity
  8
0
  6
CONTINUOUS
 62
  256
370
   -3
100
AcDbLine
 10
243.9904891964176
 20
41.21980198720021
 11
247.398656372158
 21
50.63671743777619
  0
LINE
  5
2CF
100
AcDbEntity
  8
0
  6
CONTINUOUS
 62
  256
370
   -3
100
AcDbLine
 10
241.1069665610892
 20
42.17743734817397
 11
244.7385468239888
 21
51.51047141514315
  0
LINE
  5
2D0
100
AcDbEntity
  8
0
  6
CONTINUOUS
 62
  256
370
   -3
100
AcDbLine
 10
238.2554027129442
 20
43.19859861010709
 11
242.0995597456706
 21
52.44610404718756
  0
LINE
  5
2D1
100
AcDbEntity
  8
0
  6
CONTINUOUS
 62
  256
370
   -3
100
AcDbLine
 10
235.4962626758508
 20
44.24649293528889
 11
239.4799394517387
 21
53.43475824743237
  0
LINE
  5
2D2
100
AcDbEntity
  8
0
  6
CONTINUOUS
 62
  256
370
   -3
100
AcDbLine
 10
232.8810965862551
 20
45.25683657363518
 11
236.8680325412753
 21
54.44368814485679
  0
LINE
  5
2D3
100
AcDbEntity
  8
0
  6
CONTINUOUS
 62
  256
370
   -3
100
AcDbLine
 10
230.3953855519073
 20
46.19064982313901
 11
234.2491023759186
 21
55.43417548932407
  0
LINE
  5
2D4
100
AcDbEntity
  8
0
  6
CONTINUOUS
 62
  256
370
   -3
100
AcDbLine
 10
228.0276950772948
 20
47.01477445363301
 11
231.6092122405681
 21
56.3671343114585
  0
LINE
  5
2D5
100
AcDbEntity
  8
0
  6
CONTINUOUS
 62
  256
370
   -3
100
AcDbLine
 10
225.7093560725331
 20
47.7283041553758
 11
228.9386427173065
 21
57.20805140237454
  0
LINE
  5
2D6
100
AcDbEntity
  8
0
  6
CONTINUOUS
 62
  256
370
   -3
100
AcDbLine
 10
223.3539291561631
 20
48.36006859133103
 11
226.2389450431816
 21
57.95019807078747
  0
LINE
  5
2D7
100
AcDbEntity
  8
0
  6
CONTINUOUS
 62
  256
370
   -3
100
AcDbLine
 10
220.9650450394731
 20
48.91150499215988
 11
223.5146326034116
 21
58.59620960071143
  0
LINE
  5
2D8
100
AcDbEntity
  8
0
  6
CONTINUOUS
 62
  256
370
   -3
100
AcDbLine
 10
218.5468574259905
 20
49.38388135759422
 11
220.7698223113703
 21
59.14873298060709
  0
LINE
  5
2D9
100
AcDbEntity
  8
0
  6
CONTINUOUS
 62
  256
370
   -3
100
AcDbLine
 10
216.1033481102387
 20
49.77851436655502
 11
218.0082617586537
 21
59.61036078994735
  0
LINE
  5
2DA
100
AcDbEntity
  8
0
  6
CONTINUOUS
 62
  256
370
   -3
100
AcDbLine
 10
213.6383235466212
 20
50.09673515793181
 11
215.2333618654968
 21
59.98358262628133
  0
LINE
  5
2DB
100
AcDbEntity
  8
0
  6
CONTINUOUS
 62
  256
370
   -3
100
AcDbLine
 10
211.1554205787957
 20
50.33985776328055
 11
212.448232699896
 21
60.270745786042
  0
LINE
  5
2DC
100
AcDbEntity
  8
0
  6
CONTINUOUS
 62
  256
370
   -3
100
AcDbLine
 10
208.6581203076132
 20
50.50915058698073
 11
209.6557212928021
 21
60.47402351017652
  0
LINE
  5
2DD
100
AcDbEntity
  8
0
  6
CONTINUOUS
 62
  256
370
   -3
100
AcDbLine
 10
206.0975413648796
 20
50.61426053543962
 11
206.8586220735266
 21
60.59998315606232
  0
LINE
  5
2DE
100
AcDbEntity
  8
0
  6
CONTINUOUS
 62
  256
370
   -3
100
AcDbLine
 10
198.1505580141222
 20
103.8225116375099
 11
207.8766856617
 21
103.8225116375099
  0
LINE
  5
2DF
100
AcDbEntity
  8
0
  6
CONTINUOUS
 62
  256
370
   -3
100
AcDbLine
 10
198.6169215175729
 20
101.02251163751
 11
207.4103221582492
 21
101.02251163751
  0
LINE
  5
2E0
100
AcDbEntity
  8
0
  6
CONTINUOUS
 62
  256
370
   -3
100
AcDbLine
 10
198.9306165819067
 20
98.22251163751005
 11
207.096627093915
 21
98.22251163751005
  0
LINE
  5
2E1
100
AcDbEntity
  8
0
  6
CONTINUOUS
 62
  256
370
   -3
100
AcDbLine
 10
198.9867971354007
 20
95.42251163751008
 11
207.0404465404215
 21
95.42251163751008
  0
LINE
  5
2E2
100
AcDbEntity
  8
0
  6
CONTINUOUS
 62
  256
370
   -3
100
AcDbLine
 10
198.8034061446152
 20
92.62251163751013
 11
207.223837531207
 21
92.62251163751013
  0
LINE
  5
2E3
100
AcDbEntity
  8
0
  6
CONTINUOUS
 62
  256
370
   -3
100
AcDbLine
 10
198.4967571257908
 20
89.82251163751019
 11
207.5304865500312
 21
89.82251163751019
  0
LINE
  5
2E4
100
AcDbEntity
  8
0
  6
CONTINUOUS
 62
  256
370
   -3
100
AcDbLine
 10
197.8551705719356
 20
87.02251163751025
 11
208.1720731038865
 21
87.02251163751025
  0
LINE
  5
2E5
100
AcDbEntity
  8
0
  6
CONTINUOUS
 62
  256
370
   -3
100
AcDbLine
 10
196.8430851386161
 20
84.02251163751023
 11
209.184158537206
 21
84.02251163751023
  0
LINE
  5
2E6
100
AcDbEntity
  8
0
  6
CONTINUOUS
 62
  256
370
   -3
100
AcDbLine
 10
195.5476619191128
 20
81.02251163751023
 11
210.4795817567094
 21
81.02251163751023
  0
LINE
  5
2E7
100
AcDbEntity
  8
0
  6
CONTINUOUS
 62
  256
370
   -3
100
AcDbLine
 10
193.9357231760483
 20
78.02251163751023
 11
212.0915204997733
 21
78.02251163751023
  0
LINE
  5
2E8
100
AcDbEntity
  8
0
  6
CONTINUOUS
 62
  256
370
   -3
100
AcDbLine
 10
191.9686351679608
 20
75.02251163751023
 11
214.0586085078614
 21
75.02251163751023
  0
LINE
  5
2E9
100
AcDbEntity
  8
0
  6
CONTINUOUS
 62
  256
370
   -3
100
AcDbLine
 10
189.5933168797029
 20
72.02251163751023
 11
216.4339267961192
 21
72.02251163751023
  0
LINE
  5
2EA
100
AcDbEntity
  8
0
  6
CONTINUOUS
 62
  256
370
   -3
100
AcDbLine
 10
197.5292609858999
 20
106.6225116375098
 11
208.4979826899223
 21
106.6225116375098
  0
LINE
  5
2EB
100
AcDbEntity
  8
0
  6
CONTINUOUS
 62
  256
370
   -3
100
AcDbLine
 10
196.6966153566506
 20
109.4225116375098
 11
209.3306283191711
 21
109.4225116375098
  0
LINE
  5
2EC
100
AcDbEntity
  8
0
  6
CONTINUOUS
 62
  256
370
   -3
100
AcDbLine
 10
195.7622797204941
 20
111.9225116375098
 11
210.264963955328
 21
111.9225116375098
  0
LINE
  5
2ED
100
AcDbEntity
  8
0
  6
CONTINUOUS
 62
  256
370
   -3
100
AcDbLine
 10
53.81676026715982
 20
103.8225116375099
 11
63.83144449089301
 21
103.8225116375099
  0
LINE
  5
2EE
100
AcDbEntity
  8
0
  6
CONTINUOUS
 62
  256
370
   -3
100
AcDbLine
 10
53.96961313957049
 20
106.5882017289835
 11
63.89739205366155
 21
105.9809927583229
  0
LINE
  5
2EF
100
AcDbEntity
  8
0
  6
CONTINUOUS
 62
  256
370
   -3
100
AcDbLine
 10
54.2935411091036
 20
109.3348883168139
 11
64.09498873097132
 21
108.1314218743501
  0
LINE
  5
2F0
100
AcDbEntity
  8
0
  6
CONTINUOUS
 62
  256
370
   -3
100
AcDbLine
 10
54.72864915764982
 20
112.0626109334229
 11
64.42349740755358
 21
110.2657770180298
  0
LINE
  5
2F1
100
AcDbEntity
  8
0
  6
CONTINUOUS
 62
  256
370
   -3
100
AcDbLine
 10
55.21524472202661
 20
114.7862123315919
 11
64.88169261360386
 21
112.3760961841973
  0
LINE
  5
2F2
100
AcDbEntity
  8
0
  6
CONTINUOUS
 62
  256
370
   -3
100
AcDbLine
 10
55.8063588482943
 20
117.5007682503108
 11
65.46786509627978
 21
114.4545070315743
  0
LINE
  5
2F3
100
AcDbEntity
  8
0
  6
CONTINUOUS
 62
  256
370
   -3
100
AcDbLine
 10
56.45129877075956
 20
120.2276888098717
 11
65.84896735788119
 21
116.620261826094
  0
LINE
  5
2F4
100
AcDbEntity
  8
0
  6
CONTINUOUS
 62
  256
370
   -3
100
AcDbLine
 10
57.18029110128298
 20
122.966639820608
 11
66.4045690723257
 21
118.7628941608732
  0
LINE
  5
2F5
100
AcDbEntity
  8
0
  6
CONTINUOUS
 62
  256
370
   -3
100
AcDbLine
 10
58.0027626904554
 20
125.7212217876882
 11
67.00915648595324
 21
120.9324372613648
  0
LINE
  5
2F6
100
AcDbEntity
  8
0
  6
CONTINUOUS
 62
  256
370
   -3
100
AcDbLine
 10
58.91484695940441
 20
128.502082572231
 11
67.66778280332636
 21
123.138276588538
  0
LINE
  5
2F7
100
AcDbEntity
  8
0
  6
CONTINUOUS
 62
  256
370
   -3
100
AcDbLine
 10
59.87973103538358
 20
131.3466304304429
 11
68.41267848096562
 21
125.3717963058994
  0
LINE
  5
2F8
100
AcDbEntity
  8
0
  6
CONTINUOUS
 62
  256
370
   -3
100
AcDbLine
 10
60.87967176700082
 20
134.2945278382997
 11
69.20060487806646
 21
127.6757587815686
  0
LINE
  5
2F9
100
AcDbEntity
  8
0
  6
CONTINUOUS
 62
  256
370
   -3
100
AcDbLine
 10
61.92454749613004
 20
137.374896860221
 11
70.0746717451631
 21
130.0364920248629
  0
LINE
  5
2FA
100
AcDbEntity
  8
0
  6
CONTINUOUS
 62
  256
370
   -3
100
AcDbLine
 10
63.02585441402622
 20
140.6216290973095
 11
71.00858385967936
 21
132.498344597317
  0
LINE
  5
2FB
100
AcDbEntity
  8
0
  6
CONTINUOUS
 62
  256
370
   -3
100
AcDbLine
 10
63.99722365790846
 20
143.4852956983088
 11
72.07840825915324
 21
135.2618225041101
  0
LINE
  5
2FC
100
AcDbEntity
  8
0
  6
CONTINUOUS
 62
  256
370
   -3
100
AcDbLine
 10
64.96859290179023
 20
146.3489622993083
 11
73.1517751451271
 21
138.0216955504509
  0
LINE
  5
2FD
100
AcDbEntity
  8
0
  6
CONTINUOUS
 62
  256
370
   -3
100
AcDbLine
 10
65.93996214567247
 20
149.2126289003076
 11
74.21176550764599
 21
140.7951806459522
  0
LINE
  5
2FE
100
AcDbEntity
  8
0
  6
CONTINUOUS
 62
  256
370
   -3
100
AcDbLine
 10
66.9113313895547
 20
152.0762955013069
 11
75.27175587016487
 21
143.5686657414532
  0
LINE
  5
2FF
100
AcDbEntity
  8
0
  6
CONTINUOUS
 62
  256
370
   -3
100
AcDbLine
 10
70.46100811395277
 20
152.3162573487785
 11
76.33174623268374
 21
146.3421508369545
  0
LINE
  5
300
100
AcDbEntity
  8
0
  6
CONTINUOUS
 62
  256
370
   -3
100
AcDbLine
 10
352.2104834086619
 20
103.8225116375099
 11
342.1957991849287
 21
103.8225116375099
  0
LINE
  5
301
100
AcDbEntity
  8
0
  6
CONTINUOUS
 62
  256
370
   -3
100
AcDbLine
 10
352.0576305362513
 20
106.5882017289835
 11
342.1298516221602
 21
105.9809927583229
  0
LINE
  5
302
100
AcDbEntity
  8
0
  6
CONTINUOUS
 62
  256
370
   -3
100
AcDbLine
 10
351.7337025667182
 20
109.3348883168139
 11
341.9322549448505
 21
108.1314218743501
  0
LINE
  5
303
100
AcDbEntity
  8
0
  6
CONTINUOUS
 62
  256
370
   -3
100
AcDbLine
 10
351.2985945181719
 20
112.0626109334229
 11
341.6037462682681
 21
110.2657770180298
  0
LINE
  5
304
100
AcDbEntity
  8
0
  6
CONTINUOUS
 62
  256
370
   -3
100
AcDbLine
 10
350.8119989537952
 20
114.7862123315919
 11
341.1455510622179
 21
112.3760961841973
  0
LINE
  5
305
100
AcDbEntity
  8
0
  6
CONTINUOUS
 62
  256
370
   -3
100
AcDbLine
 10
350.2208848275273
 20
117.5007682503108
 11
340.559378579542
 21
114.4545070315743
  0
LINE
  5
306
100
AcDbEntity
  8
0
  6
CONTINUOUS
 62
  256
370
   -3
100
AcDbLine
 10
349.5759449050622
 20
120.2276888098717
 11
340.1782763179405
 21
116.620261826094
  0
LINE
  5
307
100
AcDbEntity
  8
0
  6
CONTINUOUS
 62
  256
370
   -3
100
AcDbLine
 10
348.8469525745388
 20
122.966639820608
 11
339.622674603496
 21
118.7628941608732
  0
LINE
  5
308
100
AcDbEntity
  8
0
  6
CONTINUOUS
 62
  256
370
   -3
100
AcDbLine
 10
348.0244809853663
 20
125.7212217876882
 11
339.0180871898685
 21
120.9324372613648
  0
LINE
  5
309
100
AcDbEntity
  8
0
  6
CONTINUOUS
 62
  256
370
   -3
100
AcDbLine
 10
347.1123967164173
 20
128.502082572231
 11
338.3594608724953
 21
123.138276588538
  0
LINE
  5
30A
100
AcDbEntity
  8
0
  6
CONTINUOUS
 62
  256
370
   -3
100
AcDbLine
 10
346.1475126404382
 20
131.3466304304429
 11
337.614565194856
 21
125.3717963058994
  0
LINE
  5
30B
100
AcDbEntity
  8
0
  6
CONTINUOUS
 62
  256
370
   -3
100
AcDbLine
 10
345.147571908821
 20
134.2945278382997
 11
336.8266387977552
 21
127.6757587815686
  0
LINE
  5
30C
100
AcDbEntity
  8
0
  6
CONTINUOUS
 62
  256
370
   -3
100
AcDbLine
 10
344.1026961796917
 20
137.374896860221
 11
335.9525719306587
 21
130.0364920248629
  0
LINE
  5
30D
100
AcDbEntity
  8
0
  6
CONTINUOUS
 62
  256
370
   -3
100
AcDbLine
 10
343.0013892617955
 20
140.6216290973095
 11
335.0186598161424
 21
132.498344597317
  0
LINE
  5
30E
100
AcDbEntity
  8
0
  6
CONTINUOUS
 62
  256
370
   -3
100
AcDbLine
 10
342.0300200179133
 20
143.4852956983088
 11
333.9488354166685
 21
135.2618225041101
  0
LINE
  5
30F
100
AcDbEntity
  8
0
  6
CONTINUOUS
 62
  256
370
   -3
100
AcDbLine
 10
341.0586507740315
 20
146.3489622993083
 11
332.8754685306945
 21
138.0216955504509
  0
LINE
  5
310
100
AcDbEntity
  8
0
  6
CONTINUOUS
 62
  256
370
   -3
100
AcDbLine
 10
340.0872815301493
 20
149.2126289003076
 11
331.8154781681758
 21
140.7951806459522
  0
LINE
  5
311
100
AcDbEntity
  8
0
  6
CONTINUOUS
 62
  256
370
   -3
100
AcDbLine
 10
339.115912286267
 20
152.0762955013069
 11
330.7554878056568
 21
143.5686657414532
  0
LINE
  5
312
100
AcDbEntity
  8
0
  6
CONTINUOUS
 62
  256
370
   -3
100
AcDbLine
 10
335.566235561869
 20
152.3162573487785
 11
329.695497443138
 21
146.3421508369545
  0
LWPOLYLINE
  5
313
100
AcDbEntity
  8
0
  6
CONTINUOUS
 62
  256
370
   -3
100
AcDbPolyline
 90
   30
 70
    0
 43
0
 10
194.2432107270489
 20
115.5472258650108
 10
194.8307354950313
 20
115.3638719885475
 10
195.4192874531006
 20
115.1842826262336
 10
196.0098937913436
 20
115.0122222922186
 10
196.6672999859635
 20
114.8350869532412
 10
197.2012082484399
 20
114.7052813139225
 10
197.8026906235342
 20
114.5744272583427
 10
198.4076232100698
 20
114.45873767021
 10
199.0156001008182
 20
114.3580560864484
 10
199.626215388551
 20
114.2722260439815
 10
200.2390631660402
 20
114.2010910797334
 10
200.8537375260567
 20
114.1444947306282
 10
201.4698325613732
 20
114.1022805335896
 10
202.0869423647602
 20
114.0742920255418
 10
203.0136218379113
 20
114.0586401673485
 10
203.3225826468334
 20
114.0603727434084
 10
203.9403013110629
 20
114.0742920255418
 10
204.5574111144499
 20
114.1022805335898
 10
205.1735061497658
 20
114.1444947306283
 10
205.7881805097829
 20
114.2010910797336
 10
206.4010282872716
 20
114.2722260439816
 10
207.0116435750043
 20
114.3580560864485
 10
207.6196204657528
 20
114.4587376702102
 10
208.2245530522885
 20
114.574427258343
 10
208.8260354273826
 20
114.7052813139229
 10
209.3599436898577
 20
114.835086953241
 10
210.0173498844785
 20
115.012222292219
 10
210.6079562227221
 20
115.184282626234
 10
211.1965081807917
 20
115.3638719885478
 10
211.7840329487736
 20
115.5472258650112
  0
LWPOLYLINE
  5
314
100
AcDbEntity
  8
0
  6
CONTINUOUS
 62
  256
370
   -3
100
AcDbPolyline
 90
   18
 70
    0
 43
0
 10
185.3956925190879
 20
67.88672480111482
 10
188.7642838518747
 20
68.1981680592485
 10
190.6641955833462
 20
68.36893948200439
 10
192.5641073148177
 20
68.52994090679582
 10
194.4640190462893
 20
68.67628733464042
 10
196.363930777761
 20
68.80309376655569
 10
198.2638425092324
 20
68.9054752035595
 10
200.1637542407035
 20
68.97854664666966
 10
202.0636659721751
 20
69.01742309690374
 10
203.0136218379108
 20
69.02251163751023
 10
205.8634894351182
 20
68.97854664666966
 10
207.7634011665897
 20
68.9054752035595
 10
209.6633128980613
 20
68.80309376655569
 10
211.5632246295328
 20
68.67628733464031
 10
213.4631363610038
 20
68.52994090679582
 10
215.3630480924755
 20
68.36893948200439
 10
217.262959823947
 20
68.1981680592485
 10
220.6315511567337
 20
67.88672480111482
  0
LWPOLYLINE
  5
315
100
AcDbEntity
  8
0
  6
CONTINUOUS
 62
  256
370
   -3
100
AcDbPolyline
 90
   18
 70
    0
 43
0
 10
181.4241170640017
 20
64.70759097544467
 10
189.018503790766
 20
65.40973033045933
 10
190.9077437653956
 20
65.57954253438996
 10
192.7898457867515
 20
65.73903473711792
 10
194.6647782433076
 20
65.88345706101941
 10
196.5325040797644
 20
66.0081152991859
 10
198.3929881572623
 20
66.10837207965713
 10
200.2462068847163
 20
66.17964768923981
 10
202.0998083167208
 20
66.21757652700185
 10
202.9995241871371
 20
66.22239595167835
 10
205.7880793396527
 20
66.17937682971674
 10
207.6342555185598
 20
66.10837207965713
 10
209.4947395960555
 20
66.00811529918602
 10
211.3624654325174
 20
65.88345706101907
 10
213.2373978890702
 20
65.73903473711792
 10
215.119499910426
 20
65.57954253438996
 10
217.0087398850557
 20
65.40973033045933
 10
224.6031266118205
 20
64.70759097544467
  0
LWPOLYLINE
  5
316
100
AcDbEntity
  8
0
  6
ByLayer
 62
  256
370
   -1
100
AcDbPolyline
 90
   11
 70
    0
 43
0
 10
328.5970582769489
 20
27.44349145761813
 10
329.8292719686658
 20
39.40865108622681
 10
331.7192760920397
 20
39.21401189790755
 10
337.2307782341304
 20
30.63401983890803
 10
338.0407714524739
 20
38.49929371203544
 10
339.9307755758478
 20
38.30465452371618
 10
338.6985190041437
 20
26.33907851774081
 10
337.2656917053688
 20
26.49633376054224
 10
331.3568619018391
 20
35.69486285211095
 10
330.4870624003228
 20
27.24885226929887
 10
328.5970582769489
 20
27.44349145761813
  0
LWPOLYLINE
  5
317
100
AcDbEntity
  8
0
  6
ByLayer
 62
  256
370
   -1
100
AcDbPolyline
 90
   10
 70
    1
 43
0
 10
327.346272289933
 20
26.42627249658533
 10
328.812053007633
 20
40.65943707324271
 10
332.381877452092
 20
40.29180415449999
 10
336.4303025292492
 20
33.98944698980004
 10
337.0235524914411
 20
39.75007969905135
 10
341.1815615628638
 20
39.32187348474899
 10
339.7149537655012
 20
25.08067771978865
 10
336.6005550568668
 20
25.42248829634978
 10
332.1573376067203
 20
32.33943570121895
 10
331.5042813613557
 20
25.99806628228297
  0
LWPOLYLINE
  5
318
100
AcDbEntity
  8
0
  6
ByLayer
 62
  256
370
   -1
100
AcDbPolyline
 90
   10
 70
    1
 43
0
 10
329.0139869392875
 20
27.78256444462906
 10
330.1683449556767
 20
38.99172242388818
 10
331.4984089720223
 20
38.85474781237674
 10
337.4976034690907
 20
29.51554412194408
 10
338.3798444394849
 20
38.08236504969681
 10
339.5138469135093
 20
37.96558153670525
 10
338.3597074170246
 20
26.75854545039153
 10
337.4874039215362
 20
26.8542822486064
 10
331.0900366668788
 20
36.81333856907491
 10
330.147989413312
 20
27.66578093163751
  0
LWPOLYLINE
  5
319
100
AcDbEntity
  8
0
  6
ByLayer
 62
  256
370
   -1
100
AcDbPolyline
 90
   10
 70
    1
 43
0
 10
329.4309156016261
 20
28.12163743163999
 10
330.5074179426877
 20
38.57479376154954
 10
331.2775418520049
 20
38.49548372684593
 10
337.7644287040511
 20
28.39706840498012
 10
338.7189174264957
 20
37.66543638735818
 10
339.0969182511707
 20
37.62650854969431
 10
338.0208958299054
 20
27.17801238304224
 10
337.7091161377034
 20
27.21223073667055
 10
330.8232114319184
 20
37.93181428603887
 10
329.808916426301
 20
28.08270959397614
  0
LWPOLYLINE
  5
31A
100
AcDbEntity
  8
0
  6
ByLayer
 62
  256
370
   -1
100
AcDbPolyline
 90
   67
 70
    1
 43
0
 10
356.3336372206253
 20
35.08739187256507
 10
356.4893485712807
 20
36.5993951712642
 10
349.9712327312031
 20
37.27065337689119
 10
349.3384459866593
 20
31.12610680982282
 10
351.2907245551679
 20
30.65373933472076
 10
352.3751679287475
 20
31.1019897659951
 10
352.9850268669364
 20
31.26602444654217
 10
353.1235101857433
 20
31.27490789671038
 10
353.2957486257174
 20
31.26477666226691
 10
353.8791887624447
 20
31.1295818629157
 10
354.1517060133342
 20
31.00419820645516
 10
354.4591059356596
 20
30.78522162028774
 10
354.7128086625777
 20
30.51887364513162
 10
354.8911508154758
 20
30.2468179144595
 10
355.0802100104361
 20
29.768703855847
 10
355.1194849672873
 20
29.56579060990518
 10
355.1406490263045
 20
29.11957636994528
 10
355.1261997931208
 20
28.91096297687948
 10
354.9946788021957
 20
28.26082270754366
 10
354.8570111848931
 20
27.90579729640816
 10
354.6593998409766
 20
27.56785546767923
 10
354.3394202491713
 20
27.18525393246923
 10
354.1337488749933
 20
27.00409598914478
 10
353.6079194991884
 20
26.69563110337832
 10
353.5027573414425
 20
26.65848335249997
 10
353.0818847599776
 20
26.57524958970795
 10
352.8360345265854
 20
26.56116007948166
 10
352.4887631373088
 20
26.58053705293244
 10
351.8133775383491
 20
26.72006315701319
 10
351.5111808563042
 20
26.84349724693192
 10
351.1911436645656
 20
27.04995078703262
 10
351.0031932297729
 20
27.22555340778747
 10
350.7600800498482
 20
27.55942059037475
 10
350.6151403639913
 20
27.90098195176874
 10
350.4792788321222
 20
28.59706592629157
 10
348.7279356688373
 20
28.6435678541072
 10
348.9710935210589
 20
27.39775322297326
 10
349.2624475039402
 20
26.71115546714044
 10
349.7167433766443
 20
26.08727122060251
 10
350.1355657087244
 20
25.69596433575784
 10
350.7176157191046
 20
25.3204883340287
 10
351.3128706172123
 20
25.07735281672118
 10
352.2669384421205
 20
24.88025449711935
 10
352.8373248308658
 20
24.84842820145351
 10
353.2977060307903
 20
24.87481233595211
 10
353.9557653841025
 20
25.00495328247329
 10
354.3318971374778
 20
25.13781902972793
 10
355.1407112764142
 20
25.61228997496829
 10
355.5675104867164
 20
25.98822010846344
 10
356.0631462441392
 20
26.58085478439704
 10
356.402022504066
 20
27.16037851376791
 10
356.6417841563507
 20
27.77869007348499
 10
356.8243949944544
 20
28.68137989229907
 10
356.8534552125249
 20
29.10094199762502
 10
356.8217299024517
 20
29.76982527328809
 10
356.7288474773897
 20
30.24970038637054
 10
356.4170754746909
 20
31.03814433168297
 10
356.0579240871132
 20
31.58601925402496
 10
355.5844706724711
 20
32.08307090125209
 10
355.0127072114872
 20
32.49036707047188
 10
354.4353038222701
 20
32.75602712669371
 10
353.5407043599079
 20
32.96332379211031
 10
353.1189640503316
 20
32.98813097192001
 10
352.7054648418531
 20
32.96160575830754
 10
351.8241846816139
 20
32.72456650134985
 10
351.2007142260604
 20
32.46685742460372
 10
351.5216202704025
 20
35.58295008949525
  0
LWPOLYLINE
  5
31B
100
AcDbEntity
  8
0
  6
ByLayer
 62
  256
370
   -1
100
AcDbPolyline
 90
   36
 70
    1
 43
0
 10
357.3508561816581
 20
33.83660588554916
 10
357.7401345582966
 20
37.616614132297
 10
348.9540137701703
 20
38.5214393639071
 10
348.1024265425323
 20
30.25227535049967
 10
350.1993945844717
 20
29.74489924377053
 10
347.3366306303039
 20
29.82091178405429
 10
347.8750622924373
 20
27.0622674037764
 10
348.2640258066681
 20
26.14564538498424
 10
348.8591101412252
 20
25.32841642914587
 10
349.4318470714969
 20
24.79330670157465
 10
350.1885722943048
 20
24.30514905875992
 10
350.9791993364544
 20
23.98221258985984
 10
352.1190553119949
 20
23.74673279324396
 10
352.8381850337195
 20
23.70660694943474
 10
353.4415868779987
 20
23.74118750011486
 10
354.2577707458757
 20
23.90259990245547
 10
354.8145488963374
 20
24.09927764729434
 10
355.8120195440281
 20
24.68441929885068
 10
356.3862373117463
 20
25.1901975591262
 10
356.9989771795808
 20
25.9228543288755
 10
357.4320300501814
 20
26.6634326586748
 10
357.739854392454
 20
27.45726831744579
 10
357.9565251286768
 20
28.52832450257893
 10
357.9953260033385
 20
29.08851908274485
 10
357.956559859228
 20
29.90584838220955
 10
357.8279391220255
 20
30.57036474005307
 10
357.4343585808344
 20
31.56569527649863
 10
356.9546677034702
 20
32.29744965995384
 10
356.3347138303455
 20
32.94830375522833
 10
355.5867080102557
 20
33.48114631314969
 10
354.8060471954871
 20
33.84032396921239
 10
353.7040081827016
 20
34.09568854533924
 10
353.1159332933905
 20
34.13027968872643
 10
352.5190901584643
 20
34.09199329948446
 10
352.513963604467
 20
34.09061440250584
 10
352.5388392314353
 20
34.33216410247935
  0
LWPOLYLINE
  5
31C
100
AcDbEntity
  8
0
  6
ByLayer
 62
  256
370
   -1
100
AcDbPolyline
 90
   27
 70
    1
 43
0
 10
351.4659927779664
 20
29.49263676464629
 10
352.7424900935033
 20
30.02027194242527
 10
353.1469312830826
 20
30.12905510059255
 10
353.5084453892278
 20
30.04528502039701
 10
353.5777052145657
 20
30.01341896377735
 10
353.7088627777852
 20
29.9199887663115
 10
353.8160650462206
 20
29.80744323920279
 10
353.8738677093325
 20
29.7192669696436
 10
353.9811183658003
 20
29.44803950216455
 10
353.984655010511
 20
29.42976750098356
 10
353.998778235491
 20
29.13199928482516
 10
353.9940696588984
 20
29.06401836659994
 10
353.8966085660925
 20
28.58224446358273
 10
353.8270036387779
 20
28.40274315150151
 10
353.723568905535
 20
28.22585592320081
 10
353.5206934241413
 20
27.98327648180641
 10
353.4624406073794
 20
27.93196666526242
 10
353.1554485358159
 20
27.75187730806151
 10
352.9380039127691
 20
27.7088744255452
 10
352.8351743237316
 20
27.70298133150042
 10
352.6366462674344
 20
27.71405875680783
 10
352.1470488191068
 20
27.81520338387453
 10
352.040224281104
 20
27.8588365222007
 10
351.894862301793
 20
27.95260842121584
 10
351.860826465192
 20
27.98440819924411
 10
351.7585017471202
 20
28.1249306725311
 10
351.7111715926129
 20
28.23646777096552
  0
LWPOLYLINE
  5
31D
100
AcDbEntity
  8
0
  6
ByLayer
 62
  256
370
   -1
100
AcDbPolyline
 90
   67
 70
    1
 43
0
 10
356.0793324803671
 20
35.40008836931905
 10
356.1766520745267
 20
36.34509043100601
 10
350.2255374714613
 20
36.95795688013721
 10
349.6474508476911
 20
31.34456467465361
 10
351.267584887665
 20
30.95256189485871
 10
352.2833373875585
 20
31.37241922188756
 10
352.9384331960892
 20
31.5486213318364
 10
353.1227524965081
 20
31.56044507591199
 10
353.3365745814159
 20
31.54786785057414
 10
353.971874605749
 20
31.40065607354537
 10
354.2952062130264
 20
31.25189301712461
 10
354.6466667251282
 20
31.00152983378176
 10
354.9369945666668
 20
30.696731246614
 10
355.1454715920117
 20
30.37870565066329
 10
355.3549829215949
 20
29.84886994426781
 10
355.4031924564814
 20
29.59979638713548
 10
355.4261167240079
 20
29.1164706412252
 10
355.4092323266764
 20
28.87269912944937
 10
355.2691963612216
 20
28.18046726853389
 10
355.1145130714219
 20
27.78156083263488
 10
354.8933575748371
 20
27.40335535379884
 10
354.5441019554287
 20
26.98574829513488
 10
354.3015759418968
 20
26.77212832011536
 10
353.7285824389034
 20
26.43599575776995
 10
353.5782586818858
 20
26.38289500749552
 10
353.1178549717797
 20
26.29184338074864
 10
352.8362495772987
 20
26.27570476647696
 10
352.4517923547774
 20
26.29715662696358
 10
351.7299597181596
 20
26.44627810029785
 10
351.3789200001042
 20
26.58966242811473
 10
351.0152140052587
 20
26.82428637848684
 10
350.7887849209181
 20
27.0358397099233
 10
350.5104746255302
 20
27.41804306983571
 10
350.3411325568359
 20
27.81711049696943
 10
350.2433240373274
 20
28.31823058641001
 10
349.0757619284707
 20
28.34923187162043
 10
349.2451013282143
 20
27.48162467777254
 10
349.5120529282582
 20
26.8525329876795
 10
349.9311516854991
 20
26.27698491846668
 10
350.3114953680313
 20
25.92162874430362
 10
350.8498765753046
 20
25.57432315284589
 10
351.3962884374017
 20
25.35113787343652
 10
352.3039092246518
 20
25.1636349230882
 10
352.8371097801523
 20
25.13388351445821
 10
353.2617358189882
 20
25.15821854491142
 10
353.8802640436592
 20
25.28054162747773
 10
354.2112341977629
 20
25.3974543753363
 10
354.9728842095107
 20
25.84425764399771
 10
355.3628287804589
 20
26.18772574579772
 10
355.8291885102789
 20
26.74535489827749
 10
356.1445206175371
 20
27.2846149775412
 10
356.3672665973248
 20
27.85904551249473
 10
356.5413624608988
 20
28.71964373972922
 10
356.5679875148215
 20
29.10404772634507
 10
356.5380224132576
 20
29.73581949605753
 10
356.4540745662307
 20
30.16953429795016
 10
356.1627546981551
 20
30.90625659547889
 10
355.8337381830239
 20
31.40816165254272
 10
355.3969098830024
 20
31.86676268775811
 10
354.869207011795
 20
32.24267225980243
 10
354.3426179789659
 20
32.48495291606403
 10
353.4998784042095
 20
32.68023260380308
 10
353.1197217395669
 20
32.7025937927184
 10
352.7520585127003
 20
32.67900887301331
 10
351.9160152228027
 20
32.45413704545738
 10
350.8682978869002
 20
32.02106717835889
 10
351.2673155301442
 20
35.89564658624924
  0
LWPOLYLINE
  5
31E
100
AcDbEntity
  8
0
  6
ByLayer
 62
  256
370
   -1
100
AcDbPolyline
 90
   67
 70
    1
 43
0
 10
355.8250277401088
 20
35.71278486607301
 10
355.8639555777727
 20
36.09078569074781
 10
350.4798422117195
 20
36.64526038338324
 10
349.9564557087229
 20
31.56302253948439
 10
351.244445220162
 20
31.25138445499665
 10
352.1915068463697
 20
31.64284867778003
 10
352.891839525242
 20
31.83121821713063
 10
353.1219948072727
 20
31.8459822551136
 10
353.3774005371144
 20
31.83095903888137
 10
354.0645604490531
 20
31.67173028417506
 10
354.4387064127186
 20
31.49958782779406
 10
354.8342275145969
 20
31.21783804727578
 10
355.1611804707559
 20
30.8745888480964
 10
355.3997923685477
 20
30.51059338686702
 10
355.6297558327538
 20
29.92903603268862
 10
355.6868999456755
 20
29.63380216436581
 10
355.7115844217114
 20
29.11336491250512
 10
355.692264860232
 20
28.83443528201924
 10
355.5437139202475
 20
28.1001118295241
 10
355.3720149579508
 20
27.65732436886167
 10
355.1273153086974
 20
27.23885523991843
 10
354.7487836616863
 20
26.78624265780053
 10
354.4694030088003
 20
26.54016065108594
 10
353.8492453786183
 20
26.17636041216156
 10
353.6537600223291
 20
26.10730666249107
 10
353.1538251835818
 20
26.00843717178933
 10
352.8364646280122
 20
25.99024945347227
 10
352.414821572246
 20
26.01377620099473
 10
351.6465418979701
 20
26.17249304358253
 10
351.2466591439042
 20
26.33582760929753
 10
350.8392843459518
 20
26.59862196994101
 10
350.5743766120634
 20
26.84612601205917
 10
350.2608692012122
 20
27.27666554929663
 10
350.0671247496805
 20
27.73323904217012
 10
350.0073692425324
 20
28.03939524652844
 10
349.4235881881041
 20
28.05489588913366
 10
349.5191091353697
 20
27.56549613257182
 10
349.7616583525762
 20
26.99391050821858
 10
350.1455599943538
 20
26.46669861633085
 10
350.4874250273381
 20
26.14729315284942
 10
350.9821374315044
 20
25.82815797166308
 10
351.4797062575912
 20
25.62492293015186
 10
352.3408800071832
 20
25.44701534905705
 10
352.8368947294389
 20
25.4193388274629
 10
353.2257656071861
 20
25.44162475387074
 10
353.8047627032159
 20
25.55612997248218
 10
354.0905712580479
 20
25.65708972094467
 10
354.8050571426073
 20
26.07622531302713
 10
355.1581470742013
 20
26.38723138313199
 10
355.5952307764185
 20
26.90985501215794
 10
355.8870187310083
 20
27.40885144131447
 10
356.092749038299
 20
27.93940095150444
 10
356.2583299273432
 20
28.75790758715935
 10
356.2825198171181
 20
29.10715345506512
 10
356.2543149240636
 20
29.701813718827
 10
356.1793016550717
 20
30.08936820952975
 10
355.9084339216194
 20
30.77436885927481
 10
355.6095522789347
 20
31.2303040510605
 10
355.2093490935337
 20
31.65045447426413
 10
354.7257068121028
 20
31.99497744913298
 10
354.2499321356617
 20
32.21387870543434
 10
353.459052448511
 20
32.39714141549586
 10
353.1204794288021
 20
32.41705661351679
 10
352.7986521835476
 20
32.39641198771908
 10
352.0078457639917
 20
32.18370758956492
 10
350.5358815477399
 20
31.57527693211406
 10
351.013010789886
 20
36.20834308300321
  0
LWPOLYLINE
  5
31F
100
AcDbEntity
  8
0
  6
ByLayer
 62
  256
370
   -1
100
AcDbPolyline
 90
   31
 70
    0
 43
0
 10
351.2155902152458
 20
31.54784460274604
 10
352.0996763051808
 20
31.91327813367248
 10
352.8452458543948
 20
32.11381510242487
 10
353.1212371180374
 20
32.1315194343152
 10
353.4182264928127
 20
32.11405022718861
 10
354.1572462923574
 20
31.94280449480473
 10
354.5822066124108
 20
31.74728263846349
 10
355.0217883040653
 20
31.43414626076991
 10
355.3853663748451
 20
31.05244644957863
 10
355.6541131450836
 20
30.64248112307077
 10
355.9045287439126
 20
30.00920212110942
 10
355.9706074348696
 20
29.66780794159618
 10
355.9970521194148
 20
29.11025918378503
 10
355.9752973937876
 20
28.79617143458911
 10
355.8182314792733
 20
28.01975639051463
 10
355.6295168444796
 20
27.53308790508817
 10
355.3612730425578
 20
27.074355126038
 10
354.9534653679437
 20
26.58673702046615
 10
354.6372300757038
 20
26.30819298205655
 10
353.9699083183333
 20
25.91672506655319
 10
353.7292613627724
 20
25.83171831748662
 10
353.1897953953839
 20
25.72503096283003
 10
352.8366796787255
 20
25.70479414046758
 10
352.3778507897146
 20
25.73039577502589
 10
351.5631240777806
 20
25.89870798686721
 10
351.1143982877043
 20
26.08199279048032
 10
350.6633546866449
 20
26.37295756139523
 10
350.3599683032086
 20
26.65641231419504
 10
350.0112637768943
 20
27.13528802875741
 10
349.7931169425251
 20
27.649367587371
 10
349.7684966489475
 20
27.77550919325244
  0
LWPOLYLINE
  5
320
100
AcDbEntity
  8
0
  6
ByLayer
 62
  256
370
   -1
100
AcDbPolyline
 90
    2
 70
    0
 43
0
 10
341.4654142958901
 20
45.6961336407588
 10
341.1078105568272
 20
42.22369549919473
  0
LWPOLYLINE
  5
321
100
AcDbEntity
  8
0
  6
ByLayer
 62
  256
370
   -1
100
AcDbPolyline
 90
    2
 70
    0
 43
0
 10
344.301250037846
 20
43.64945671937212
 10
346.2751880934125
 20
43.44617372322601
  0
LWPOLYLINE
  5
322
100
AcDbEntity
  8
0
  6
ByLayer
 62
  256
370
   -1
100
AcDbPolyline
 90
    5
 70
    0
 43
0
 10
348.7466983324603
 20
41.43701630737534
 10
349.1043020715232
 20
44.90945444893942
 10
349.9449775837842
 20
44.82287876514977
 42
-1.048805786306428
 10
349.7261857327363
 20
42.69834513853519
 10
348.8855102204753
 20
42.78492082232484
  0
LWPOLYLINE
  5
323
100
AcDbEntity
  8
0
  6
ByLayer
 62
  256
370
   -1
100
AcDbPolyline
 90
    2
 70
    0
 43
0
 10
350.2937357330148
 20
42.63989686849248
 10
351.0426831210202
 20
41.20056782024669
  0
LWPOLYLINE
  5
324
100
AcDbEntity
  8
0
  6
ByLayer
 62
  256
370
   -1
100
AcDbPolyline
 90
    5
 70
    0
 43
0
 10
336.6099912541085
 20
42.68689655122472
 10
336.9675949931715
 20
46.15933469278881
 10
337.8082705054325
 20
46.07275900899916
 42
-0.9437968842020101
 10
337.7112264090799
 20
43.97946487389447
 10
336.7531631548969
 20
44.07713808057928
  0
LWPOLYLINE
  5
325
100
AcDbEntity
  8
0
  6
ByLayer
 62
  256
370
   -1
100
AcDbPolyline
 90
    4
 70
    0
 43
0
 10
346.096386223881
 20
41.70995465244398
 10
344.1224481683145
 20
41.91323764859007
 10
344.4800519073774
 20
45.38567579015416
 10
346.4539899629439
 20
45.18239279400805
  0
LWPOLYLINE
  5
326
100
AcDbEntity
  8
0
  6
ByLayer
 62
  256
370
   -1
100
AcDbPolyline
 90
    7
 70
    0
 43
0
 10
335.5495114598213
 20
47.91970045050002
 10
350.5792244008264
 20
46.37214689407784
 42
-0.3754122893240415
 10
352.596282318888
 20
43.54092739759065
 10
352.3905658440161
 20
42.04146863666296
 10
353.937771433064
 20
39.70554753472516
 10
334.9054386919531
 20
41.66556325677495
 10
335.5495114598213
 20
47.91970045050002
  0
LWPOLYLINE
  5
327
100
AcDbEntity
  8
0
  6
ByLayer
 62
  256
370
   -1
100
AcDbPolyline
 90
    2
 70
    1
 43
0
 10
344.5215231857023
 20
33.60803163585481
 42
-0.9999999999999999
 10
344.8821373858361
 20
37.10970224538355
 42
-0.9999999999999999
  0
LWPOLYLINE
  5
328
100
AcDbEntity
  8
0
  6
ByLayer
 62
  256
370
   -1
100
AcDbPolyline
 90
    2
 70
    1
 43
0
 10
344.3755437944628
 20
32.19052854332435
 42
-0.9999999999999994
 10
345.0281167770755
 20
38.52720533791399
 42
-1
  0
LWPOLYLINE
  5
329
100
AcDbEntity
  8
0
  6
ByLayer
 62
  256
370
   -1
100
AcDbPolyline
 90
    2
 70
    0
 43
0
 10
350.73864093327
 20
36.35120156825827
 10
350.2660083810289
 20
31.76179960717366
  0
LWPOLYLINE
  5
32A
100
AcDbEntity
  8
0
  6
ByLayer
 62
  256
370
   -1
100
AcDbPolyline
 90
    2
 70
    0
 43
0
 10
331.0374985341307
 20
38.23369690991336
 10
337.7903347450379
 20
27.72126680073625
  0
LWPOLYLINE
  5
32B
100
AcDbEntity
  8
layer0
  6
ByLayer
 62
  256
370
   -1
100
AcDbPolyline
 90
   86
 70
    1
 43
0
 10
363.7767797802239
 20
17.28337090216738
 10
331.211713233102
 20
20.91367454792036
 10
288.7953593562408
 20
25.36750349512616
 10
262.3744257333907
 20
27.92241705948973
 10
251.6483957986367
 20
28.8271384218455
 10
241.7319028694298
 20
29.56132855647972
 10
232.0897332583833
 20
30.15515641199002
 10
222.4371158768633
 20
30.62822515524468
 10
212.7771730764796
 20
30.98041760713992
 10
203.0136218379108
 20
31.22424129495429
 10
193.2500705993426
 20
30.98041760713992
 10
183.5901277989588
 20
30.62822515524468
 10
173.9375104174383
 20
30.15515641199002
 10
164.2953408063918
 20
29.56132855647972
 10
154.3788478771855
 20
28.8271384218455
 10
143.6528179424318
 20
27.92241705948973
 10
117.2318843195813
 20
25.36750349512616
 10
74.81553044271837
 20
20.91367454792012
 10
42.25046389559809
 20
17.28337090216727
 10
25.48013691410976
 20
134.8864879101577
 10
30.7174318224376
 20
138.760149112927
 10
36.70325758288178
 20
143.4248578905541
 10
42.55636200554104
 20
148.211004366121
 10
48.27997187160342
 20
153.1314709319363
 10
53.87175813283344
 20
158.1844135763409
 10
59.3199616561648
 20
163.3581844288589
 10
64.65052782645776
 20
168.6683542124568
 10
70.91912131104587
 20
175.2620694772557
 10
76.98787974856864
 20
182.0424545546503
 10
82.86300571920007
 20
189.005192282316
 10
88.54665946787343
 20
196.1631604688647
 10
94.02377201571757
 20
203.5099710675215
 10
99.31603318770306
 20
211.0369712180129
 10
104.4061359282646
 20
218.7482747144291
 10
107.7977039082612
 20
224.2227129476083
 10
108.7477254135206
 20
224.2227129476083
 10
114.7509081132676
 20
217.375722781637
 10
122.4244780313444
 20
208.9066206442688
 10
130.2287888505303
 20
200.558486251115
 10
138.1657187696552
 20
192.3399233348595
 10
151.6057265512555
 20
178.720190515065
 10
158.9295405583326
 20
170.9614600129176
 10
163.5008938668103
 20
165.8384258629913
 10
173.7055668297241
 20
154.0930406693422
 10
178.3376707394301
 20
148.9315321516612
 10
184.0943879404182
 20
142.9289862833013
 10
189.5896345226239
 20
137.7018097188471
 10
191.7007392984307
 20
135.8684533323016
 10
193.5936096618335
 20
134.4337336854769
 10
195.5429543210754
 20
133.2301259495789
 10
197.6007676300766
 20
132.2792632312405
 10
200.1185449166588
 20
131.5396010383772
 10
203.0136218379108
 20
131.1854000976026
 10
205.9086987591633
 20
131.5396010383772
 10
208.4264760457456
 20
132.2792632312405
 10
210.4842893547477
 20
133.2301259495792
 10
212.4336340139877
 20
134.4337336854763
 10
214.3265043773915
 20
135.8684533323016
 10
216.4376091531983
 20
137.7018097188471
 10
221.932855735404
 20
142.9289862833013
 10
227.689572936392
 20
148.9315321516612
 10
232.3216768460981
 20
154.0930406693422
 10
242.5263498090122
 20
165.8384258629913
 10
247.0977031174895
 20
170.9614600129176
 10
254.4215171245666
 20
178.720190515065
 10
267.861524906167
 20
192.3399233348595
 10
275.7984548252918
 20
200.558486251115
 10
283.6027656444742
 20
208.9066206442649
 10
291.2763355625582
 20
217.3757227816413
 10
297.2795182623015
 20
224.2227129476083
 10
298.2295397675608
 20
224.2227129476083
 10
301.6211077475579
 20
218.748274714428
 10
306.7112104881178
 20
211.0369712180146
 10
312.0034716601033
 20
203.5099710675234
 10
317.4805842079519
 20
196.1631604688601
 10
323.1642379566217
 20
189.005192282316
 10
329.0393639272495
 20
182.0424545546546
 10
335.1081223647782
 20
175.2620694772535
 10
341.3767158493643
 20
168.6683542124568
 10
346.707282019655
 20
163.3581844288612
 10
352.155485542993
 20
158.1844135763367
 10
357.7472718042188
 20
153.1314709319363
 10
363.4708816702789
 20
148.2110043661228
 10
369.3239860929382
 20
143.424857890556
 10
375.3098118533864
 20
138.7601491129254
 10
380.5471067617122
 20
134.8864879101578
  0
LWPOLYLINE
  5
32C
100
AcDbEntity
  8
layer0
  6
ByLayer
 62
    1
370
   -1
100
AcDbPolyline
 90
   88
 70
    1
 43
0
 10
390.5136828730676
 20
133.9426836507332
 10
373.0136828730676
 20
11.22268243003023
 10
330.6736560175984
 20
15.94268365073324
 10
288.2936511347859
 20
20.39269585776461
 10
261.9236560175984
 20
22.94268365073325
 10
251.2536731074426
 20
23.84267754721784
 10
241.3936267207238
 20
24.57268853354586
 10
231.8136706660358
 20
25.16268487143648
 10
222.2236438105672
 20
25.63268609213962
 10
212.6236682246297
 20
25.98269219565523
 10
203.0136218379108
 20
26.22268243003023
 10
193.403575451192
 20
25.98269219565523
 10
183.8035998652545
 20
25.63268609213962
 10
174.2135730097858
 20
25.16268487143648
 10
164.6336169550983
 20
24.57268853354586
 10
154.7735705683795
 20
23.84267754721784
 10
144.1035876582233
 20
22.94268365073325
 10
117.7335925410358
 20
20.39269585776461
 10
75.35358765822335
 20
15.94268365073324
 10
33.01356080275461
 20
11.22268243003023
 10
15.51356080275461
 20
133.9426836507332
 10
21.66358521681711
 20
138.2826799886239
 10
27.69361451369211
 20
142.742671443702
 10
33.58356812697336
 20
147.3326677815926
 10
39.34357789259835
 20
152.042689754249
 10
44.97358277541086
 20
156.8826860921395
 10
50.47358277541086
 20
161.8526873128427
 10
55.83356812697336
 20
166.9426836507333
 10
61.0736193965046
 20
172.1626848714364
 10
67.24360230666085
 20
178.6526751058115
 10
73.21357300978585
 20
185.3226885335458
 10
78.99360230666085
 20
192.1727251546395
 10
84.58356812697338
 20
199.2127031819833
 10
89.97358277541088
 20
206.4426836507333
 10
95.18360474806708
 20
213.8527178304208
 10
100.1936145136921
 20
221.4426836507333
 10
105.0135608027546
 20
229.2227129476083
 10
111.0135608027546
 20
229.2227129476083
 10
118.4835925410358
 20
220.7026934163583
 10
126.1035876582233
 20
212.2927202718271
 10
133.8535876582233
 20
204.002681209327
 10
141.7436023066608
 20
195.8326982991708
 10
155.203624279317
 20
182.1926836507332
 10
162.6135974238483
 20
174.3426775472179
 10
167.2536120722858
 20
169.1426958577645
 10
177.453624279317
 20
157.4026751058115
 10
182.0036120722858
 20
152.3326677815926
 10
187.6236071894737
 20
146.4726824300302
 10
192.9536242793171
 20
141.4026751058115
 10
194.8535876582238
 20
139.752681209327
 10
196.4235949824422
 20
138.5626787679207
 10
197.9135852168172
 20
137.6426958577645
 10
199.3635974238483
 20
136.9726824300302
 10
201.1336169550983
 20
136.4526934163583
 10
203.0136218379108
 20
136.2226824300302
 10
204.8936267207238
 20
136.4526934163583
 10
206.6636462519738
 20
136.9726824300302
 10
208.1136584590047
 20
137.6426958577645
 10
209.60364869338
 20
138.5626787679207
 10
211.1736560175983
 20
139.752681209327
 10
213.0736193965047
 20
141.4026751058115
 10
218.4036364863483
 20
146.4726824300302
 10
224.0236316035358
 20
152.3326677815926
 10
228.5736193965047
 20
157.4026751058115
 10
238.7736316035358
 20
169.1426958577645
 10
243.4136462519738
 20
174.3426775472179
 10
250.8236193965047
 20
182.1926836507332
 10
264.2836413691609
 20
195.8326982991708
 10
272.1736560175984
 20
204.002681209327
 10
279.9236560175984
 20
212.2927202718271
 10
287.5436511347859
 20
220.7026934163583
 10
295.0136828730676
 20
229.2227129476083
 10
301.0136828730676
 20
229.2227129476083
 10
305.8336291621296
 20
221.4426836507333
 10
310.8436389277551
 20
213.8527178304208
 10
316.0536609004109
 20
206.4426836507333
 10
321.4436755488484
 20
199.2127031819833
 10
327.0336413691609
 20
192.1727251546395
 10
332.8136706660359
 20
185.3226885335458
 10
338.7836413691612
 20
178.6526751058115
 10
344.9536242793174
 20
172.1626848714364
 10
350.1936755488486
 20
166.9426836507333
 10
355.5536609004112
 20
161.8526873128427
 10
361.0536609004111
 20
156.8826860921395
 10
366.6836657832237
 20
152.042689754249
 10
372.4436755488486
 20
147.3326677815926
 10
378.3336291621298
 20
142.742671443702
 10
384.3636584590048
 20
138.2826799886239
  0
LWPOLYLINE
  5
32D
100
AcDbEntity
  8
0
  6
CONTINUOUS
 62
    5
370
   -3
100
AcDbPolyline
 90
   88
 70
    0
 43
0
 10
76.36040213763513
 20
139.4143745110126
 10
75.40353911000389
 20
136.9107240634127
 10
74.1894936678988
 20
133.7936018365334
 10
72.81476510013832
 20
130.2369947953072
 10
71.48057791454553
 20
126.6335404597502
 10
70.14362520447972
 20
122.6921074289597
 10
69.11748876590006
 20
119.2554210233921
 10
68.30462233063434
 20
116.1475734134158
 10
67.32972332480873
 20
111.6705735434811
 10
66.70007878584025
 20
107.8078492767331
 10
66.42448406156896
 20
105.4709953955328
 10
66.12272274132479
 20
99.90473263899381
 10
66.24674376186491
 20
95.89384418737488
 10
66.68645115662699
 20
91.92540571649408
 10
67.19005199868084
 20
89.20610582240207
 10
68.63519666030984
 20
84.10669855345203
 10
70.15675770611566
 20
80.35742271695122
 10
71.59765546297481
 20
77.52352296002074
 10
74.20732882668804
 20
73.40733872109854
 10
76.66968496805988
 20
70.23365061322468
 10
79.67774034174879
 20
66.9272029954216
 10
82.18464242826724
 20
64.50968918392644
 10
85.20245132900861
 20
61.93729516090209
 10
88.39478294991675
 20
59.57306696454523
 10
91.69029468046362
 20
57.47760154220115
 10
95.25485572323225
 20
55.56408244920854
 10
98.87423341454057
 20
53.93726524050387
 10
102.5898334419522
 20
52.54641157680842
 10
107.2604063311074
 20
51.14182678849388
 10
110.178593303208
 20
50.43525049591088
 10
114.0179281337029
 20
49.68667228626922
 10
117.8919954964841
 20
49.12413749221506
 10
122.3149378130775
 20
48.69875920473853
 10
125.6721558823575
 20
48.51919590384877
 10
129.5686920640189
 20
48.46192933055037
 10
133.467988754062
 20
48.56689017657598
 10
137.3569215885551
 20
48.83382200023484
 10
140.8921486258915
 20
49.21845756113011
 10
145.085636008043
 20
49.85252218068982
 10
148.9121406963751
 20
50.59992584674117
 10
152.7035413524165
 20
51.49971863856402
 10
156.4581108718996
 20
52.54818638231247
 10
160.1718646619922
 20
53.74118741235966
 10
163.0136218379108
 20
54.77396510820645
 42
-0.2106689862255312
 10
243.0136218379108
 20
54.77396510820645
 10
245.8553790138301
 20
53.74118741235966
 10
249.5691328039226
 20
52.54818638231247
 10
253.3237023234057
 20
51.49971863856402
 10
257.115102979447
 20
50.59992584674117
 10
260.9416076677792
 20
49.85252218068982
 10
265.1350950499307
 20
49.21845756113011
 10
268.6703220872671
 20
48.83382200023484
 10
272.5592549217605
 20
48.56689017657598
 10
276.4585516118034
 20
48.46192933055037
 10
280.3550877934647
 20
48.51919590384877
 10
283.7123058627445
 20
48.69875920473853
 10
288.1352481793379
 20
49.12413749221506
 10
292.0093155421193
 20
49.68667228626922
 10
295.8486503726142
 20
50.43525049591088
 10
298.7668373447148
 20
51.14182678849388
 10
303.4374102338704
 20
52.54641157680842
 10
307.1530102612816
 20
53.93726524050387
 10
310.7723879525898
 20
55.56408244920854
 10
314.3369489953586
 20
57.47760154220115
 10
317.6324607259055
 20
59.57306696454523
 10
320.8247923468135
 20
61.93729516090209
 10
323.8426012475549
 20
64.50968918392644
 10
326.3495033340733
 20
66.9272029954216
 10
329.3575587077628
 20
70.23365061322468
 10
331.8199148491345
 20
73.40733872109854
 10
334.4295882128472
 20
77.52352296002074
 10
335.8704859697063
 20
80.35742271695122
 10
337.3920470155123
 20
84.10669855345203
 10
338.8371916771415
 20
89.20610582240207
 10
339.3407925191953
 20
91.92540571649408
 10
339.780499913957
 20
95.89384418737488
 10
339.9045209344974
 20
99.90473263899381
 10
339.6027596142533
 20
105.4709953955328
 10
339.3271648899822
 20
107.8078492767331
 10
338.6975203510135
 20
111.6705735434811
 10
337.7226213451879
 20
116.1475734134158
 10
336.9097549099222
 20
119.2554210233921
 10
335.8836184713425
 20
122.6921074289597
 10
334.5466657612766
 20
126.6335404597502
 10
333.2124785756839
 20
130.2369947953072
 10
331.8377500079238
 20
133.7936018365334
 10
330.6237045658188
 20
136.9107240634127
 10
327.8707733008348
 20
144.9293065385621
  0
LINE
  5
32E
100
AcDbEntity
  8
0
  6
CONTINUOUS
 62
  256
370
   -3
100
AcDbLine
 10
204.1793475977939
 20
50.63081997292371
 11
204.06
 21
60.6772
  0
LINE
  5
32F
100
AcDbEntity
  8
0
  6
CONTINUOUS
 62
  256
370
   -3
100
AcDbLine
 10
202.2175950684511
 20
50.63680719143535
 11
201.968
 21
60.6772
  0
ENDSEC
  0
SECTION
  2
OBJECTS
  0
DICTIONARY
  5
C
330
0
100
AcDbDictionary
281
    1
  3
ACAD_GROUP
350
D
  0
DICTIONARY
  5
D
330
C
100
AcDbDictionary
281
    1
  0
PLOTSETTINGS
  5
330
100
AcDbPlotSettings
  6
1x1
 40
0
 41
0
 42
0
 43
0
  0
ENDSEC
  0
EOF
