  0
SECTION
  2
HEADER
  9
$ACADVER
  1
AC1015
  9
$INSBASE
 10
0.0
 20
0.0
 30
0.0
  9
$EXTMIN
 10
15.5135608027546095
 20
11.2226824300302308
 30
0.0
  9
$EXTMAX
 10
390.5136828730675802
 20
229.2227129476083007
 30
0.0
  9
$LIMMIN
 10
0.0
 20
0.0
  9
$LIMMAX
 10
12.0
 20
9.0
  9
$ORTHOMODE
 70
     0
  9
$REGENMODE
 70
     1
  9
$FILLMODE
 70
     1
  9
$QTEXTMODE
 70
     0
  9
$MIRRTEXT
 70
     0
  9
$DRAGMODE
 70
     2
  9
$LTSCALE
 40
1.0
  9
$OSMODE
 70
    37
  9
$ATTMODE
 70
     1
  9
$TEXTSIZE
 40
0.2
  9
$TRACEWID
 40
0.05
  9
$TEXTSTYLE
  7
STANDARD
  9
$CLAYER
  8
0
  9
$CELTYPE
  6
BYLAYER
  9
$CECOLOR
 62
   256
  9
$DIMSCALE
 40
1.0
  9
$DIMASZ
 40
0.18
  9
$DIMEXO
 40
0.0625
  9
$DIMDLI
 40
0.38
  9
$DIMRND
 40
0.0
  9
$DIMDLE
 40
0.0
  9
$DIMEXE
 40
0.18
  9
$DIMTP
 40
0.0
  9
$DIMTM
 40
0.0
  9
$DIMTXT
 40
0.18
  9
$DIMCEN
 40
0.09
  9
$DIMTSZ
 40
0.0
  9
$DIMTOL
 70
     0
  9
$DIMLIM
 70
     0
  9
$DIMTIH
 70
     1
  9
$DIMTOH
 70
     1
  9
$DIMSE1
 70
     0
  9
$DIMSE2
 70
     0
  9
$DIMTAD
 70
     0
  9
$DIMZIN
 70
     0
  9
$DIMBLK
  1

  9
$DIMASO
 70
     1
  9
$DIMSHO
 70
     1
  9
$DIMPOST
  1

  9
$DIMAPOST
  1

  9
$DIMALT
 70
     0
  9
$DIMALTD
 70
     2
  9
$DIMALTF
 40
25.3999999999999986
  9
$DIMLFAC
 40
1.0
  9
$DIMTOFL
 70
     0
  9
$DIMTVP
 40
0.0
  9
$DIMTIX
 70
     0
  9
$DIMSOXD
 70
     0
  9
$DIMSAH
 70
     0
  9
$DIMBLK1
  1

  9
$DIMBLK2
  1

  9
$DIMSTYLE
  2
STANDARD
  9
$DIMCLRD
 70
     0
  9
$DIMCLRE
 70
     0
  9
$DIMCLRT
 70
     0
  9
$DIMTFAC
 40
1.0
  9
$DIMGAP
 40
0.09
  9
$LUNITS
 70
     2
  9
$LUPREC
 70
     4
  9
$SKETCHINC
 40
0.1
  9
$FILLETRAD
 40
0.0
  9
$AUNITS
 70
     0
  9
$AUPREC
 70
     0
  9
$MENU
  1
.
  9
$ELEVATION
 40
0.0
  9
$PELEVATION
 40
0.0
  9
$THICKNESS
 40
0.0
  9
$LIMCHECK
 70
     0
  9
$BLIPMODE
 70
     0
  9
$CHAMFERA
 40
0.0
  9
$CHAMFERB
 40
0.0
  9
$SKPOLY
 70
     0
  9
$TDCREATE
 40
2460803.6855208328925073
  9
$TDUPDATE
 40
2461075.6701157409697771
  9
$TDINDWG
 40
0.2409375
  9
$TDUSRTIMER
 40
0.2409375
  9
$USRTIMER
 70
     1
  9
$ANGBASE
 50
0.0
  9
$ANGDIR
 70
     0
  9
$PDMODE
 70
     0
  9
$PDSIZE
 40
0.0
  9
$PLINEWID
 40
0.0
  9
$COORDS
 70
     1
  9
$SPLFRAME
 70
     0
  9
$SPLINETYPE
 70
     6
  9
$SPLINESEGS
 70
     8
  9
$ATTDIA
 70
     1
  9
$ATTREQ
 70
     1
  9
$HANDLING
 70
     1
  9
$HANDSEED
  5
1F18
  9
$SURFTAB1
 70
     6
  9
$SURFTAB2
 70
     6
  9
$SURFTYPE
 70
     6
  9
$SURFU
 70
     6
  9
$SURFV
 70
     6
  9
$UCSNAME
  2

  9
$UCSORG
 10
0.0
 20
0.0
 30
0.0
  9
$UCSXDIR
 10
1.0
 20
0.0
 30
0.0
  9
$UCSYDIR
 10
0.0
 20
1.0
 30
0.0
  9
$PUCSNAME
  2

  9
$PUCSORG
 10
0.0
 20
0.0
 30
0.0
  9
$PUCSXDIR
 10
1.0
 20
0.0
 30
0.0
  9
$PUCSYDIR
 10
0.0
 20
1.0
 30
0.0
  9
$USERI1
 70
     0
  9
$USERI2
 70
     0
  9
$USERI3
 70
     0
  9
$USERI4
 70
     0
  9
$USERI5
 70
     0
  9
$USERR1
 40
0.0
  9
$USERR2
 40
0.0
  9
$USERR3
 40
0.0
  9
$USERR4
 40
0.0
  9
$USERR5
 40
0.0
  9
$WORLDVIEW
 70
     1
  9
$SHADEDGE
 70
     3
  9
$SHADEDIF
 70
    70
  9
$TILEMODE
 70
     1
  9
$MAXACTVP
 70
    64
  9
$PLIMCHECK
 70
     0
  9
$PEXTMIN
 10
0.0
 20
0.0
 30
0.0
  9
$PEXTMAX
 10
0.0
 20
0.0
 30
0.0
  9
$PLIMMIN
 10
0.0
 20
0.0
  9
$PLIMMAX
 10
12.0
 20
9.0
  9
$UNITMODE
 70
     0
  9
$VISRETAIN
 70
     1
  9
$PLINEGEN
 70
     0
  9
$PSLTSCALE
 70
     1
  0
ENDSEC
  0
SECTION
  2
TABLES
  0
TABLE
  2
VPORT
 70
     1
  0
VPORT
  2
*ACTIVE
 70
     0
 10
0.0
 20
0.0
 11
1.0
 21
1.0
 12
195.1308796229835139
 22
128.372542498516907
 13
0.0
 23
0.0
 14
0.5
 24
0.5
 15
0.5
 25
0.5
 16
0.0
 26
0.0
 36
1.0
 17
0.0
 27
0.0
 37
0.0
 40
324.6155212409278192
 41
1.88427299703264
 42
50.0
 43
0.0
 44
0.0
 50
0.0
 51
0.0
 71
     0
 72
  1000
 73
     1
 74
     3
 75
     0
 76
     1
 77
     0
 78
     0
  0
ENDTAB
  0
TABLE
  2
LTYPE
 70
     2
  0
LTYPE
  2
CONTINUOUS
 70
     0
  3
Solid line
 72
    65
 73
     0
 40
0.0
  0
ENDTAB
  0
TABLE
  2
LAYER
 70
     2
  0
LAYER
  2
0
 70
     0
 62
     7
  6
CONTINUOUS
  0
LAYER
  2
LAYER0
 70
     0
 62
   255
  6
CONTINUOUS
  0
ENDTAB
  0
TABLE
  2
STYLE
 70
     2
  0
STYLE
  2
STANDARD
 70
     0
 40
0.0
 41
1.0
 50
0.0
 71
     0
 42
0.2
  3
txt
  4

  0
ENDTAB
  0
TABLE
  2
VIEW
 70
     1
  0
ENDTAB
  0
TABLE
  2
UCS
 70
     0
  0
ENDTAB
  0
TABLE
  2
APPID
 70
     8
  0
APPID
  2
ACAD
 70
     0
  0
APPID
  2
ACADANNOPO
 70
     0
  0
APPID
  2
ACADANNOTATIVE
 70
     0
  0
APPID
  2
ACAD_DSTYLE_DIMJAG
 70
     0
  0
APPID
  2
ACAD_DSTYLE_DIMTALN
 70
     0
  0
APPID
  2
ACAD_MLEADERVER
 70
     0
  0
APPID
  2
ACAD_NAV_VCDISPLAY
 70
     0
  0
APPID
  2
ACAD_EXEMPT_FROM_CAD_STANDARDS
 70
     0
  0
ENDTAB
  0
TABLE
  2
DIMSTYLE
 70
     3
  0
DIMSTYLE
  2
STANDARD
 70
     0
  3

  4

  5

  6

  7

 40
1.0
 41
0.18
 42
0.0625
 43
0.38
 44
0.18
 45
0.0
 46
0.0
 47
0.0
 48
0.0
140
0.18
141
0.09
142
0.0
143
25.3999999999999986
144
1.0
145
0.0
146
1.0
147
0.09
 71
     0
 72
     0
 73
     1
 74
     1
 75
     0
 76
     0
 77
     0
 78
     0
170
     0
171
     2
172
     0
173
     0
174
     0
175
     0
176
     0
177
     0
178
     0
  0
ENDTAB
  0
ENDSEC
  0
SECTION
  2
BLOCKS
  0
BLOCK
  8
0
  2
$MODEL_SPACE
 70
     0
 10
0.0
 20
0.0
 30
0.0
  3
$MODEL_SPACE
  1

  0
ENDBLK
  5
21
  8
0
  0
BLOCK
 67
     1
  8
0
  2
$PAPER_SPACE
 70
     0
 10
0.0
 20
0.0
 30
0.0
  3
$PAPER_SPACE
  1

  0
ENDBLK
  5
5B
 67
     1
  8
0
  0
ENDSEC
  0
SECTION
  2
ENTITIES
  0
LINE
  5
19DE
  8
0
  6
CONTINUOUS
 62
     7
 10
85.3068718993028057
 20
155.5112004704338062
 30
0.0
 11
83.2012009207148253
 21
150.6252710675792912
 31
0.0
  0
LINE
  5
19DF
  8
0
  6
CONTINUOUS
 62
     7
 10
86.1807633653462659
 20
157.5873576637008
 30
0.0
 11
85.3068718993028057
 21
155.5112004704338062
 31
0.0
  0
LINE
  5
19E0
  8
0
  6
CONTINUOUS
 62
     7
 10
87.622457517183804
 20
161.0748590022398901
 30
0.0
 11
86.1807633653462659
 21
157.5873576637008
 31
0.0
  0
LINE
  5
19E1
  8
0
  6
CONTINUOUS
 62
     7
 10
89.0542633561750989
 20
164.5768802587298012
 30
0.0
 11
87.622457517183804
 21
161.0748590022398901
 31
0.0
  0
LINE
  5
19E2
  8
0
  6
CONTINUOUS
 62
     7
 10
90.8686583804662007
 20
168.9958538563703883
 30
0.0
 11
89.0542633561750989
 21
164.5768802587298012
 31
0.0
  0
LINE
  5
19E3
  8
0
  6
CONTINUOUS
 62
     7
 10
91.9904793167431336
 20
171.647693178349698
 30
0.0
 11
90.8686583804662007
 21
168.9958538563703883
 31
0.0
  0
LINE
  5
19E4
  8
0
  6
CONTINUOUS
 62
     7
 10
93.6458054554470039
 20
175.1138927396474116
 30
0.0
 11
91.9904793167431336
 21
171.647693178349698
 31
0.0
  0
LINE
  5
19E5
  8
0
  6
CONTINUOUS
 62
     7
 10
95.6275017203548288
 20
178.3500278200843923
 30
0.0
 11
93.6458054554470039
 21
175.1138927396474116
 31
0.0
  0
LINE
  5
19E6
  8
0
  6
CONTINUOUS
 62
     7
 10
97.7623052420445759
 20
180.8794790406730044
 30
0.0
 11
95.6275017203548288
 21
178.3500278200843923
 31
0.0
  0
LINE
  5
19E7
  8
0
  6
CONTINUOUS
 62
     7
 10
101.1509649589970934
 20
183.4871086065878956
 30
0.0
 11
97.7623052420445759
 21
180.8794790406730044
 31
0.0
  0
LINE
  5
19E8
  8
0
  6
CONTINUOUS
 62
     7
 10
103.0876607130717986
 20
184.4050433927448864
 30
0.0
 11
101.1509649589970934
 21
183.4871086065878956
 31
0.0
  0
LINE
  5
19E9
  8
0
  6
CONTINUOUS
 62
     7
 10
107.1279124235799003
 20
185.2144517840775961
 30
0.0
 11
103.0876607130717986
 21
184.4050433927448864
 31
0.0
  0
LINE
  5
19EA
  8
0
  6
CONTINUOUS
 62
     7
 10
111.2901252043971994
 20
184.7426137134823989
 30
0.0
 11
107.1279124235799003
 21
185.2144517840775961
 31
0.0
  0
LINE
  5
19EB
  8
0
  6
CONTINUOUS
 62
     7
 10
115.8355732627015016
 20
183.4358439094118864
 30
0.0
 11
111.2901252043971994
 21
184.7426137134823989
 31
0.0
  0
LINE
  5
19EC
  8
0
  6
CONTINUOUS
 62
     7
 10
120.0476759623238934
 20
181.7208034869840958
 30
0.0
 11
115.8355732627015016
 21
183.4358439094118864
 31
0.0
  0
LINE
  5
19ED
  8
0
  6
CONTINUOUS
 62
     7
 10
122.7829296487596054
 20
180.397815263296593
 30
0.0
 11
120.0476759623238934
 21
181.7208034869840958
 31
0.0
  0
LINE
  5
19EE
  8
0
  6
CONTINUOUS
 62
     7
 10
126.1233671541879033
 20
178.6049872071349967
 30
0.0
 11
122.7829296487596054
 21
180.397815263296593
 31
0.0
  0
LINE
  5
19EF
  8
0
  6
CONTINUOUS
 62
     7
 10
128.3330595657940876
 20
177.3373208311807048
 30
0.0
 11
126.1233671541879033
 21
178.6049872071349967
 31
0.0
  0
LINE
  5
19F0
  8
0
  6
CONTINUOUS
 62
     7
 10
132.6444916954310997
 20
174.7324926709451915
 30
0.0
 11
128.3330595657940876
 21
177.3373208311807048
 31
0.0
  0
LINE
  5
19F1
  8
0
  6
CONTINUOUS
 62
     7
 10
135.8418597295471955
 20
172.6928492666255863
 30
0.0
 11
132.6444916954310997
 21
174.7324926709451915
 31
0.0
  0
LINE
  5
19F2
  8
0
  6
CONTINUOUS
 62
     7
 10
138.9977869177646994
 20
170.5884578529204987
 30
0.0
 11
135.8418597295471955
 21
172.6928492666255863
 31
0.0
  0
LINE
  5
19F3
  8
0
  6
CONTINUOUS
 62
     7
 10
142.1124868206925953
 20
168.4218021600237023
 30
0.0
 11
138.9977869177646994
 21
170.5884578529204987
 31
0.0
  0
LINE
  5
19F4
  8
0
  6
CONTINUOUS
 62
     7
 10
145.1861729989414869
 20
166.1953659181297951
 30
0.0
 11
142.1124868206925953
 21
168.4218021600237023
 31
0.0
  0
LINE
  5
19F5
  8
0
  6
CONTINUOUS
 62
     7
 10
148.2190590131222905
 20
163.9116328574324086
 30
0.0
 11
145.1861729989414869
 21
166.1953659181297951
 31
0.0
  0
LINE
  5
19F6
  8
0
  6
CONTINUOUS
 62
     7
 10
151.2113584238447004
 20
161.5730867081261977
 30
0.0
 11
148.2190590131222905
 21
163.9116328574324086
 31
0.0
  0
LINE
  5
19F7
  8
0
  6
CONTINUOUS
 62
     7
 10
154.1632847917186098
 20
159.1822112004049927
 30
0.0
 11
151.2113584238447004
 21
161.5730867081261977
 31
0.0
  0
LINE
  5
19F8
  8
0
  6
CONTINUOUS
 62
     7
 10
157.0750516773551908
 20
156.7414900644627949
 30
0.0
 11
154.1632847917186098
 21
159.1822112004049927
 31
0.0
  0
LINE
  5
19F9
  8
0
  6
CONTINUOUS
 62
     7
 10
159.2347549801503135
 20
154.8778941283869131
 30
0.0
 11
157.0750516773551908
 21
156.7414900644627949
 31
0.0
  0
LINE
  5
19FA
  8
0
  6
CONTINUOUS
 62
     7
 10
162.7773137622222066
 20
151.7187329843328882
 30
0.0
 11
159.2347549801503135
 21
154.8778941283869131
 31
0.0
  0
LINE
  5
19FB
  8
0
  6
CONTINUOUS
 62
     7
 10
165.5619153888397932
 20
149.1350930394158922
 30
0.0
 11
162.7773137622222066
 21
151.7187329843328882
 31
0.0
  0
LINE
  5
19FC
  8
0
  6
CONTINUOUS
 62
     7
 10
168.2958079877836042
 20
146.499686165159801
 30
0.0
 11
165.5619153888397932
 21
149.1350930394158922
 31
0.0
  0
LINE
  5
19FD
  8
0
  6
CONTINUOUS
 62
     7
 10
170.9741351126073141
 20
143.8097249371799933
 30
0.0
 11
168.2958079877836042
 21
146.499686165159801
 31
0.0
  0
LINE
  5
19FE
  8
0
  6
CONTINUOUS
 62
     7
 10
173.592040316863887
 20
141.0624219310921887
 30
0.0
 11
170.9741351126073141
 21
143.8097249371799933
 31
0.0
  0
LINE
  5
19FF
  8
0
  6
CONTINUOUS
 62
     7
 10
176.1446671541058038
 20
138.2549897225117945
 30
0.0
 11
173.592040316863887
 21
141.0624219310921887
 31
0.0
  0
LINE
  5
1A00
  8
0
  6
CONTINUOUS
 62
     7
 10
178.6271591778869094
 20
135.3846408870543883
 30
0.0
 11
176.1446671541058038
 21
138.2549897225117945
 31
0.0
  0
LINE
  5
1A01
  8
0
  6
CONTINUOUS
 62
     7
 10
181.0346599417599975
 20
132.4485880003356044
 30
0.0
 11
178.6271591778869094
 21
135.3846408870543883
 31
0.0
  0
LINE
  5
1A02
  8
0
  6
CONTINUOUS
 62
     7
 10
183.5503951562965881
 20
129.1933356460739049
 30
0.0
 11
181.0346599417599975
 21
132.4485880003356044
 31
0.0
  0
LINE
  5
1A03
  8
0
  6
CONTINUOUS
 62
     7
 10
185.6020665385082964
 20
126.367492816705095
 30
0.0
 11
183.5503951562965881
 21
129.1933356460739049
 31
0.0
  0
LINE
  5
1A04
  8
0
  6
CONTINUOUS
 62
     7
 10
187.7294871785562123
 20
123.2116906025565015
 30
0.0
 11
185.6020665385082964
 21
126.367492816705095
 31
0.0
  0
LINE
  5
1A05
  8
0
  6
CONTINUOUS
 62
     7
 10
189.7149061307214879
 20
119.9682000015399979
 30
0.0
 11
187.7294871785562123
 21
123.2116906025565015
 31
0.0
  0
LINE
  5
1A06
  8
0
  6
CONTINUOUS
 62
     7
 10
191.5286522926330974
 20
116.6285834928667953
 30
0.0
 11
189.7149061307214879
 21
119.9682000015399979
 31
0.0
  0
LINE
  5
1A07
  8
0
  6
CONTINUOUS
 62
     7
 10
193.1410545619197023
 20
113.184403555747096
 30
0.0
 11
191.5286522926330974
 21
116.6285834928667953
 31
0.0
  0
LINE
  5
1A08
  8
0
  6
CONTINUOUS
 62
     7
 10
194.7355734736844113
 20
109.0004295161627965
 30
0.0
 11
193.1410545619197023
 21
113.184403555747096
 31
0.0
  0
LINE
  5
1A09
  8
0
  6
CONTINUOUS
 62
     7
 10
195.6417221401794109
 20
105.9532553317807952
 30
0.0
 11
194.7355734736844113
 21
109.0004295161627965
 31
0.0
  0
LINE
  5
1A0A
  8
0
  6
CONTINUOUS
 62
     7
 10
196.4581728703043098
 20
102.1902472647318945
 30
0.0
 11
195.6417221401794109
 21
105.9532553317807952
 31
0.0
  0
LINE
  5
1A0B
  8
0
  6
CONTINUOUS
 62
     7
 10
196.9270735066999976
 20
98.3790335953514301
 30
0.0
 11
196.4581728703043098
 21
102.1902472647318945
 31
0.0
  0
LINE
  5
1A0C
  8
0
  6
CONTINUOUS
 62
     7
 10
197.0036905737538859
 20
94.5604918685369569
 30
0.0
 11
196.9270735066999976
 21
98.3790335953514301
 31
0.0
  0
LINE
  5
1A0D
  8
0
  6
CONTINUOUS
 62
     7
 10
196.4961164863763088
 20
89.9258530553852609
 30
0.0
 11
197.0036905737538859
 21
94.5604918685369569
 31
0.0
  0
LINE
  5
1A0E
  8
0
  6
CONTINUOUS
 62
     7
 10
195.808292219571797
 20
87.0645069356862962
 30
0.0
 11
196.4961164863763088
 21
89.9258530553852609
 31
0.0
  0
LINE
  5
1A0F
  8
0
  6
CONTINUOUS
 62
     7
 10
194.5187751862378036
 20
83.4645174091994164
 30
0.0
 11
195.808292219571797
 21
87.0645069356862962
 31
0.0
  0
LINE
  5
1A10
  8
0
  6
CONTINUOUS
 62
     7
 10
192.8226697292425911
 20
80.0108700307500982
 30
0.0
 11
194.5187751862378036
 21
83.4645174091994164
 31
0.0
  0
LINE
  5
1A11
  8
0
  6
CONTINUOUS
 62
     7
 10
190.7680866684086993
 20
76.7388929876060786
 30
0.0
 11
192.8226697292425911
 21
80.0108700307500982
 31
0.0
  0
LINE
  5
1A12
  8
0
  6
CONTINUOUS
 62
     7
 10
188.4031368235579862
 20
73.6839144670360895
 30
0.0
 11
190.7680866684086993
 21
76.7388929876060786
 31
0.0
  0
LINE
  5
1A13
  8
0
  6
CONTINUOUS
 62
     7
 10
186.4272630495339058
 20
71.5284470315149434
 30
0.0
 11
188.4031368235579862
 21
73.6839144670360895
 31
0.0
  0
LINE
  5
1A14
  8
0
  6
CONTINUOUS
 62
     7
 10
182.9289293337375
 20
68.3466583536473138
 30
0.0
 11
186.4272630495339058
 21
71.5284470315149434
 31
0.0
  0
LINE
  5
1A15
  8
0
  6
CONTINUOUS
 62
     7
 10
179.8938768758908964
 20
66.058642518790208
 30
0.0
 11
182.9289293337375
 21
68.3466583536473138
 31
0.0
  0
LINE
  5
1A16
  8
0
  6
CONTINUOUS
 62
     7
 10
176.7010525096916922
 20
63.9906684721961696
 30
0.0
 11
179.8938768758908964
 21
66.058642518790208
 31
0.0
  0
LINE
  5
1A17
  8
0
  6
CONTINUOUS
 62
     7
 10
173.3807759914917028
 20
62.1163314098215835
 30
0.0
 11
176.7010525096916922
 21
63.9906684721961696
 31
0.0
  0
LINE
  5
1A18
  8
0
  6
CONTINUOUS
 62
     7
 10
168.2558002396127108
 20
59.6227523391466079
 30
0.0
 11
173.3807759914917028
 21
62.1163314098215835
 31
0.0
  0
LINE
  5
1A19
  8
0
  6
CONTINUOUS
 62
     7
 10
166.4785699881117864
 20
58.8436114839089726
 30
0.0
 11
168.2558002396127108
 21
59.6227523391466079
 31
0.0
  0
LINE
  5
1A1A
  8
0
  6
CONTINUOUS
 62
     7
 10
162.9433793873905074
 20
57.4084191177130592
 30
0.0
 11
166.4785699881117864
 21
58.8436114839089726
 31
0.0
  0
LINE
  5
1A1B
  8
0
  6
CONTINUOUS
 62
     7
 10
159.3623056268461937
 20
56.1069521456532883
 30
0.0
 11
162.9433793873905074
 21
57.4084191177130592
 31
0.0
  0
LINE
  5
1A1C
  8
0
  6
CONTINUOUS
 62
     7
 10
155.7393365772728089
 20
54.9431146776173804
 30
0.0
 11
159.3623056268461937
 21
56.1069521456532883
 31
0.0
  0
LINE
  5
1A1D
  8
0
  6
CONTINUOUS
 62
     7
 10
152.0784601094628954
 20
53.9208108234929782
 30
0.0
 11
155.7393365772728089
 21
54.9431146776173804
 31
0.0
  0
LINE
  5
1A1E
  8
0
  6
CONTINUOUS
 62
     7
 10
148.3836640942105021
 20
53.0439446931663099
 30
0.0
 11
152.0784601094628954
 21
53.9208108234929782
 31
0.0
  0
LINE
  5
1A1F
  8
0
  6
CONTINUOUS
 62
     7
 10
144.6589364023085125
 20
52.3164203965258423
 30
0.0
 11
148.3836640942105021
 21
53.0439446931663099
 31
0.0
  0
LINE
  5
1A20
  8
0
  6
CONTINUOUS
 62
     7
 10
140.5699268735021121
 20
51.6981530607771518
 30
0.0
 11
144.6589364023085125
 21
52.3164203965258423
 31
0.0
  0
LINE
  5
1A21
  8
0
  6
CONTINUOUS
 62
     7
 10
137.1360336668346065
 20
51.324542702615787
 30
0.0
 11
140.5699268735021121
 21
51.6981530607771518
 31
0.0
  0
LINE
  5
1A22
  8
0
  6
CONTINUOUS
 62
     7
 10
133.3487047780610055
 20
51.0645848555402821
 30
0.0
 11
137.1360336668346065
 21
51.324542702615787
 31
0.0
  0
LINE
  5
1A23
  8
0
  6
CONTINUOUS
 62
     7
 10
129.5534192773963014
 20
50.9624237714464599
 30
0.0
 11
133.3487047780610055
 21
51.0645848555402821
 31
0.0
  0
LINE
  5
1A24
  8
0
  6
CONTINUOUS
 62
     7
 10
125.757318585948795
 20
51.0182142654545316
 30
0.0
 11
129.5534192773963014
 21
50.9624237714464599
 31
0.0
  0
LINE
  5
1A25
  8
0
  6
CONTINUOUS
 62
     7
 10
122.5014506528468985
 20
51.1923567790666212
 30
0.0
 11
125.757318585948795
 21
51.0182142654545316
 31
0.0
  0
LINE
  5
1A26
  8
0
  6
CONTINUOUS
 62
     7
 10
118.1914600983310066
 20
51.6068718845975027
 30
0.0
 11
122.5014506528468985
 21
51.1923567790666212
 31
0.0
  0
LINE
  5
1A27
  8
0
  6
CONTINUOUS
 62
     7
 10
114.4370113732375955
 20
52.1520374283482084
 30
0.0
 11
118.1914600983310066
 21
51.6068718845975027
 31
0.0
  0
LINE
  5
1A28
  8
0
  6
CONTINUOUS
 62
     7
 10
110.7122395305747062
 20
52.878278603032328
 30
0.0
 11
114.4370113732375955
 21
52.1520374283482084
 31
0.0
  0
LINE
  5
1A29
  8
0
  6
CONTINUOUS
 62
     7
 10
107.915041531498602
 20
53.5555600146427935
 30
0.0
 11
110.7122395305747062
 21
52.878278603032328
 31
0.0
  0
LINE
  5
1A2A
  8
0
  6
CONTINUOUS
 62
     7
 10
103.388906690790094
 20
54.9167078433987683
 30
0.0
 11
107.915041531498602
 21
53.5555600146427935
 31
0.0
  0
LINE
  5
1A2B
  8
0
  6
CONTINUOUS
 62
     7
 10
99.825886770925166
 20
56.2504464785599012
 30
0.0
 11
103.388906690790094
 21
54.9167078433987683
 31
0.0
  0
LINE
  5
1A2C
  8
0
  6
CONTINUOUS
 62
     7
 10
96.3598965642564593
 20
57.8083199569068924
 30
0.0
 11
99.825886770925166
 21
56.2504464785599012
 31
0.0
  0
LINE
  5
1A2D
  8
0
  6
CONTINUOUS
 62
     7
 10
92.9539425221202293
 20
59.636696020968003
 30
0.0
 11
96.3598965642564593
 21
57.8083199569068924
 31
0.0
  0
LINE
  5
1A2E
  8
0
  6
CONTINUOUS
 62
     7
 10
89.8112242649960137
 20
61.6350070507636687
 30
0.0
 11
92.9539425221202293
 21
59.636696020968003
 31
0.0
  0
LINE
  5
1A2F
  8
0
  6
CONTINUOUS
 62
     7
 10
86.7591013922166638
 20
63.8953972017461709
 30
0.0
 11
89.8112242649960137
 21
61.6350070507636687
 31
0.0
  0
LINE
  5
1A30
  8
0
  6
CONTINUOUS
 62
     7
 10
83.8648073374303351
 20
66.3625066087003148
 30
0.0
 11
86.7591013922166638
 21
63.8953972017461709
 31
0.0
  0
LINE
  5
1A31
  8
0
  6
CONTINUOUS
 62
     7
 10
81.4719723534455369
 20
68.6700205931992116
 30
0.0
 11
83.8648073374303351
 21
66.3625066087003148
 31
0.0
  0
LINE
  5
1A32
  8
0
  6
CONTINUOUS
 62
     7
 10
78.5848452475048873
 20
71.8435441344312409
 30
0.0
 11
81.4719723534455369
 21
68.6700205931992116
 31
0.0
  0
LINE
  5
1A33
  8
0
  6
CONTINUOUS
 62
     7
 10
76.255235660086953
 20
74.8461375121127332
 30
0.0
 11
78.5848452475048873
 21
71.8435441344312409
 31
0.0
  0
LINE
  5
1A34
  8
0
  6
CONTINUOUS
 62
     7
 10
73.7724702914221382
 20
78.7621523749467514
 30
0.0
 11
76.255235660086953
 21
74.8461375121127332
 31
0.0
  0
LINE
  5
1A35
  8
0
  6
CONTINUOUS
 62
     7
 10
72.4333501077655342
 20
81.3958800942804288
 30
0.0
 11
73.7724702914221382
 21
78.7621523749467514
 31
0.0
  0
LINE
  5
1A36
  8
0
  6
CONTINUOUS
 62
     7
 10
71.003163112117079
 20
84.9200012981209653
 30
0.0
 11
72.4333501077655342
 21
81.3958800942804288
 31
0.0
  0
LINE
  5
1A37
  8
0
  6
CONTINUOUS
 62
     7
 10
69.6270608150731789
 20
89.7757823439095688
 30
0.0
 11
71.003163112117079
 21
84.9200012981209653
 31
0.0
  0
LINE
  5
1A38
  8
0
  6
CONTINUOUS
 62
     7
 10
69.1612231447117267
 20
92.2911719578585092
 30
0.0
 11
69.6270608150731789
 21
89.7757823439095688
 31
0.0
  0
LINE
  5
1A39
  8
0
  6
CONTINUOUS
 62
     7
 10
68.7424788739278085
 20
96.0704144573899441
 30
0.0
 11
69.1612231447117267
 21
92.2911719578585092
 31
0.0
  0
LINE
  5
1A3A
  8
0
  6
CONTINUOUS
 62
     7
 10
68.6248169692363632
 20
99.875646608077659
 30
0.0
 11
68.7424788739278085
 21
96.0704144573899441
 31
0.0
  0
LINE
  5
1A3B
  8
0
  6
CONTINUOUS
 62
     7
 10
68.9165382641419058
 20
105.2567119407934939
 30
0.0
 11
68.6248169692363632
 21
99.875646608077659
 31
0.0
  0
LINE
  5
1A3C
  8
0
  6
CONTINUOUS
 62
     7
 10
69.1764015609889213
 20
107.4601741276153035
 30
0.0
 11
68.9165382641419058
 21
105.2567119407934939
 31
0.0
  0
LINE
  5
1A3D
  8
0
  6
CONTINUOUS
 62
     7
 10
69.7865315850973786
 20
111.2031813390431978
 30
0.0
 11
69.1764015609889213
 21
107.4601741276153035
 31
0.0
  0
LINE
  5
1A3E
  8
0
  6
CONTINUOUS
 62
     7
 10
70.7363618869418644
 20
115.5650589411400944
 30
0.0
 11
69.7865315850973786
 21
111.2031813390431978
 31
0.0
  0
LINE
  5
1A3F
  8
0
  6
CONTINUOUS
 62
     7
 10
71.5252667487254001
 20
118.581293814203903
 30
0.0
 11
70.7363618869418644
 21
115.5650589411400944
 31
0.0
  0
LINE
  5
1A40
  8
0
  6
CONTINUOUS
 62
     7
 10
72.5259361789373145
 20
121.9326873501730972
 30
0.0
 11
71.5252667487254001
 21
118.581293814203903
 31
0.0
  0
LINE
  5
1A41
  8
0
  6
CONTINUOUS
 62
     7
 10
73.8370094475482404
 20
125.797825920732393
 30
0.0
 11
72.5259361789373145
 21
121.9326873501730972
 31
0.0
  0
LINE
  5
1A42
  8
0
  6
CONTINUOUS
 62
     7
 10
75.1530478109167603
 20
129.3522628074366878
 30
0.0
 11
73.8370094475482404
 21
125.797825920732393
 31
0.0
  0
LINE
  5
1A43
  8
0
  6
CONTINUOUS
 62
     7
 10
76.5202052225946829
 20
132.8892822532170896
 30
0.0
 11
75.1530478109167603
 21
129.3522628074366878
 31
0.0
  0
LINE
  5
1A44
  8
0
  6
CONTINUOUS
 62
     7
 10
77.7359664776697059
 20
136.0108099154788874
 30
0.0
 11
76.5202052225946829
 21
132.8892822532170896
 31
0.0
  0
LINE
  5
1A45
  8
0
  6
CONTINUOUS
 62
     7
 10
79.2473551265408389
 20
139.965387277098614
 30
0.0
 11
77.7359664776697059
 21
136.0108099154788874
 31
0.0
  0
LINE
  5
1A46
  8
0
  6
CONTINUOUS
 62
     7
 10
80.5774329889851941
 20
143.5146272643079897
 30
0.0
 11
79.2473551265408389
 21
139.965387277098614
 31
0.0
  0
LINE
  5
1A47
  8
0
  6
CONTINUOUS
 62
     7
 10
81.8929557341659091
 20
147.0687327830584081
 30
0.0
 11
80.5774329889851941
 21
143.5146272643079897
 31
0.0
  0
LINE
  5
1A48
  8
0
  6
CONTINUOUS
 62
     7
 10
83.2012009207148253
 20
150.6252710675792912
 30
0.0
 11
81.8929557341659091
 21
147.0687327830584081
 31
0.0
  0
LINE
  5
1A49
  8
0
  6
CONTINUOUS
 62
     7
 10
320.7203717765194142
 20
155.5112004704338062
 30
0.0
 11
322.8260427551073235
 21
150.6252710675792912
 31
0.0
  0
LINE
  5
1A4A
  8
0
  6
CONTINUOUS
 62
     7
 10
319.8464803104758971
 20
157.5873576637008
 30
0.0
 11
320.7203717765194142
 21
155.5112004704338062
 31
0.0
  0
LINE
  5
1A4B
  8
0
  6
CONTINUOUS
 62
     7
 10
318.4047861586382737
 20
161.0748590022398901
 30
0.0
 11
319.8464803104758971
 21
157.5873576637008
 31
0.0
  0
LINE
  5
1A4C
  8
0
  6
CONTINUOUS
 62
     7
 10
316.9729803196469788
 20
164.5768802587298012
 30
0.0
 11
318.4047861586382737
 21
161.0748590022398901
 31
0.0
  0
LINE
  5
1A4D
  8
0
  6
CONTINUOUS
 62
     7
 10
315.1585852953555218
 20
168.9958538563703883
 30
0.0
 11
316.9729803196469788
 21
164.5768802587298012
 31
0.0
  0
LINE
  5
1A4E
  8
0
  6
CONTINUOUS
 62
     7
 10
314.0367643590789726
 20
171.647693178349698
 30
0.0
 11
315.1585852953555218
 21
168.9958538563703883
 31
0.0
  0
LINE
  5
1A4F
  8
0
  6
CONTINUOUS
 62
     7
 10
312.3814382203751734
 20
175.1138927396474116
 30
0.0
 11
314.0367643590789726
 21
171.647693178349698
 31
0.0
  0
LINE
  5
1A50
  8
0
  6
CONTINUOUS
 62
     7
 10
310.3997419554672774
 20
178.3500278200843923
 30
0.0
 11
312.3814382203751734
 21
175.1138927396474116
 31
0.0
  0
LINE
  5
1A51
  8
0
  6
CONTINUOUS
 62
     7
 10
308.2649384337776155
 20
180.8794790406730044
 30
0.0
 11
310.3997419554672774
 21
178.3500278200843923
 31
0.0
  0
LINE
  5
1A52
  8
0
  6
CONTINUOUS
 62
     7
 10
304.876278716825027
 20
183.4871086065878956
 30
0.0
 11
308.2649384337776155
 21
180.8794790406730044
 31
0.0
  0
LINE
  5
1A53
  8
0
  6
CONTINUOUS
 62
     7
 10
302.9395829627504213
 20
184.4050433927448864
 30
0.0
 11
304.876278716825027
 21
183.4871086065878956
 31
0.0
  0
LINE
  5
1A54
  8
0
  6
CONTINUOUS
 62
     7
 10
298.8993312522422912
 20
185.2144517840775961
 30
0.0
 11
302.9395829627504213
 21
184.4050433927448864
 31
0.0
  0
LINE
  5
1A55
  8
0
  6
CONTINUOUS
 62
     7
 10
294.7371184714249921
 20
184.7426137134823989
 30
0.0
 11
298.8993312522422912
 21
185.2144517840775961
 31
0.0
  0
LINE
  5
1A56
  8
0
  6
CONTINUOUS
 62
     7
 10
290.1916704131206188
 20
183.4358439094118864
 30
0.0
 11
294.7371184714249921
 21
184.7426137134823989
 31
0.0
  0
LINE
  5
1A57
  8
0
  6
CONTINUOUS
 62
     7
 10
285.979567713498227
 20
181.7208034869840958
 30
0.0
 11
290.1916704131206188
 21
183.4358439094118864
 31
0.0
  0
LINE
  5
1A58
  8
0
  6
CONTINUOUS
 62
     7
 10
283.2443140270627282
 20
180.397815263296593
 30
0.0
 11
285.979567713498227
 21
181.7208034869840958
 31
0.0
  0
LINE
  5
1A59
  8
0
  6
CONTINUOUS
 62
     7
 10
279.9038765216342881
 20
178.6049872071349967
 30
0.0
 11
283.2443140270627282
 21
180.397815263296593
 31
0.0
  0
LINE
  5
1A5A
  8
0
  6
CONTINUOUS
 62
     7
 10
277.694184110028516
 20
177.3373208311807048
 30
0.0
 11
279.9038765216342881
 21
178.6049872071349967
 31
0.0
  0
LINE
  5
1A5B
  8
0
  6
CONTINUOUS
 62
     7
 10
273.3827519803909922
 20
174.7324926709451915
 30
0.0
 11
277.694184110028516
 21
177.3373208311807048
 31
0.0
  0
LINE
  5
1A5C
  8
0
  6
CONTINUOUS
 62
     7
 10
270.1853839462743281
 20
172.6928492666255863
 30
0.0
 11
273.3827519803909922
 21
174.7324926709451915
 31
0.0
  0
LINE
  5
1A5D
  8
0
  6
CONTINUOUS
 62
     7
 10
267.0294567580573926
 20
170.5884578529204987
 30
0.0
 11
270.1853839462743281
 21
172.6928492666255863
 31
0.0
  0
LINE
  5
1A5E
  8
0
  6
CONTINUOUS
 62
     7
 10
263.9147568551294967
 20
168.4218021600237023
 30
0.0
 11
267.0294567580573926
 21
170.5884578529204987
 31
0.0
  0
LINE
  5
1A5F
  8
0
  6
CONTINUOUS
 62
     7
 10
260.8410706768805767
 20
166.1953659181297951
 30
0.0
 11
263.9147568551294967
 21
168.4218021600237023
 31
0.0
  0
LINE
  5
1A60
  8
0
  6
CONTINUOUS
 62
     7
 10
257.8081846626997731
 20
163.9116328574324086
 30
0.0
 11
260.8410706768805767
 21
166.1953659181297951
 31
0.0
  0
LINE
  5
1A61
  8
0
  6
CONTINUOUS
 62
     7
 10
254.8158852519775053
 20
161.5730867081261977
 30
0.0
 11
257.8081846626997731
 21
163.9116328574324086
 31
0.0
  0
LINE
  5
1A62
  8
0
  6
CONTINUOUS
 62
     7
 10
251.863958884102999
 20
159.1822112004049927
 30
0.0
 11
254.8158852519775053
 21
161.5730867081261977
 31
0.0
  0
LINE
  5
1A63
  8
0
  6
CONTINUOUS
 62
     7
 10
248.9521919984669864
 20
156.7414900644627949
 30
0.0
 11
251.863958884102999
 21
159.1822112004049927
 31
0.0
  0
LINE
  5
1A64
  8
0
  6
CONTINUOUS
 62
     7
 10
246.7924886956712953
 20
154.8778941283869131
 30
0.0
 11
248.9521919984669864
 21
156.7414900644627949
 31
0.0
  0
LINE
  5
1A65
  8
0
  6
CONTINUOUS
 62
     7
 10
243.2499299135999138
 20
151.7187329843328882
 30
0.0
 11
246.7924886956712953
 21
154.8778941283869131
 31
0.0
  0
LINE
  5
1A66
  8
0
  6
CONTINUOUS
 62
     7
 10
240.4653282869824125
 20
149.1350930394158922
 30
0.0
 11
243.2499299135999138
 21
151.7187329843328882
 31
0.0
  0
LINE
  5
1A67
  8
0
  6
CONTINUOUS
 62
     7
 10
237.7314356880384025
 20
146.499686165159801
 30
0.0
 11
240.4653282869824125
 21
149.1350930394158922
 31
0.0
  0
LINE
  5
1A68
  8
0
  6
CONTINUOUS
 62
     7
 10
235.0531085632142947
 20
143.8097249371799933
 30
0.0
 11
237.7314356880384025
 21
146.499686165159801
 31
0.0
  0
LINE
  5
1A69
  8
0
  6
CONTINUOUS
 62
     7
 10
232.4352033589582049
 20
141.0624219310921887
 30
0.0
 11
235.0531085632142947
 21
143.8097249371799933
 31
0.0
  0
LINE
  5
1A6A
  8
0
  6
CONTINUOUS
 62
     7
 10
229.8825765217162882
 20
138.2549897225117945
 30
0.0
 11
232.4352033589582049
 21
141.0624219310921887
 31
0.0
  0
LINE
  5
1A6B
  8
0
  6
CONTINUOUS
 62
     7
 10
227.4000844979352962
 20
135.3846408870543883
 30
0.0
 11
229.8825765217162882
 21
138.2549897225117945
 31
0.0
  0
LINE
  5
1A6C
  8
0
  6
CONTINUOUS
 62
     7
 10
224.9925837340620944
 20
132.4485880003356044
 30
0.0
 11
227.4000844979352962
 21
135.3846408870543883
 31
0.0
  0
LINE
  5
1A6D
  8
0
  6
CONTINUOUS
 62
     7
 10
222.4768485195255892
 20
129.1933356460739049
 30
0.0
 11
224.9925837340620944
 21
132.4485880003356044
 31
0.0
  0
LINE
  5
1A6E
  8
0
  6
CONTINUOUS
 62
     7
 10
220.4251771373139093
 20
126.367492816705095
 30
0.0
 11
222.4768485195255892
 21
129.1933356460739049
 31
0.0
  0
LINE
  5
1A6F
  8
0
  6
CONTINUOUS
 62
     7
 10
218.2977564972657945
 20
123.2116906025565015
 30
0.0
 11
220.4251771373139093
 21
126.367492816705095
 31
0.0
  0
LINE
  5
1A70
  8
0
  6
CONTINUOUS
 62
     7
 10
216.3123375451006893
 20
119.9682000015399979
 30
0.0
 11
218.2977564972657945
 21
123.2116906025565015
 31
0.0
  0
LINE
  5
1A71
  8
0
  6
CONTINUOUS
 62
     7
 10
214.4985913831889945
 20
116.6285834928667953
 30
0.0
 11
216.3123375451006893
 21
119.9682000015399979
 31
0.0
  0
LINE
  5
1A72
  8
0
  6
CONTINUOUS
 62
     7
 10
212.8861891139027875
 20
113.184403555747096
 30
0.0
 11
214.4985913831889945
 21
116.6285834928667953
 31
0.0
  0
LINE
  5
1A73
  8
0
  6
CONTINUOUS
 62
     7
 10
211.2916702021377944
 20
109.0004295161627965
 30
0.0
 11
212.8861891139027875
 21
113.184403555747096
 31
0.0
  0
LINE
  5
1A74
  8
0
  6
CONTINUOUS
 62
     7
 10
210.3855215356427095
 20
105.9532553317807952
 30
0.0
 11
211.2916702021377944
 21
109.0004295161627965
 31
0.0
  0
LINE
  5
1A75
  8
0
  6
CONTINUOUS
 62
     7
 10
209.5690708055178106
 20
102.1902472647318945
 30
0.0
 11
210.3855215356427095
 21
105.9532553317807952
 31
0.0
  0
LINE
  5
1A76
  8
0
  6
CONTINUOUS
 62
     7
 10
209.1001701691216965
 20
98.3790335953514301
 30
0.0
 11
209.5690708055178106
 21
102.1902472647318945
 31
0.0
  0
LINE
  5
1A77
  8
0
  6
CONTINUOUS
 62
     7
 10
209.0235531020680924
 20
94.5604918685369569
 30
0.0
 11
209.1001701691216965
 21
98.3790335953514301
 31
0.0
  0
LINE
  5
1A78
  8
0
  6
CONTINUOUS
 62
     7
 10
209.5311271894458969
 20
89.9258530553852609
 30
0.0
 11
209.0235531020680924
 21
94.5604918685369569
 31
0.0
  0
LINE
  5
1A79
  8
0
  6
CONTINUOUS
 62
     7
 10
210.2189514562502097
 20
87.0645069356862962
 30
0.0
 11
209.5311271894458969
 21
89.9258530553852609
 31
0.0
  0
LINE
  5
1A7A
  8
0
  6
CONTINUOUS
 62
     7
 10
211.5084684895844021
 20
83.4645174091994164
 30
0.0
 11
210.2189514562502097
 21
87.0645069356862962
 31
0.0
  0
LINE
  5
1A7B
  8
0
  6
CONTINUOUS
 62
     7
 10
213.204573946579103
 20
80.0108700307500982
 30
0.0
 11
211.5084684895844021
 21
83.4645174091994164
 31
0.0
  0
LINE
  5
1A7C
  8
0
  6
CONTINUOUS
 62
     7
 10
215.2591570074135063
 20
76.7388929876060786
 30
0.0
 11
213.204573946579103
 21
80.0108700307500982
 31
0.0
  0
LINE
  5
1A7D
  8
0
  6
CONTINUOUS
 62
     7
 10
217.6241068522637931
 20
73.6839144670360895
 30
0.0
 11
215.2591570074135063
 21
76.7388929876060786
 31
0.0
  0
LINE
  5
1A7E
  8
0
  6
CONTINUOUS
 62
     7
 10
219.5999806262881009
 20
71.5284470315149434
 30
0.0
 11
217.6241068522637931
 21
73.6839144670360895
 31
0.0
  0
LINE
  5
1A7F
  8
0
  6
CONTINUOUS
 62
     7
 10
223.0983143420841941
 20
68.3466583536473138
 30
0.0
 11
219.5999806262881009
 21
71.5284470315149434
 31
0.0
  0
LINE
  5
1A80
  8
0
  6
CONTINUOUS
 62
     7
 10
226.1333667999313093
 20
66.058642518790208
 30
0.0
 11
223.0983143420841941
 21
68.3466583536473138
 31
0.0
  0
LINE
  5
1A81
  8
0
  6
CONTINUOUS
 62
     7
 10
229.3261911661307977
 20
63.9906684721961696
 30
0.0
 11
226.1333667999313093
 21
66.058642518790208
 31
0.0
  0
LINE
  5
1A82
  8
0
  6
CONTINUOUS
 62
     7
 10
232.6464676843303039
 20
62.1163314098215835
 30
0.0
 11
229.3261911661307977
 21
63.9906684721961696
 31
0.0
  0
LINE
  5
1A83
  8
0
  6
CONTINUOUS
 62
     7
 10
237.7714434362092959
 20
59.6227523391466079
 30
0.0
 11
232.6464676843303039
 21
62.1163314098215835
 31
0.0
  0
LINE
  5
1A84
  8
0
  6
CONTINUOUS
 62
     7
 10
239.5486736877103056
 20
58.8436114839089726
 30
0.0
 11
237.7714434362092959
 21
59.6227523391466079
 31
0.0
  0
LINE
  5
1A85
  8
0
  6
CONTINUOUS
 62
     7
 10
243.0838642884314993
 20
57.4084191177130592
 30
0.0
 11
239.5486736877103056
 21
58.8436114839089726
 31
0.0
  0
LINE
  5
1A86
  8
0
  6
CONTINUOUS
 62
     7
 10
246.6649380489758983
 20
56.1069521456532883
 30
0.0
 11
243.0838642884314993
 21
57.4084191177130592
 31
0.0
  0
LINE
  5
1A87
  8
0
  6
CONTINUOUS
 62
     7
 10
250.2879070985493115
 20
54.9431146776173804
 30
0.0
 11
246.6649380489758983
 21
56.1069521456532883
 31
0.0
  0
LINE
  5
1A88
  8
0
  6
CONTINUOUS
 62
     7
 10
253.9487835663591966
 20
53.9208108234929782
 30
0.0
 11
250.2879070985493115
 21
54.9431146776173804
 31
0.0
  0
LINE
  5
1A89
  8
0
  6
CONTINUOUS
 62
     7
 10
257.6435795816116183
 20
53.0439446931663099
 30
0.0
 11
253.9487835663591966
 21
53.9208108234929782
 31
0.0
  0
LINE
  5
1A8A
  8
0
  6
CONTINUOUS
 62
     7
 10
261.3683072735136079
 20
52.3164203965258423
 30
0.0
 11
257.6435795816116183
 21
53.0439446931663099
 31
0.0
  0
LINE
  5
1A8B
  8
0
  6
CONTINUOUS
 62
     7
 10
265.4573168023200083
 20
51.6981530607771518
 30
0.0
 11
261.3683072735136079
 21
52.3164203965258423
 31
0.0
  0
LINE
  5
1A8C
  8
0
  6
CONTINUOUS
 62
     7
 10
268.8912100089871728
 20
51.324542702615787
 30
0.0
 11
265.4573168023200083
 21
51.6981530607771518
 31
0.0
  0
LINE
  5
1A8D
  8
0
  6
CONTINUOUS
 62
     7
 10
272.6785388977610864
 20
51.0645848555402821
 30
0.0
 11
268.8912100089871728
 21
51.324542702615787
 31
0.0
  0
LINE
  5
1A8E
  8
0
  6
CONTINUOUS
 62
     7
 10
276.4738243984257906
 20
50.9624237714464599
 30
0.0
 11
272.6785388977610864
 21
51.0645848555402821
 31
0.0
  0
LINE
  5
1A8F
  8
0
  6
CONTINUOUS
 62
     7
 10
280.2699250898733112
 20
51.0182142654545316
 30
0.0
 11
276.4738243984257906
 21
50.9624237714464599
 31
0.0
  0
LINE
  5
1A90
  8
0
  6
CONTINUOUS
 62
     7
 10
283.5257930229752219
 20
51.1923567790666212
 30
0.0
 11
280.2699250898733112
 21
51.0182142654545316
 31
0.0
  0
LINE
  5
1A91
  8
0
  6
CONTINUOUS
 62
     7
 10
287.8357835774909859
 20
51.6068718845975027
 30
0.0
 11
283.5257930229752219
 21
51.1923567790666212
 31
0.0
  0
LINE
  5
1A92
  8
0
  6
CONTINUOUS
 62
     7
 10
291.5902323025845249
 20
52.1520374283482084
 30
0.0
 11
287.8357835774909859
 21
51.6068718845975027
 31
0.0
  0
LINE
  5
1A93
  8
0
  6
CONTINUOUS
 62
     7
 10
295.3150041452474852
 20
52.878278603032328
 30
0.0
 11
291.5902323025845249
 21
52.1520374283482084
 31
0.0
  0
LINE
  5
1A94
  8
0
  6
CONTINUOUS
 62
     7
 10
298.1122021443234757
 20
53.5555600146427935
 30
0.0
 11
295.3150041452474852
 21
52.878278603032328
 31
0.0
  0
LINE
  5
1A95
  8
0
  6
CONTINUOUS
 62
     7
 10
302.6383369850320264
 20
54.9167078433987683
 30
0.0
 11
298.1122021443234757
 21
53.5555600146427935
 31
0.0
  0
LINE
  5
1A96
  8
0
  6
CONTINUOUS
 62
     7
 10
306.2013569048974091
 20
56.2504464785599012
 30
0.0
 11
302.6383369850320264
 21
54.9167078433987683
 31
0.0
  0
LINE
  5
1A97
  8
0
  6
CONTINUOUS
 62
     7
 10
309.667347111565789
 20
57.8083199569068924
 30
0.0
 11
306.2013569048974091
 21
56.2504464785599012
 31
0.0
  0
LINE
  5
1A98
  8
0
  6
CONTINUOUS
 62
     7
 10
313.0733011537020047
 20
59.636696020968003
 30
0.0
 11
309.667347111565789
 21
57.8083199569068924
 31
0.0
  0
LINE
  5
1A99
  8
0
  6
CONTINUOUS
 62
     7
 10
316.2160194108261067
 20
61.6350070507636687
 30
0.0
 11
313.0733011537020047
 21
59.636696020968003
 31
0.0
  0
LINE
  5
1A9A
  8
0
  6
CONTINUOUS
 62
     7
 10
319.2681422836055276
 20
63.8953972017461709
 30
0.0
 11
316.2160194108261067
 21
61.6350070507636687
 31
0.0
  0
LINE
  5
1A9B
  8
0
  6
CONTINUOUS
 62
     7
 10
322.1624363383922969
 20
66.3625066087003148
 30
0.0
 11
319.2681422836055276
 21
63.8953972017461709
 31
0.0
  0
LINE
  5
1A9C
  8
0
  6
CONTINUOUS
 62
     7
 10
324.5552713223767114
 20
68.6700205931992116
 30
0.0
 11
322.1624363383922969
 21
66.3625066087003148
 31
0.0
  0
LINE
  5
1A9D
  8
0
  6
CONTINUOUS
 62
     7
 10
327.4423984283172899
 20
71.8435441344312409
 30
0.0
 11
324.5552713223767114
 21
68.6700205931992116
 31
0.0
  0
LINE
  5
1A9E
  8
0
  6
CONTINUOUS
 62
     7
 10
329.7720080157347979
 20
74.8461375121127332
 30
0.0
 11
327.4423984283172899
 21
71.8435441344312409
 31
0.0
  0
LINE
  5
1A9F
  8
0
  6
CONTINUOUS
 62
     7
 10
332.2547733843999822
 20
78.7621523749467514
 30
0.0
 11
329.7720080157347979
 21
74.8461375121127332
 31
0.0
  0
LINE
  5
1AA0
  8
0
  6
CONTINUOUS
 62
     7
 10
333.5938935680567283
 20
81.3958800942804288
 30
0.0
 11
332.2547733843999822
 21
78.7621523749467514
 31
0.0
  0
LINE
  5
1AA1
  8
0
  6
CONTINUOUS
 62
     7
 10
335.0240805637051835
 20
84.9200012981209653
 30
0.0
 11
333.5938935680567283
 21
81.3958800942804288
 31
0.0
  0
LINE
  5
1AA2
  8
0
  6
CONTINUOUS
 62
     7
 10
336.4001828607488278
 20
89.7757823439095688
 30
0.0
 11
335.0240805637051835
 21
84.9200012981209653
 31
0.0
  0
LINE
  5
1AA3
  8
0
  6
CONTINUOUS
 62
     7
 10
336.8660205311105074
 20
92.2911719578585092
 30
0.0
 11
336.4001828607488278
 21
89.7757823439095688
 31
0.0
  0
LINE
  5
1AA4
  8
0
  6
CONTINUOUS
 62
     7
 10
337.2847648018944824
 20
96.0704144573899441
 30
0.0
 11
336.8660205311105074
 21
92.2911719578585092
 31
0.0
  0
LINE
  5
1AA5
  8
0
  6
CONTINUOUS
 62
     7
 10
337.4024267065859135
 20
99.875646608077659
 30
0.0
 11
337.2847648018944824
 21
96.0704144573899441
 31
0.0
  0
LINE
  5
1AA6
  8
0
  6
CONTINUOUS
 62
     7
 10
337.1107054116804989
 20
105.2567119407934939
 30
0.0
 11
337.4024267065859135
 21
99.875646608077659
 31
0.0
  0
LINE
  5
1AA7
  8
0
  6
CONTINUOUS
 62
     7
 10
336.8508421148333127
 20
107.4601741276153035
 30
0.0
 11
337.1107054116804989
 21
105.2567119407934939
 31
0.0
  0
LINE
  5
1AA8
  8
0
  6
CONTINUOUS
 62
     7
 10
336.2407120907245144
 20
111.2031813390431978
 30
0.0
 11
336.8508421148333127
 21
107.4601741276153035
 31
0.0
  0
LINE
  5
1AA9
  8
0
  6
CONTINUOUS
 62
     7
 10
335.2908817888803128
 20
115.5650589411400944
 30
0.0
 11
336.2407120907245144
 21
111.2031813390431978
 31
0.0
  0
LINE
  5
1AAA
  8
0
  6
CONTINUOUS
 62
     7
 10
334.5019769270967913
 20
118.581293814203903
 30
0.0
 11
335.2908817888803128
 21
115.5650589411400944
 31
0.0
  0
LINE
  5
1AAB
  8
0
  6
CONTINUOUS
 62
     7
 10
333.5013074968845785
 20
121.9326873501730972
 30
0.0
 11
334.5019769270967913
 21
118.581293814203903
 31
0.0
  0
LINE
  5
1AAC
  8
0
  6
CONTINUOUS
 62
     7
 10
332.1902342282734821
 20
125.797825920732393
 30
0.0
 11
333.5013074968845785
 21
121.9326873501730972
 31
0.0
  0
LINE
  5
1AAD
  8
0
  6
CONTINUOUS
 62
     7
 10
330.874195864905289
 20
129.3522628074366878
 30
0.0
 11
332.1902342282734821
 21
125.797825920732393
 31
0.0
  0
LINE
  5
1AAE
  8
0
  6
CONTINUOUS
 62
     7
 10
329.5070384532274943
 20
132.8892822532170896
 30
0.0
 11
330.874195864905289
 21
129.3522628074366878
 31
0.0
  0
LINE
  5
1AAF
  8
0
  6
CONTINUOUS
 62
     7
 10
328.2912771981523861
 20
136.0108099154788874
 30
0.0
 11
329.5070384532274943
 21
132.8892822532170896
 31
0.0
  0
LINE
  5
1AB0
  8
0
  6
CONTINUOUS
 62
     7
 10
326.7798885492812815
 20
139.965387277098614
 30
0.0
 11
328.2912771981523861
 21
136.0108099154788874
 31
0.0
  0
LINE
  5
1AB1
  8
0
  6
CONTINUOUS
 62
     7
 10
325.4498106868369973
 20
143.5146272643079897
 30
0.0
 11
326.7798885492812815
 21
139.965387277098614
 31
0.0
  0
LINE
  5
1AB2
  8
0
  6
CONTINUOUS
 62
     7
 10
324.1342879416562823
 20
147.0687327830584081
 30
0.0
 11
325.4498106868369973
 21
143.5146272643079897
 31
0.0
  0
LINE
  5
1AB3
  8
0
  6
CONTINUOUS
 62
     7
 10
322.8260427551073235
 20
150.6252710675792912
 30
0.0
 11
324.1342879416562823
 21
147.0687327830584081
 31
0.0
  0
LINE
  5
1AB4
  8
LAYER0
 62
     1
 10
384.363658459004796
 20
138.2826799886238973
 30
0.0
 11
390.5136828730675802
 21
133.9426836507331871
 31
0.0
  0
LINE
  5
1AB5
  8
LAYER0
 62
     1
 10
378.333629162129796
 20
142.7426714437019939
 30
0.0
 11
384.363658459004796
 21
138.2826799886238973
 31
0.0
  0
LINE
  5
1AB6
  8
LAYER0
 62
     1
 10
372.4436755488487165
 20
147.3326677815925905
 30
0.0
 11
378.333629162129796
 21
142.7426714437019939
 31
0.0
  0
LINE
  5
1AB7
  8
LAYER0
 62
     1
 10
366.6836657832237165
 20
152.042689754249011
 30
0.0
 11
372.4436755488487165
 21
147.3326677815925905
 31
0.0
  0
LINE
  5
1AB8
  8
LAYER0
 62
     1
 10
361.0536609004112165
 20
156.8826860921394939
 30
0.0
 11
366.6836657832237165
 21
152.042689754249011
 31
0.0
  0
LINE
  5
1AB9
  8
LAYER0
 62
     1
 10
355.5536609004112165
 20
161.8526873128427042
 30
0.0
 11
361.0536609004112165
 21
156.8826860921394939
 31
0.0
  0
LINE
  5
1ABA
  8
LAYER0
 62
     1
 10
350.1936755488487165
 20
166.9426836507333007
 30
0.0
 11
355.5536609004112165
 21
161.8526873128427042
 31
0.0
  0
LINE
  5
1ABB
  8
LAYER0
 62
     1
 10
344.9536242793174097
 20
172.1626848714363973
 30
0.0
 11
350.1936755488487165
 21
166.9426836507333007
 31
0.0
  0
LINE
  5
1ABC
  8
LAYER0
 62
     1
 10
338.7836413691612165
 20
178.652675105811511
 30
0.0
 11
344.9536242793174097
 21
172.1626848714363973
 31
0.0
  0
LINE
  5
1ABD
  8
LAYER0
 62
     1
 10
332.8136706660358755
 20
185.3226885335458007
 30
0.0
 11
338.7836413691612165
 21
178.652675105811511
 31
0.0
  0
LINE
  5
1ABE
  8
LAYER0
 62
     1
 10
327.0336413691608755
 20
192.1727251546394939
 30
0.0
 11
332.8136706660358755
 21
185.3226885335458007
 31
0.0
  0
LINE
  5
1ABF
  8
LAYER0
 62
     1
 10
321.4436755488483755
 20
199.2127031819833007
 30
0.0
 11
327.0336413691608755
 21
192.1727251546394939
 31
0.0
  0
LINE
  5
1AC0
  8
LAYER0
 62
     1
 10
316.0536609004108755
 20
206.4426836507333007
 30
0.0
 11
321.4436755488483755
 21
199.2127031819833007
 31
0.0
  0
LINE
  5
1AC1
  8
LAYER0
 62
     1
 10
310.8436389277550802
 20
213.8527178304208007
 30
0.0
 11
316.0536609004108755
 21
206.4426836507333007
 31
0.0
  0
LINE
  5
1AC2
  8
LAYER0
 62
     1
 10
305.8336291621296255
 20
221.4426836507333007
 30
0.0
 11
310.8436389277550802
 21
213.8527178304208007
 31
0.0
  0
LINE
  5
1AC3
  8
LAYER0
 62
     1
 10
301.0136828730675802
 20
229.2227129476083007
 30
0.0
 11
305.8336291621296255
 21
221.4426836507333007
 31
0.0
  0
LINE
  5
1AC4
  8
LAYER0
 62
     1
 10
295.0136828730676939
 20
229.2227129476083007
 30
0.0
 11
301.0136828730675802
 21
229.2227129476083007
 31
0.0
  0
LINE
  5
1AC5
  8
LAYER0
 62
     1
 10
287.5436511347858755
 20
220.7026934163583007
 30
0.0
 11
295.0136828730676939
 21
229.2227129476083007
 31
0.0
  0
LINE
  5
1AC6
  8
LAYER0
 62
     1
 10
279.9236560175983755
 20
212.2927202718271076
 30
0.0
 11
287.5436511347858755
 21
220.7026934163583007
 31
0.0
  0
LINE
  5
1AC7
  8
LAYER0
 62
     1
 10
272.1736560175983755
 20
204.0026812093269939
 30
0.0
 11
279.9236560175983755
 21
212.2927202718271076
 31
0.0
  0
LINE
  5
1AC8
  8
LAYER0
 62
     1
 10
264.2836413691608755
 20
195.8326982991708007
 30
0.0
 11
272.1736560175983755
 21
204.0026812093269939
 31
0.0
  0
LINE
  5
1AC9
  8
LAYER0
 62
     1
 10
250.8236193965047107
 20
182.1926836507331871
 30
0.0
 11
264.2836413691608755
 21
195.8326982991708007
 31
0.0
  0
LINE
  5
1ACA
  8
LAYER0
 62
     1
 10
243.4136462519738018
 20
174.3426775472179031
 30
0.0
 11
250.8236193965047107
 21
182.1926836507331871
 31
0.0
  0
LINE
  5
1ACB
  8
LAYER0
 62
     1
 10
238.7736316035357902
 20
169.1426958577644939
 30
0.0
 11
243.4136462519738018
 21
174.3426775472179031
 31
0.0
  0
LINE
  5
1ACC
  8
LAYER0
 62
     1
 10
228.5736193965047107
 20
157.402675105811511
 30
0.0
 11
238.7736316035357902
 21
169.1426958577644939
 31
0.0
  0
LINE
  5
1ACD
  8
LAYER0
 62
     1
 10
224.0236316035357902
 20
152.3326677815925905
 30
0.0
 11
228.5736193965047107
 21
157.402675105811511
 31
0.0
  0
LINE
  5
1ACE
  8
LAYER0
 62
     1
 10
218.4036364863482902
 20
146.4726824300302042
 30
0.0
 11
224.0236316035357902
 21
152.3326677815925905
 31
0.0
  0
LINE
  5
1ACF
  8
LAYER0
 62
     1
 10
213.0736193965047107
 20
141.402675105811511
 30
0.0
 11
218.4036364863482902
 21
146.4726824300302042
 31
0.0
  0
LINE
  5
1AD0
  8
LAYER0
 62
     1
 10
211.1736560175982902
 20
139.7526812093269939
 30
0.0
 11
213.0736193965047107
 21
141.402675105811511
 31
0.0
  0
LINE
  5
1AD1
  8
LAYER0
 62
     1
 10
209.6036486933799949
 20
138.5626787679206871
 30
0.0
 11
211.1736560175982902
 21
139.7526812093269939
 31
0.0
  0
LINE
  5
1AD2
  8
LAYER0
 62
     1
 10
208.1136584590047107
 20
137.6426958577644939
 30
0.0
 11
209.6036486933799949
 21
138.5626787679206871
 31
0.0
  0
LINE
  5
1AD3
  8
LAYER0
 62
     1
 10
206.6636462519738018
 20
136.9726824300302042
 30
0.0
 11
208.1136584590047107
 21
137.6426958577644939
 31
0.0
  0
LINE
  5
1AD4
  8
LAYER0
 62
     1
 10
204.8936267207238018
 20
136.4526934163583007
 30
0.0
 11
206.6636462519738018
 21
136.9726824300302042
 31
0.0
  0
LINE
  5
1AD5
  8
LAYER0
 62
     1
 10
203.0136218379107902
 20
136.2226824300302042
 30
0.0
 11
204.8936267207238018
 21
136.4526934163583007
 31
0.0
  0
LINE
  5
1AD6
  8
LAYER0
 62
     1
 10
201.1336169550982902
 20
136.4526934163583007
 30
0.0
 11
203.0136218379107902
 21
136.2226824300302042
 31
0.0
  0
LINE
  5
1AD7
  8
LAYER0
 62
     1
 10
199.3635974238482902
 20
136.9726824300302042
 30
0.0
 11
201.1336169550982902
 21
136.4526934163583007
 31
0.0
  0
LINE
  5
1AD8
  8
LAYER0
 62
     1
 10
197.9135852168172107
 20
137.6426958577644939
 30
0.0
 11
199.3635974238482902
 21
136.9726824300302042
 31
0.0
  0
LINE
  5
1AD9
  8
LAYER0
 62
     1
 10
196.4235949824422107
 20
138.5626787679206871
 30
0.0
 11
197.9135852168172107
 21
137.6426958577644939
 31
0.0
  0
LINE
  5
1ADA
  8
LAYER0
 62
     1
 10
194.8535876582238018
 20
139.7526812093269939
 30
0.0
 11
196.4235949824422107
 21
138.5626787679206871
 31
0.0
  0
LINE
  5
1ADB
  8
LAYER0
 62
     1
 10
192.953624279317097
 20
141.402675105811511
 30
0.0
 11
194.8535876582238018
 21
139.7526812093269939
 31
0.0
  0
LINE
  5
1ADC
  8
LAYER0
 62
     1
 10
187.6236071894736881
 20
146.4726824300302042
 30
0.0
 11
192.953624279317097
 21
141.402675105811511
 31
0.0
  0
LINE
  5
1ADD
  8
LAYER0
 62
     1
 10
182.0036120722857902
 20
152.3326677815925905
 30
0.0
 11
187.6236071894736881
 21
146.4726824300302042
 31
0.0
  0
LINE
  5
1ADE
  8
LAYER0
 62
     1
 10
177.4536242793170118
 20
157.402675105811511
 30
0.0
 11
182.0036120722857902
 21
152.3326677815925905
 31
0.0
  0
LINE
  5
1ADF
  8
LAYER0
 62
     1
 10
167.2536120722857902
 20
169.1426958577644939
 30
0.0
 11
177.4536242793170118
 21
157.402675105811511
 31
0.0
  0
LINE
  5
1AE0
  8
LAYER0
 62
     1
 10
162.6135974238482902
 20
174.3426775472179031
 30
0.0
 11
167.2536120722857902
 21
169.1426958577644939
 31
0.0
  0
LINE
  5
1AE1
  8
LAYER0
 62
     1
 10
155.2036242793168981
 20
182.1926836507331871
 30
0.0
 11
162.6135974238482902
 21
174.3426775472179031
 31
0.0
  0
LINE
  5
1AE2
  8
LAYER0
 62
     1
 10
141.7436023066607902
 20
195.8326982991708007
 30
0.0
 11
155.2036242793168981
 21
182.1926836507331871
 31
0.0
  0
LINE
  5
1AE3
  8
LAYER0
 62
     1
 10
133.8535876582232902
 20
204.0026812093269939
 30
0.0
 11
141.7436023066607902
 21
195.8326982991708007
 31
0.0
  0
LINE
  5
1AE4
  8
LAYER0
 62
     1
 10
126.1035876582233044
 20
212.2927202718271076
 30
0.0
 11
133.8535876582232902
 21
204.0026812093269939
 31
0.0
  0
LINE
  5
1AE5
  8
LAYER0
 62
     1
 10
118.4835925410358044
 20
220.7026934163583007
 30
0.0
 11
126.1035876582233044
 21
212.2927202718271076
 31
0.0
  0
LINE
  5
1AE6
  8
LAYER0
 62
     1
 10
111.013560802754597
 20
229.2227129476083007
 30
0.0
 11
118.4835925410358044
 21
220.7026934163583007
 31
0.0
  0
LINE
  5
1AE7
  8
LAYER0
 62
     1
 10
105.013560802754597
 20
229.2227129476083007
 30
0.0
 11
111.013560802754597
 21
229.2227129476083007
 31
0.0
  0
LINE
  5
1AE8
  8
LAYER0
 62
     1
 10
100.193614513692097
 20
221.4426836507333007
 30
0.0
 11
105.013560802754597
 21
229.2227129476083007
 31
0.0
  0
LINE
  5
1AE9
  8
LAYER0
 62
     1
 10
95.1836047480670686
 20
213.8527178304208007
 30
0.0
 11
100.193614513692097
 21
221.4426836507333007
 31
0.0
  0
LINE
  5
1AEA
  8
LAYER0
 62
     1
 10
89.9735827754108755
 20
206.4426836507333007
 30
0.0
 11
95.1836047480670686
 21
213.8527178304208007
 31
0.0
  0
LINE
  5
1AEB
  8
LAYER0
 62
     1
 10
84.5835681269733755
 20
199.2127031819833007
 30
0.0
 11
89.9735827754108755
 21
206.4426836507333007
 31
0.0
  0
LINE
  5
1AEC
  8
LAYER0
 62
     1
 10
78.993602306660847
 20
192.1727251546394939
 30
0.0
 11
84.5835681269733755
 21
199.2127031819833007
 31
0.0
  0
LINE
  5
1AED
  8
LAYER0
 62
     1
 10
73.213573009785847
 20
185.3226885335458007
 30
0.0
 11
78.993602306660847
 21
192.1727251546394939
 31
0.0
  0
LINE
  5
1AEE
  8
LAYER0
 62
     1
 10
67.243602306660847
 20
178.652675105811511
 30
0.0
 11
73.213573009785847
 21
185.3226885335458007
 31
0.0
  0
LINE
  5
1AEF
  8
LAYER0
 62
     1
 10
61.073619396504597
 20
172.1626848714363973
 30
0.0
 11
67.243602306660847
 21
178.652675105811511
 31
0.0
  0
LINE
  5
1AF0
  8
LAYER0
 62
     1
 10
55.8335681269733612
 20
166.9426836507333007
 30
0.0
 11
61.073619396504597
 21
172.1626848714363973
 31
0.0
  0
LINE
  5
1AF1
  8
LAYER0
 62
     1
 10
50.4735827754108612
 20
161.8526873128427042
 30
0.0
 11
55.8335681269733612
 21
166.9426836507333007
 31
0.0
  0
LINE
  5
1AF2
  8
LAYER0
 62
     1
 10
44.9735827754108612
 20
156.8826860921394939
 30
0.0
 11
50.4735827754108612
 21
161.8526873128427042
 31
0.0
  0
LINE
  5
1AF3
  8
LAYER0
 62
     1
 10
39.3435778925983612
 20
152.042689754249011
 30
0.0
 11
44.9735827754108612
 21
156.8826860921394939
 31
0.0
  0
LINE
  5
1AF4
  8
LAYER0
 62
     1
 10
33.5835681269733612
 20
147.3326677815925905
 30
0.0
 11
39.3435778925983612
 21
152.042689754249011
 31
0.0
  0
LINE
  5
1AF5
  8
LAYER0
 62
     1
 10
27.6936145136921112
 20
142.7426714437019939
 30
0.0
 11
33.5835681269733612
 21
147.3326677815925905
 31
0.0
  0
LINE
  5
1AF6
  8
LAYER0
 62
     1
 10
21.6635852168171112
 20
138.2826799886238973
 30
0.0
 11
27.6936145136921112
 21
142.7426714437019939
 31
0.0
  0
LINE
  5
1AF7
  8
LAYER0
 62
     1
 10
15.5135608027546095
 20
133.9426836507331871
 30
0.0
 11
21.6635852168171112
 21
138.2826799886238973
 31
0.0
  0
LINE
  5
1AF8
  8
LAYER0
 62
     1
 10
33.0135608027546112
 20
11.2226824300302308
 30
0.0
 11
15.5135608027546095
 21
133.9426836507331871
 31
0.0
  0
LINE
  5
1AF9
  8
LAYER0
 62
     1
 10
75.353587658223347
 20
15.9426836507332403
 30
0.0
 11
33.0135608027546112
 21
11.2226824300302308
 31
0.0
  0
LINE
  5
1AFA
  8
LAYER0
 62
     1
 10
117.7335925410358044
 20
20.3926958577646111
 30
0.0
 11
75.353587658223347
 21
15.9426836507332403
 31
0.0
  0
LINE
  5
1AFB
  8
LAYER0
 62
     1
 10
144.1035876582232902
 20
22.942683650733251
 30
0.0
 11
117.7335925410358044
 21
20.3926958577646111
 31
0.0
  0
LINE
  5
1AFC
  8
LAYER0
 62
     1
 10
154.7735705683795118
 20
23.8426775472178392
 30
0.0
 11
144.1035876582232902
 21
22.942683650733251
 31
0.0
  0
LINE
  5
1AFD
  8
LAYER0
 62
     1
 10
164.6336169550982902
 20
24.5726885335458611
 30
0.0
 11
154.7735705683795118
 21
23.8426775472178392
 31
0.0
  0
LINE
  5
1AFE
  8
LAYER0
 62
     1
 10
174.2135730097857902
 20
25.162684871436479
 30
0.0
 11
164.6336169550982902
 21
24.5726885335458611
 31
0.0
  0
LINE
  5
1AFF
  8
LAYER0
 62
     1
 10
183.8035998652545118
 20
25.6326860921396182
 30
0.0
 11
174.2135730097857902
 21
25.162684871436479
 31
0.0
  0
LINE
  5
1B00
  8
LAYER0
 62
     1
 10
193.4035754511920118
 20
25.982692195655229
 30
0.0
 11
183.8035998652545118
 21
25.6326860921396182
 31
0.0
  0
LINE
  5
1B01
  8
LAYER0
 62
     1
 10
203.0136218379107902
 20
26.222682430030229
 30
0.0
 11
193.4035754511920118
 21
25.982692195655229
 31
0.0
  0
LINE
  5
1B02
  8
LAYER0
 62
     1
 10
212.6236682246297107
 20
25.982692195655229
 30
0.0
 11
203.0136218379107902
 21
26.222682430030229
 31
0.0
  0
LINE
  5
1B03
  8
LAYER0
 62
     1
 10
222.2236438105672107
 20
25.6326860921396182
 30
0.0
 11
212.6236682246297107
 21
25.982692195655229
 31
0.0
  0
LINE
  5
1B04
  8
LAYER0
 62
     1
 10
231.8136706660357902
 20
25.162684871436479
 30
0.0
 11
222.2236438105672107
 21
25.6326860921396182
 31
0.0
  0
LINE
  5
1B05
  8
LAYER0
 62
     1
 10
241.3936267207238018
 20
24.5726885335458611
 30
0.0
 11
231.8136706660357902
 21
25.162684871436479
 31
0.0
  0
LINE
  5
1B06
  8
LAYER0
 62
     1
 10
251.2536731074426086
 20
23.8426775472178392
 30
0.0
 11
241.3936267207238018
 21
24.5726885335458611
 31
0.0
  0
LINE
  5
1B07
  8
LAYER0
 62
     1
 10
261.9236560175983755
 20
22.942683650733251
 30
0.0
 11
251.2536731074426086
 21
23.8426775472178392
 31
0.0
  0
LINE
  5
1B08
  8
LAYER0
 62
     1
 10
288.2936511347858755
 20
20.3926958577646111
 30
0.0
 11
261.9236560175983755
 21
22.942683650733251
 31
0.0
  0
LINE
  5
1B09
  8
LAYER0
 62
     1
 10
330.6736560175983755
 20
15.9426836507332403
 30
0.0
 11
288.2936511347858755
 21
20.3926958577646111
 31
0.0
  0
LINE
  5
1B0A
  8
LAYER0
 62
     1
 10
373.0136828730675802
 20
11.2226824300302308
 30
0.0
 11
330.6736560175983755
 21
15.9426836507332403
 31
0.0
  0
LINE
  5
1B0B
  8
LAYER0
 62
     1
 10
390.5136828730675802
 20
133.9426836507331871
 30
0.0
 11
373.0136828730675802
 21
11.2226824300302308
 31
0.0
  0
LINE
  5
1B5B
  8
LAYER0
 10
380.5471067617122003
 20
134.8864879101577969
 30
0.0
 11
363.7767797802238192
 21
17.2833709021673805
 31
0.0
  0
LINE
  5
1B5C
  8
LAYER0
 10
375.3098118533864067
 20
138.7601491129254043
 30
0.0
 11
380.5471067617122003
 21
134.8864879101577969
 31
0.0
  0
LINE
  5
1B5D
  8
LAYER0
 10
369.323986092938128
 20
143.4248578905560123
 30
0.0
 11
375.3098118533864067
 21
138.7601491129254043
 31
0.0
  0
LINE
  5
1B5E
  8
LAYER0
 10
363.4708816702789136
 20
148.2110043661228076
 30
0.0
 11
369.323986092938128
 21
143.4248578905560123
 31
0.0
  0
LINE
  5
1B5F
  8
LAYER0
 10
357.7472718042188262
 20
153.1314709319362919
 30
0.0
 11
363.4708816702789136
 21
148.2110043661228076
 31
0.0
  0
LINE
  5
1B60
  8
LAYER0
 10
352.1554855429930058
 20
158.1844135763367092
 30
0.0
 11
357.7472718042188262
 21
153.1314709319362919
 31
0.0
  0
LINE
  5
1B61
  8
LAYER0
 10
346.7072820196549969
 20
163.3581844288611933
 30
0.0
 11
352.1554855429930058
 21
158.1844135763367092
 31
0.0
  0
LINE
  5
1B62
  8
LAYER0
 10
341.3767158493643024
 20
168.6683542124567907
 30
0.0
 11
346.7072820196549969
 21
163.3581844288611933
 31
0.0
  0
LINE
  5
1B63
  8
LAYER0
 10
335.1081223647781826
 20
175.2620694772535046
 30
0.0
 11
341.3767158493643024
 21
168.6683542124567907
 31
0.0
  0
LINE
  5
1B64
  8
LAYER0
 10
329.0393639272494966
 20
182.0424545546545119
 30
0.0
 11
335.1081223647781826
 21
175.2620694772535046
 31
0.0
  0
LINE
  5
1B65
  8
LAYER0
 10
323.1642379566217187
 20
189.0051922823159885
 30
0.0
 11
329.0393639272494966
 21
182.0424545546545119
 31
0.0
  0
LINE
  5
1B66
  8
LAYER0
 10
317.4805842079518925
 20
196.1631604688600987
 30
0.0
 11
323.1642379566217187
 21
189.0051922823159885
 31
0.0
  0
LINE
  5
1B67
  8
LAYER0
 10
312.0034716601032869
 20
203.509971067523395
 30
0.0
 11
317.4805842079518925
 21
196.1631604688600987
 31
0.0
  0
LINE
  5
1B68
  8
LAYER0
 10
306.7112104881178993
 20
211.0369712180145996
 30
0.0
 11
312.0034716601032869
 21
203.509971067523395
 31
0.0
  0
LINE
  5
1B69
  8
LAYER0
 10
301.6211077475579145
 20
218.7482747144279926
 30
0.0
 11
306.7112104881178993
 21
211.0369712180145996
 31
0.0
  0
LINE
  5
1B6A
  8
LAYER0
 10
298.2295397675608228
 20
224.2227129476083007
 30
0.0
 11
301.6211077475579145
 21
218.7482747144279926
 31
0.0
  0
LINE
  5
1B6B
  8
LAYER0
 10
297.279518262301508
 20
224.2227129476083007
 30
0.0
 11
298.2295397675608228
 21
224.2227129476083007
 31
0.0
  0
LINE
  5
1B6C
  8
LAYER0
 10
291.276335562558188
 20
217.3757227816412865
 30
0.0
 11
297.279518262301508
 21
224.2227129476083007
 31
0.0
  0
LINE
  5
1B6D
  8
LAYER0
 10
283.6027656444741751
 20
208.9066206442649047
 30
0.0
 11
291.276335562558188
 21
217.3757227816412865
 31
0.0
  0
LINE
  5
1B6E
  8
LAYER0
 10
275.7984548252917989
 20
200.5584862511149993
 30
0.0
 11
283.6027656444741751
 21
208.9066206442649047
 31
0.0
  0
LINE
  5
1B6F
  8
LAYER0
 10
267.8615249061670056
 20
192.3399233348594919
 30
0.0
 11
275.7984548252917989
 21
200.5584862511149993
 31
0.0
  0
LINE
  5
1B70
  8
LAYER0
 10
254.4215171245666056
 20
178.7201905150650134
 30
0.0
 11
267.8615249061670056
 21
192.3399233348594919
 31
0.0
  0
LINE
  5
1B71
  8
LAYER0
 10
247.0977031174894876
 20
170.9614600129175983
 30
0.0
 11
254.4215171245666056
 21
178.7201905150650134
 31
0.0
  0
LINE
  5
1B72
  8
LAYER0
 10
242.5263498090122027
 20
165.8384258629913006
 30
0.0
 11
247.0977031174894876
 21
170.9614600129175983
 31
0.0
  0
LINE
  5
1B73
  8
LAYER0
 10
232.3216768460980859
 20
154.0930406693422015
 30
0.0
 11
242.5263498090122027
 21
165.8384258629913006
 31
0.0
  0
LINE
  5
1B74
  8
LAYER0
 10
227.6895729363920111
 20
148.9315321516610879
 30
0.0
 11
232.3216768460980859
 21
154.0930406693422015
 31
0.0
  0
LINE
  5
1B75
  8
LAYER0
 10
221.9328557354039901
 20
142.928986283301299
 30
0.0
 11
227.6895729363920111
 21
148.9315321516610879
 31
0.0
  0
LINE
  5
1B76
  8
LAYER0
 10
216.4376091531983093
 20
137.7018097188471017
 30
0.0
 11
221.9328557354039901
 21
142.928986283301299
 31
0.0
  0
LINE
  5
1B77
  8
LAYER0
 10
214.3265043773915011
 20
135.8684533323016126
 30
0.0
 11
216.4376091531983093
 21
137.7018097188471017
 31
0.0
  0
LINE
  5
1B78
  8
LAYER0
 10
212.4336340139876995
 20
134.4337336854763123
 30
0.0
 11
214.3265043773915011
 21
135.8684533323016126
 31
0.0
  0
LINE
  5
1B79
  8
LAYER0
 10
210.4842893547476876
 20
133.2301259495791896
 30
0.0
 11
212.4336340139876995
 21
134.4337336854763123
 31
0.0
  0
LINE
  5
1B7A
  8
LAYER0
 10
208.4264760457456021
 20
132.2792632312404919
 30
0.0
 11
210.4842893547476876
 21
133.2301259495791896
 31
0.0
  0
LINE
  5
1B7B
  8
LAYER0
 10
205.9086987591632862
 20
131.5396010383772136
 30
0.0
 11
208.4264760457456021
 21
132.2792632312404919
 31
0.0
  0
LINE
  5
1B7C
  8
LAYER0
 10
203.0136218379107902
 20
131.18540009760261
 30
0.0
 11
205.9086987591632862
 21
131.5396010383772136
 31
0.0
  0
LINE
  5
1B7D
  8
LAYER0
 10
200.1185449166588057
 20
131.5396010383772136
 30
0.0
 11
203.0136218379107902
 21
131.18540009760261
 31
0.0
  0
LINE
  5
1B7E
  8
LAYER0
 10
197.6007676300766036
 20
132.2792632312404919
 30
0.0
 11
200.1185449166588057
 21
131.5396010383772136
 31
0.0
  0
LINE
  5
1B7F
  8
LAYER0
 10
195.5429543210753991
 20
133.2301259495789054
 30
0.0
 11
197.6007676300766036
 21
132.2792632312404919
 31
0.0
  0
LINE
  5
1B80
  8
LAYER0
 10
193.5936096618333977
 20
134.4337336854769092
 30
0.0
 11
195.5429543210753991
 21
133.2301259495789054
 31
0.0
  0
LINE
  5
1B81
  8
LAYER0
 10
191.7007392984307046
 20
135.8684533323016126
 30
0.0
 11
193.5936096618333977
 21
134.4337336854769092
 31
0.0
  0
LINE
  5
1B82
  8
LAYER0
 10
189.5896345226238964
 20
137.7018097188471017
 30
0.0
 11
191.7007392984307046
 21
135.8684533323016126
 31
0.0
  0
LINE
  5
1B83
  8
LAYER0
 10
184.0943879404181871
 20
142.928986283301299
 30
0.0
 11
189.5896345226238964
 21
137.7018097188471017
 31
0.0
  0
LINE
  5
1B84
  8
LAYER0
 10
178.3376707394299956
 20
148.9315321516610879
 30
0.0
 11
184.0943879404181871
 21
142.928986283301299
 31
0.0
  0
LINE
  5
1B85
  8
LAYER0
 10
173.7055668297240913
 20
154.0930406693422015
 30
0.0
 11
178.3376707394299956
 21
148.9315321516610879
 31
0.0
  0
LINE
  5
1B86
  8
LAYER0
 10
163.5008938668102871
 20
165.8384258629913006
 30
0.0
 11
173.7055668297240913
 21
154.0930406693422015
 31
0.0
  0
LINE
  5
1B87
  8
LAYER0
 10
158.9295405583326044
 20
170.9614600129175983
 30
0.0
 11
163.5008938668102871
 21
165.8384258629913006
 31
0.0
  0
LINE
  5
1B88
  8
LAYER0
 10
151.6057265512554864
 20
178.7201905150650134
 30
0.0
 11
158.9295405583326044
 21
170.9614600129175983
 31
0.0
  0
LINE
  5
1B89
  8
LAYER0
 10
138.1657187696552
 20
192.3399233348594919
 30
0.0
 11
151.6057265512554864
 21
178.7201905150650134
 31
0.0
  0
LINE
  5
1B8A
  8
LAYER0
 10
130.2287888505302931
 20
200.5584862511149993
 30
0.0
 11
138.1657187696552
 21
192.3399233348594919
 31
0.0
  0
LINE
  5
1B8B
  8
LAYER0
 10
122.4244780313444068
 20
208.9066206442687985
 30
0.0
 11
130.2287888505302931
 21
200.5584862511149993
 31
0.0
  0
LINE
  5
1B8C
  8
LAYER0
 10
114.7509081132675988
 20
217.3757227816369948
 30
0.0
 11
122.4244780313444068
 21
208.9066206442687985
 31
0.0
  0
LINE
  5
1B8D
  8
LAYER0
 10
108.7477254135205982
 20
224.2227129476083007
 30
0.0
 11
114.7509081132675988
 21
217.3757227816369948
 31
0.0
  0
LINE
  5
1B8E
  8
LAYER0
 10
107.7977039082611981
 20
224.2227129476083007
 30
0.0
 11
108.7477254135205982
 21
224.2227129476083007
 31
0.0
  0
LINE
  5
1B8F
  8
LAYER0
 10
104.4061359282646038
 20
218.7482747144291011
 30
0.0
 11
107.7977039082611981
 21
224.2227129476083007
 31
0.0
  0
LINE
  5
1B90
  8
LAYER0
 10
99.3160331877030558
 20
211.0369712180128943
 30
0.0
 11
104.4061359282646038
 21
218.7482747144291011
 31
0.0
  0
LINE
  5
1B91
  8
LAYER0
 10
94.0237720157175687
 20
203.5099710675214908
 30
0.0
 11
99.3160331877030558
 21
211.0369712180128943
 31
0.0
  0
LINE
  5
1B92
  8
LAYER0
 10
88.5466594678734253
 20
196.163160468864703
 30
0.0
 11
94.0237720157175687
 21
203.5099710675214908
 31
0.0
  0
LINE
  5
1B93
  8
LAYER0
 10
82.8630057192000749
 20
189.0051922823159885
 30
0.0
 11
88.5466594678734253
 21
196.163160468864703
 31
0.0
  0
LINE
  5
1B94
  8
LAYER0
 10
76.9878797485686448
 20
182.0424545546503055
 30
0.0
 11
82.8630057192000749
 21
189.0051922823159885
 31
0.0
  0
LINE
  5
1B95
  8
LAYER0
 10
70.9191213110458705
 20
175.2620694772556078
 30
0.0
 11
76.9878797485686448
 21
182.0424545546503055
 31
0.0
  0
LINE
  5
1B96
  8
LAYER0
 10
64.6505278264577612
 20
168.6683542124567907
 30
0.0
 11
70.9191213110458705
 21
175.2620694772556078
 31
0.0
  0
LINE
  5
1B97
  8
LAYER0
 10
59.3199616561648
 20
163.3581844288588911
 30
0.0
 11
64.6505278264577612
 21
168.6683542124567907
 31
0.0
  0
LINE
  5
1B98
  8
LAYER0
 10
53.8717581328334276
 20
158.1844135763408872
 30
0.0
 11
59.3199616561648
 21
163.3581844288588911
 31
0.0
  0
LINE
  5
1B99
  8
LAYER0
 10
48.2799718716034221
 20
153.1314709319362919
 30
0.0
 11
53.8717581328334276
 21
158.1844135763408872
 31
0.0
  0
LINE
  5
1B9A
  8
LAYER0
 10
42.5563620055410325
 20
148.2110043661209886
 30
0.0
 11
48.2799718716034221
 21
153.1314709319362919
 31
0.0
  0
LINE
  5
1B9B
  8
LAYER0
 10
36.7032575828817826
 20
143.4248578905541081
 30
0.0
 11
42.5563620055410325
 21
148.2110043661209886
 31
0.0
  0
LINE
  5
1B9C
  8
LAYER0
 10
30.7174318224376002
 20
138.7601491129269959
 30
0.0
 11
36.7032575828817826
 21
143.4248578905541081
 31
0.0
  0
LINE
  5
1B9D
  8
LAYER0
 10
25.4801369141097602
 20
134.8864879101577117
 30
0.0
 11
30.7174318224376002
 21
138.7601491129269959
 31
0.0
  0
LINE
  5
1B9E
  8
LAYER0
 10
42.2504638955981022
 20
17.2833709021672703
 30
0.0
 11
25.4801369141097602
 21
134.8864879101577117
 31
0.0
  0
LINE
  5
1B9F
  8
LAYER0
 10
74.8155304427183694
 20
20.9136745479201203
 30
0.0
 11
42.2504638955981022
 21
17.2833709021672703
 31
0.0
  0
LINE
  5
1BA0
  8
LAYER0
 10
117.2318843195812974
 20
25.3675034951261615
 30
0.0
 11
74.8155304427183694
 21
20.9136745479201203
 31
0.0
  0
LINE
  5
1BA1
  8
LAYER0
 10
143.6528179424317955
 20
27.9224170594897316
 30
0.0
 11
117.2318843195812974
 21
25.3675034951261615
 31
0.0
  0
LINE
  5
1BA2
  8
LAYER0
 10
154.3788478771855068
 20
28.8271384218455005
 30
0.0
 11
143.6528179424317955
 21
27.9224170594897316
 31
0.0
  0
LINE
  5
1BA3
  8
LAYER0
 10
164.2953408063918062
 20
29.5613285564797188
 30
0.0
 11
154.3788478771855068
 21
28.8271384218455005
 31
0.0
  0
LINE
  5
1BA4
  8
LAYER0
 10
173.9375104174382898
 20
30.1551564119900206
 30
0.0
 11
164.2953408063918062
 21
29.5613285564797188
 31
0.0
  0
LINE
  5
1BA5
  8
LAYER0
 10
183.5901277989588039
 20
30.6282251552446816
 30
0.0
 11
173.9375104174382898
 21
30.1551564119900206
 31
0.0
  0
LINE
  5
1BA6
  8
LAYER0
 10
193.2500705993425072
 20
30.9804176071399198
 30
0.0
 11
183.5901277989588039
 21
30.6282251552446816
 31
0.0
  0
LINE
  5
1BA7
  8
LAYER0
 10
203.0136218379107902
 20
31.2242412949542896
 30
0.0
 11
193.2500705993425072
 21
30.9804176071399198
 31
0.0
  0
LINE
  5
1BA8
  8
LAYER0
 10
212.7771730764796132
 20
30.9804176071399198
 30
0.0
 11
203.0136218379107902
 21
31.2242412949542896
 31
0.0
  0
LINE
  5
1BA9
  8
LAYER0
 10
222.4371158768632881
 20
30.6282251552446816
 30
0.0
 11
212.7771730764796132
 21
30.9804176071399198
 31
0.0
  0
LINE
  5
1BAA
  8
LAYER0
 10
232.0897332583832906
 20
30.1551564119900206
 30
0.0
 11
222.4371158768632881
 21
30.6282251552446816
 31
0.0
  0
LINE
  5
1BAB
  8
LAYER0
 10
241.7319028694298026
 20
29.5613285564797188
 30
0.0
 11
232.0897332583832906
 21
30.1551564119900206
 31
0.0
  0
LINE
  5
1BAC
  8
LAYER0
 10
251.6483957986366988
 20
28.8271384218455005
 30
0.0
 11
241.7319028694298026
 21
29.5613285564797188
 31
0.0
  0
LINE
  5
1BAD
  8
LAYER0
 10
262.3744257333906944
 20
27.9224170594897316
 30
0.0
 11
251.6483957986366988
 21
28.8271384218455005
 31
0.0
  0
LINE
  5
1BAE
  8
LAYER0
 10
288.7953593562407946
 20
25.3675034951261615
 30
0.0
 11
262.3744257333906944
 21
27.9224170594897316
 31
0.0
  0
LINE
  5
1BAF
  8
LAYER0
 10
331.2117132331019889
 20
20.9136745479203583
 30
0.0
 11
288.7953593562407946
 21
25.3675034951261615
 31
0.0
  0
LINE
  5
1BB0
  8
LAYER0
 10
363.7767797802238192
 20
17.2833709021673805
 30
0.0
 11
331.2117132331019889
 21
20.9136745479203583
 31
0.0
  0
POINT
  5
1E13
  8
0
  6
CONTINUOUS
 62
     7
 10
273.0286588642467791
 20
26.8367608979436092
 30
0.0
 50
0.0000000000000064
  0
POINT
  5
1E64
  8
0
  6
CONTINUOUS
 62
     7
 10
334.4701623463839724
 20
20.4381946636569083
 30
0.0
 50
0.0000000000000064
  0
POINT
  5
1E73
  8
0
  6
CONTINUOUS
 62
     7
 10
364.4541872636389144
 20
21.4170969884335491
 30
0.0
 50
0.0000000000000064
  0
ENDSEC
  0
EOF
