0
SECTION
2
HEADER
9
$ACADVER
1
AC1009
9
$INSUNITS
70
4
9
$EXTMIN
10
0.0
20
0.0
30
0.0
9
$EXTMAX
10
156.0
20
188.0
30
0.0
0
ENDSEC
0
SECTION
2
TABLES
0
ENDSEC
0
SECTION
2
ENTITIES
0
LINE
8
0
10
0.0
20
0.0
30
0.0
11
4.0
21
0.0
31
0.0
0
LINE
8
0
10
4.0
20
0.0
30
0.0
11
8.0
21
0.0
31
0.0
0
LINE
8
0
10
8.0
20
0.0
30
0.0
11
12.0
21
0.0
31
0.0
0
LINE
8
0
10
12.0
20
0.0
30
0.0
11
16.0
21
0.0
31
0.0
0
LINE
8
0
10
16.0
20
0.0
30
0.0
11
20.0
21
0.0
31
0.0
0
LINE
8
0
10
20.0
20
0.0
30
0.0
11
24.0
21
0.0
31
0.0
0
LINE
8
0
10
24.0
20
0.0
30
0.0
11
28.0
21
0.0
31
0.0
0
LINE
8
0
10
28.0
20
0.0
30
0.0
11
32.0
21
0.0
31
0.0
0
LINE
8
0
10
32.0
20
0.0
30
0.0
11
36.0
21
0.0
31
0.0
0
LINE
8
0
10
36.0
20
0.0
30
0.0
11
40.0
21
0.0
31
0.0
0
LINE
8
0
10
40.0
20
0.0
30
0.0
11
44.0
21
0.0
31
0.0
0
LINE
8
0
10
44.0
20
0.0
30
0.0
11
48.0
21
0.0
31
0.0
0
LINE
8
0
10
48.0
20
0.0
30
0.0
11
52.0
21
0.0
31
0.0
0
LINE
8
0
10
52.0
20
0.0
30
0.0
11
56.0
21
0.0
31
0.0
0
LINE
8
0
10
56.0
20
0.0
30
0.0
11
60.0
21
0.0
31
0.0
0
LINE
8
0
10
60.0
20
0.0
30
0.0
11
64.0
21
0.0
31
0.0
0
LINE
8
0
10
64.0
20
0.0
30
0.0
11
68.0
21
0.0
31
0.0
0
LINE
8
0
10
68.0
20
0.0
30
0.0
11
72.0
21
0.0
31
0.0
0
LINE
8
0
10
72.0
20
0.0
30
0.0
11
76.0
21
0.0
31
0.0
0
LINE
8
0
10
76.0
20
0.0
30
0.0
11
80.0
21
0.0
31
0.0
0
LINE
8
0
10
80.0
20
0.0
30
0.0
11
84.0
21
0.0
31
0.0
0
LINE
8
0
10
84.0
20
0.0
30
0.0
11
88.0
21
0.0
31
0.0
0
LINE
8
0
10
88.0
20
0.0
30
0.0
11
92.0
21
0.0
31
0.0
0
LINE
8
0
10
92.0
20
0.0
30
0.0
11
96.0
21
0.0
31
0.0
0
LINE
8
0
10
96.0
20
0.0
30
0.0
11
100.0
21
0.0
31
0.0
0
LINE
8
0
10
100.0
20
0.0
30
0.0
11
104.0
21
0.0
31
0.0
0
LINE
8
0
10
104.0
20
0.0
30
0.0
11
108.0
21
0.0
31
0.0
0
LINE
8
0
10
108.0
20
0.0
30
0.0
11
112.0
21
0.0
31
0.0
0
LINE
8
0
10
112.0
20
0.0
30
0.0
11
116.0
21
0.0
31
0.0
0
LINE
8
0
10
116.0
20
0.0
30
0.0
11
120.0
21
0.0
31
0.0
0
LINE
8
0
10
120.0
20
0.0
30
0.0
11
124.0
21
0.0
31
0.0
0
LINE
8
0
10
124.0
20
0.0
30
0.0
11
128.0
21
0.0
31
0.0
0
LINE
8
0
10
128.0
20
0.0
30
0.0
11
132.0
21
0.0
31
0.0
0
LINE
8
0
10
132.0
20
0.0
30
0.0
11
136.0
21
0.0
31
0.0
0
LINE
8
0
10
136.0
20
0.0
30
0.0
11
140.0
21
0.0
31
0.0
0
LINE
8
0
10
140.0
20
0.0
30
0.0
11
144.0
21
0.0
31
0.0
0
LINE
8
0
10
144.0
20
0.0
30
0.0
11
148.0
21
0.0
31
0.0
0
LINE
8
0
10
148.0
20
0.0
30
0.0
11
152.0
21
0.0
31
0.0
0
LINE
8
0
10
152.0
20
0.0
30
0.0
11
156.0
21
0.0
31
0.0
0
LINE
8
0
10
156.0
20
0.0
30
0.0
11
156.0
21
4.0
31
0.0
0
LINE
8
0
10
156.0
20
4.0
30
0.0
11
152.0
21
4.0
31
0.0
0
LINE
8
0
10
152.0
20
4.0
30
0.0
11
148.0
21
4.0
31
0.0
0
LINE
8
0
10
148.0
20
4.0
30
0.0
11
144.0
21
4.0
31
0.0
0
LINE
8
0
10
144.0
20
4.0
30
0.0
11
140.0
21
4.0
31
0.0
0
LINE
8
0
10
140.0
20
4.0
30
0.0
11
136.0
21
4.0
31
0.0
0
LINE
8
0
10
136.0
20
4.0
30
0.0
11
132.0
21
4.0
31
0.0
0
LINE
8
0
10
132.0
20
4.0
30
0.0
11
128.0
21
4.0
31
0.0
0
LINE
8
0
10
128.0
20
4.0
30
0.0
11
124.0
21
4.0
31
0.0
0
LINE
8
0
10
124.0
20
4.0
30
0.0
11
120.0
21
4.0
31
0.0
0
LINE
8
0
10
120.0
20
4.0
30
0.0
11
116.0
21
4.0
31
0.0
0
LINE
8
0
10
116.0
20
4.0
30
0.0
11
112.0
21
4.0
31
0.0
0
LINE
8
0
10
112.0
20
4.0
30
0.0
11
108.0
21
4.0
31
0.0
0
LINE
8
0
10
108.0
20
4.0
30
0.0
11
104.0
21
4.0
31
0.0
0
LINE
8
0
10
104.0
20
4.0
30
0.0
11
100.0
21
4.0
31
0.0
0
LINE
8
0
10
100.0
20
4.0
30
0.0
11
96.0
21
4.0
31
0.0
0
LINE
8
0
10
96.0
20
4.0
30
0.0
11
92.0
21
4.0
31
0.0
0
LINE
8
0
10
92.0
20
4.0
30
0.0
11
88.0
21
4.0
31
0.0
0
LINE
8
0
10
88.0
20
4.0
30
0.0
11
84.0
21
4.0
31
0.0
0
LINE
8
0
10
84.0
20
4.0
30
0.0
11
80.0
21
4.0
31
0.0
0
LINE
8
0
10
80.0
20
4.0
30
0.0
11
76.0
21
4.0
31
0.0
0
LINE
8
0
10
76.0
20
4.0
30
0.0
11
72.0
21
4.0
31
0.0
0
LINE
8
0
10
72.0
20
4.0
30
0.0
11
68.0
21
4.0
31
0.0
0
LINE
8
0
10
68.0
20
4.0
30
0.0
11
64.0
21
4.0
31
0.0
0
LINE
8
0
10
64.0
20
4.0
30
0.0
11
60.0
21
4.0
31
0.0
0
LINE
8
0
10
60.0
20
4.0
30
0.0
11
56.0
21
4.0
31
0.0
0
LINE
8
0
10
56.0
20
4.0
30
0.0
11
52.0
21
4.0
31
0.0
0
LINE
8
0
10
52.0
20
4.0
30
0.0
11
48.0
21
4.0
31
0.0
0
LINE
8
0
10
48.0
20
4.0
30
0.0
11
44.0
21
4.0
31
0.0
0
LINE
8
0
10
44.0
20
4.0
30
0.0
11
40.0
21
4.0
31
0.0
0
LINE
8
0
10
40.0
20
4.0
30
0.0
11
36.0
21
4.0
31
0.0
0
LINE
8
0
10
36.0
20
4.0
30
0.0
11
32.0
21
4.0
31
0.0
0
LINE
8
0
10
32.0
20
4.0
30
0.0
11
28.0
21
4.0
31
0.0
0
LINE
8
0
10
28.0
20
4.0
30
0.0
11
24.0
21
4.0
31
0.0
0
LINE
8
0
10
24.0
20
4.0
30
0.0
11
20.0
21
4.0
31
0.0
0
LINE
8
0
10
20.0
20
4.0
30
0.0
11
16.0
21
4.0
31
0.0
0
LINE
8
0
10
16.0
20
4.0
30
0.0
11
12.0
21
4.0
31
0.0
0
LINE
8
0
10
12.0
20
4.0
30
0.0
11
8.0
21
4.0
31
0.0
0
LINE
8
0
10
8.0
20
4.0
30
0.0
11
4.0
21
4.0
31
0.0
0
LINE
8
0
10
4.0
20
4.0
30
0.0
11
0.0
21
4.0
31
0.0
0
LINE
8
0
10
0.0
20
4.0
30
0.0
11
0.0
21
8.0
31
0.0
0
LINE
8
0
10
0.0
20
8.0
30
0.0
11
4.0
21
8.0
31
0.0
0
LINE
8
0
10
4.0
20
8.0
30
0.0
11
8.0
21
8.0
31
0.0
0
LINE
8
0
10
8.0
20
8.0
30
0.0
11
12.0
21
8.0
31
0.0
0
LINE
8
0
10
12.0
20
8.0
30
0.0
11
16.0
21
8.0
31
0.0
0
LINE
8
0
10
16.0
20
8.0
30
0.0
11
20.0
21
8.0
31
0.0
0
LINE
8
0
10
20.0
20
8.0
30
0.0
11
24.0
21
8.0
31
0.0
0
LINE
8
0
10
24.0
20
8.0
30
0.0
11
28.0
21
8.0
31
0.0
0
LINE
8
0
10
28.0
20
8.0
30
0.0
11
32.0
21
8.0
31
0.0
0
LINE
8
0
10
32.0
20
8.0
30
0.0
11
36.0
21
8.0
31
0.0
0
LINE
8
0
10
36.0
20
8.0
30
0.0
11
40.0
21
8.0
31
0.0
0
LINE
8
0
10
40.0
20
8.0
30
0.0
11
44.0
21
8.0
31
0.0
0
LINE
8
0
10
44.0
20
8.0
30
0.0
11
48.0
21
8.0
31
0.0
0
LINE
8
0
10
48.0
20
8.0
30
0.0
11
52.0
21
8.0
31
0.0
0
LINE
8
0
10
52.0
20
8.0
30
0.0
11
56.0
21
8.0
31
0.0
0
LINE
8
0
10
56.0
20
8.0
30
0.0
11
60.0
21
8.0
31
0.0
0
LINE
8
0
10
60.0
20
8.0
30
0.0
11
64.0
21
8.0
31
0.0
0
LINE
8
0
10
64.0
20
8.0
30
0.0
11
68.0
21
8.0
31
0.0
0
LINE
8
0
10
68.0
20
8.0
30
0.0
11
72.0
21
8.0
31
0.0
0
LINE
8
0
10
72.0
20
8.0
30
0.0
11
76.0
21
8.0
31
0.0
0
LINE
8
0
10
76.0
20
8.0
30
0.0
11
80.0
21
8.0
31
0.0
0
LINE
8
0
10
80.0
20
8.0
30
0.0
11
84.0
21
8.0
31
0.0
0
LINE
8
0
10
84.0
20
8.0
30
0.0
11
88.0
21
8.0
31
0.0
0
LINE
8
0
10
88.0
20
8.0
30
0.0
11
92.0
21
8.0
31
0.0
0
LINE
8
0
10
92.0
20
8.0
30
0.0
11
96.0
21
8.0
31
0.0
0
LINE
8
0
10
96.0
20
8.0
30
0.0
11
100.0
21
8.0
31
0.0
0
LINE
8
0
10
100.0
20
8.0
30
0.0
11
104.0
21
8.0
31
0.0
0
LINE
8
0
10
104.0
20
8.0
30
0.0
11
108.0
21
8.0
31
0.0
0
LINE
8
0
10
108.0
20
8.0
30
0.0
11
112.0
21
8.0
31
0.0
0
LINE
8
0
10
112.0
20
8.0
30
0.0
11
116.0
21
8.0
31
0.0
0
LINE
8
0
10
116.0
20
8.0
30
0.0
11
120.0
21
8.0
31
0.0
0
LINE
8
0
10
120.0
20
8.0
30
0.0
11
124.0
21
8.0
31
0.0
0
LINE
8
0
10
124.0
20
8.0
30
0.0
11
128.0
21
8.0
31
0.0
0
LINE
8
0
10
128.0
20
8.0
30
0.0
11
132.0
21
8.0
31
0.0
0
LINE
8
0
10
132.0
20
8.0
30
0.0
11
136.0
21
8.0
31
0.0
0
LINE
8
0
10
136.0
20
8.0
30
0.0
11
140.0
21
8.0
31
0.0
0
LINE
8
0
10
140.0
20
8.0
30
0.0
11
144.0
21
8.0
31
0.0
0
LINE
8
0
10
144.0
20
8.0
30
0.0
11
148.0
21
8.0
31
0.0
0
LINE
8
0
10
148.0
20
8.0
30
0.0
11
152.0
21
8.0
31
0.0
0
LINE
8
0
10
152.0
20
8.0
30
0.0
11
156.0
21
8.0
31
0.0
0
LINE
8
0
10
156.0
20
8.0
30
0.0
11
156.0
21
12.0
31
0.0
0
LINE
8
0
10
156.0
20
12.0
30
0.0
11
152.0
21
12.0
31
0.0
0
LINE
8
0
10
152.0
20
12.0
30
0.0
11
148.0
21
12.0
31
0.0
0
LINE
8
0
10
148.0
20
12.0
30
0.0
11
144.0
21
12.0
31
0.0
0
LINE
8
0
10
144.0
20
12.0
30
0.0
11
140.0
21
12.0
31
0.0
0
LINE
8
0
10
140.0
20
12.0
30
0.0
11
136.0
21
12.0
31
0.0
0
LINE
8
0
10
136.0
20
12.0
30
0.0
11
132.0
21
12.0
31
0.0
0
LINE
8
0
10
132.0
20
12.0
30
0.0
11
128.0
21
12.0
31
0.0
0
LINE
8
0
10
128.0
20
12.0
30
0.0
11
124.0
21
12.0
31
0.0
0
LINE
8
0
10
124.0
20
12.0
30
0.0
11
120.0
21
12.0
31
0.0
0
LINE
8
0
10
120.0
20
12.0
30
0.0
11
116.0
21
12.0
31
0.0
0
LINE
8
0
10
116.0
20
12.0
30
0.0
11
112.0
21
12.0
31
0.0
0
LINE
8
0
10
112.0
20
12.0
30
0.0
11
108.0
21
12.0
31
0.0
0
LINE
8
0
10
108.0
20
12.0
30
0.0
11
104.0
21
12.0
31
0.0
0
LINE
8
0
10
104.0
20
12.0
30
0.0
11
100.0
21
12.0
31
0.0
0
LINE
8
0
10
100.0
20
12.0
30
0.0
11
96.0
21
12.0
31
0.0
0
LINE
8
0
10
96.0
20
12.0
30
0.0
11
92.0
21
12.0
31
0.0
0
LINE
8
0
10
92.0
20
12.0
30
0.0
11
88.0
21
12.0
31
0.0
0
LINE
8
0
10
88.0
20
12.0
30
0.0
11
84.0
21
12.0
31
0.0
0
LINE
8
0
10
84.0
20
12.0
30
0.0
11
80.0
21
12.0
31
0.0
0
LINE
8
0
10
80.0
20
12.0
30
0.0
11
76.0
21
12.0
31
0.0
0
LINE
8
0
10
76.0
20
12.0
30
0.0
11
72.0
21
12.0
31
0.0
0
LINE
8
0
10
72.0
20
12.0
30
0.0
11
68.0
21
12.0
31
0.0
0
LINE
8
0
10
68.0
20
12.0
30
0.0
11
64.0
21
12.0
31
0.0
0
LINE
8
0
10
64.0
20
12.0
30
0.0
11
60.0
21
12.0
31
0.0
0
LINE
8
0
10
60.0
20
12.0
30
0.0
11
56.0
21
12.0
31
0.0
0
LINE
8
0
10
56.0
20
12.0
30
0.0
11
52.0
21
12.0
31
0.0
0
LINE
8
0
10
52.0
20
12.0
30
0.0
11
48.0
21
12.0
31
0.0
0
LINE
8
0
10
48.0
20
12.0
30
0.0
11
44.0
21
12.0
31
0.0
0
LINE
8
0
10
44.0
20
12.0
30
0.0
11
40.0
21
12.0
31
0.0
0
LINE
8
0
10
40.0
20
12.0
30
0.0
11
36.0
21
12.0
31
0.0
0
LINE
8
0
10
36.0
20
12.0
30
0.0
11
32.0
21
12.0
31
0.0
0
LINE
8
0
10
32.0
20
12.0
30
0.0
11
28.0
21
12.0
31
0.0
0
LINE
8
0
10
28.0
20
12.0
30
0.0
11
24.0
21
12.0
31
0.0
0
LINE
8
0
10
24.0
20
12.0
30
0.0
11
20.0
21
12.0
31
0.0
0
LINE
8
0
10
20.0
20
12.0
30
0.0
11
16.0
21
12.0
31
0.0
0
LINE
8
0
10
16.0
20
12.0
30
0.0
11
12.0
21
12.0
31
0.0
0
LINE
8
0
10
12.0
20
12.0
30
0.0
11
8.0
21
12.0
31
0.0
0
LINE
8
0
10
8.0
20
12.0
30
0.0
11
4.0
21
12.0
31
0.0
0
LINE
8
0
10
4.0
20
12.0
30
0.0
11
0.0
21
12.0
31
0.0
0
LINE
8
0
10
0.0
20
12.0
30
0.0
11
0.0
21
16.0
31
0.0
0
LINE
8
0
10
0.0
20
16.0
30
0.0
11
4.0
21
16.0
31
0.0
0
LINE
8
0
10
4.0
20
16.0
30
0.0
11
8.0
21
16.0
31
0.0
0
LINE
8
0
10
8.0
20
16.0
30
0.0
11
12.0
21
16.0
31
0.0
0
LINE
8
0
10
12.0
20
16.0
30
0.0
11
16.0
21
16.0
31
0.0
0
LINE
8
0
10
16.0
20
16.0
30
0.0
11
20.0
21
16.0
31
0.0
0
LINE
8
0
10
20.0
20
16.0
30
0.0
11
24.0
21
16.0
31
0.0
0
LINE
8
0
10
24.0
20
16.0
30
0.0
11
28.0
21
16.0
31
0.0
0
LINE
8
0
10
28.0
20
16.0
30
0.0
11
32.0
21
16.0
31
0.0
0
LINE
8
0
10
32.0
20
16.0
30
0.0
11
36.0
21
16.0
31
0.0
0
LINE
8
0
10
36.0
20
16.0
30
0.0
11
40.0
21
16.0
31
0.0
0
LINE
8
0
10
40.0
20
16.0
30
0.0
11
44.0
21
16.0
31
0.0
0
LINE
8
0
10
44.0
20
16.0
30
0.0
11
48.0
21
16.0
31
0.0
0
LINE
8
0
10
48.0
20
16.0
30
0.0
11
52.0
21
16.0
31
0.0
0
LINE
8
0
10
52.0
20
16.0
30
0.0
11
56.0
21
16.0
31
0.0
0
LINE
8
0
10
56.0
20
16.0
30
0.0
11
60.0
21
16.0
31
0.0
0
LINE
8
0
10
60.0
20
16.0
30
0.0
11
64.0
21
16.0
31
0.0
0
LINE
8
0
10
64.0
20
16.0
30
0.0
11
68.0
21
16.0
31
0.0
0
LINE
8
0
10
68.0
20
16.0
30
0.0
11
72.0
21
16.0
31
0.0
0
LINE
8
0
10
72.0
20
16.0
30
0.0
11
76.0
21
16.0
31
0.0
0
LINE
8
0
10
76.0
20
16.0
30
0.0
11
80.0
21
16.0
31
0.0
0
LINE
8
0
10
80.0
20
16.0
30
0.0
11
84.0
21
16.0
31
0.0
0
LINE
8
0
10
84.0
20
16.0
30
0.0
11
88.0
21
16.0
31
0.0
0
LINE
8
0
10
88.0
20
16.0
30
0.0
11
92.0
21
16.0
31
0.0
0
LINE
8
0
10
92.0
20
16.0
30
0.0
11
96.0
21
16.0
31
0.0
0
LINE
8
0
10
96.0
20
16.0
30
0.0
11
100.0
21
16.0
31
0.0
0
LINE
8
0
10
100.0
20
16.0
30
0.0
11
104.0
21
16.0
31
0.0
0
LINE
8
0
10
104.0
20
16.0
30
0.0
11
108.0
21
16.0
31
0.0
0
LINE
8
0
10
108.0
20
16.0
30
0.0
11
112.0
21
16.0
31
0.0
0
LINE
8
0
10
112.0
20
16.0
30
0.0
11
116.0
21
16.0
31
0.0
0
LINE
8
0
10
116.0
20
16.0
30
0.0
11
120.0
21
16.0
31
0.0
0
LINE
8
0
10
120.0
20
16.0
30
0.0
11
124.0
21
16.0
31
0.0
0
LINE
8
0
10
124.0
20
16.0
30
0.0
11
128.0
21
16.0
31
0.0
0
LINE
8
0
10
128.0
20
16.0
30
0.0
11
132.0
21
16.0
31
0.0
0
LINE
8
0
10
132.0
20
16.0
30
0.0
11
136.0
21
16.0
31
0.0
0
LINE
8
0
10
136.0
20
16.0
30
0.0
11
140.0
21
16.0
31
0.0
0
LINE
8
0
10
140.0
20
16.0
30
0.0
11
144.0
21
16.0
31
0.0
0
LINE
8
0
10
144.0
20
16.0
30
0.0
11
148.0
21
16.0
31
0.0
0
LINE
8
0
10
148.0
20
16.0
30
0.0
11
152.0
21
16.0
31
0.0
0
LINE
8
0
10
152.0
20
16.0
30
0.0
11
156.0
21
16.0
31
0.0
0
LINE
8
0
10
156.0
20
16.0
30
0.0
11
156.0
21
20.0
31
0.0
0
LINE
8
0
10
156.0
20
20.0
30
0.0
11
152.0
21
20.0
31
0.0
0
LINE
8
0
10
152.0
20
20.0
30
0.0
11
148.0
21
20.0
31
0.0
0
LINE
8
0
10
148.0
20
20.0
30
0.0
11
144.0
21
20.0
31
0.0
0
LINE
8
0
10
144.0
20
20.0
30
0.0
11
140.0
21
20.0
31
0.0
0
LINE
8
0
10
140.0
20
20.0
30
0.0
11
136.0
21
20.0
31
0.0
0
LINE
8
0
10
136.0
20
20.0
30
0.0
11
132.0
21
20.0
31
0.0
0
LINE
8
0
10
132.0
20
20.0
30
0.0
11
128.0
21
20.0
31
0.0
0
LINE
8
0
10
128.0
20
20.0
30
0.0
11
124.0
21
20.0
31
0.0
0
LINE
8
0
10
124.0
20
20.0
30
0.0
11
120.0
21
20.0
31
0.0
0
LINE
8
0
10
120.0
20
20.0
30
0.0
11
116.0
21
20.0
31
0.0
0
LINE
8
0
10
116.0
20
20.0
30
0.0
11
112.0
21
20.0
31
0.0
0
LINE
8
0
10
112.0
20
20.0
30
0.0
11
108.0
21
20.0
31
0.0
0
LINE
8
0
10
108.0
20
20.0
30
0.0
11
104.0
21
20.0
31
0.0
0
LINE
8
0
10
104.0
20
20.0
30
0.0
11
100.0
21
20.0
31
0.0
0
LINE
8
0
10
100.0
20
20.0
30
0.0
11
96.0
21
20.0
31
0.0
0
LINE
8
0
10
96.0
20
20.0
30
0.0
11
92.0
21
20.0
31
0.0
0
LINE
8
0
10
92.0
20
20.0
30
0.0
11
88.0
21
20.0
31
0.0
0
LINE
8
0
10
88.0
20
20.0
30
0.0
11
84.0
21
20.0
31
0.0
0
LINE
8
0
10
84.0
20
20.0
30
0.0
11
80.0
21
20.0
31
0.0
0
LINE
8
0
10
80.0
20
20.0
30
0.0
11
76.0
21
20.0
31
0.0
0
LINE
8
0
10
76.0
20
20.0
30
0.0
11
72.0
21
20.0
31
0.0
0
LINE
8
0
10
72.0
20
20.0
30
0.0
11
68.0
21
20.0
31
0.0
0
LINE
8
0
10
68.0
20
20.0
30
0.0
11
64.0
21
20.0
31
0.0
0
LINE
8
0
10
64.0
20
20.0
30
0.0
11
60.0
21
20.0
31
0.0
0
LINE
8
0
10
60.0
20
20.0
30
0.0
11
56.0
21
20.0
31
0.0
0
LINE
8
0
10
56.0
20
20.0
30
0.0
11
52.0
21
20.0
31
0.0
0
LINE
8
0
10
52.0
20
20.0
30
0.0
11
48.0
21
20.0
31
0.0
0
LINE
8
0
10
48.0
20
20.0
30
0.0
11
44.0
21
20.0
31
0.0
0
LINE
8
0
10
44.0
20
20.0
30
0.0
11
40.0
21
20.0
31
0.0
0
LINE
8
0
10
40.0
20
20.0
30
0.0
11
36.0
21
20.0
31
0.0
0
LINE
8
0
10
36.0
20
20.0
30
0.0
11
32.0
21
20.0
31
0.0
0
LINE
8
0
10
32.0
20
20.0
30
0.0
11
28.0
21
20.0
31
0.0
0
LINE
8
0
10
28.0
20
20.0
30
0.0
11
24.0
21
20.0
31
0.0
0
LINE
8
0
10
24.0
20
20.0
30
0.0
11
20.0
21
20.0
31
0.0
0
LINE
8
0
10
20.0
20
20.0
30
0.0
11
16.0
21
20.0
31
0.0
0
LINE
8
0
10
16.0
20
20.0
30
0.0
11
12.0
21
20.0
31
0.0
0
LINE
8
0
10
12.0
20
20.0
30
0.0
11
8.0
21
20.0
31
0.0
0
LINE
8
0
10
8.0
20
20.0
30
0.0
11
4.0
21
20.0
31
0.0
0
LINE
8
0
10
4.0
20
20.0
30
0.0
11
0.0
21
20.0
31
0.0
0
LINE
8
0
10
0.0
20
20.0
30
0.0
11
0.0
21
24.0
31
0.0
0
LINE
8
0
10
0.0
20
24.0
30
0.0
11
4.0
21
24.0
31
0.0
0
LINE
8
0
10
4.0
20
24.0
30
0.0
11
8.0
21
24.0
31
0.0
0
LINE
8
0
10
8.0
20
24.0
30
0.0
11
12.0
21
24.0
31
0.0
0
LINE
8
0
10
12.0
20
24.0
30
0.0
11
16.0
21
24.0
31
0.0
0
LINE
8
0
10
16.0
20
24.0
30
0.0
11
20.0
21
24.0
31
0.0
0
LINE
8
0
10
20.0
20
24.0
30
0.0
11
24.0
21
24.0
31
0.0
0
LINE
8
0
10
24.0
20
24.0
30
0.0
11
28.0
21
24.0
31
0.0
0
LINE
8
0
10
28.0
20
24.0
30
0.0
11
32.0
21
24.0
31
0.0
0
LINE
8
0
10
32.0
20
24.0
30
0.0
11
36.0
21
24.0
31
0.0
0
LINE
8
0
10
36.0
20
24.0
30
0.0
11
40.0
21
24.0
31
0.0
0
LINE
8
0
10
40.0
20
24.0
30
0.0
11
44.0
21
24.0
31
0.0
0
LINE
8
0
10
44.0
20
24.0
30
0.0
11
48.0
21
24.0
31
0.0
0
LINE
8
0
10
48.0
20
24.0
30
0.0
11
52.0
21
24.0
31
0.0
0
LINE
8
0
10
52.0
20
24.0
30
0.0
11
56.0
21
24.0
31
0.0
0
LINE
8
0
10
56.0
20
24.0
30
0.0
11
60.0
21
24.0
31
0.0
0
LINE
8
0
10
60.0
20
24.0
30
0.0
11
64.0
21
24.0
31
0.0
0
LINE
8
0
10
64.0
20
24.0
30
0.0
11
68.0
21
24.0
31
0.0
0
LINE
8
0
10
68.0
20
24.0
30
0.0
11
72.0
21
24.0
31
0.0
0
LINE
8
0
10
72.0
20
24.0
30
0.0
11
76.0
21
24.0
31
0.0
0
LINE
8
0
10
76.0
20
24.0
30
0.0
11
80.0
21
24.0
31
0.0
0
LINE
8
0
10
80.0
20
24.0
30
0.0
11
84.0
21
24.0
31
0.0
0
LINE
8
0
10
84.0
20
24.0
30
0.0
11
88.0
21
24.0
31
0.0
0
LINE
8
0
10
88.0
20
24.0
30
0.0
11
92.0
21
24.0
31
0.0
0
LINE
8
0
10
92.0
20
24.0
30
0.0
11
96.0
21
24.0
31
0.0
0
LINE
8
0
10
96.0
20
24.0
30
0.0
11
100.0
21
24.0
31
0.0
0
LINE
8
0
10
100.0
20
24.0
30
0.0
11
104.0
21
24.0
31
0.0
0
LINE
8
0
10
104.0
20
24.0
30
0.0
11
108.0
21
24.0
31
0.0
0
LINE
8
0
10
108.0
20
24.0
30
0.0
11
112.0
21
24.0
31
0.0
0
LINE
8
0
10
112.0
20
24.0
30
0.0
11
116.0
21
24.0
31
0.0
0
LINE
8
0
10
116.0
20
24.0
30
0.0
11
120.0
21
24.0
31
0.0
0
LINE
8
0
10
120.0
20
24.0
30
0.0
11
124.0
21
24.0
31
0.0
0
LINE
8
0
10
124.0
20
24.0
30
0.0
11
128.0
21
24.0
31
0.0
0
LINE
8
0
10
128.0
20
24.0
30
0.0
11
132.0
21
24.0
31
0.0
0
LINE
8
0
10
132.0
20
24.0
30
0.0
11
136.0
21
24.0
31
0.0
0
LINE
8
0
10
136.0
20
24.0
30
0.0
11
140.0
21
24.0
31
0.0
0
LINE
8
0
10
140.0
20
24.0
30
0.0
11
144.0
21
24.0
31
0.0
0
LINE
8
0
10
144.0
20
24.0
30
0.0
11
148.0
21
24.0
31
0.0
0
LINE
8
0
10
148.0
20
24.0
30
0.0
11
152.0
21
24.0
31
0.0
0
LINE
8
0
10
152.0
20
24.0
30
0.0
11
156.0
21
24.0
31
0.0
0
LINE
8
0
10
156.0
20
24.0
30
0.0
11
156.0
21
28.0
31
0.0
0
LINE
8
0
10
156.0
20
28.0
30
0.0
11
152.0
21
28.0
31
0.0
0
LINE
8
0
10
152.0
20
28.0
30
0.0
11
148.0
21
28.0
31
0.0
0
LINE
8
0
10
148.0
20
28.0
30
0.0
11
144.0
21
28.0
31
0.0
0
LINE
8
0
10
144.0
20
28.0
30
0.0
11
140.0
21
28.0
31
0.0
0
LINE
8
0
10
140.0
20
28.0
30
0.0
11
136.0
21
28.0
31
0.0
0
LINE
8
0
10
136.0
20
28.0
30
0.0
11
132.0
21
28.0
31
0.0
0
LINE
8
0
10
132.0
20
28.0
30
0.0
11
128.0
21
28.0
31
0.0
0
LINE
8
0
10
128.0
20
28.0
30
0.0
11
124.0
21
28.0
31
0.0
0
LINE
8
0
10
124.0
20
28.0
30
0.0
11
120.0
21
28.0
31
0.0
0
LINE
8
0
10
120.0
20
28.0
30
0.0
11
116.0
21
28.0
31
0.0
0
LINE
8
0
10
116.0
20
28.0
30
0.0
11
112.0
21
28.0
31
0.0
0
LINE
8
0
10
112.0
20
28.0
30
0.0
11
108.0
21
28.0
31
0.0
0
LINE
8
0
10
108.0
20
28.0
30
0.0
11
104.0
21
28.0
31
0.0
0
LINE
8
0
10
104.0
20
28.0
30
0.0
11
100.0
21
28.0
31
0.0
0
LINE
8
0
10
100.0
20
28.0
30
0.0
11
96.0
21
28.0
31
0.0
0
LINE
8
0
10
96.0
20
28.0
30
0.0
11
92.0
21
28.0
31
0.0
0
LINE
8
0
10
92.0
20
28.0
30
0.0
11
88.0
21
28.0
31
0.0
0
LINE
8
0
10
88.0
20
28.0
30
0.0
11
84.0
21
28.0
31
0.0
0
LINE
8
0
10
84.0
20
28.0
30
0.0
11
80.0
21
28.0
31
0.0
0
LINE
8
0
10
80.0
20
28.0
30
0.0
11
76.0
21
28.0
31
0.0
0
LINE
8
0
10
76.0
20
28.0
30
0.0
11
72.0
21
28.0
31
0.0
0
LINE
8
0
10
72.0
20
28.0
30
0.0
11
68.0
21
28.0
31
0.0
0
LINE
8
0
10
68.0
20
28.0
30
0.0
11
64.0
21
28.0
31
0.0
0
LINE
8
0
10
64.0
20
28.0
30
0.0
11
60.0
21
28.0
31
0.0
0
LINE
8
0
10
60.0
20
28.0
30
0.0
11
56.0
21
28.0
31
0.0
0
LINE
8
0
10
56.0
20
28.0
30
0.0
11
52.0
21
28.0
31
0.0
0
LINE
8
0
10
52.0
20
28.0
30
0.0
11
48.0
21
28.0
31
0.0
0
LINE
8
0
10
48.0
20
28.0
30
0.0
11
44.0
21
28.0
31
0.0
0
LINE
8
0
10
44.0
20
28.0
30
0.0
11
40.0
21
28.0
31
0.0
0
LINE
8
0
10
40.0
20
28.0
30
0.0
11
36.0
21
28.0
31
0.0
0
LINE
8
0
10
36.0
20
28.0
30
0.0
11
32.0
21
28.0
31
0.0
0
LINE
8
0
10
32.0
20
28.0
30
0.0
11
28.0
21
28.0
31
0.0
0
LINE
8
0
10
28.0
20
28.0
30
0.0
11
24.0
21
28.0
31
0.0
0
LINE
8
0
10
24.0
20
28.0
30
0.0
11
20.0
21
28.0
31
0.0
0
LINE
8
0
10
20.0
20
28.0
30
0.0
11
16.0
21
28.0
31
0.0
0
LINE
8
0
10
16.0
20
28.0
30
0.0
11
12.0
21
28.0
31
0.0
0
LINE
8
0
10
12.0
20
28.0
30
0.0
11
8.0
21
28.0
31
0.0
0
LINE
8
0
10
8.0
20
28.0
30
0.0
11
4.0
21
28.0
31
0.0
0
LINE
8
0
10
4.0
20
28.0
30
0.0
11
0.0
21
28.0
31
0.0
0
LINE
8
0
10
0.0
20
28.0
30
0.0
11
0.0
21
32.0
31
0.0
0
LINE
8
0
10
0.0
20
32.0
30
0.0
11
4.0
21
32.0
31
0.0
0
LINE
8
0
10
4.0
20
32.0
30
0.0
11
8.0
21
32.0
31
0.0
0
LINE
8
0
10
8.0
20
32.0
30
0.0
11
12.0
21
32.0
31
0.0
0
LINE
8
0
10
12.0
20
32.0
30
0.0
11
16.0
21
32.0
31
0.0
0
LINE
8
0
10
16.0
20
32.0
30
0.0
11
20.0
21
32.0
31
0.0
0
LINE
8
0
10
20.0
20
32.0
30
0.0
11
24.0
21
32.0
31
0.0
0
LINE
8
0
10
24.0
20
32.0
30
0.0
11
28.0
21
32.0
31
0.0
0
LINE
8
0
10
28.0
20
32.0
30
0.0
11
32.0
21
32.0
31
0.0
0
LINE
8
0
10
32.0
20
32.0
30
0.0
11
36.0
21
32.0
31
0.0
0
LINE
8
0
10
36.0
20
32.0
30
0.0
11
40.0
21
32.0
31
0.0
0
LINE
8
0
10
40.0
20
32.0
30
0.0
11
44.0
21
32.0
31
0.0
0
LINE
8
0
10
44.0
20
32.0
30
0.0
11
48.0
21
32.0
31
0.0
0
LINE
8
0
10
48.0
20
32.0
30
0.0
11
52.0
21
32.0
31
0.0
0
LINE
8
0
10
52.0
20
32.0
30
0.0
11
56.0
21
32.0
31
0.0
0
LINE
8
0
10
56.0
20
32.0
30
0.0
11
60.0
21
32.0
31
0.0
0
LINE
8
0
10
60.0
20
32.0
30
0.0
11
64.0
21
32.0
31
0.0
0
LINE
8
0
10
64.0
20
32.0
30
0.0
11
68.0
21
32.0
31
0.0
0
LINE
8
0
10
68.0
20
32.0
30
0.0
11
72.0
21
32.0
31
0.0
0
LINE
8
0
10
72.0
20
32.0
30
0.0
11
76.0
21
32.0
31
0.0
0
LINE
8
0
10
76.0
20
32.0
30
0.0
11
80.0
21
32.0
31
0.0
0
LINE
8
0
10
80.0
20
32.0
30
0.0
11
84.0
21
32.0
31
0.0
0
LINE
8
0
10
84.0
20
32.0
30
0.0
11
88.0
21
32.0
31
0.0
0
LINE
8
0
10
88.0
20
32.0
30
0.0
11
92.0
21
32.0
31
0.0
0
LINE
8
0
10
92.0
20
32.0
30
0.0
11
96.0
21
32.0
31
0.0
0
LINE
8
0
10
96.0
20
32.0
30
0.0
11
100.0
21
32.0
31
0.0
0
LINE
8
0
10
100.0
20
32.0
30
0.0
11
104.0
21
32.0
31
0.0
0
LINE
8
0
10
104.0
20
32.0
30
0.0
11
108.0
21
32.0
31
0.0
0
LINE
8
0
10
108.0
20
32.0
30
0.0
11
112.0
21
32.0
31
0.0
0
LINE
8
0
10
112.0
20
32.0
30
0.0
11
116.0
21
32.0
31
0.0
0
LINE
8
0
10
116.0
20
32.0
30
0.0
11
120.0
21
32.0
31
0.0
0
LINE
8
0
10
120.0
20
32.0
30
0.0
11
124.0
21
32.0
31
0.0
0
LINE
8
0
10
124.0
20
32.0
30
0.0
11
128.0
21
32.0
31
0.0
0
LINE
8
0
10
128.0
20
32.0
30
0.0
11
132.0
21
32.0
31
0.0
0
LINE
8
0
10
132.0
20
32.0
30
0.0
11
136.0
21
32.0
31
0.0
0
LINE
8
0
10
136.0
20
32.0
30
0.0
11
140.0
21
32.0
31
0.0
0
LINE
8
0
10
140.0
20
32.0
30
0.0
11
144.0
21
32.0
31
0.0
0
LINE
8
0
10
144.0
20
32.0
30
0.0
11
148.0
21
32.0
31
0.0
0
LINE
8
0
10
148.0
20
32.0
30
0.0
11
152.0
21
32.0
31
0.0
0
LINE
8
0
10
152.0
20
32.0
30
0.0
11
156.0
21
32.0
31
0.0
0
LINE
8
0
10
156.0
20
32.0
30
0.0
11
156.0
21
36.0
31
0.0
0
LINE
8
0
10
156.0
20
36.0
30
0.0
11
152.0
21
36.0
31
0.0
0
LINE
8
0
10
152.0
20
36.0
30
0.0
11
148.0
21
36.0
31
0.0
0
LINE
8
0
10
148.0
20
36.0
30
0.0
11
144.0
21
36.0
31
0.0
0
LINE
8
0
10
144.0
20
36.0
30
0.0
11
140.0
21
36.0
31
0.0
0
LINE
8
0
10
140.0
20
36.0
30
0.0
11
136.0
21
36.0
31
0.0
0
LINE
8
0
10
136.0
20
36.0
30
0.0
11
132.0
21
36.0
31
0.0
0
LINE
8
0
10
132.0
20
36.0
30
0.0
11
128.0
21
36.0
31
0.0
0
LINE
8
0
10
128.0
20
36.0
30
0.0
11
124.0
21
36.0
31
0.0
0
LINE
8
0
10
124.0
20
36.0
30
0.0
11
120.0
21
36.0
31
0.0
0
LINE
8
0
10
120.0
20
36.0
30
0.0
11
116.0
21
36.0
31
0.0
0
LINE
8
0
10
116.0
20
36.0
30
0.0
11
112.0
21
36.0
31
0.0
0
LINE
8
0
10
112.0
20
36.0
30
0.0
11
108.0
21
36.0
31
0.0
0
LINE
8
0
10
108.0
20
36.0
30
0.0
11
104.0
21
36.0
31
0.0
0
LINE
8
0
10
104.0
20
36.0
30
0.0
11
100.0
21
36.0
31
0.0
0
LINE
8
0
10
100.0
20
36.0
30
0.0
11
96.0
21
36.0
31
0.0
0
LINE
8
0
10
96.0
20
36.0
30
0.0
11
92.0
21
36.0
31
0.0
0
LINE
8
0
10
92.0
20
36.0
30
0.0
11
88.0
21
36.0
31
0.0
0
LINE
8
0
10
88.0
20
36.0
30
0.0
11
84.0
21
36.0
31
0.0
0
LINE
8
0
10
84.0
20
36.0
30
0.0
11
80.0
21
36.0
31
0.0
0
LINE
8
0
10
80.0
20
36.0
30
0.0
11
76.0
21
36.0
31
0.0
0
LINE
8
0
10
76.0
20
36.0
30
0.0
11
72.0
21
36.0
31
0.0
0
LINE
8
0
10
72.0
20
36.0
30
0.0
11
68.0
21
36.0
31
0.0
0
LINE
8
0
10
68.0
20
36.0
30
0.0
11
64.0
21
36.0
31
0.0
0
LINE
8
0
10
64.0
20
36.0
30
0.0
11
60.0
21
36.0
31
0.0
0
LINE
8
0
10
60.0
20
36.0
30
0.0
11
56.0
21
36.0
31
0.0
0
LINE
8
0
10
56.0
20
36.0
30
0.0
11
52.0
21
36.0
31
0.0
0
LINE
8
0
10
52.0
20
36.0
30
0.0
11
48.0
21
36.0
31
0.0
0
LINE
8
0
10
48.0
20
36.0
30
0.0
11
44.0
21
36.0
31
0.0
0
LINE
8
0
10
44.0
20
36.0
30
0.0
11
40.0
21
36.0
31
0.0
0
LINE
8
0
10
40.0
20
36.0
30
0.0
11
36.0
21
36.0
31
0.0
0
LINE
8
0
10
36.0
20
36.0
30
0.0
11
32.0
21
36.0
31
0.0
0
LINE
8
0
10
32.0
20
36.0
30
0.0
11
28.0
21
36.0
31
0.0
0
LINE
8
0
10
28.0
20
36.0
30
0.0
11
24.0
21
36.0
31
0.0
0
LINE
8
0
10
24.0
20
36.0
30
0.0
11
20.0
21
36.0
31
0.0
0
LINE
8
0
10
20.0
20
36.0
30
0.0
11
16.0
21
36.0
31
0.0
0
LINE
8
0
10
16.0
20
36.0
30
0.0
11
12.0
21
36.0
31
0.0
0
LINE
8
0
10
12.0
20
36.0
30
0.0
11
8.0
21
36.0
31
0.0
0
LINE
8
0
10
8.0
20
36.0
30
0.0
11
4.0
21
36.0
31
0.0
0
LINE
8
0
10
4.0
20
36.0
30
0.0
11
0.0
21
36.0
31
0.0
0
LINE
8
0
10
0.0
20
36.0
30
0.0
11
0.0
21
40.0
31
0.0
0
LINE
8
0
10
0.0
20
40.0
30
0.0
11
4.0
21
40.0
31
0.0
0
LINE
8
0
10
4.0
20
40.0
30
0.0
11
8.0
21
40.0
31
0.0
0
LINE
8
0
10
8.0
20
40.0
30
0.0
11
12.0
21
40.0
31
0.0
0
LINE
8
0
10
12.0
20
40.0
30
0.0
11
16.0
21
40.0
31
0.0
0
LINE
8
0
10
16.0
20
40.0
30
0.0
11
20.0
21
40.0
31
0.0
0
LINE
8
0
10
20.0
20
40.0
30
0.0
11
24.0
21
40.0
31
0.0
0
LINE
8
0
10
24.0
20
40.0
30
0.0
11
28.0
21
40.0
31
0.0
0
LINE
8
0
10
28.0
20
40.0
30
0.0
11
32.0
21
40.0
31
0.0
0
LINE
8
0
10
32.0
20
40.0
30
0.0
11
36.0
21
40.0
31
0.0
0
LINE
8
0
10
36.0
20
40.0
30
0.0
11
40.0
21
40.0
31
0.0
0
LINE
8
0
10
40.0
20
40.0
30
0.0
11
44.0
21
40.0
31
0.0
0
LINE
8
0
10
44.0
20
40.0
30
0.0
11
48.0
21
40.0
31
0.0
0
LINE
8
0
10
48.0
20
40.0
30
0.0
11
52.0
21
40.0
31
0.0
0
LINE
8
0
10
52.0
20
40.0
30
0.0
11
56.0
21
40.0
31
0.0
0
LINE
8
0
10
56.0
20
40.0
30
0.0
11
60.0
21
40.0
31
0.0
0
LINE
8
0
10
60.0
20
40.0
30
0.0
11
64.0
21
40.0
31
0.0
0
LINE
8
0
10
64.0
20
40.0
30
0.0
11
68.0
21
40.0
31
0.0
0
LINE
8
0
10
68.0
20
40.0
30
0.0
11
72.0
21
40.0
31
0.0
0
LINE
8
0
10
72.0
20
40.0
30
0.0
11
76.0
21
40.0
31
0.0
0
LINE
8
0
10
76.0
20
40.0
30
0.0
11
80.0
21
40.0
31
0.0
0
LINE
8
0
10
80.0
20
40.0
30
0.0
11
84.0
21
40.0
31
0.0
0
LINE
8
0
10
84.0
20
40.0
30
0.0
11
88.0
21
40.0
31
0.0
0
LINE
8
0
10
88.0
20
40.0
30
0.0
11
92.0
21
40.0
31
0.0
0
LINE
8
0
10
92.0
20
40.0
30
0.0
11
96.0
21
40.0
31
0.0
0
LINE
8
0
10
96.0
20
40.0
30
0.0
11
100.0
21
40.0
31
0.0
0
LINE
8
0
10
100.0
20
40.0
30
0.0
11
104.0
21
40.0
31
0.0
0
LINE
8
0
10
104.0
20
40.0
30
0.0
11
108.0
21
40.0
31
0.0
0
LINE
8
0
10
108.0
20
40.0
30
0.0
11
112.0
21
40.0
31
0.0
0
LINE
8
0
10
112.0
20
40.0
30
0.0
11
116.0
21
40.0
31
0.0
0
LINE
8
0
10
116.0
20
40.0
30
0.0
11
120.0
21
40.0
31
0.0
0
LINE
8
0
10
120.0
20
40.0
30
0.0
11
124.0
21
40.0
31
0.0
0
LINE
8
0
10
124.0
20
40.0
30
0.0
11
128.0
21
40.0
31
0.0
0
LINE
8
0
10
128.0
20
40.0
30
0.0
11
132.0
21
40.0
31
0.0
0
LINE
8
0
10
132.0
20
40.0
30
0.0
11
136.0
21
40.0
31
0.0
0
LINE
8
0
10
136.0
20
40.0
30
0.0
11
140.0
21
40.0
31
0.0
0
LINE
8
0
10
140.0
20
40.0
30
0.0
11
144.0
21
40.0
31
0.0
0
LINE
8
0
10
144.0
20
40.0
30
0.0
11
148.0
21
40.0
31
0.0
0
LINE
8
0
10
148.0
20
40.0
30
0.0
11
152.0
21
40.0
31
0.0
0
LINE
8
0
10
152.0
20
40.0
30
0.0
11
156.0
21
40.0
31
0.0
0
LINE
8
0
10
156.0
20
40.0
30
0.0
11
156.0
21
44.0
31
0.0
0
LINE
8
0
10
156.0
20
44.0
30
0.0
11
152.0
21
44.0
31
0.0
0
LINE
8
0
10
152.0
20
44.0
30
0.0
11
148.0
21
44.0
31
0.0
0
LINE
8
0
10
148.0
20
44.0
30
0.0
11
144.0
21
44.0
31
0.0
0
LINE
8
0
10
144.0
20
44.0
30
0.0
11
140.0
21
44.0
31
0.0
0
LINE
8
0
10
140.0
20
44.0
30
0.0
11
136.0
21
44.0
31
0.0
0
LINE
8
0
10
136.0
20
44.0
30
0.0
11
132.0
21
44.0
31
0.0
0
LINE
8
0
10
132.0
20
44.0
30
0.0
11
128.0
21
44.0
31
0.0
0
LINE
8
0
10
128.0
20
44.0
30
0.0
11
124.0
21
44.0
31
0.0
0
LINE
8
0
10
124.0
20
44.0
30
0.0
11
120.0
21
44.0
31
0.0
0
LINE
8
0
10
120.0
20
44.0
30
0.0
11
116.0
21
44.0
31
0.0
0
LINE
8
0
10
116.0
20
44.0
30
0.0
11
112.0
21
44.0
31
0.0
0
LINE
8
0
10
112.0
20
44.0
30
0.0
11
108.0
21
44.0
31
0.0
0
LINE
8
0
10
108.0
20
44.0
30
0.0
11
104.0
21
44.0
31
0.0
0
LINE
8
0
10
104.0
20
44.0
30
0.0
11
100.0
21
44.0
31
0.0
0
LINE
8
0
10
100.0
20
44.0
30
0.0
11
96.0
21
44.0
31
0.0
0
LINE
8
0
10
96.0
20
44.0
30
0.0
11
92.0
21
44.0
31
0.0
0
LINE
8
0
10
92.0
20
44.0
30
0.0
11
88.0
21
44.0
31
0.0
0
LINE
8
0
10
88.0
20
44.0
30
0.0
11
84.0
21
44.0
31
0.0
0
LINE
8
0
10
84.0
20
44.0
30
0.0
11
80.0
21
44.0
31
0.0
0
LINE
8
0
10
80.0
20
44.0
30
0.0
11
76.0
21
44.0
31
0.0
0
LINE
8
0
10
76.0
20
44.0
30
0.0
11
72.0
21
44.0
31
0.0
0
LINE
8
0
10
72.0
20
44.0
30
0.0
11
68.0
21
44.0
31
0.0
0
LINE
8
0
10
68.0
20
44.0
30
0.0
11
64.0
21
44.0
31
0.0
0
LINE
8
0
10
64.0
20
44.0
30
0.0
11
60.0
21
44.0
31
0.0
0
LINE
8
0
10
60.0
20
44.0
30
0.0
11
56.0
21
44.0
31
0.0
0
LINE
8
0
10
56.0
20
44.0
30
0.0
11
52.0
21
44.0
31
0.0
0
LINE
8
0
10
52.0
20
44.0
30
0.0
11
48.0
21
44.0
31
0.0
0
LINE
8
0
10
48.0
20
44.0
30
0.0
11
44.0
21
44.0
31
0.0
0
LINE
8
0
10
44.0
20
44.0
30
0.0
11
40.0
21
44.0
31
0.0
0
LINE
8
0
10
40.0
20
44.0
30
0.0
11
36.0
21
44.0
31
0.0
0
LINE
8
0
10
36.0
20
44.0
30
0.0
11
32.0
21
44.0
31
0.0
0
LINE
8
0
10
32.0
20
44.0
30
0.0
11
28.0
21
44.0
31
0.0
0
LINE
8
0
10
28.0
20
44.0
30
0.0
11
24.0
21
44.0
31
0.0
0
LINE
8
0
10
24.0
20
44.0
30
0.0
11
20.0
21
44.0
31
0.0
0
LINE
8
0
10
20.0
20
44.0
30
0.0
11
16.0
21
44.0
31
0.0
0
LINE
8
0
10
16.0
20
44.0
30
0.0
11
12.0
21
44.0
31
0.0
0
LINE
8
0
10
12.0
20
44.0
30
0.0
11
8.0
21
44.0
31
0.0
0
LINE
8
0
10
8.0
20
44.0
30
0.0
11
4.0
21
44.0
31
0.0
0
LINE
8
0
10
4.0
20
44.0
30
0.0
11
0.0
21
44.0
31
0.0
0
LINE
8
0
10
0.0
20
44.0
30
0.0
11
0.0
21
48.0
31
0.0
0
LINE
8
0
10
0.0
20
48.0
30
0.0
11
4.0
21
48.0
31
0.0
0
LINE
8
0
10
4.0
20
48.0
30
0.0
11
8.0
21
48.0
31
0.0
0
LINE
8
0
10
8.0
20
48.0
30
0.0
11
12.0
21
48.0
31
0.0
0
LINE
8
0
10
12.0
20
48.0
30
0.0
11
16.0
21
48.0
31
0.0
0
LINE
8
0
10
16.0
20
48.0
30
0.0
11
20.0
21
48.0
31
0.0
0
LINE
8
0
10
20.0
20
48.0
30
0.0
11
24.0
21
48.0
31
0.0
0
LINE
8
0
10
24.0
20
48.0
30
0.0
11
28.0
21
48.0
31
0.0
0
LINE
8
0
10
28.0
20
48.0
30
0.0
11
32.0
21
48.0
31
0.0
0
LINE
8
0
10
32.0
20
48.0
30
0.0
11
36.0
21
48.0
31
0.0
0
LINE
8
0
10
36.0
20
48.0
30
0.0
11
40.0
21
48.0
31
0.0
0
LINE
8
0
10
40.0
20
48.0
30
0.0
11
44.0
21
48.0
31
0.0
0
LINE
8
0
10
44.0
20
48.0
30
0.0
11
48.0
21
48.0
31
0.0
0
LINE
8
0
10
48.0
20
48.0
30
0.0
11
52.0
21
48.0
31
0.0
0
LINE
8
0
10
52.0
20
48.0
30
0.0
11
56.0
21
48.0
31
0.0
0
LINE
8
0
10
56.0
20
48.0
30
0.0
11
60.0
21
48.0
31
0.0
0
LINE
8
0
10
60.0
20
48.0
30
0.0
11
64.0
21
48.0
31
0.0
0
LINE
8
0
10
64.0
20
48.0
30
0.0
11
68.0
21
48.0
31
0.0
0
LINE
8
0
10
68.0
20
48.0
30
0.0
11
72.0
21
48.0
31
0.0
0
LINE
8
0
10
72.0
20
48.0
30
0.0
11
76.0
21
48.0
31
0.0
0
LINE
8
0
10
76.0
20
48.0
30
0.0
11
80.0
21
48.0
31
0.0
0
LINE
8
0
10
80.0
20
48.0
30
0.0
11
84.0
21
48.0
31
0.0
0
LINE
8
0
10
84.0
20
48.0
30
0.0
11
88.0
21
48.0
31
0.0
0
LINE
8
0
10
88.0
20
48.0
30
0.0
11
92.0
21
48.0
31
0.0
0
LINE
8
0
10
92.0
20
48.0
30
0.0
11
96.0
21
48.0
31
0.0
0
LINE
8
0
10
96.0
20
48.0
30
0.0
11
100.0
21
48.0
31
0.0
0
LINE
8
0
10
100.0
20
48.0
30
0.0
11
104.0
21
48.0
31
0.0
0
LINE
8
0
10
104.0
20
48.0
30
0.0
11
108.0
21
48.0
31
0.0
0
LINE
8
0
10
108.0
20
48.0
30
0.0
11
112.0
21
48.0
31
0.0
0
LINE
8
0
10
112.0
20
48.0
30
0.0
11
116.0
21
48.0
31
0.0
0
LINE
8
0
10
116.0
20
48.0
30
0.0
11
120.0
21
48.0
31
0.0
0
LINE
8
0
10
120.0
20
48.0
30
0.0
11
124.0
21
48.0
31
0.0
0
LINE
8
0
10
124.0
20
48.0
30
0.0
11
128.0
21
48.0
31
0.0
0
LINE
8
0
10
128.0
20
48.0
30
0.0
11
132.0
21
48.0
31
0.0
0
LINE
8
0
10
132.0
20
48.0
30
0.0
11
136.0
21
48.0
31
0.0
0
LINE
8
0
10
136.0
20
48.0
30
0.0
11
140.0
21
48.0
31
0.0
0
LINE
8
0
10
140.0
20
48.0
30
0.0
11
144.0
21
48.0
31
0.0
0
LINE
8
0
10
144.0
20
48.0
30
0.0
11
148.0
21
48.0
31
0.0
0
LINE
8
0
10
148.0
20
48.0
30
0.0
11
152.0
21
48.0
31
0.0
0
LINE
8
0
10
152.0
20
48.0
30
0.0
11
156.0
21
48.0
31
0.0
0
LINE
8
0
10
156.0
20
48.0
30
0.0
11
156.0
21
52.0
31
0.0
0
LINE
8
0
10
156.0
20
52.0
30
0.0
11
152.0
21
52.0
31
0.0
0
LINE
8
0
10
152.0
20
52.0
30
0.0
11
148.0
21
52.0
31
0.0
0
LINE
8
0
10
148.0
20
52.0
30
0.0
11
144.0
21
52.0
31
0.0
0
LINE
8
0
10
144.0
20
52.0
30
0.0
11
140.0
21
52.0
31
0.0
0
LINE
8
0
10
140.0
20
52.0
30
0.0
11
136.0
21
52.0
31
0.0
0
LINE
8
0
10
136.0
20
52.0
30
0.0
11
132.0
21
52.0
31
0.0
0
LINE
8
0
10
132.0
20
52.0
30
0.0
11
128.0
21
52.0
31
0.0
0
LINE
8
0
10
128.0
20
52.0
30
0.0
11
124.0
21
52.0
31
0.0
0
LINE
8
0
10
124.0
20
52.0
30
0.0
11
120.0
21
52.0
31
0.0
0
LINE
8
0
10
120.0
20
52.0
30
0.0
11
116.0
21
52.0
31
0.0
0
LINE
8
0
10
116.0
20
52.0
30
0.0
11
112.0
21
52.0
31
0.0
0
LINE
8
0
10
112.0
20
52.0
30
0.0
11
108.0
21
52.0
31
0.0
0
LINE
8
0
10
108.0
20
52.0
30
0.0
11
104.0
21
52.0
31
0.0
0
LINE
8
0
10
104.0
20
52.0
30
0.0
11
100.0
21
52.0
31
0.0
0
LINE
8
0
10
100.0
20
52.0
30
0.0
11
96.0
21
52.0
31
0.0
0
LINE
8
0
10
96.0
20
52.0
30
0.0
11
92.0
21
52.0
31
0.0
0
LINE
8
0
10
92.0
20
52.0
30
0.0
11
88.0
21
52.0
31
0.0
0
LINE
8
0
10
88.0
20
52.0
30
0.0
11
84.0
21
52.0
31
0.0
0
LINE
8
0
10
84.0
20
52.0
30
0.0
11
80.0
21
52.0
31
0.0
0
LINE
8
0
10
80.0
20
52.0
30
0.0
11
76.0
21
52.0
31
0.0
0
LINE
8
0
10
76.0
20
52.0
30
0.0
11
72.0
21
52.0
31
0.0
0
LINE
8
0
10
72.0
20
52.0
30
0.0
11
68.0
21
52.0
31
0.0
0
LINE
8
0
10
68.0
20
52.0
30
0.0
11
64.0
21
52.0
31
0.0
0
LINE
8
0
10
64.0
20
52.0
30
0.0
11
60.0
21
52.0
31
0.0
0
LINE
8
0
10
60.0
20
52.0
30
0.0
11
56.0
21
52.0
31
0.0
0
LINE
8
0
10
56.0
20
52.0
30
0.0
11
52.0
21
52.0
31
0.0
0
LINE
8
0
10
52.0
20
52.0
30
0.0
11
48.0
21
52.0
31
0.0
0
LINE
8
0
10
48.0
20
52.0
30
0.0
11
44.0
21
52.0
31
0.0
0
LINE
8
0
10
44.0
20
52.0
30
0.0
11
40.0
21
52.0
31
0.0
0
LINE
8
0
10
40.0
20
52.0
30
0.0
11
36.0
21
52.0
31
0.0
0
LINE
8
0
10
36.0
20
52.0
30
0.0
11
32.0
21
52.0
31
0.0
0
LINE
8
0
10
32.0
20
52.0
30
0.0
11
28.0
21
52.0
31
0.0
0
LINE
8
0
10
28.0
20
52.0
30
0.0
11
24.0
21
52.0
31
0.0
0
LINE
8
0
10
24.0
20
52.0
30
0.0
11
20.0
21
52.0
31
0.0
0
LINE
8
0
10
20.0
20
52.0
30
0.0
11
16.0
21
52.0
31
0.0
0
LINE
8
0
10
16.0
20
52.0
30
0.0
11
12.0
21
52.0
31
0.0
0
LINE
8
0
10
12.0
20
52.0
30
0.0
11
8.0
21
52.0
31
0.0
0
LINE
8
0
10
8.0
20
52.0
30
0.0
11
4.0
21
52.0
31
0.0
0
LINE
8
0
10
4.0
20
52.0
30
0.0
11
0.0
21
52.0
31
0.0
0
LINE
8
0
10
0.0
20
52.0
30
0.0
11
0.0
21
56.0
31
0.0
0
LINE
8
0
10
0.0
20
56.0
30
0.0
11
4.0
21
56.0
31
0.0
0
LINE
8
0
10
4.0
20
56.0
30
0.0
11
8.0
21
56.0
31
0.0
0
LINE
8
0
10
8.0
20
56.0
30
0.0
11
12.0
21
56.0
31
0.0
0
LINE
8
0
10
12.0
20
56.0
30
0.0
11
16.0
21
56.0
31
0.0
0
LINE
8
0
10
16.0
20
56.0
30
0.0
11
20.0
21
56.0
31
0.0
0
LINE
8
0
10
20.0
20
56.0
30
0.0
11
24.0
21
56.0
31
0.0
0
LINE
8
0
10
24.0
20
56.0
30
0.0
11
28.0
21
56.0
31
0.0
0
LINE
8
0
10
28.0
20
56.0
30
0.0
11
32.0
21
56.0
31
0.0
0
LINE
8
0
10
32.0
20
56.0
30
0.0
11
36.0
21
56.0
31
0.0
0
LINE
8
0
10
36.0
20
56.0
30
0.0
11
40.0
21
56.0
31
0.0
0
LINE
8
0
10
40.0
20
56.0
30
0.0
11
44.0
21
56.0
31
0.0
0
LINE
8
0
10
44.0
20
56.0
30
0.0
11
48.0
21
56.0
31
0.0
0
LINE
8
0
10
48.0
20
56.0
30
0.0
11
52.0
21
56.0
31
0.0
0
LINE
8
0
10
52.0
20
56.0
30
0.0
11
56.0
21
56.0
31
0.0
0
LINE
8
0
10
56.0
20
56.0
30
0.0
11
60.0
21
56.0
31
0.0
0
LINE
8
0
10
60.0
20
56.0
30
0.0
11
64.0
21
56.0
31
0.0
0
LINE
8
0
10
64.0
20
56.0
30
0.0
11
68.0
21
56.0
31
0.0
0
LINE
8
0
10
68.0
20
56.0
30
0.0
11
72.0
21
56.0
31
0.0
0
LINE
8
0
10
72.0
20
56.0
30
0.0
11
76.0
21
56.0
31
0.0
0
LINE
8
0
10
76.0
20
56.0
30
0.0
11
80.0
21
56.0
31
0.0
0
LINE
8
0
10
80.0
20
56.0
30
0.0
11
84.0
21
56.0
31
0.0
0
LINE
8
0
10
84.0
20
56.0
30
0.0
11
88.0
21
56.0
31
0.0
0
LINE
8
0
10
88.0
20
56.0
30
0.0
11
92.0
21
56.0
31
0.0
0
LINE
8
0
10
92.0
20
56.0
30
0.0
11
96.0
21
56.0
31
0.0
0
LINE
8
0
10
96.0
20
56.0
30
0.0
11
100.0
21
56.0
31
0.0
0
LINE
8
0
10
100.0
20
56.0
30
0.0
11
104.0
21
56.0
31
0.0
0
LINE
8
0
10
104.0
20
56.0
30
0.0
11
108.0
21
56.0
31
0.0
0
LINE
8
0
10
108.0
20
56.0
30
0.0
11
112.0
21
56.0
31
0.0
0
LINE
8
0
10
112.0
20
56.0
30
0.0
11
116.0
21
56.0
31
0.0
0
LINE
8
0
10
116.0
20
56.0
30
0.0
11
120.0
21
56.0
31
0.0
0
LINE
8
0
10
120.0
20
56.0
30
0.0
11
124.0
21
56.0
31
0.0
0
LINE
8
0
10
124.0
20
56.0
30
0.0
11
128.0
21
56.0
31
0.0
0
LINE
8
0
10
128.0
20
56.0
30
0.0
11
132.0
21
56.0
31
0.0
0
LINE
8
0
10
132.0
20
56.0
30
0.0
11
136.0
21
56.0
31
0.0
0
LINE
8
0
10
136.0
20
56.0
30
0.0
11
140.0
21
56.0
31
0.0
0
LINE
8
0
10
140.0
20
56.0
30
0.0
11
144.0
21
56.0
31
0.0
0
LINE
8
0
10
144.0
20
56.0
30
0.0
11
148.0
21
56.0
31
0.0
0
LINE
8
0
10
148.0
20
56.0
30
0.0
11
152.0
21
56.0
31
0.0
0
LINE
8
0
10
152.0
20
56.0
30
0.0
11
156.0
21
56.0
31
0.0
0
LINE
8
0
10
156.0
20
56.0
30
0.0
11
156.0
21
60.0
31
0.0
0
LINE
8
0
10
156.0
20
60.0
30
0.0
11
152.0
21
60.0
31
0.0
0
LINE
8
0
10
152.0
20
60.0
30
0.0
11
148.0
21
60.0
31
0.0
0
LINE
8
0
10
148.0
20
60.0
30
0.0
11
144.0
21
60.0
31
0.0
0
LINE
8
0
10
144.0
20
60.0
30
0.0
11
140.0
21
60.0
31
0.0
0
LINE
8
0
10
140.0
20
60.0
30
0.0
11
136.0
21
60.0
31
0.0
0
LINE
8
0
10
136.0
20
60.0
30
0.0
11
132.0
21
60.0
31
0.0
0
LINE
8
0
10
132.0
20
60.0
30
0.0
11
128.0
21
60.0
31
0.0
0
LINE
8
0
10
128.0
20
60.0
30
0.0
11
124.0
21
60.0
31
0.0
0
LINE
8
0
10
124.0
20
60.0
30
0.0
11
120.0
21
60.0
31
0.0
0
LINE
8
0
10
120.0
20
60.0
30
0.0
11
116.0
21
60.0
31
0.0
0
LINE
8
0
10
116.0
20
60.0
30
0.0
11
112.0
21
60.0
31
0.0
0
LINE
8
0
10
112.0
20
60.0
30
0.0
11
108.0
21
60.0
31
0.0
0
LINE
8
0
10
108.0
20
60.0
30
0.0
11
104.0
21
60.0
31
0.0
0
LINE
8
0
10
104.0
20
60.0
30
0.0
11
100.0
21
60.0
31
0.0
0
LINE
8
0
10
100.0
20
60.0
30
0.0
11
96.0
21
60.0
31
0.0
0
LINE
8
0
10
96.0
20
60.0
30
0.0
11
92.0
21
60.0
31
0.0
0
LINE
8
0
10
92.0
20
60.0
30
0.0
11
88.0
21
60.0
31
0.0
0
LINE
8
0
10
88.0
20
60.0
30
0.0
11
84.0
21
60.0
31
0.0
0
LINE
8
0
10
84.0
20
60.0
30
0.0
11
80.0
21
60.0
31
0.0
0
LINE
8
0
10
80.0
20
60.0
30
0.0
11
76.0
21
60.0
31
0.0
0
LINE
8
0
10
76.0
20
60.0
30
0.0
11
72.0
21
60.0
31
0.0
0
LINE
8
0
10
72.0
20
60.0
30
0.0
11
68.0
21
60.0
31
0.0
0
LINE
8
0
10
68.0
20
60.0
30
0.0
11
64.0
21
60.0
31
0.0
0
LINE
8
0
10
64.0
20
60.0
30
0.0
11
60.0
21
60.0
31
0.0
0
LINE
8
0
10
60.0
20
60.0
30
0.0
11
56.0
21
60.0
31
0.0
0
LINE
8
0
10
56.0
20
60.0
30
0.0
11
52.0
21
60.0
31
0.0
0
LINE
8
0
10
52.0
20
60.0
30
0.0
11
48.0
21
60.0
31
0.0
0
LINE
8
0
10
48.0
20
60.0
30
0.0
11
44.0
21
60.0
31
0.0
0
LINE
8
0
10
44.0
20
60.0
30
0.0
11
40.0
21
60.0
31
0.0
0
LINE
8
0
10
40.0
20
60.0
30
0.0
11
36.0
21
60.0
31
0.0
0
LINE
8
0
10
36.0
20
60.0
30
0.0
11
32.0
21
60.0
31
0.0
0
LINE
8
0
10
32.0
20
60.0
30
0.0
11
28.0
21
60.0
31
0.0
0
LINE
8
0
10
28.0
20
60.0
30
0.0
11
24.0
21
60.0
31
0.0
0
LINE
8
0
10
24.0
20
60.0
30
0.0
11
20.0
21
60.0
31
0.0
0
LINE
8
0
10
20.0
20
60.0
30
0.0
11
16.0
21
60.0
31
0.0
0
LINE
8
0
10
16.0
20
60.0
30
0.0
11
12.0
21
60.0
31
0.0
0
LINE
8
0
10
12.0
20
60.0
30
0.0
11
8.0
21
60.0
31
0.0
0
LINE
8
0
10
8.0
20
60.0
30
0.0
11
4.0
21
60.0
31
0.0
0
LINE
8
0
10
4.0
20
60.0
30
0.0
11
0.0
21
60.0
31
0.0
0
LINE
8
0
10
0.0
20
60.0
30
0.0
11
0.0
21
64.0
31
0.0
0
LINE
8
0
10
0.0
20
64.0
30
0.0
11
4.0
21
64.0
31
0.0
0
LINE
8
0
10
4.0
20
64.0
30
0.0
11
8.0
21
64.0
31
0.0
0
LINE
8
0
10
8.0
20
64.0
30
0.0
11
12.0
21
64.0
31
0.0
0
LINE
8
0
10
12.0
20
64.0
30
0.0
11
16.0
21
64.0
31
0.0
0
LINE
8
0
10
16.0
20
64.0
30
0.0
11
20.0
21
64.0
31
0.0
0
LINE
8
0
10
20.0
20
64.0
30
0.0
11
24.0
21
64.0
31
0.0
0
LINE
8
0
10
24.0
20
64.0
30
0.0
11
28.0
21
64.0
31
0.0
0
LINE
8
0
10
28.0
20
64.0
30
0.0
11
32.0
21
64.0
31
0.0
0
LINE
8
0
10
32.0
20
64.0
30
0.0
11
36.0
21
64.0
31
0.0
0
LINE
8
0
10
36.0
20
64.0
30
0.0
11
40.0
21
64.0
31
0.0
0
LINE
8
0
10
40.0
20
64.0
30
0.0
11
44.0
21
64.0
31
0.0
0
LINE
8
0
10
44.0
20
64.0
30
0.0
11
48.0
21
64.0
31
0.0
0
LINE
8
0
10
48.0
20
64.0
30
0.0
11
52.0
21
64.0
31
0.0
0
LINE
8
0
10
52.0
20
64.0
30
0.0
11
56.0
21
64.0
31
0.0
0
LINE
8
0
10
56.0
20
64.0
30
0.0
11
60.0
21
64.0
31
0.0
0
LINE
8
0
10
60.0
20
64.0
30
0.0
11
64.0
21
64.0
31
0.0
0
LINE
8
0
10
64.0
20
64.0
30
0.0
11
68.0
21
64.0
31
0.0
0
LINE
8
0
10
68.0
20
64.0
30
0.0
11
72.0
21
64.0
31
0.0
0
LINE
8
0
10
72.0
20
64.0
30
0.0
11
76.0
21
64.0
31
0.0
0
LINE
8
0
10
76.0
20
64.0
30
0.0
11
80.0
21
64.0
31
0.0
0
LINE
8
0
10
80.0
20
64.0
30
0.0
11
84.0
21
64.0
31
0.0
0
LINE
8
0
10
84.0
20
64.0
30
0.0
11
88.0
21
64.0
31
0.0
0
LINE
8
0
10
88.0
20
64.0
30
0.0
11
92.0
21
64.0
31
0.0
0
LINE
8
0
10
92.0
20
64.0
30
0.0
11
96.0
21
64.0
31
0.0
0
LINE
8
0
10
96.0
20
64.0
30
0.0
11
100.0
21
64.0
31
0.0
0
LINE
8
0
10
100.0
20
64.0
30
0.0
11
104.0
21
64.0
31
0.0
0
LINE
8
0
10
104.0
20
64.0
30
0.0
11
108.0
21
64.0
31
0.0
0
LINE
8
0
10
108.0
20
64.0
30
0.0
11
112.0
21
64.0
31
0.0
0
LINE
8
0
10
112.0
20
64.0
30
0.0
11
116.0
21
64.0
31
0.0
0
LINE
8
0
10
116.0
20
64.0
30
0.0
11
120.0
21
64.0
31
0.0
0
LINE
8
0
10
120.0
20
64.0
30
0.0
11
124.0
21
64.0
31
0.0
0
LINE
8
0
10
124.0
20
64.0
30
0.0
11
128.0
21
64.0
31
0.0
0
LINE
8
0
10
128.0
20
64.0
30
0.0
11
132.0
21
64.0
31
0.0
0
LINE
8
0
10
132.0
20
64.0
30
0.0
11
136.0
21
64.0
31
0.0
0
LINE
8
0
10
136.0
20
64.0
30
0.0
11
140.0
21
64.0
31
0.0
0
LINE
8
0
10
140.0
20
64.0
30
0.0
11
144.0
21
64.0
31
0.0
0
LINE
8
0
10
144.0
20
64.0
30
0.0
11
148.0
21
64.0
31
0.0
0
LINE
8
0
10
148.0
20
64.0
30
0.0
11
152.0
21
64.0
31
0.0
0
LINE
8
0
10
152.0
20
64.0
30
0.0
11
156.0
21
64.0
31
0.0
0
LINE
8
0
10
156.0
20
64.0
30
0.0
11
156.0
21
68.0
31
0.0
0
LINE
8
0
10
156.0
20
68.0
30
0.0
11
152.0
21
68.0
31
0.0
0
LINE
8
0
10
152.0
20
68.0
30
0.0
11
148.0
21
68.0
31
0.0
0
LINE
8
0
10
148.0
20
68.0
30
0.0
11
144.0
21
68.0
31
0.0
0
LINE
8
0
10
144.0
20
68.0
30
0.0
11
140.0
21
68.0
31
0.0
0
LINE
8
0
10
140.0
20
68.0
30
0.0
11
136.0
21
68.0
31
0.0
0
LINE
8
0
10
136.0
20
68.0
30
0.0
11
132.0
21
68.0
31
0.0
0
LINE
8
0
10
132.0
20
68.0
30
0.0
11
128.0
21
68.0
31
0.0
0
LINE
8
0
10
128.0
20
68.0
30
0.0
11
124.0
21
68.0
31
0.0
0
LINE
8
0
10
124.0
20
68.0
30
0.0
11
120.0
21
68.0
31
0.0
0
LINE
8
0
10
120.0
20
68.0
30
0.0
11
116.0
21
68.0
31
0.0
0
LINE
8
0
10
116.0
20
68.0
30
0.0
11
112.0
21
68.0
31
0.0
0
LINE
8
0
10
112.0
20
68.0
30
0.0
11
108.0
21
68.0
31
0.0
0
LINE
8
0
10
108.0
20
68.0
30
0.0
11
104.0
21
68.0
31
0.0
0
LINE
8
0
10
104.0
20
68.0
30
0.0
11
100.0
21
68.0
31
0.0
0
LINE
8
0
10
100.0
20
68.0
30
0.0
11
96.0
21
68.0
31
0.0
0
LINE
8
0
10
96.0
20
68.0
30
0.0
11
92.0
21
68.0
31
0.0
0
LINE
8
0
10
92.0
20
68.0
30
0.0
11
88.0
21
68.0
31
0.0
0
LINE
8
0
10
88.0
20
68.0
30
0.0
11
84.0
21
68.0
31
0.0
0
LINE
8
0
10
84.0
20
68.0
30
0.0
11
80.0
21
68.0
31
0.0
0
LINE
8
0
10
80.0
20
68.0
30
0.0
11
76.0
21
68.0
31
0.0
0
LINE
8
0
10
76.0
20
68.0
30
0.0
11
72.0
21
68.0
31
0.0
0
LINE
8
0
10
72.0
20
68.0
30
0.0
11
68.0
21
68.0
31
0.0
0
LINE
8
0
10
68.0
20
68.0
30
0.0
11
64.0
21
68.0
31
0.0
0
LINE
8
0
10
64.0
20
68.0
30
0.0
11
60.0
21
68.0
31
0.0
0
LINE
8
0
10
60.0
20
68.0
30
0.0
11
56.0
21
68.0
31
0.0
0
LINE
8
0
10
56.0
20
68.0
30
0.0
11
52.0
21
68.0
31
0.0
0
LINE
8
0
10
52.0
20
68.0
30
0.0
11
48.0
21
68.0
31
0.0
0
LINE
8
0
10
48.0
20
68.0
30
0.0
11
44.0
21
68.0
31
0.0
0
LINE
8
0
10
44.0
20
68.0
30
0.0
11
40.0
21
68.0
31
0.0
0
LINE
8
0
10
40.0
20
68.0
30
0.0
11
36.0
21
68.0
31
0.0
0
LINE
8
0
10
36.0
20
68.0
30
0.0
11
32.0
21
68.0
31
0.0
0
LINE
8
0
10
32.0
20
68.0
30
0.0
11
28.0
21
68.0
31
0.0
0
LINE
8
0
10
28.0
20
68.0
30
0.0
11
24.0
21
68.0
31
0.0
0
LINE
8
0
10
24.0
20
68.0
30
0.0
11
20.0
21
68.0
31
0.0
0
LINE
8
0
10
20.0
20
68.0
30
0.0
11
16.0
21
68.0
31
0.0
0
LINE
8
0
10
16.0
20
68.0
30
0.0
11
12.0
21
68.0
31
0.0
0
LINE
8
0
10
12.0
20
68.0
30
0.0
11
8.0
21
68.0
31
0.0
0
LINE
8
0
10
8.0
20
68.0
30
0.0
11
4.0
21
68.0
31
0.0
0
LINE
8
0
10
4.0
20
68.0
30
0.0
11
0.0
21
68.0
31
0.0
0
LINE
8
0
10
0.0
20
68.0
30
0.0
11
0.0
21
72.0
31
0.0
0
LINE
8
0
10
0.0
20
72.0
30
0.0
11
4.0
21
72.0
31
0.0
0
LINE
8
0
10
4.0
20
72.0
30
0.0
11
8.0
21
72.0
31
0.0
0
LINE
8
0
10
8.0
20
72.0
30
0.0
11
12.0
21
72.0
31
0.0
0
LINE
8
0
10
12.0
20
72.0
30
0.0
11
16.0
21
72.0
31
0.0
0
LINE
8
0
10
16.0
20
72.0
30
0.0
11
20.0
21
72.0
31
0.0
0
LINE
8
0
10
20.0
20
72.0
30
0.0
11
24.0
21
72.0
31
0.0
0
LINE
8
0
10
24.0
20
72.0
30
0.0
11
28.0
21
72.0
31
0.0
0
LINE
8
0
10
28.0
20
72.0
30
0.0
11
32.0
21
72.0
31
0.0
0
LINE
8
0
10
32.0
20
72.0
30
0.0
11
36.0
21
72.0
31
0.0
0
LINE
8
0
10
36.0
20
72.0
30
0.0
11
40.0
21
72.0
31
0.0
0
LINE
8
0
10
40.0
20
72.0
30
0.0
11
44.0
21
72.0
31
0.0
0
LINE
8
0
10
44.0
20
72.0
30
0.0
11
48.0
21
72.0
31
0.0
0
LINE
8
0
10
48.0
20
72.0
30
0.0
11
52.0
21
72.0
31
0.0
0
LINE
8
0
10
52.0
20
72.0
30
0.0
11
56.0
21
72.0
31
0.0
0
LINE
8
0
10
56.0
20
72.0
30
0.0
11
60.0
21
72.0
31
0.0
0
LINE
8
0
10
60.0
20
72.0
30
0.0
11
64.0
21
72.0
31
0.0
0
LINE
8
0
10
64.0
20
72.0
30
0.0
11
68.0
21
72.0
31
0.0
0
LINE
8
0
10
68.0
20
72.0
30
0.0
11
72.0
21
72.0
31
0.0
0
LINE
8
0
10
72.0
20
72.0
30
0.0
11
76.0
21
72.0
31
0.0
0
LINE
8
0
10
76.0
20
72.0
30
0.0
11
80.0
21
72.0
31
0.0
0
LINE
8
0
10
80.0
20
72.0
30
0.0
11
84.0
21
72.0
31
0.0
0
LINE
8
0
10
84.0
20
72.0
30
0.0
11
88.0
21
72.0
31
0.0
0
LINE
8
0
10
88.0
20
72.0
30
0.0
11
92.0
21
72.0
31
0.0
0
LINE
8
0
10
92.0
20
72.0
30
0.0
11
96.0
21
72.0
31
0.0
0
LINE
8
0
10
96.0
20
72.0
30
0.0
11
100.0
21
72.0
31
0.0
0
LINE
8
0
10
100.0
20
72.0
30
0.0
11
104.0
21
72.0
31
0.0
0
LINE
8
0
10
104.0
20
72.0
30
0.0
11
108.0
21
72.0
31
0.0
0
LINE
8
0
10
108.0
20
72.0
30
0.0
11
112.0
21
72.0
31
0.0
0
LINE
8
0
10
112.0
20
72.0
30
0.0
11
116.0
21
72.0
31
0.0
0
LINE
8
0
10
116.0
20
72.0
30
0.0
11
120.0
21
72.0
31
0.0
0
LINE
8
0
10
120.0
20
72.0
30
0.0
11
124.0
21
72.0
31
0.0
0
LINE
8
0
10
124.0
20
72.0
30
0.0
11
128.0
21
72.0
31
0.0
0
LINE
8
0
10
128.0
20
72.0
30
0.0
11
132.0
21
72.0
31
0.0
0
LINE
8
0
10
132.0
20
72.0
30
0.0
11
136.0
21
72.0
31
0.0
0
LINE
8
0
10
136.0
20
72.0
30
0.0
11
140.0
21
72.0
31
0.0
0
LINE
8
0
10
140.0
20
72.0
30
0.0
11
144.0
21
72.0
31
0.0
0
LINE
8
0
10
144.0
20
72.0
30
0.0
11
148.0
21
72.0
31
0.0
0
LINE
8
0
10
148.0
20
72.0
30
0.0
11
152.0
21
72.0
31
0.0
0
LINE
8
0
10
152.0
20
72.0
30
0.0
11
156.0
21
72.0
31
0.0
0
LINE
8
0
10
156.0
20
72.0
30
0.0
11
156.0
21
76.0
31
0.0
0
LINE
8
0
10
156.0
20
76.0
30
0.0
11
152.0
21
76.0
31
0.0
0
LINE
8
0
10
152.0
20
76.0
30
0.0
11
148.0
21
76.0
31
0.0
0
LINE
8
0
10
148.0
20
76.0
30
0.0
11
144.0
21
76.0
31
0.0
0
LINE
8
0
10
144.0
20
76.0
30
0.0
11
140.0
21
76.0
31
0.0
0
LINE
8
0
10
140.0
20
76.0
30
0.0
11
136.0
21
76.0
31
0.0
0
LINE
8
0
10
136.0
20
76.0
30
0.0
11
132.0
21
76.0
31
0.0
0
LINE
8
0
10
132.0
20
76.0
30
0.0
11
128.0
21
76.0
31
0.0
0
LINE
8
0
10
128.0
20
76.0
30
0.0
11
124.0
21
76.0
31
0.0
0
LINE
8
0
10
124.0
20
76.0
30
0.0
11
120.0
21
76.0
31
0.0
0
LINE
8
0
10
120.0
20
76.0
30
0.0
11
116.0
21
76.0
31
0.0
0
LINE
8
0
10
116.0
20
76.0
30
0.0
11
112.0
21
76.0
31
0.0
0
LINE
8
0
10
112.0
20
76.0
30
0.0
11
108.0
21
76.0
31
0.0
0
LINE
8
0
10
108.0
20
76.0
30
0.0
11
104.0
21
76.0
31
0.0
0
LINE
8
0
10
104.0
20
76.0
30
0.0
11
100.0
21
76.0
31
0.0
0
LINE
8
0
10
100.0
20
76.0
30
0.0
11
96.0
21
76.0
31
0.0
0
LINE
8
0
10
96.0
20
76.0
30
0.0
11
92.0
21
76.0
31
0.0
0
LINE
8
0
10
92.0
20
76.0
30
0.0
11
88.0
21
76.0
31
0.0
0
LINE
8
0
10
88.0
20
76.0
30
0.0
11
84.0
21
76.0
31
0.0
0
LINE
8
0
10
84.0
20
76.0
30
0.0
11
80.0
21
76.0
31
0.0
0
LINE
8
0
10
80.0
20
76.0
30
0.0
11
76.0
21
76.0
31
0.0
0
LINE
8
0
10
76.0
20
76.0
30
0.0
11
72.0
21
76.0
31
0.0
0
LINE
8
0
10
72.0
20
76.0
30
0.0
11
68.0
21
76.0
31
0.0
0
LINE
8
0
10
68.0
20
76.0
30
0.0
11
64.0
21
76.0
31
0.0
0
LINE
8
0
10
64.0
20
76.0
30
0.0
11
60.0
21
76.0
31
0.0
0
LINE
8
0
10
60.0
20
76.0
30
0.0
11
56.0
21
76.0
31
0.0
0
LINE
8
0
10
56.0
20
76.0
30
0.0
11
52.0
21
76.0
31
0.0
0
LINE
8
0
10
52.0
20
76.0
30
0.0
11
48.0
21
76.0
31
0.0
0
LINE
8
0
10
48.0
20
76.0
30
0.0
11
44.0
21
76.0
31
0.0
0
LINE
8
0
10
44.0
20
76.0
30
0.0
11
40.0
21
76.0
31
0.0
0
LINE
8
0
10
40.0
20
76.0
30
0.0
11
36.0
21
76.0
31
0.0
0
LINE
8
0
10
36.0
20
76.0
30
0.0
11
32.0
21
76.0
31
0.0
0
LINE
8
0
10
32.0
20
76.0
30
0.0
11
28.0
21
76.0
31
0.0
0
LINE
8
0
10
28.0
20
76.0
30
0.0
11
24.0
21
76.0
31
0.0
0
LINE
8
0
10
24.0
20
76.0
30
0.0
11
20.0
21
76.0
31
0.0
0
LINE
8
0
10
20.0
20
76.0
30
0.0
11
16.0
21
76.0
31
0.0
0
LINE
8
0
10
16.0
20
76.0
30
0.0
11
12.0
21
76.0
31
0.0
0
LINE
8
0
10
12.0
20
76.0
30
0.0
11
8.0
21
76.0
31
0.0
0
LINE
8
0
10
8.0
20
76.0
30
0.0
11
4.0
21
76.0
31
0.0
0
LINE
8
0
10
4.0
20
76.0
30
0.0
11
0.0
21
76.0
31
0.0
0
LINE
8
0
10
0.0
20
76.0
30
0.0
11
0.0
21
80.0
31
0.0
0
LINE
8
0
10
0.0
20
80.0
30
0.0
11
4.0
21
80.0
31
0.0
0
LINE
8
0
10
4.0
20
80.0
30
0.0
11
8.0
21
80.0
31
0.0
0
LINE
8
0
10
8.0
20
80.0
30
0.0
11
12.0
21
80.0
31
0.0
0
LINE
8
0
10
12.0
20
80.0
30
0.0
11
16.0
21
80.0
31
0.0
0
LINE
8
0
10
16.0
20
80.0
30
0.0
11
20.0
21
80.0
31
0.0
0
LINE
8
0
10
20.0
20
80.0
30
0.0
11
24.0
21
80.0
31
0.0
0
LINE
8
0
10
24.0
20
80.0
30
0.0
11
28.0
21
80.0
31
0.0
0
LINE
8
0
10
28.0
20
80.0
30
0.0
11
32.0
21
80.0
31
0.0
0
LINE
8
0
10
32.0
20
80.0
30
0.0
11
36.0
21
80.0
31
0.0
0
LINE
8
0
10
36.0
20
80.0
30
0.0
11
40.0
21
80.0
31
0.0
0
LINE
8
0
10
40.0
20
80.0
30
0.0
11
44.0
21
80.0
31
0.0
0
LINE
8
0
10
44.0
20
80.0
30
0.0
11
48.0
21
80.0
31
0.0
0
LINE
8
0
10
48.0
20
80.0
30
0.0
11
52.0
21
80.0
31
0.0
0
LINE
8
0
10
52.0
20
80.0
30
0.0
11
56.0
21
80.0
31
0.0
0
LINE
8
0
10
56.0
20
80.0
30
0.0
11
60.0
21
80.0
31
0.0
0
LINE
8
0
10
60.0
20
80.0
30
0.0
11
64.0
21
80.0
31
0.0
0
LINE
8
0
10
64.0
20
80.0
30
0.0
11
68.0
21
80.0
31
0.0
0
LINE
8
0
10
68.0
20
80.0
30
0.0
11
72.0
21
80.0
31
0.0
0
LINE
8
0
10
72.0
20
80.0
30
0.0
11
76.0
21
80.0
31
0.0
0
LINE
8
0
10
76.0
20
80.0
30
0.0
11
80.0
21
80.0
31
0.0
0
LINE
8
0
10
80.0
20
80.0
30
0.0
11
84.0
21
80.0
31
0.0
0
LINE
8
0
10
84.0
20
80.0
30
0.0
11
88.0
21
80.0
31
0.0
0
LINE
8
0
10
88.0
20
80.0
30
0.0
11
92.0
21
80.0
31
0.0
0
LINE
8
0
10
92.0
20
80.0
30
0.0
11
96.0
21
80.0
31
0.0
0
LINE
8
0
10
96.0
20
80.0
30
0.0
11
100.0
21
80.0
31
0.0
0
LINE
8
0
10
100.0
20
80.0
30
0.0
11
104.0
21
80.0
31
0.0
0
LINE
8
0
10
104.0
20
80.0
30
0.0
11
108.0
21
80.0
31
0.0
0
LINE
8
0
10
108.0
20
80.0
30
0.0
11
112.0
21
80.0
31
0.0
0
LINE
8
0
10
112.0
20
80.0
30
0.0
11
116.0
21
80.0
31
0.0
0
LINE
8
0
10
116.0
20
80.0
30
0.0
11
120.0
21
80.0
31
0.0
0
LINE
8
0
10
120.0
20
80.0
30
0.0
11
124.0
21
80.0
31
0.0
0
LINE
8
0
10
124.0
20
80.0
30
0.0
11
128.0
21
80.0
31
0.0
0
LINE
8
0
10
128.0
20
80.0
30
0.0
11
132.0
21
80.0
31
0.0
0
LINE
8
0
10
132.0
20
80.0
30
0.0
11
136.0
21
80.0
31
0.0
0
LINE
8
0
10
136.0
20
80.0
30
0.0
11
140.0
21
80.0
31
0.0
0
LINE
8
0
10
140.0
20
80.0
30
0.0
11
144.0
21
80.0
31
0.0
0
LINE
8
0
10
144.0
20
80.0
30
0.0
11
148.0
21
80.0
31
0.0
0
LINE
8
0
10
148.0
20
80.0
30
0.0
11
152.0
21
80.0
31
0.0
0
LINE
8
0
10
152.0
20
80.0
30
0.0
11
156.0
21
80.0
31
0.0
0
LINE
8
0
10
156.0
20
80.0
30
0.0
11
156.0
21
84.0
31
0.0
0
LINE
8
0
10
156.0
20
84.0
30
0.0
11
152.0
21
84.0
31
0.0
0
LINE
8
0
10
152.0
20
84.0
30
0.0
11
148.0
21
84.0
31
0.0
0
LINE
8
0
10
148.0
20
84.0
30
0.0
11
144.0
21
84.0
31
0.0
0
LINE
8
0
10
144.0
20
84.0
30
0.0
11
140.0
21
84.0
31
0.0
0
LINE
8
0
10
140.0
20
84.0
30
0.0
11
136.0
21
84.0
31
0.0
0
LINE
8
0
10
136.0
20
84.0
30
0.0
11
132.0
21
84.0
31
0.0
0
LINE
8
0
10
132.0
20
84.0
30
0.0
11
128.0
21
84.0
31
0.0
0
LINE
8
0
10
128.0
20
84.0
30
0.0
11
124.0
21
84.0
31
0.0
0
LINE
8
0
10
124.0
20
84.0
30
0.0
11
120.0
21
84.0
31
0.0
0
LINE
8
0
10
120.0
20
84.0
30
0.0
11
116.0
21
84.0
31
0.0
0
LINE
8
0
10
116.0
20
84.0
30
0.0
11
112.0
21
84.0
31
0.0
0
LINE
8
0
10
112.0
20
84.0
30
0.0
11
108.0
21
84.0
31
0.0
0
LINE
8
0
10
108.0
20
84.0
30
0.0
11
104.0
21
84.0
31
0.0
0
LINE
8
0
10
104.0
20
84.0
30
0.0
11
100.0
21
84.0
31
0.0
0
LINE
8
0
10
100.0
20
84.0
30
0.0
11
96.0
21
84.0
31
0.0
0
LINE
8
0
10
96.0
20
84.0
30
0.0
11
92.0
21
84.0
31
0.0
0
LINE
8
0
10
92.0
20
84.0
30
0.0
11
88.0
21
84.0
31
0.0
0
LINE
8
0
10
88.0
20
84.0
30
0.0
11
84.0
21
84.0
31
0.0
0
LINE
8
0
10
84.0
20
84.0
30
0.0
11
80.0
21
84.0
31
0.0
0
LINE
8
0
10
80.0
20
84.0
30
0.0
11
76.0
21
84.0
31
0.0
0
LINE
8
0
10
76.0
20
84.0
30
0.0
11
72.0
21
84.0
31
0.0
0
LINE
8
0
10
72.0
20
84.0
30
0.0
11
68.0
21
84.0
31
0.0
0
LINE
8
0
10
68.0
20
84.0
30
0.0
11
64.0
21
84.0
31
0.0
0
LINE
8
0
10
64.0
20
84.0
30
0.0
11
60.0
21
84.0
31
0.0
0
LINE
8
0
10
60.0
20
84.0
30
0.0
11
56.0
21
84.0
31
0.0
0
LINE
8
0
10
56.0
20
84.0
30
0.0
11
52.0
21
84.0
31
0.0
0
LINE
8
0
10
52.0
20
84.0
30
0.0
11
48.0
21
84.0
31
0.0
0
LINE
8
0
10
48.0
20
84.0
30
0.0
11
44.0
21
84.0
31
0.0
0
LINE
8
0
10
44.0
20
84.0
30
0.0
11
40.0
21
84.0
31
0.0
0
LINE
8
0
10
40.0
20
84.0
30
0.0
11
36.0
21
84.0
31
0.0
0
LINE
8
0
10
36.0
20
84.0
30
0.0
11
32.0
21
84.0
31
0.0
0
LINE
8
0
10
32.0
20
84.0
30
0.0
11
28.0
21
84.0
31
0.0
0
LINE
8
0
10
28.0
20
84.0
30
0.0
11
24.0
21
84.0
31
0.0
0
LINE
8
0
10
24.0
20
84.0
30
0.0
11
20.0
21
84.0
31
0.0
0
LINE
8
0
10
20.0
20
84.0
30
0.0
11
16.0
21
84.0
31
0.0
0
LINE
8
0
10
16.0
20
84.0
30
0.0
11
12.0
21
84.0
31
0.0
0
LINE
8
0
10
12.0
20
84.0
30
0.0
11
8.0
21
84.0
31
0.0
0
LINE
8
0
10
8.0
20
84.0
30
0.0
11
4.0
21
84.0
31
0.0
0
LINE
8
0
10
4.0
20
84.0
30
0.0
11
0.0
21
84.0
31
0.0
0
LINE
8
0
10
0.0
20
84.0
30
0.0
11
0.0
21
88.0
31
0.0
0
LINE
8
0
10
0.0
20
88.0
30
0.0
11
4.0
21
88.0
31
0.0
0
LINE
8
0
10
4.0
20
88.0
30
0.0
11
8.0
21
88.0
31
0.0
0
LINE
8
0
10
8.0
20
88.0
30
0.0
11
12.0
21
88.0
31
0.0
0
LINE
8
0
10
12.0
20
88.0
30
0.0
11
16.0
21
88.0
31
0.0
0
LINE
8
0
10
16.0
20
88.0
30
0.0
11
20.0
21
88.0
31
0.0
0
LINE
8
0
10
20.0
20
88.0
30
0.0
11
24.0
21
88.0
31
0.0
0
LINE
8
0
10
24.0
20
88.0
30
0.0
11
28.0
21
88.0
31
0.0
0
LINE
8
0
10
28.0
20
88.0
30
0.0
11
32.0
21
88.0
31
0.0
0
LINE
8
0
10
32.0
20
88.0
30
0.0
11
36.0
21
88.0
31
0.0
0
LINE
8
0
10
36.0
20
88.0
30
0.0
11
40.0
21
88.0
31
0.0
0
LINE
8
0
10
40.0
20
88.0
30
0.0
11
44.0
21
88.0
31
0.0
0
LINE
8
0
10
44.0
20
88.0
30
0.0
11
48.0
21
88.0
31
0.0
0
LINE
8
0
10
48.0
20
88.0
30
0.0
11
52.0
21
88.0
31
0.0
0
LINE
8
0
10
52.0
20
88.0
30
0.0
11
56.0
21
88.0
31
0.0
0
LINE
8
0
10
56.0
20
88.0
30
0.0
11
60.0
21
88.0
31
0.0
0
LINE
8
0
10
60.0
20
88.0
30
0.0
11
64.0
21
88.0
31
0.0
0
LINE
8
0
10
64.0
20
88.0
30
0.0
11
68.0
21
88.0
31
0.0
0
LINE
8
0
10
68.0
20
88.0
30
0.0
11
72.0
21
88.0
31
0.0
0
LINE
8
0
10
72.0
20
88.0
30
0.0
11
76.0
21
88.0
31
0.0
0
LINE
8
0
10
76.0
20
88.0
30
0.0
11
80.0
21
88.0
31
0.0
0
LINE
8
0
10
80.0
20
88.0
30
0.0
11
84.0
21
88.0
31
0.0
0
LINE
8
0
10
84.0
20
88.0
30
0.0
11
88.0
21
88.0
31
0.0
0
LINE
8
0
10
88.0
20
88.0
30
0.0
11
92.0
21
88.0
31
0.0
0
LINE
8
0
10
92.0
20
88.0
30
0.0
11
96.0
21
88.0
31
0.0
0
LINE
8
0
10
96.0
20
88.0
30
0.0
11
100.0
21
88.0
31
0.0
0
LINE
8
0
10
100.0
20
88.0
30
0.0
11
104.0
21
88.0
31
0.0
0
LINE
8
0
10
104.0
20
88.0
30
0.0
11
108.0
21
88.0
31
0.0
0
LINE
8
0
10
108.0
20
88.0
30
0.0
11
112.0
21
88.0
31
0.0
0
LINE
8
0
10
112.0
20
88.0
30
0.0
11
116.0
21
88.0
31
0.0
0
LINE
8
0
10
116.0
20
88.0
30
0.0
11
120.0
21
88.0
31
0.0
0
LINE
8
0
10
120.0
20
88.0
30
0.0
11
124.0
21
88.0
31
0.0
0
LINE
8
0
10
124.0
20
88.0
30
0.0
11
128.0
21
88.0
31
0.0
0
LINE
8
0
10
128.0
20
88.0
30
0.0
11
132.0
21
88.0
31
0.0
0
LINE
8
0
10
132.0
20
88.0
30
0.0
11
136.0
21
88.0
31
0.0
0
LINE
8
0
10
136.0
20
88.0
30
0.0
11
140.0
21
88.0
31
0.0
0
LINE
8
0
10
140.0
20
88.0
30
0.0
11
144.0
21
88.0
31
0.0
0
LINE
8
0
10
144.0
20
88.0
30
0.0
11
148.0
21
88.0
31
0.0
0
LINE
8
0
10
148.0
20
88.0
30
0.0
11
152.0
21
88.0
31
0.0
0
LINE
8
0
10
152.0
20
88.0
30
0.0
11
156.0
21
88.0
31
0.0
0
LINE
8
0
10
156.0
20
88.0
30
0.0
11
156.0
21
92.0
31
0.0
0
LINE
8
0
10
156.0
20
92.0
30
0.0
11
152.0
21
92.0
31
0.0
0
LINE
8
0
10
152.0
20
92.0
30
0.0
11
148.0
21
92.0
31
0.0
0
LINE
8
0
10
148.0
20
92.0
30
0.0
11
144.0
21
92.0
31
0.0
0
LINE
8
0
10
144.0
20
92.0
30
0.0
11
140.0
21
92.0
31
0.0
0
LINE
8
0
10
140.0
20
92.0
30
0.0
11
136.0
21
92.0
31
0.0
0
LINE
8
0
10
136.0
20
92.0
30
0.0
11
132.0
21
92.0
31
0.0
0
LINE
8
0
10
132.0
20
92.0
30
0.0
11
128.0
21
92.0
31
0.0
0
LINE
8
0
10
128.0
20
92.0
30
0.0
11
124.0
21
92.0
31
0.0
0
LINE
8
0
10
124.0
20
92.0
30
0.0
11
120.0
21
92.0
31
0.0
0
LINE
8
0
10
120.0
20
92.0
30
0.0
11
116.0
21
92.0
31
0.0
0
LINE
8
0
10
116.0
20
92.0
30
0.0
11
112.0
21
92.0
31
0.0
0
LINE
8
0
10
112.0
20
92.0
30
0.0
11
108.0
21
92.0
31
0.0
0
LINE
8
0
10
108.0
20
92.0
30
0.0
11
104.0
21
92.0
31
0.0
0
LINE
8
0
10
104.0
20
92.0
30
0.0
11
100.0
21
92.0
31
0.0
0
LINE
8
0
10
100.0
20
92.0
30
0.0
11
96.0
21
92.0
31
0.0
0
LINE
8
0
10
96.0
20
92.0
30
0.0
11
92.0
21
92.0
31
0.0
0
LINE
8
0
10
92.0
20
92.0
30
0.0
11
88.0
21
92.0
31
0.0
0
LINE
8
0
10
88.0
20
92.0
30
0.0
11
84.0
21
92.0
31
0.0
0
LINE
8
0
10
84.0
20
92.0
30
0.0
11
80.0
21
92.0
31
0.0
0
LINE
8
0
10
80.0
20
92.0
30
0.0
11
76.0
21
92.0
31
0.0
0
LINE
8
0
10
76.0
20
92.0
30
0.0
11
72.0
21
92.0
31
0.0
0
LINE
8
0
10
72.0
20
92.0
30
0.0
11
68.0
21
92.0
31
0.0
0
LINE
8
0
10
68.0
20
92.0
30
0.0
11
64.0
21
92.0
31
0.0
0
LINE
8
0
10
64.0
20
92.0
30
0.0
11
60.0
21
92.0
31
0.0
0
LINE
8
0
10
60.0
20
92.0
30
0.0
11
56.0
21
92.0
31
0.0
0
LINE
8
0
10
56.0
20
92.0
30
0.0
11
52.0
21
92.0
31
0.0
0
LINE
8
0
10
52.0
20
92.0
30
0.0
11
48.0
21
92.0
31
0.0
0
LINE
8
0
10
48.0
20
92.0
30
0.0
11
44.0
21
92.0
31
0.0
0
LINE
8
0
10
44.0
20
92.0
30
0.0
11
40.0
21
92.0
31
0.0
0
LINE
8
0
10
40.0
20
92.0
30
0.0
11
36.0
21
92.0
31
0.0
0
LINE
8
0
10
36.0
20
92.0
30
0.0
11
32.0
21
92.0
31
0.0
0
LINE
8
0
10
32.0
20
92.0
30
0.0
11
28.0
21
92.0
31
0.0
0
LINE
8
0
10
28.0
20
92.0
30
0.0
11
24.0
21
92.0
31
0.0
0
LINE
8
0
10
24.0
20
92.0
30
0.0
11
20.0
21
92.0
31
0.0
0
LINE
8
0
10
20.0
20
92.0
30
0.0
11
16.0
21
92.0
31
0.0
0
LINE
8
0
10
16.0
20
92.0
30
0.0
11
12.0
21
92.0
31
0.0
0
LINE
8
0
10
12.0
20
92.0
30
0.0
11
8.0
21
92.0
31
0.0
0
LINE
8
0
10
8.0
20
92.0
30
0.0
11
4.0
21
92.0
31
0.0
0
LINE
8
0
10
4.0
20
92.0
30
0.0
11
0.0
21
92.0
31
0.0
0
LINE
8
0
10
0.0
20
92.0
30
0.0
11
0.0
21
96.0
31
0.0
0
LINE
8
0
10
0.0
20
96.0
30
0.0
11
4.0
21
96.0
31
0.0
0
LINE
8
0
10
4.0
20
96.0
30
0.0
11
8.0
21
96.0
31
0.0
0
LINE
8
0
10
8.0
20
96.0
30
0.0
11
12.0
21
96.0
31
0.0
0
LINE
8
0
10
12.0
20
96.0
30
0.0
11
16.0
21
96.0
31
0.0
0
LINE
8
0
10
16.0
20
96.0
30
0.0
11
20.0
21
96.0
31
0.0
0
LINE
8
0
10
20.0
20
96.0
30
0.0
11
24.0
21
96.0
31
0.0
0
LINE
8
0
10
24.0
20
96.0
30
0.0
11
28.0
21
96.0
31
0.0
0
LINE
8
0
10
28.0
20
96.0
30
0.0
11
32.0
21
96.0
31
0.0
0
LINE
8
0
10
32.0
20
96.0
30
0.0
11
36.0
21
96.0
31
0.0
0
LINE
8
0
10
36.0
20
96.0
30
0.0
11
40.0
21
96.0
31
0.0
0
LINE
8
0
10
40.0
20
96.0
30
0.0
11
44.0
21
96.0
31
0.0
0
LINE
8
0
10
44.0
20
96.0
30
0.0
11
48.0
21
96.0
31
0.0
0
LINE
8
0
10
48.0
20
96.0
30
0.0
11
52.0
21
96.0
31
0.0
0
LINE
8
0
10
52.0
20
96.0
30
0.0
11
56.0
21
96.0
31
0.0
0
LINE
8
0
10
56.0
20
96.0
30
0.0
11
60.0
21
96.0
31
0.0
0
LINE
8
0
10
60.0
20
96.0
30
0.0
11
64.0
21
96.0
31
0.0
0
LINE
8
0
10
64.0
20
96.0
30
0.0
11
68.0
21
96.0
31
0.0
0
LINE
8
0
10
68.0
20
96.0
30
0.0
11
72.0
21
96.0
31
0.0
0
LINE
8
0
10
72.0
20
96.0
30
0.0
11
76.0
21
96.0
31
0.0
0
LINE
8
0
10
76.0
20
96.0
30
0.0
11
80.0
21
96.0
31
0.0
0
LINE
8
0
10
80.0
20
96.0
30
0.0
11
84.0
21
96.0
31
0.0
0
LINE
8
0
10
84.0
20
96.0
30
0.0
11
88.0
21
96.0
31
0.0
0
LINE
8
0
10
88.0
20
96.0
30
0.0
11
92.0
21
96.0
31
0.0
0
LINE
8
0
10
92.0
20
96.0
30
0.0
11
96.0
21
96.0
31
0.0
0
LINE
8
0
10
96.0
20
96.0
30
0.0
11
100.0
21
96.0
31
0.0
0
LINE
8
0
10
100.0
20
96.0
30
0.0
11
104.0
21
96.0
31
0.0
0
LINE
8
0
10
104.0
20
96.0
30
0.0
11
108.0
21
96.0
31
0.0
0
LINE
8
0
10
108.0
20
96.0
30
0.0
11
112.0
21
96.0
31
0.0
0
LINE
8
0
10
112.0
20
96.0
30
0.0
11
116.0
21
96.0
31
0.0
0
LINE
8
0
10
116.0
20
96.0
30
0.0
11
120.0
21
96.0
31
0.0
0
LINE
8
0
10
120.0
20
96.0
30
0.0
11
124.0
21
96.0
31
0.0
0
LINE
8
0
10
124.0
20
96.0
30
0.0
11
128.0
21
96.0
31
0.0
0
LINE
8
0
10
128.0
20
96.0
30
0.0
11
132.0
21
96.0
31
0.0
0
LINE
8
0
10
132.0
20
96.0
30
0.0
11
136.0
21
96.0
31
0.0
0
LINE
8
0
10
136.0
20
96.0
30
0.0
11
140.0
21
96.0
31
0.0
0
LINE
8
0
10
140.0
20
96.0
30
0.0
11
144.0
21
96.0
31
0.0
0
LINE
8
0
10
144.0
20
96.0
30
0.0
11
148.0
21
96.0
31
0.0
0
LINE
8
0
10
148.0
20
96.0
30
0.0
11
152.0
21
96.0
31
0.0
0
LINE
8
0
10
152.0
20
96.0
30
0.0
11
156.0
21
96.0
31
0.0
0
LINE
8
0
10
156.0
20
96.0
30
0.0
11
156.0
21
100.0
31
0.0
0
LINE
8
0
10
156.0
20
100.0
30
0.0
11
152.0
21
100.0
31
0.0
0
LINE
8
0
10
152.0
20
100.0
30
0.0
11
148.0
21
100.0
31
0.0
0
LINE
8
0
10
148.0
20
100.0
30
0.0
11
144.0
21
100.0
31
0.0
0
LINE
8
0
10
144.0
20
100.0
30
0.0
11
140.0
21
100.0
31
0.0
0
LINE
8
0
10
140.0
20
100.0
30
0.0
11
136.0
21
100.0
31
0.0
0
LINE
8
0
10
136.0
20
100.0
30
0.0
11
132.0
21
100.0
31
0.0
0
LINE
8
0
10
132.0
20
100.0
30
0.0
11
128.0
21
100.0
31
0.0
0
LINE
8
0
10
128.0
20
100.0
30
0.0
11
124.0
21
100.0
31
0.0
0
LINE
8
0
10
124.0
20
100.0
30
0.0
11
120.0
21
100.0
31
0.0
0
LINE
8
0
10
120.0
20
100.0
30
0.0
11
116.0
21
100.0
31
0.0
0
LINE
8
0
10
116.0
20
100.0
30
0.0
11
112.0
21
100.0
31
0.0
0
LINE
8
0
10
112.0
20
100.0
30
0.0
11
108.0
21
100.0
31
0.0
0
LINE
8
0
10
108.0
20
100.0
30
0.0
11
104.0
21
100.0
31
0.0
0
LINE
8
0
10
104.0
20
100.0
30
0.0
11
100.0
21
100.0
31
0.0
0
LINE
8
0
10
100.0
20
100.0
30
0.0
11
96.0
21
100.0
31
0.0
0
LINE
8
0
10
96.0
20
100.0
30
0.0
11
92.0
21
100.0
31
0.0
0
LINE
8
0
10
92.0
20
100.0
30
0.0
11
88.0
21
100.0
31
0.0
0
LINE
8
0
10
88.0
20
100.0
30
0.0
11
84.0
21
100.0
31
0.0
0
LINE
8
0
10
84.0
20
100.0
30
0.0
11
80.0
21
100.0
31
0.0
0
LINE
8
0
10
80.0
20
100.0
30
0.0
11
76.0
21
100.0
31
0.0
0
LINE
8
0
10
76.0
20
100.0
30
0.0
11
72.0
21
100.0
31
0.0
0
LINE
8
0
10
72.0
20
100.0
30
0.0
11
68.0
21
100.0
31
0.0
0
LINE
8
0
10
68.0
20
100.0
30
0.0
11
64.0
21
100.0
31
0.0
0
LINE
8
0
10
64.0
20
100.0
30
0.0
11
60.0
21
100.0
31
0.0
0
LINE
8
0
10
60.0
20
100.0
30
0.0
11
56.0
21
100.0
31
0.0
0
LINE
8
0
10
56.0
20
100.0
30
0.0
11
52.0
21
100.0
31
0.0
0
LINE
8
0
10
52.0
20
100.0
30
0.0
11
48.0
21
100.0
31
0.0
0
LINE
8
0
10
48.0
20
100.0
30
0.0
11
44.0
21
100.0
31
0.0
0
LINE
8
0
10
44.0
20
100.0
30
0.0
11
40.0
21
100.0
31
0.0
0
LINE
8
0
10
40.0
20
100.0
30
0.0
11
36.0
21
100.0
31
0.0
0
LINE
8
0
10
36.0
20
100.0
30
0.0
11
32.0
21
100.0
31
0.0
0
LINE
8
0
10
32.0
20
100.0
30
0.0
11
28.0
21
100.0
31
0.0
0
LINE
8
0
10
28.0
20
100.0
30
0.0
11
24.0
21
100.0
31
0.0
0
LINE
8
0
10
24.0
20
100.0
30
0.0
11
20.0
21
100.0
31
0.0
0
LINE
8
0
10
20.0
20
100.0
30
0.0
11
16.0
21
100.0
31
0.0
0
LINE
8
0
10
16.0
20
100.0
30
0.0
11
12.0
21
100.0
31
0.0
0
LINE
8
0
10
12.0
20
100.0
30
0.0
11
8.0
21
100.0
31
0.0
0
LINE
8
0
10
8.0
20
100.0
30
0.0
11
4.0
21
100.0
31
0.0
0
LINE
8
0
10
4.0
20
100.0
30
0.0
11
0.0
21
100.0
31
0.0
0
LINE
8
0
10
0.0
20
100.0
30
0.0
11
0.0
21
104.0
31
0.0
0
LINE
8
0
10
0.0
20
104.0
30
0.0
11
4.0
21
104.0
31
0.0
0
LINE
8
0
10
4.0
20
104.0
30
0.0
11
8.0
21
104.0
31
0.0
0
LINE
8
0
10
8.0
20
104.0
30
0.0
11
12.0
21
104.0
31
0.0
0
LINE
8
0
10
12.0
20
104.0
30
0.0
11
16.0
21
104.0
31
0.0
0
LINE
8
0
10
16.0
20
104.0
30
0.0
11
20.0
21
104.0
31
0.0
0
LINE
8
0
10
20.0
20
104.0
30
0.0
11
24.0
21
104.0
31
0.0
0
LINE
8
0
10
24.0
20
104.0
30
0.0
11
28.0
21
104.0
31
0.0
0
LINE
8
0
10
28.0
20
104.0
30
0.0
11
32.0
21
104.0
31
0.0
0
LINE
8
0
10
32.0
20
104.0
30
0.0
11
36.0
21
104.0
31
0.0
0
LINE
8
0
10
36.0
20
104.0
30
0.0
11
40.0
21
104.0
31
0.0
0
LINE
8
0
10
40.0
20
104.0
30
0.0
11
44.0
21
104.0
31
0.0
0
LINE
8
0
10
44.0
20
104.0
30
0.0
11
48.0
21
104.0
31
0.0
0
LINE
8
0
10
48.0
20
104.0
30
0.0
11
52.0
21
104.0
31
0.0
0
LINE
8
0
10
52.0
20
104.0
30
0.0
11
56.0
21
104.0
31
0.0
0
LINE
8
0
10
56.0
20
104.0
30
0.0
11
60.0
21
104.0
31
0.0
0
LINE
8
0
10
60.0
20
104.0
30
0.0
11
64.0
21
104.0
31
0.0
0
LINE
8
0
10
64.0
20
104.0
30
0.0
11
68.0
21
104.0
31
0.0
0
LINE
8
0
10
68.0
20
104.0
30
0.0
11
72.0
21
104.0
31
0.0
0
LINE
8
0
10
72.0
20
104.0
30
0.0
11
76.0
21
104.0
31
0.0
0
LINE
8
0
10
76.0
20
104.0
30
0.0
11
80.0
21
104.0
31
0.0
0
LINE
8
0
10
80.0
20
104.0
30
0.0
11
84.0
21
104.0
31
0.0
0
LINE
8
0
10
84.0
20
104.0
30
0.0
11
88.0
21
104.0
31
0.0
0
LINE
8
0
10
88.0
20
104.0
30
0.0
11
92.0
21
104.0
31
0.0
0
LINE
8
0
10
92.0
20
104.0
30
0.0
11
96.0
21
104.0
31
0.0
0
LINE
8
0
10
96.0
20
104.0
30
0.0
11
100.0
21
104.0
31
0.0
0
LINE
8
0
10
100.0
20
104.0
30
0.0
11
104.0
21
104.0
31
0.0
0
LINE
8
0
10
104.0
20
104.0
30
0.0
11
108.0
21
104.0
31
0.0
0
LINE
8
0
10
108.0
20
104.0
30
0.0
11
112.0
21
104.0
31
0.0
0
LINE
8
0
10
112.0
20
104.0
30
0.0
11
116.0
21
104.0
31
0.0
0
LINE
8
0
10
116.0
20
104.0
30
0.0
11
120.0
21
104.0
31
0.0
0
LINE
8
0
10
120.0
20
104.0
30
0.0
11
124.0
21
104.0
31
0.0
0
LINE
8
0
10
124.0
20
104.0
30
0.0
11
128.0
21
104.0
31
0.0
0
LINE
8
0
10
128.0
20
104.0
30
0.0
11
132.0
21
104.0
31
0.0
0
LINE
8
0
10
132.0
20
104.0
30
0.0
11
136.0
21
104.0
31
0.0
0
LINE
8
0
10
136.0
20
104.0
30
0.0
11
140.0
21
104.0
31
0.0
0
LINE
8
0
10
140.0
20
104.0
30
0.0
11
144.0
21
104.0
31
0.0
0
LINE
8
0
10
144.0
20
104.0
30
0.0
11
148.0
21
104.0
31
0.0
0
LINE
8
0
10
148.0
20
104.0
30
0.0
11
152.0
21
104.0
31
0.0
0
LINE
8
0
10
152.0
20
104.0
30
0.0
11
156.0
21
104.0
31
0.0
0
LINE
8
0
10
156.0
20
104.0
30
0.0
11
156.0
21
108.0
31
0.0
0
LINE
8
0
10
156.0
20
108.0
30
0.0
11
152.0
21
108.0
31
0.0
0
LINE
8
0
10
152.0
20
108.0
30
0.0
11
148.0
21
108.0
31
0.0
0
LINE
8
0
10
148.0
20
108.0
30
0.0
11
144.0
21
108.0
31
0.0
0
LINE
8
0
10
144.0
20
108.0
30
0.0
11
140.0
21
108.0
31
0.0
0
LINE
8
0
10
140.0
20
108.0
30
0.0
11
136.0
21
108.0
31
0.0
0
LINE
8
0
10
136.0
20
108.0
30
0.0
11
132.0
21
108.0
31
0.0
0
LINE
8
0
10
132.0
20
108.0
30
0.0
11
128.0
21
108.0
31
0.0
0
LINE
8
0
10
128.0
20
108.0
30
0.0
11
124.0
21
108.0
31
0.0
0
LINE
8
0
10
124.0
20
108.0
30
0.0
11
120.0
21
108.0
31
0.0
0
LINE
8
0
10
120.0
20
108.0
30
0.0
11
116.0
21
108.0
31
0.0
0
LINE
8
0
10
116.0
20
108.0
30
0.0
11
112.0
21
108.0
31
0.0
0
LINE
8
0
10
112.0
20
108.0
30
0.0
11
108.0
21
108.0
31
0.0
0
LINE
8
0
10
108.0
20
108.0
30
0.0
11
104.0
21
108.0
31
0.0
0
LINE
8
0
10
104.0
20
108.0
30
0.0
11
100.0
21
108.0
31
0.0
0
LINE
8
0
10
100.0
20
108.0
30
0.0
11
96.0
21
108.0
31
0.0
0
LINE
8
0
10
96.0
20
108.0
30
0.0
11
92.0
21
108.0
31
0.0
0
LINE
8
0
10
92.0
20
108.0
30
0.0
11
88.0
21
108.0
31
0.0
0
LINE
8
0
10
88.0
20
108.0
30
0.0
11
84.0
21
108.0
31
0.0
0
LINE
8
0
10
84.0
20
108.0
30
0.0
11
80.0
21
108.0
31
0.0
0
LINE
8
0
10
80.0
20
108.0
30
0.0
11
76.0
21
108.0
31
0.0
0
LINE
8
0
10
76.0
20
108.0
30
0.0
11
72.0
21
108.0
31
0.0
0
LINE
8
0
10
72.0
20
108.0
30
0.0
11
68.0
21
108.0
31
0.0
0
LINE
8
0
10
68.0
20
108.0
30
0.0
11
64.0
21
108.0
31
0.0
0
LINE
8
0
10
64.0
20
108.0
30
0.0
11
60.0
21
108.0
31
0.0
0
LINE
8
0
10
60.0
20
108.0
30
0.0
11
56.0
21
108.0
31
0.0
0
LINE
8
0
10
56.0
20
108.0
30
0.0
11
52.0
21
108.0
31
0.0
0
LINE
8
0
10
52.0
20
108.0
30
0.0
11
48.0
21
108.0
31
0.0
0
LINE
8
0
10
48.0
20
108.0
30
0.0
11
44.0
21
108.0
31
0.0
0
LINE
8
0
10
44.0
20
108.0
30
0.0
11
40.0
21
108.0
31
0.0
0
LINE
8
0
10
40.0
20
108.0
30
0.0
11
36.0
21
108.0
31
0.0
0
LINE
8
0
10
36.0
20
108.0
30
0.0
11
32.0
21
108.0
31
0.0
0
LINE
8
0
10
32.0
20
108.0
30
0.0
11
28.0
21
108.0
31
0.0
0
LINE
8
0
10
28.0
20
108.0
30
0.0
11
24.0
21
108.0
31
0.0
0
LINE
8
0
10
24.0
20
108.0
30
0.0
11
20.0
21
108.0
31
0.0
0
LINE
8
0
10
20.0
20
108.0
30
0.0
11
16.0
21
108.0
31
0.0
0
LINE
8
0
10
16.0
20
108.0
30
0.0
11
12.0
21
108.0
31
0.0
0
LINE
8
0
10
12.0
20
108.0
30
0.0
11
8.0
21
108.0
31
0.0
0
LINE
8
0
10
8.0
20
108.0
30
0.0
11
4.0
21
108.0
31
0.0
0
LINE
8
0
10
4.0
20
108.0
30
0.0
11
0.0
21
108.0
31
0.0
0
LINE
8
0
10
0.0
20
108.0
30
0.0
11
0.0
21
112.0
31
0.0
0
LINE
8
0
10
0.0
20
112.0
30
0.0
11
4.0
21
112.0
31
0.0
0
LINE
8
0
10
4.0
20
112.0
30
0.0
11
8.0
21
112.0
31
0.0
0
LINE
8
0
10
8.0
20
112.0
30
0.0
11
12.0
21
112.0
31
0.0
0
LINE
8
0
10
12.0
20
112.0
30
0.0
11
16.0
21
112.0
31
0.0
0
LINE
8
0
10
16.0
20
112.0
30
0.0
11
20.0
21
112.0
31
0.0
0
LINE
8
0
10
20.0
20
112.0
30
0.0
11
24.0
21
112.0
31
0.0
0
LINE
8
0
10
24.0
20
112.0
30
0.0
11
28.0
21
112.0
31
0.0
0
LINE
8
0
10
28.0
20
112.0
30
0.0
11
32.0
21
112.0
31
0.0
0
LINE
8
0
10
32.0
20
112.0
30
0.0
11
36.0
21
112.0
31
0.0
0
LINE
8
0
10
36.0
20
112.0
30
0.0
11
40.0
21
112.0
31
0.0
0
LINE
8
0
10
40.0
20
112.0
30
0.0
11
44.0
21
112.0
31
0.0
0
LINE
8
0
10
44.0
20
112.0
30
0.0
11
48.0
21
112.0
31
0.0
0
LINE
8
0
10
48.0
20
112.0
30
0.0
11
52.0
21
112.0
31
0.0
0
LINE
8
0
10
52.0
20
112.0
30
0.0
11
56.0
21
112.0
31
0.0
0
LINE
8
0
10
56.0
20
112.0
30
0.0
11
60.0
21
112.0
31
0.0
0
LINE
8
0
10
60.0
20
112.0
30
0.0
11
64.0
21
112.0
31
0.0
0
LINE
8
0
10
64.0
20
112.0
30
0.0
11
68.0
21
112.0
31
0.0
0
LINE
8
0
10
68.0
20
112.0
30
0.0
11
72.0
21
112.0
31
0.0
0
LINE
8
0
10
72.0
20
112.0
30
0.0
11
76.0
21
112.0
31
0.0
0
LINE
8
0
10
76.0
20
112.0
30
0.0
11
80.0
21
112.0
31
0.0
0
LINE
8
0
10
80.0
20
112.0
30
0.0
11
84.0
21
112.0
31
0.0
0
LINE
8
0
10
84.0
20
112.0
30
0.0
11
88.0
21
112.0
31
0.0
0
LINE
8
0
10
88.0
20
112.0
30
0.0
11
92.0
21
112.0
31
0.0
0
LINE
8
0
10
92.0
20
112.0
30
0.0
11
96.0
21
112.0
31
0.0
0
LINE
8
0
10
96.0
20
112.0
30
0.0
11
100.0
21
112.0
31
0.0
0
LINE
8
0
10
100.0
20
112.0
30
0.0
11
104.0
21
112.0
31
0.0
0
LINE
8
0
10
104.0
20
112.0
30
0.0
11
108.0
21
112.0
31
0.0
0
LINE
8
0
10
108.0
20
112.0
30
0.0
11
112.0
21
112.0
31
0.0
0
LINE
8
0
10
112.0
20
112.0
30
0.0
11
116.0
21
112.0
31
0.0
0
LINE
8
0
10
116.0
20
112.0
30
0.0
11
120.0
21
112.0
31
0.0
0
LINE
8
0
10
120.0
20
112.0
30
0.0
11
124.0
21
112.0
31
0.0
0
LINE
8
0
10
124.0
20
112.0
30
0.0
11
128.0
21
112.0
31
0.0
0
LINE
8
0
10
128.0
20
112.0
30
0.0
11
132.0
21
112.0
31
0.0
0
LINE
8
0
10
132.0
20
112.0
30
0.0
11
136.0
21
112.0
31
0.0
0
LINE
8
0
10
136.0
20
112.0
30
0.0
11
140.0
21
112.0
31
0.0
0
LINE
8
0
10
140.0
20
112.0
30
0.0
11
144.0
21
112.0
31
0.0
0
LINE
8
0
10
144.0
20
112.0
30
0.0
11
148.0
21
112.0
31
0.0
0
LINE
8
0
10
148.0
20
112.0
30
0.0
11
152.0
21
112.0
31
0.0
0
LINE
8
0
10
152.0
20
112.0
30
0.0
11
156.0
21
112.0
31
0.0
0
LINE
8
0
10
156.0
20
112.0
30
0.0
11
156.0
21
116.0
31
0.0
0
LINE
8
0
10
156.0
20
116.0
30
0.0
11
152.0
21
116.0
31
0.0
0
LINE
8
0
10
152.0
20
116.0
30
0.0
11
148.0
21
116.0
31
0.0
0
LINE
8
0
10
148.0
20
116.0
30
0.0
11
144.0
21
116.0
31
0.0
0
LINE
8
0
10
144.0
20
116.0
30
0.0
11
140.0
21
116.0
31
0.0
0
LINE
8
0
10
140.0
20
116.0
30
0.0
11
136.0
21
116.0
31
0.0
0
LINE
8
0
10
136.0
20
116.0
30
0.0
11
132.0
21
116.0
31
0.0
0
LINE
8
0
10
132.0
20
116.0
30
0.0
11
128.0
21
116.0
31
0.0
0
LINE
8
0
10
128.0
20
116.0
30
0.0
11
124.0
21
116.0
31
0.0
0
LINE
8
0
10
124.0
20
116.0
30
0.0
11
120.0
21
116.0
31
0.0
0
LINE
8
0
10
120.0
20
116.0
30
0.0
11
116.0
21
116.0
31
0.0
0
LINE
8
0
10
116.0
20
116.0
30
0.0
11
112.0
21
116.0
31
0.0
0
LINE
8
0
10
112.0
20
116.0
30
0.0
11
108.0
21
116.0
31
0.0
0
LINE
8
0
10
108.0
20
116.0
30
0.0
11
104.0
21
116.0
31
0.0
0
LINE
8
0
10
104.0
20
116.0
30
0.0
11
100.0
21
116.0
31
0.0
0
LINE
8
0
10
100.0
20
116.0
30
0.0
11
96.0
21
116.0
31
0.0
0
LINE
8
0
10
96.0
20
116.0
30
0.0
11
92.0
21
116.0
31
0.0
0
LINE
8
0
10
92.0
20
116.0
30
0.0
11
88.0
21
116.0
31
0.0
0
LINE
8
0
10
88.0
20
116.0
30
0.0
11
84.0
21
116.0
31
0.0
0
LINE
8
0
10
84.0
20
116.0
30
0.0
11
80.0
21
116.0
31
0.0
0
LINE
8
0
10
80.0
20
116.0
30
0.0
11
76.0
21
116.0
31
0.0
0
LINE
8
0
10
76.0
20
116.0
30
0.0
11
72.0
21
116.0
31
0.0
0
LINE
8
0
10
72.0
20
116.0
30
0.0
11
68.0
21
116.0
31
0.0
0
LINE
8
0
10
68.0
20
116.0
30
0.0
11
64.0
21
116.0
31
0.0
0
LINE
8
0
10
64.0
20
116.0
30
0.0
11
60.0
21
116.0
31
0.0
0
LINE
8
0
10
60.0
20
116.0
30
0.0
11
56.0
21
116.0
31
0.0
0
LINE
8
0
10
56.0
20
116.0
30
0.0
11
52.0
21
116.0
31
0.0
0
LINE
8
0
10
52.0
20
116.0
30
0.0
11
48.0
21
116.0
31
0.0
0
LINE
8
0
10
48.0
20
116.0
30
0.0
11
44.0
21
116.0
31
0.0
0
LINE
8
0
10
44.0
20
116.0
30
0.0
11
40.0
21
116.0
31
0.0
0
LINE
8
0
10
40.0
20
116.0
30
0.0
11
36.0
21
116.0
31
0.0
0
LINE
8
0
10
36.0
20
116.0
30
0.0
11
32.0
21
116.0
31
0.0
0
LINE
8
0
10
32.0
20
116.0
30
0.0
11
28.0
21
116.0
31
0.0
0
LINE
8
0
10
28.0
20
116.0
30
0.0
11
24.0
21
116.0
31
0.0
0
LINE
8
0
10
24.0
20
116.0
30
0.0
11
20.0
21
116.0
31
0.0
0
LINE
8
0
10
20.0
20
116.0
30
0.0
11
16.0
21
116.0
31
0.0
0
LINE
8
0
10
16.0
20
116.0
30
0.0
11
12.0
21
116.0
31
0.0
0
LINE
8
0
10
12.0
20
116.0
30
0.0
11
8.0
21
116.0
31
0.0
0
LINE
8
0
10
8.0
20
116.0
30
0.0
11
4.0
21
116.0
31
0.0
0
LINE
8
0
10
4.0
20
116.0
30
0.0
11
0.0
21
116.0
31
0.0
0
LINE
8
0
10
0.0
20
116.0
30
0.0
11
0.0
21
120.0
31
0.0
0
LINE
8
0
10
0.0
20
120.0
30
0.0
11
4.0
21
120.0
31
0.0
0
LINE
8
0
10
4.0
20
120.0
30
0.0
11
8.0
21
120.0
31
0.0
0
LINE
8
0
10
8.0
20
120.0
30
0.0
11
12.0
21
120.0
31
0.0
0
LINE
8
0
10
12.0
20
120.0
30
0.0
11
16.0
21
120.0
31
0.0
0
LINE
8
0
10
16.0
20
120.0
30
0.0
11
20.0
21
120.0
31
0.0
0
LINE
8
0
10
20.0
20
120.0
30
0.0
11
24.0
21
120.0
31
0.0
0
LINE
8
0
10
24.0
20
120.0
30
0.0
11
28.0
21
120.0
31
0.0
0
LINE
8
0
10
28.0
20
120.0
30
0.0
11
32.0
21
120.0
31
0.0
0
LINE
8
0
10
32.0
20
120.0
30
0.0
11
36.0
21
120.0
31
0.0
0
LINE
8
0
10
36.0
20
120.0
30
0.0
11
40.0
21
120.0
31
0.0
0
LINE
8
0
10
40.0
20
120.0
30
0.0
11
44.0
21
120.0
31
0.0
0
LINE
8
0
10
44.0
20
120.0
30
0.0
11
48.0
21
120.0
31
0.0
0
LINE
8
0
10
48.0
20
120.0
30
0.0
11
52.0
21
120.0
31
0.0
0
LINE
8
0
10
52.0
20
120.0
30
0.0
11
56.0
21
120.0
31
0.0
0
LINE
8
0
10
56.0
20
120.0
30
0.0
11
60.0
21
120.0
31
0.0
0
LINE
8
0
10
60.0
20
120.0
30
0.0
11
64.0
21
120.0
31
0.0
0
LINE
8
0
10
64.0
20
120.0
30
0.0
11
68.0
21
120.0
31
0.0
0
LINE
8
0
10
68.0
20
120.0
30
0.0
11
72.0
21
120.0
31
0.0
0
LINE
8
0
10
72.0
20
120.0
30
0.0
11
76.0
21
120.0
31
0.0
0
LINE
8
0
10
76.0
20
120.0
30
0.0
11
80.0
21
120.0
31
0.0
0
LINE
8
0
10
80.0
20
120.0
30
0.0
11
84.0
21
120.0
31
0.0
0
LINE
8
0
10
84.0
20
120.0
30
0.0
11
88.0
21
120.0
31
0.0
0
LINE
8
0
10
88.0
20
120.0
30
0.0
11
92.0
21
120.0
31
0.0
0
LINE
8
0
10
92.0
20
120.0
30
0.0
11
96.0
21
120.0
31
0.0
0
LINE
8
0
10
96.0
20
120.0
30
0.0
11
100.0
21
120.0
31
0.0
0
LINE
8
0
10
100.0
20
120.0
30
0.0
11
104.0
21
120.0
31
0.0
0
LINE
8
0
10
104.0
20
120.0
30
0.0
11
108.0
21
120.0
31
0.0
0
LINE
8
0
10
108.0
20
120.0
30
0.0
11
112.0
21
120.0
31
0.0
0
LINE
8
0
10
112.0
20
120.0
30
0.0
11
116.0
21
120.0
31
0.0
0
LINE
8
0
10
116.0
20
120.0
30
0.0
11
120.0
21
120.0
31
0.0
0
LINE
8
0
10
120.0
20
120.0
30
0.0
11
124.0
21
120.0
31
0.0
0
LINE
8
0
10
124.0
20
120.0
30
0.0
11
128.0
21
120.0
31
0.0
0
LINE
8
0
10
128.0
20
120.0
30
0.0
11
132.0
21
120.0
31
0.0
0
LINE
8
0
10
132.0
20
120.0
30
0.0
11
136.0
21
120.0
31
0.0
0
LINE
8
0
10
136.0
20
120.0
30
0.0
11
140.0
21
120.0
31
0.0
0
LINE
8
0
10
140.0
20
120.0
30
0.0
11
144.0
21
120.0
31
0.0
0
LINE
8
0
10
144.0
20
120.0
30
0.0
11
148.0
21
120.0
31
0.0
0
LINE
8
0
10
148.0
20
120.0
30
0.0
11
152.0
21
120.0
31
0.0
0
LINE
8
0
10
152.0
20
120.0
30
0.0
11
156.0
21
120.0
31
0.0
0
LINE
8
0
10
156.0
20
120.0
30
0.0
11
156.0
21
124.0
31
0.0
0
LINE
8
0
10
156.0
20
124.0
30
0.0
11
152.0
21
124.0
31
0.0
0
LINE
8
0
10
152.0
20
124.0
30
0.0
11
148.0
21
124.0
31
0.0
0
LINE
8
0
10
148.0
20
124.0
30
0.0
11
144.0
21
124.0
31
0.0
0
LINE
8
0
10
144.0
20
124.0
30
0.0
11
140.0
21
124.0
31
0.0
0
LINE
8
0
10
140.0
20
124.0
30
0.0
11
136.0
21
124.0
31
0.0
0
LINE
8
0
10
136.0
20
124.0
30
0.0
11
132.0
21
124.0
31
0.0
0
LINE
8
0
10
132.0
20
124.0
30
0.0
11
128.0
21
124.0
31
0.0
0
LINE
8
0
10
128.0
20
124.0
30
0.0
11
124.0
21
124.0
31
0.0
0
LINE
8
0
10
124.0
20
124.0
30
0.0
11
120.0
21
124.0
31
0.0
0
LINE
8
0
10
120.0
20
124.0
30
0.0
11
116.0
21
124.0
31
0.0
0
LINE
8
0
10
116.0
20
124.0
30
0.0
11
112.0
21
124.0
31
0.0
0
LINE
8
0
10
112.0
20
124.0
30
0.0
11
108.0
21
124.0
31
0.0
0
LINE
8
0
10
108.0
20
124.0
30
0.0
11
104.0
21
124.0
31
0.0
0
LINE
8
0
10
104.0
20
124.0
30
0.0
11
100.0
21
124.0
31
0.0
0
LINE
8
0
10
100.0
20
124.0
30
0.0
11
96.0
21
124.0
31
0.0
0
LINE
8
0
10
96.0
20
124.0
30
0.0
11
92.0
21
124.0
31
0.0
0
LINE
8
0
10
92.0
20
124.0
30
0.0
11
88.0
21
124.0
31
0.0
0
LINE
8
0
10
88.0
20
124.0
30
0.0
11
84.0
21
124.0
31
0.0
0
LINE
8
0
10
84.0
20
124.0
30
0.0
11
80.0
21
124.0
31
0.0
0
LINE
8
0
10
80.0
20
124.0
30
0.0
11
76.0
21
124.0
31
0.0
0
LINE
8
0
10
76.0
20
124.0
30
0.0
11
72.0
21
124.0
31
0.0
0
LINE
8
0
10
72.0
20
124.0
30
0.0
11
68.0
21
124.0
31
0.0
0
LINE
8
0
10
68.0
20
124.0
30
0.0
11
64.0
21
124.0
31
0.0
0
LINE
8
0
10
64.0
20
124.0
30
0.0
11
60.0
21
124.0
31
0.0
0
LINE
8
0
10
60.0
20
124.0
30
0.0
11
56.0
21
124.0
31
0.0
0
LINE
8
0
10
56.0
20
124.0
30
0.0
11
52.0
21
124.0
31
0.0
0
LINE
8
0
10
52.0
20
124.0
30
0.0
11
48.0
21
124.0
31
0.0
0
LINE
8
0
10
48.0
20
124.0
30
0.0
11
44.0
21
124.0
31
0.0
0
LINE
8
0
10
44.0
20
124.0
30
0.0
11
40.0
21
124.0
31
0.0
0
LINE
8
0
10
40.0
20
124.0
30
0.0
11
36.0
21
124.0
31
0.0
0
LINE
8
0
10
36.0
20
124.0
30
0.0
11
32.0
21
124.0
31
0.0
0
LINE
8
0
10
32.0
20
124.0
30
0.0
11
28.0
21
124.0
31
0.0
0
LINE
8
0
10
28.0
20
124.0
30
0.0
11
24.0
21
124.0
31
0.0
0
LINE
8
0
10
24.0
20
124.0
30
0.0
11
20.0
21
124.0
31
0.0
0
LINE
8
0
10
20.0
20
124.0
30
0.0
11
16.0
21
124.0
31
0.0
0
LINE
8
0
10
16.0
20
124.0
30
0.0
11
12.0
21
124.0
31
0.0
0
LINE
8
0
10
12.0
20
124.0
30
0.0
11
8.0
21
124.0
31
0.0
0
LINE
8
0
10
8.0
20
124.0
30
0.0
11
4.0
21
124.0
31
0.0
0
LINE
8
0
10
4.0
20
124.0
30
0.0
11
0.0
21
124.0
31
0.0
0
LINE
8
0
10
0.0
20
124.0
30
0.0
11
0.0
21
128.0
31
0.0
0
LINE
8
0
10
0.0
20
128.0
30
0.0
11
4.0
21
128.0
31
0.0
0
LINE
8
0
10
4.0
20
128.0
30
0.0
11
8.0
21
128.0
31
0.0
0
LINE
8
0
10
8.0
20
128.0
30
0.0
11
12.0
21
128.0
31
0.0
0
LINE
8
0
10
12.0
20
128.0
30
0.0
11
16.0
21
128.0
31
0.0
0
LINE
8
0
10
16.0
20
128.0
30
0.0
11
20.0
21
128.0
31
0.0
0
LINE
8
0
10
20.0
20
128.0
30
0.0
11
24.0
21
128.0
31
0.0
0
LINE
8
0
10
24.0
20
128.0
30
0.0
11
28.0
21
128.0
31
0.0
0
LINE
8
0
10
28.0
20
128.0
30
0.0
11
32.0
21
128.0
31
0.0
0
LINE
8
0
10
32.0
20
128.0
30
0.0
11
36.0
21
128.0
31
0.0
0
LINE
8
0
10
36.0
20
128.0
30
0.0
11
40.0
21
128.0
31
0.0
0
LINE
8
0
10
40.0
20
128.0
30
0.0
11
44.0
21
128.0
31
0.0
0
LINE
8
0
10
44.0
20
128.0
30
0.0
11
48.0
21
128.0
31
0.0
0
LINE
8
0
10
48.0
20
128.0
30
0.0
11
52.0
21
128.0
31
0.0
0
LINE
8
0
10
52.0
20
128.0
30
0.0
11
56.0
21
128.0
31
0.0
0
LINE
8
0
10
56.0
20
128.0
30
0.0
11
60.0
21
128.0
31
0.0
0
LINE
8
0
10
60.0
20
128.0
30
0.0
11
64.0
21
128.0
31
0.0
0
LINE
8
0
10
64.0
20
128.0
30
0.0
11
68.0
21
128.0
31
0.0
0
LINE
8
0
10
68.0
20
128.0
30
0.0
11
72.0
21
128.0
31
0.0
0
LINE
8
0
10
72.0
20
128.0
30
0.0
11
76.0
21
128.0
31
0.0
0
LINE
8
0
10
76.0
20
128.0
30
0.0
11
80.0
21
128.0
31
0.0
0
LINE
8
0
10
80.0
20
128.0
30
0.0
11
84.0
21
128.0
31
0.0
0
LINE
8
0
10
84.0
20
128.0
30
0.0
11
88.0
21
128.0
31
0.0
0
LINE
8
0
10
88.0
20
128.0
30
0.0
11
92.0
21
128.0
31
0.0
0
LINE
8
0
10
92.0
20
128.0
30
0.0
11
96.0
21
128.0
31
0.0
0
LINE
8
0
10
96.0
20
128.0
30
0.0
11
100.0
21
128.0
31
0.0
0
LINE
8
0
10
100.0
20
128.0
30
0.0
11
104.0
21
128.0
31
0.0
0
LINE
8
0
10
104.0
20
128.0
30
0.0
11
108.0
21
128.0
31
0.0
0
LINE
8
0
10
108.0
20
128.0
30
0.0
11
112.0
21
128.0
31
0.0
0
LINE
8
0
10
112.0
20
128.0
30
0.0
11
116.0
21
128.0
31
0.0
0
LINE
8
0
10
116.0
20
128.0
30
0.0
11
120.0
21
128.0
31
0.0
0
LINE
8
0
10
120.0
20
128.0
30
0.0
11
124.0
21
128.0
31
0.0
0
LINE
8
0
10
124.0
20
128.0
30
0.0
11
128.0
21
128.0
31
0.0
0
LINE
8
0
10
128.0
20
128.0
30
0.0
11
132.0
21
128.0
31
0.0
0
LINE
8
0
10
132.0
20
128.0
30
0.0
11
136.0
21
128.0
31
0.0
0
LINE
8
0
10
136.0
20
128.0
30
0.0
11
140.0
21
128.0
31
0.0
0
LINE
8
0
10
140.0
20
128.0
30
0.0
11
144.0
21
128.0
31
0.0
0
LINE
8
0
10
144.0
20
128.0
30
0.0
11
148.0
21
128.0
31
0.0
0
LINE
8
0
10
148.0
20
128.0
30
0.0
11
152.0
21
128.0
31
0.0
0
LINE
8
0
10
152.0
20
128.0
30
0.0
11
156.0
21
128.0
31
0.0
0
LINE
8
0
10
156.0
20
128.0
30
0.0
11
156.0
21
132.0
31
0.0
0
LINE
8
0
10
156.0
20
132.0
30
0.0
11
152.0
21
132.0
31
0.0
0
LINE
8
0
10
152.0
20
132.0
30
0.0
11
148.0
21
132.0
31
0.0
0
LINE
8
0
10
148.0
20
132.0
30
0.0
11
144.0
21
132.0
31
0.0
0
LINE
8
0
10
144.0
20
132.0
30
0.0
11
140.0
21
132.0
31
0.0
0
LINE
8
0
10
140.0
20
132.0
30
0.0
11
136.0
21
132.0
31
0.0
0
LINE
8
0
10
136.0
20
132.0
30
0.0
11
132.0
21
132.0
31
0.0
0
LINE
8
0
10
132.0
20
132.0
30
0.0
11
128.0
21
132.0
31
0.0
0
LINE
8
0
10
128.0
20
132.0
30
0.0
11
124.0
21
132.0
31
0.0
0
LINE
8
0
10
124.0
20
132.0
30
0.0
11
120.0
21
132.0
31
0.0
0
LINE
8
0
10
120.0
20
132.0
30
0.0
11
116.0
21
132.0
31
0.0
0
LINE
8
0
10
116.0
20
132.0
30
0.0
11
112.0
21
132.0
31
0.0
0
LINE
8
0
10
112.0
20
132.0
30
0.0
11
108.0
21
132.0
31
0.0
0
LINE
8
0
10
108.0
20
132.0
30
0.0
11
104.0
21
132.0
31
0.0
0
LINE
8
0
10
104.0
20
132.0
30
0.0
11
100.0
21
132.0
31
0.0
0
LINE
8
0
10
100.0
20
132.0
30
0.0
11
96.0
21
132.0
31
0.0
0
LINE
8
0
10
96.0
20
132.0
30
0.0
11
92.0
21
132.0
31
0.0
0
LINE
8
0
10
92.0
20
132.0
30
0.0
11
88.0
21
132.0
31
0.0
0
LINE
8
0
10
88.0
20
132.0
30
0.0
11
84.0
21
132.0
31
0.0
0
LINE
8
0
10
84.0
20
132.0
30
0.0
11
80.0
21
132.0
31
0.0
0
LINE
8
0
10
80.0
20
132.0
30
0.0
11
76.0
21
132.0
31
0.0
0
LINE
8
0
10
76.0
20
132.0
30
0.0
11
72.0
21
132.0
31
0.0
0
LINE
8
0
10
72.0
20
132.0
30
0.0
11
68.0
21
132.0
31
0.0
0
LINE
8
0
10
68.0
20
132.0
30
0.0
11
64.0
21
132.0
31
0.0
0
LINE
8
0
10
64.0
20
132.0
30
0.0
11
60.0
21
132.0
31
0.0
0
LINE
8
0
10
60.0
20
132.0
30
0.0
11
56.0
21
132.0
31
0.0
0
LINE
8
0
10
56.0
20
132.0
30
0.0
11
52.0
21
132.0
31
0.0
0
LINE
8
0
10
52.0
20
132.0
30
0.0
11
48.0
21
132.0
31
0.0
0
LINE
8
0
10
48.0
20
132.0
30
0.0
11
44.0
21
132.0
31
0.0
0
LINE
8
0
10
44.0
20
132.0
30
0.0
11
40.0
21
132.0
31
0.0
0
LINE
8
0
10
40.0
20
132.0
30
0.0
11
36.0
21
132.0
31
0.0
0
LINE
8
0
10
36.0
20
132.0
30
0.0
11
32.0
21
132.0
31
0.0
0
LINE
8
0
10
32.0
20
132.0
30
0.0
11
28.0
21
132.0
31
0.0
0
LINE
8
0
10
28.0
20
132.0
30
0.0
11
24.0
21
132.0
31
0.0
0
LINE
8
0
10
24.0
20
132.0
30
0.0
11
20.0
21
132.0
31
0.0
0
LINE
8
0
10
20.0
20
132.0
30
0.0
11
16.0
21
132.0
31
0.0
0
LINE
8
0
10
16.0
20
132.0
30
0.0
11
12.0
21
132.0
31
0.0
0
LINE
8
0
10
12.0
20
132.0
30
0.0
11
8.0
21
132.0
31
0.0
0
LINE
8
0
10
8.0
20
132.0
30
0.0
11
4.0
21
132.0
31
0.0
0
LINE
8
0
10
4.0
20
132.0
30
0.0
11
0.0
21
132.0
31
0.0
0
LINE
8
0
10
0.0
20
132.0
30
0.0
11
0.0
21
136.0
31
0.0
0
LINE
8
0
10
0.0
20
136.0
30
0.0
11
4.0
21
136.0
31
0.0
0
LINE
8
0
10
4.0
20
136.0
30
0.0
11
8.0
21
136.0
31
0.0
0
LINE
8
0
10
8.0
20
136.0
30
0.0
11
12.0
21
136.0
31
0.0
0
LINE
8
0
10
12.0
20
136.0
30
0.0
11
16.0
21
136.0
31
0.0
0
LINE
8
0
10
16.0
20
136.0
30
0.0
11
20.0
21
136.0
31
0.0
0
LINE
8
0
10
20.0
20
136.0
30
0.0
11
24.0
21
136.0
31
0.0
0
LINE
8
0
10
24.0
20
136.0
30
0.0
11
28.0
21
136.0
31
0.0
0
LINE
8
0
10
28.0
20
136.0
30
0.0
11
32.0
21
136.0
31
0.0
0
LINE
8
0
10
32.0
20
136.0
30
0.0
11
36.0
21
136.0
31
0.0
0
LINE
8
0
10
36.0
20
136.0
30
0.0
11
40.0
21
136.0
31
0.0
0
LINE
8
0
10
40.0
20
136.0
30
0.0
11
44.0
21
136.0
31
0.0
0
LINE
8
0
10
44.0
20
136.0
30
0.0
11
48.0
21
136.0
31
0.0
0
LINE
8
0
10
48.0
20
136.0
30
0.0
11
52.0
21
136.0
31
0.0
0
LINE
8
0
10
52.0
20
136.0
30
0.0
11
56.0
21
136.0
31
0.0
0
LINE
8
0
10
56.0
20
136.0
30
0.0
11
60.0
21
136.0
31
0.0
0
LINE
8
0
10
60.0
20
136.0
30
0.0
11
64.0
21
136.0
31
0.0
0
LINE
8
0
10
64.0
20
136.0
30
0.0
11
68.0
21
136.0
31
0.0
0
LINE
8
0
10
68.0
20
136.0
30
0.0
11
72.0
21
136.0
31
0.0
0
LINE
8
0
10
72.0
20
136.0
30
0.0
11
76.0
21
136.0
31
0.0
0
LINE
8
0
10
76.0
20
136.0
30
0.0
11
80.0
21
136.0
31
0.0
0
LINE
8
0
10
80.0
20
136.0
30
0.0
11
84.0
21
136.0
31
0.0
0
LINE
8
0
10
84.0
20
136.0
30
0.0
11
88.0
21
136.0
31
0.0
0
LINE
8
0
10
88.0
20
136.0
30
0.0
11
92.0
21
136.0
31
0.0
0
LINE
8
0
10
92.0
20
136.0
30
0.0
11
96.0
21
136.0
31
0.0
0
LINE
8
0
10
96.0
20
136.0
30
0.0
11
100.0
21
136.0
31
0.0
0
LINE
8
0
10
100.0
20
136.0
30
0.0
11
104.0
21
136.0
31
0.0
0
LINE
8
0
10
104.0
20
136.0
30
0.0
11
108.0
21
136.0
31
0.0
0
LINE
8
0
10
108.0
20
136.0
30
0.0
11
112.0
21
136.0
31
0.0
0
LINE
8
0
10
112.0
20
136.0
30
0.0
11
116.0
21
136.0
31
0.0
0
LINE
8
0
10
116.0
20
136.0
30
0.0
11
120.0
21
136.0
31
0.0
0
LINE
8
0
10
120.0
20
136.0
30
0.0
11
124.0
21
136.0
31
0.0
0
LINE
8
0
10
124.0
20
136.0
30
0.0
11
128.0
21
136.0
31
0.0
0
LINE
8
0
10
128.0
20
136.0
30
0.0
11
132.0
21
136.0
31
0.0
0
LINE
8
0
10
132.0
20
136.0
30
0.0
11
136.0
21
136.0
31
0.0
0
LINE
8
0
10
136.0
20
136.0
30
0.0
11
140.0
21
136.0
31
0.0
0
LINE
8
0
10
140.0
20
136.0
30
0.0
11
144.0
21
136.0
31
0.0
0
LINE
8
0
10
144.0
20
136.0
30
0.0
11
148.0
21
136.0
31
0.0
0
LINE
8
0
10
148.0
20
136.0
30
0.0
11
152.0
21
136.0
31
0.0
0
LINE
8
0
10
152.0
20
136.0
30
0.0
11
156.0
21
136.0
31
0.0
0
LINE
8
0
10
156.0
20
136.0
30
0.0
11
156.0
21
140.0
31
0.0
0
LINE
8
0
10
156.0
20
140.0
30
0.0
11
152.0
21
140.0
31
0.0
0
LINE
8
0
10
152.0
20
140.0
30
0.0
11
148.0
21
140.0
31
0.0
0
LINE
8
0
10
148.0
20
140.0
30
0.0
11
144.0
21
140.0
31
0.0
0
LINE
8
0
10
144.0
20
140.0
30
0.0
11
140.0
21
140.0
31
0.0
0
LINE
8
0
10
140.0
20
140.0
30
0.0
11
136.0
21
140.0
31
0.0
0
LINE
8
0
10
136.0
20
140.0
30
0.0
11
132.0
21
140.0
31
0.0
0
LINE
8
0
10
132.0
20
140.0
30
0.0
11
128.0
21
140.0
31
0.0
0
LINE
8
0
10
128.0
20
140.0
30
0.0
11
124.0
21
140.0
31
0.0
0
LINE
8
0
10
124.0
20
140.0
30
0.0
11
120.0
21
140.0
31
0.0
0
LINE
8
0
10
120.0
20
140.0
30
0.0
11
116.0
21
140.0
31
0.0
0
LINE
8
0
10
116.0
20
140.0
30
0.0
11
112.0
21
140.0
31
0.0
0
LINE
8
0
10
112.0
20
140.0
30
0.0
11
108.0
21
140.0
31
0.0
0
LINE
8
0
10
108.0
20
140.0
30
0.0
11
104.0
21
140.0
31
0.0
0
LINE
8
0
10
104.0
20
140.0
30
0.0
11
100.0
21
140.0
31
0.0
0
LINE
8
0
10
100.0
20
140.0
30
0.0
11
96.0
21
140.0
31
0.0
0
LINE
8
0
10
96.0
20
140.0
30
0.0
11
92.0
21
140.0
31
0.0
0
LINE
8
0
10
92.0
20
140.0
30
0.0
11
88.0
21
140.0
31
0.0
0
LINE
8
0
10
88.0
20
140.0
30
0.0
11
84.0
21
140.0
31
0.0
0
LINE
8
0
10
84.0
20
140.0
30
0.0
11
80.0
21
140.0
31
0.0
0
LINE
8
0
10
80.0
20
140.0
30
0.0
11
76.0
21
140.0
31
0.0
0
LINE
8
0
10
76.0
20
140.0
30
0.0
11
72.0
21
140.0
31
0.0
0
LINE
8
0
10
72.0
20
140.0
30
0.0
11
68.0
21
140.0
31
0.0
0
LINE
8
0
10
68.0
20
140.0
30
0.0
11
64.0
21
140.0
31
0.0
0
LINE
8
0
10
64.0
20
140.0
30
0.0
11
60.0
21
140.0
31
0.0
0
LINE
8
0
10
60.0
20
140.0
30
0.0
11
56.0
21
140.0
31
0.0
0
LINE
8
0
10
56.0
20
140.0
30
0.0
11
52.0
21
140.0
31
0.0
0
LINE
8
0
10
52.0
20
140.0
30
0.0
11
48.0
21
140.0
31
0.0
0
LINE
8
0
10
48.0
20
140.0
30
0.0
11
44.0
21
140.0
31
0.0
0
LINE
8
0
10
44.0
20
140.0
30
0.0
11
40.0
21
140.0
31
0.0
0
LINE
8
0
10
40.0
20
140.0
30
0.0
11
36.0
21
140.0
31
0.0
0
LINE
8
0
10
36.0
20
140.0
30
0.0
11
32.0
21
140.0
31
0.0
0
LINE
8
0
10
32.0
20
140.0
30
0.0
11
28.0
21
140.0
31
0.0
0
LINE
8
0
10
28.0
20
140.0
30
0.0
11
24.0
21
140.0
31
0.0
0
LINE
8
0
10
24.0
20
140.0
30
0.0
11
20.0
21
140.0
31
0.0
0
LINE
8
0
10
20.0
20
140.0
30
0.0
11
16.0
21
140.0
31
0.0
0
LINE
8
0
10
16.0
20
140.0
30
0.0
11
12.0
21
140.0
31
0.0
0
LINE
8
0
10
12.0
20
140.0
30
0.0
11
8.0
21
140.0
31
0.0
0
LINE
8
0
10
8.0
20
140.0
30
0.0
11
4.0
21
140.0
31
0.0
0
LINE
8
0
10
4.0
20
140.0
30
0.0
11
0.0
21
140.0
31
0.0
0
LINE
8
0
10
0.0
20
140.0
30
0.0
11
0.0
21
144.0
31
0.0
0
LINE
8
0
10
0.0
20
144.0
30
0.0
11
4.0
21
144.0
31
0.0
0
LINE
8
0
10
4.0
20
144.0
30
0.0
11
8.0
21
144.0
31
0.0
0
LINE
8
0
10
8.0
20
144.0
30
0.0
11
12.0
21
144.0
31
0.0
0
LINE
8
0
10
12.0
20
144.0
30
0.0
11
16.0
21
144.0
31
0.0
0
LINE
8
0
10
16.0
20
144.0
30
0.0
11
20.0
21
144.0
31
0.0
0
LINE
8
0
10
20.0
20
144.0
30
0.0
11
24.0
21
144.0
31
0.0
0
LINE
8
0
10
24.0
20
144.0
30
0.0
11
28.0
21
144.0
31
0.0
0
LINE
8
0
10
28.0
20
144.0
30
0.0
11
32.0
21
144.0
31
0.0
0
LINE
8
0
10
32.0
20
144.0
30
0.0
11
36.0
21
144.0
31
0.0
0
LINE
8
0
10
36.0
20
144.0
30
0.0
11
40.0
21
144.0
31
0.0
0
LINE
8
0
10
40.0
20
144.0
30
0.0
11
44.0
21
144.0
31
0.0
0
LINE
8
0
10
44.0
20
144.0
30
0.0
11
48.0
21
144.0
31
0.0
0
LINE
8
0
10
48.0
20
144.0
30
0.0
11
52.0
21
144.0
31
0.0
0
LINE
8
0
10
52.0
20
144.0
30
0.0
11
56.0
21
144.0
31
0.0
0
LINE
8
0
10
56.0
20
144.0
30
0.0
11
60.0
21
144.0
31
0.0
0
LINE
8
0
10
60.0
20
144.0
30
0.0
11
64.0
21
144.0
31
0.0
0
LINE
8
0
10
64.0
20
144.0
30
0.0
11
68.0
21
144.0
31
0.0
0
LINE
8
0
10
68.0
20
144.0
30
0.0
11
72.0
21
144.0
31
0.0
0
LINE
8
0
10
72.0
20
144.0
30
0.0
11
76.0
21
144.0
31
0.0
0
LINE
8
0
10
76.0
20
144.0
30
0.0
11
80.0
21
144.0
31
0.0
0
LINE
8
0
10
80.0
20
144.0
30
0.0
11
84.0
21
144.0
31
0.0
0
LINE
8
0
10
84.0
20
144.0
30
0.0
11
88.0
21
144.0
31
0.0
0
LINE
8
0
10
88.0
20
144.0
30
0.0
11
92.0
21
144.0
31
0.0
0
LINE
8
0
10
92.0
20
144.0
30
0.0
11
96.0
21
144.0
31
0.0
0
LINE
8
0
10
96.0
20
144.0
30
0.0
11
100.0
21
144.0
31
0.0
0
LINE
8
0
10
100.0
20
144.0
30
0.0
11
104.0
21
144.0
31
0.0
0
LINE
8
0
10
104.0
20
144.0
30
0.0
11
108.0
21
144.0
31
0.0
0
LINE
8
0
10
108.0
20
144.0
30
0.0
11
112.0
21
144.0
31
0.0
0
LINE
8
0
10
112.0
20
144.0
30
0.0
11
116.0
21
144.0
31
0.0
0
LINE
8
0
10
116.0
20
144.0
30
0.0
11
120.0
21
144.0
31
0.0
0
LINE
8
0
10
120.0
20
144.0
30
0.0
11
124.0
21
144.0
31
0.0
0
LINE
8
0
10
124.0
20
144.0
30
0.0
11
128.0
21
144.0
31
0.0
0
LINE
8
0
10
128.0
20
144.0
30
0.0
11
132.0
21
144.0
31
0.0
0
LINE
8
0
10
132.0
20
144.0
30
0.0
11
136.0
21
144.0
31
0.0
0
LINE
8
0
10
136.0
20
144.0
30
0.0
11
140.0
21
144.0
31
0.0
0
LINE
8
0
10
140.0
20
144.0
30
0.0
11
144.0
21
144.0
31
0.0
0
LINE
8
0
10
144.0
20
144.0
30
0.0
11
148.0
21
144.0
31
0.0
0
LINE
8
0
10
148.0
20
144.0
30
0.0
11
152.0
21
144.0
31
0.0
0
LINE
8
0
10
152.0
20
144.0
30
0.0
11
156.0
21
144.0
31
0.0
0
LINE
8
0
10
156.0
20
144.0
30
0.0
11
156.0
21
148.0
31
0.0
0
LINE
8
0
10
156.0
20
148.0
30
0.0
11
152.0
21
148.0
31
0.0
0
LINE
8
0
10
152.0
20
148.0
30
0.0
11
148.0
21
148.0
31
0.0
0
LINE
8
0
10
148.0
20
148.0
30
0.0
11
144.0
21
148.0
31
0.0
0
LINE
8
0
10
144.0
20
148.0
30
0.0
11
140.0
21
148.0
31
0.0
0
LINE
8
0
10
140.0
20
148.0
30
0.0
11
136.0
21
148.0
31
0.0
0
LINE
8
0
10
136.0
20
148.0
30
0.0
11
132.0
21
148.0
31
0.0
0
LINE
8
0
10
132.0
20
148.0
30
0.0
11
128.0
21
148.0
31
0.0
0
LINE
8
0
10
128.0
20
148.0
30
0.0
11
124.0
21
148.0
31
0.0
0
LINE
8
0
10
124.0
20
148.0
30
0.0
11
120.0
21
148.0
31
0.0
0
LINE
8
0
10
120.0
20
148.0
30
0.0
11
116.0
21
148.0
31
0.0
0
LINE
8
0
10
116.0
20
148.0
30
0.0
11
112.0
21
148.0
31
0.0
0
LINE
8
0
10
112.0
20
148.0
30
0.0
11
108.0
21
148.0
31
0.0
0
LINE
8
0
10
108.0
20
148.0
30
0.0
11
104.0
21
148.0
31
0.0
0
LINE
8
0
10
104.0
20
148.0
30
0.0
11
100.0
21
148.0
31
0.0
0
LINE
8
0
10
100.0
20
148.0
30
0.0
11
96.0
21
148.0
31
0.0
0
LINE
8
0
10
96.0
20
148.0
30
0.0
11
92.0
21
148.0
31
0.0
0
LINE
8
0
10
92.0
20
148.0
30
0.0
11
88.0
21
148.0
31
0.0
0
LINE
8
0
10
88.0
20
148.0
30
0.0
11
84.0
21
148.0
31
0.0
0
LINE
8
0
10
84.0
20
148.0
30
0.0
11
80.0
21
148.0
31
0.0
0
LINE
8
0
10
80.0
20
148.0
30
0.0
11
76.0
21
148.0
31
0.0
0
LINE
8
0
10
76.0
20
148.0
30
0.0
11
72.0
21
148.0
31
0.0
0
LINE
8
0
10
72.0
20
148.0
30
0.0
11
68.0
21
148.0
31
0.0
0
LINE
8
0
10
68.0
20
148.0
30
0.0
11
64.0
21
148.0
31
0.0
0
LINE
8
0
10
64.0
20
148.0
30
0.0
11
60.0
21
148.0
31
0.0
0
LINE
8
0
10
60.0
20
148.0
30
0.0
11
56.0
21
148.0
31
0.0
0
LINE
8
0
10
56.0
20
148.0
30
0.0
11
52.0
21
148.0
31
0.0
0
LINE
8
0
10
52.0
20
148.0
30
0.0
11
48.0
21
148.0
31
0.0
0
LINE
8
0
10
48.0
20
148.0
30
0.0
11
44.0
21
148.0
31
0.0
0
LINE
8
0
10
44.0
20
148.0
30
0.0
11
40.0
21
148.0
31
0.0
0
LINE
8
0
10
40.0
20
148.0
30
0.0
11
36.0
21
148.0
31
0.0
0
LINE
8
0
10
36.0
20
148.0
30
0.0
11
32.0
21
148.0
31
0.0
0
LINE
8
0
10
32.0
20
148.0
30
0.0
11
28.0
21
148.0
31
0.0
0
LINE
8
0
10
28.0
20
148.0
30
0.0
11
24.0
21
148.0
31
0.0
0
LINE
8
0
10
24.0
20
148.0
30
0.0
11
20.0
21
148.0
31
0.0
0
LINE
8
0
10
20.0
20
148.0
30
0.0
11
16.0
21
148.0
31
0.0
0
LINE
8
0
10
16.0
20
148.0
30
0.0
11
12.0
21
148.0
31
0.0
0
LINE
8
0
10
12.0
20
148.0
30
0.0
11
8.0
21
148.0
31
0.0
0
LINE
8
0
10
8.0
20
148.0
30
0.0
11
4.0
21
148.0
31
0.0
0
LINE
8
0
10
4.0
20
148.0
30
0.0
11
0.0
21
148.0
31
0.0
0
LINE
8
0
10
0.0
20
148.0
30
0.0
11
0.0
21
152.0
31
0.0
0
LINE
8
0
10
0.0
20
152.0
30
0.0
11
4.0
21
152.0
31
0.0
0
LINE
8
0
10
4.0
20
152.0
30
0.0
11
8.0
21
152.0
31
0.0
0
LINE
8
0
10
8.0
20
152.0
30
0.0
11
12.0
21
152.0
31
0.0
0
LINE
8
0
10
12.0
20
152.0
30
0.0
11
16.0
21
152.0
31
0.0
0
LINE
8
0
10
16.0
20
152.0
30
0.0
11
20.0
21
152.0
31
0.0
0
LINE
8
0
10
20.0
20
152.0
30
0.0
11
24.0
21
152.0
31
0.0
0
LINE
8
0
10
24.0
20
152.0
30
0.0
11
28.0
21
152.0
31
0.0
0
LINE
8
0
10
28.0
20
152.0
30
0.0
11
32.0
21
152.0
31
0.0
0
LINE
8
0
10
32.0
20
152.0
30
0.0
11
36.0
21
152.0
31
0.0
0
LINE
8
0
10
36.0
20
152.0
30
0.0
11
40.0
21
152.0
31
0.0
0
LINE
8
0
10
40.0
20
152.0
30
0.0
11
44.0
21
152.0
31
0.0
0
LINE
8
0
10
44.0
20
152.0
30
0.0
11
48.0
21
152.0
31
0.0
0
LINE
8
0
10
48.0
20
152.0
30
0.0
11
52.0
21
152.0
31
0.0
0
LINE
8
0
10
52.0
20
152.0
30
0.0
11
56.0
21
152.0
31
0.0
0
LINE
8
0
10
56.0
20
152.0
30
0.0
11
60.0
21
152.0
31
0.0
0
LINE
8
0
10
60.0
20
152.0
30
0.0
11
64.0
21
152.0
31
0.0
0
LINE
8
0
10
64.0
20
152.0
30
0.0
11
68.0
21
152.0
31
0.0
0
LINE
8
0
10
68.0
20
152.0
30
0.0
11
72.0
21
152.0
31
0.0
0
LINE
8
0
10
72.0
20
152.0
30
0.0
11
76.0
21
152.0
31
0.0
0
LINE
8
0
10
76.0
20
152.0
30
0.0
11
80.0
21
152.0
31
0.0
0
LINE
8
0
10
80.0
20
152.0
30
0.0
11
84.0
21
152.0
31
0.0
0
LINE
8
0
10
84.0
20
152.0
30
0.0
11
88.0
21
152.0
31
0.0
0
LINE
8
0
10
88.0
20
152.0
30
0.0
11
92.0
21
152.0
31
0.0
0
LINE
8
0
10
92.0
20
152.0
30
0.0
11
96.0
21
152.0
31
0.0
0
LINE
8
0
10
96.0
20
152.0
30
0.0
11
100.0
21
152.0
31
0.0
0
LINE
8
0
10
100.0
20
152.0
30
0.0
11
104.0
21
152.0
31
0.0
0
LINE
8
0
10
104.0
20
152.0
30
0.0
11
108.0
21
152.0
31
0.0
0
LINE
8
0
10
108.0
20
152.0
30
0.0
11
112.0
21
152.0
31
0.0
0
LINE
8
0
10
112.0
20
152.0
30
0.0
11
116.0
21
152.0
31
0.0
0
LINE
8
0
10
116.0
20
152.0
30
0.0
11
120.0
21
152.0
31
0.0
0
LINE
8
0
10
120.0
20
152.0
30
0.0
11
124.0
21
152.0
31
0.0
0
LINE
8
0
10
124.0
20
152.0
30
0.0
11
128.0
21
152.0
31
0.0
0
LINE
8
0
10
128.0
20
152.0
30
0.0
11
132.0
21
152.0
31
0.0
0
LINE
8
0
10
132.0
20
152.0
30
0.0
11
136.0
21
152.0
31
0.0
0
LINE
8
0
10
136.0
20
152.0
30
0.0
11
140.0
21
152.0
31
0.0
0
LINE
8
0
10
140.0
20
152.0
30
0.0
11
144.0
21
152.0
31
0.0
0
LINE
8
0
10
144.0
20
152.0
30
0.0
11
148.0
21
152.0
31
0.0
0
LINE
8
0
10
148.0
20
152.0
30
0.0
11
152.0
21
152.0
31
0.0
0
LINE
8
0
10
152.0
20
152.0
30
0.0
11
156.0
21
152.0
31
0.0
0
LINE
8
0
10
156.0
20
152.0
30
0.0
11
156.0
21
156.0
31
0.0
0
LINE
8
0
10
156.0
20
156.0
30
0.0
11
152.0
21
156.0
31
0.0
0
LINE
8
0
10
152.0
20
156.0
30
0.0
11
148.0
21
156.0
31
0.0
0
LINE
8
0
10
148.0
20
156.0
30
0.0
11
144.0
21
156.0
31
0.0
0
LINE
8
0
10
144.0
20
156.0
30
0.0
11
140.0
21
156.0
31
0.0
0
LINE
8
0
10
140.0
20
156.0
30
0.0
11
136.0
21
156.0
31
0.0
0
LINE
8
0
10
136.0
20
156.0
30
0.0
11
132.0
21
156.0
31
0.0
0
LINE
8
0
10
132.0
20
156.0
30
0.0
11
128.0
21
156.0
31
0.0
0
LINE
8
0
10
128.0
20
156.0
30
0.0
11
124.0
21
156.0
31
0.0
0
LINE
8
0
10
124.0
20
156.0
30
0.0
11
120.0
21
156.0
31
0.0
0
LINE
8
0
10
120.0
20
156.0
30
0.0
11
116.0
21
156.0
31
0.0
0
LINE
8
0
10
116.0
20
156.0
30
0.0
11
112.0
21
156.0
31
0.0
0
LINE
8
0
10
112.0
20
156.0
30
0.0
11
108.0
21
156.0
31
0.0
0
LINE
8
0
10
108.0
20
156.0
30
0.0
11
104.0
21
156.0
31
0.0
0
LINE
8
0
10
104.0
20
156.0
30
0.0
11
100.0
21
156.0
31
0.0
0
LINE
8
0
10
100.0
20
156.0
30
0.0
11
96.0
21
156.0
31
0.0
0
LINE
8
0
10
96.0
20
156.0
30
0.0
11
92.0
21
156.0
31
0.0
0
LINE
8
0
10
92.0
20
156.0
30
0.0
11
88.0
21
156.0
31
0.0
0
LINE
8
0
10
88.0
20
156.0
30
0.0
11
84.0
21
156.0
31
0.0
0
LINE
8
0
10
84.0
20
156.0
30
0.0
11
80.0
21
156.0
31
0.0
0
LINE
8
0
10
80.0
20
156.0
30
0.0
11
76.0
21
156.0
31
0.0
0
LINE
8
0
10
76.0
20
156.0
30
0.0
11
72.0
21
156.0
31
0.0
0
LINE
8
0
10
72.0
20
156.0
30
0.0
11
68.0
21
156.0
31
0.0
0
LINE
8
0
10
68.0
20
156.0
30
0.0
11
64.0
21
156.0
31
0.0
0
LINE
8
0
10
64.0
20
156.0
30
0.0
11
60.0
21
156.0
31
0.0
0
LINE
8
0
10
60.0
20
156.0
30
0.0
11
56.0
21
156.0
31
0.0
0
LINE
8
0
10
56.0
20
156.0
30
0.0
11
52.0
21
156.0
31
0.0
0
LINE
8
0
10
52.0
20
156.0
30
0.0
11
48.0
21
156.0
31
0.0
0
LINE
8
0
10
48.0
20
156.0
30
0.0
11
44.0
21
156.0
31
0.0
0
LINE
8
0
10
44.0
20
156.0
30
0.0
11
40.0
21
156.0
31
0.0
0
LINE
8
0
10
40.0
20
156.0
30
0.0
11
36.0
21
156.0
31
0.0
0
LINE
8
0
10
36.0
20
156.0
30
0.0
11
32.0
21
156.0
31
0.0
0
LINE
8
0
10
32.0
20
156.0
30
0.0
11
28.0
21
156.0
31
0.0
0
LINE
8
0
10
28.0
20
156.0
30
0.0
11
24.0
21
156.0
31
0.0
0
LINE
8
0
10
24.0
20
156.0
30
0.0
11
20.0
21
156.0
31
0.0
0
LINE
8
0
10
20.0
20
156.0
30
0.0
11
16.0
21
156.0
31
0.0
0
LINE
8
0
10
16.0
20
156.0
30
0.0
11
12.0
21
156.0
31
0.0
0
LINE
8
0
10
12.0
20
156.0
30
0.0
11
8.0
21
156.0
31
0.0
0
LINE
8
0
10
8.0
20
156.0
30
0.0
11
4.0
21
156.0
31
0.0
0
LINE
8
0
10
4.0
20
156.0
30
0.0
11
0.0
21
156.0
31
0.0
0
LINE
8
0
10
0.0
20
156.0
30
0.0
11
0.0
21
160.0
31
0.0
0
LINE
8
0
10
0.0
20
160.0
30
0.0
11
4.0
21
160.0
31
0.0
0
LINE
8
0
10
4.0
20
160.0
30
0.0
11
8.0
21
160.0
31
0.0
0
LINE
8
0
10
8.0
20
160.0
30
0.0
11
12.0
21
160.0
31
0.0
0
LINE
8
0
10
12.0
20
160.0
30
0.0
11
16.0
21
160.0
31
0.0
0
LINE
8
0
10
16.0
20
160.0
30
0.0
11
20.0
21
160.0
31
0.0
0
LINE
8
0
10
20.0
20
160.0
30
0.0
11
24.0
21
160.0
31
0.0
0
LINE
8
0
10
24.0
20
160.0
30
0.0
11
28.0
21
160.0
31
0.0
0
LINE
8
0
10
28.0
20
160.0
30
0.0
11
32.0
21
160.0
31
0.0
0
LINE
8
0
10
32.0
20
160.0
30
0.0
11
36.0
21
160.0
31
0.0
0
LINE
8
0
10
36.0
20
160.0
30
0.0
11
40.0
21
160.0
31
0.0
0
LINE
8
0
10
40.0
20
160.0
30
0.0
11
44.0
21
160.0
31
0.0
0
LINE
8
0
10
44.0
20
160.0
30
0.0
11
48.0
21
160.0
31
0.0
0
LINE
8
0
10
48.0
20
160.0
30
0.0
11
52.0
21
160.0
31
0.0
0
LINE
8
0
10
52.0
20
160.0
30
0.0
11
56.0
21
160.0
31
0.0
0
LINE
8
0
10
56.0
20
160.0
30
0.0
11
60.0
21
160.0
31
0.0
0
LINE
8
0
10
60.0
20
160.0
30
0.0
11
64.0
21
160.0
31
0.0
0
LINE
8
0
10
64.0
20
160.0
30
0.0
11
68.0
21
160.0
31
0.0
0
LINE
8
0
10
68.0
20
160.0
30
0.0
11
72.0
21
160.0
31
0.0
0
LINE
8
0
10
72.0
20
160.0
30
0.0
11
76.0
21
160.0
31
0.0
0
LINE
8
0
10
76.0
20
160.0
30
0.0
11
80.0
21
160.0
31
0.0
0
LINE
8
0
10
80.0
20
160.0
30
0.0
11
84.0
21
160.0
31
0.0
0
LINE
8
0
10
84.0
20
160.0
30
0.0
11
88.0
21
160.0
31
0.0
0
LINE
8
0
10
88.0
20
160.0
30
0.0
11
92.0
21
160.0
31
0.0
0
LINE
8
0
10
92.0
20
160.0
30
0.0
11
96.0
21
160.0
31
0.0
0
LINE
8
0
10
96.0
20
160.0
30
0.0
11
100.0
21
160.0
31
0.0
0
LINE
8
0
10
100.0
20
160.0
30
0.0
11
104.0
21
160.0
31
0.0
0
LINE
8
0
10
104.0
20
160.0
30
0.0
11
108.0
21
160.0
31
0.0
0
LINE
8
0
10
108.0
20
160.0
30
0.0
11
112.0
21
160.0
31
0.0
0
LINE
8
0
10
112.0
20
160.0
30
0.0
11
116.0
21
160.0
31
0.0
0
LINE
8
0
10
116.0
20
160.0
30
0.0
11
120.0
21
160.0
31
0.0
0
LINE
8
0
10
120.0
20
160.0
30
0.0
11
124.0
21
160.0
31
0.0
0
LINE
8
0
10
124.0
20
160.0
30
0.0
11
128.0
21
160.0
31
0.0
0
LINE
8
0
10
128.0
20
160.0
30
0.0
11
132.0
21
160.0
31
0.0
0
LINE
8
0
10
132.0
20
160.0
30
0.0
11
136.0
21
160.0
31
0.0
0
LINE
8
0
10
136.0
20
160.0
30
0.0
11
140.0
21
160.0
31
0.0
0
LINE
8
0
10
140.0
20
160.0
30
0.0
11
144.0
21
160.0
31
0.0
0
LINE
8
0
10
144.0
20
160.0
30
0.0
11
148.0
21
160.0
31
0.0
0
LINE
8
0
10
148.0
20
160.0
30
0.0
11
152.0
21
160.0
31
0.0
0
LINE
8
0
10
152.0
20
160.0
30
0.0
11
156.0
21
160.0
31
0.0
0
LINE
8
0
10
156.0
20
160.0
30
0.0
11
156.0
21
164.0
31
0.0
0
LINE
8
0
10
156.0
20
164.0
30
0.0
11
152.0
21
164.0
31
0.0
0
LINE
8
0
10
152.0
20
164.0
30
0.0
11
148.0
21
164.0
31
0.0
0
LINE
8
0
10
148.0
20
164.0
30
0.0
11
144.0
21
164.0
31
0.0
0
LINE
8
0
10
144.0
20
164.0
30
0.0
11
140.0
21
164.0
31
0.0
0
LINE
8
0
10
140.0
20
164.0
30
0.0
11
136.0
21
164.0
31
0.0
0
LINE
8
0
10
136.0
20
164.0
30
0.0
11
132.0
21
164.0
31
0.0
0
LINE
8
0
10
132.0
20
164.0
30
0.0
11
128.0
21
164.0
31
0.0
0
LINE
8
0
10
128.0
20
164.0
30
0.0
11
124.0
21
164.0
31
0.0
0
LINE
8
0
10
124.0
20
164.0
30
0.0
11
120.0
21
164.0
31
0.0
0
LINE
8
0
10
120.0
20
164.0
30
0.0
11
116.0
21
164.0
31
0.0
0
LINE
8
0
10
116.0
20
164.0
30
0.0
11
112.0
21
164.0
31
0.0
0
LINE
8
0
10
112.0
20
164.0
30
0.0
11
108.0
21
164.0
31
0.0
0
LINE
8
0
10
108.0
20
164.0
30
0.0
11
104.0
21
164.0
31
0.0
0
LINE
8
0
10
104.0
20
164.0
30
0.0
11
100.0
21
164.0
31
0.0
0
LINE
8
0
10
100.0
20
164.0
30
0.0
11
96.0
21
164.0
31
0.0
0
LINE
8
0
10
96.0
20
164.0
30
0.0
11
92.0
21
164.0
31
0.0
0
LINE
8
0
10
92.0
20
164.0
30
0.0
11
88.0
21
164.0
31
0.0
0
LINE
8
0
10
88.0
20
164.0
30
0.0
11
84.0
21
164.0
31
0.0
0
LINE
8
0
10
84.0
20
164.0
30
0.0
11
80.0
21
164.0
31
0.0
0
LINE
8
0
10
80.0
20
164.0
30
0.0
11
76.0
21
164.0
31
0.0
0
LINE
8
0
10
76.0
20
164.0
30
0.0
11
72.0
21
164.0
31
0.0
0
LINE
8
0
10
72.0
20
164.0
30
0.0
11
68.0
21
164.0
31
0.0
0
LINE
8
0
10
68.0
20
164.0
30
0.0
11
64.0
21
164.0
31
0.0
0
LINE
8
0
10
64.0
20
164.0
30
0.0
11
60.0
21
164.0
31
0.0
0
LINE
8
0
10
60.0
20
164.0
30
0.0
11
56.0
21
164.0
31
0.0
0
LINE
8
0
10
56.0
20
164.0
30
0.0
11
52.0
21
164.0
31
0.0
0
LINE
8
0
10
52.0
20
164.0
30
0.0
11
48.0
21
164.0
31
0.0
0
LINE
8
0
10
48.0
20
164.0
30
0.0
11
44.0
21
164.0
31
0.0
0
LINE
8
0
10
44.0
20
164.0
30
0.0
11
40.0
21
164.0
31
0.0
0
LINE
8
0
10
40.0
20
164.0
30
0.0
11
36.0
21
164.0
31
0.0
0
LINE
8
0
10
36.0
20
164.0
30
0.0
11
32.0
21
164.0
31
0.0
0
LINE
8
0
10
32.0
20
164.0
30
0.0
11
28.0
21
164.0
31
0.0
0
LINE
8
0
10
28.0
20
164.0
30
0.0
11
24.0
21
164.0
31
0.0
0
LINE
8
0
10
24.0
20
164.0
30
0.0
11
20.0
21
164.0
31
0.0
0
LINE
8
0
10
20.0
20
164.0
30
0.0
11
16.0
21
164.0
31
0.0
0
LINE
8
0
10
16.0
20
164.0
30
0.0
11
12.0
21
164.0
31
0.0
0
LINE
8
0
10
12.0
20
164.0
30
0.0
11
8.0
21
164.0
31
0.0
0
LINE
8
0
10
8.0
20
164.0
30
0.0
11
4.0
21
164.0
31
0.0
0
LINE
8
0
10
4.0
20
164.0
30
0.0
11
0.0
21
164.0
31
0.0
0
LINE
8
0
10
0.0
20
164.0
30
0.0
11
0.0
21
168.0
31
0.0
0
LINE
8
0
10
0.0
20
168.0
30
0.0
11
4.0
21
168.0
31
0.0
0
LINE
8
0
10
4.0
20
168.0
30
0.0
11
8.0
21
168.0
31
0.0
0
LINE
8
0
10
8.0
20
168.0
30
0.0
11
12.0
21
168.0
31
0.0
0
LINE
8
0
10
12.0
20
168.0
30
0.0
11
16.0
21
168.0
31
0.0
0
LINE
8
0
10
16.0
20
168.0
30
0.0
11
20.0
21
168.0
31
0.0
0
LINE
8
0
10
20.0
20
168.0
30
0.0
11
24.0
21
168.0
31
0.0
0
LINE
8
0
10
24.0
20
168.0
30
0.0
11
28.0
21
168.0
31
0.0
0
LINE
8
0
10
28.0
20
168.0
30
0.0
11
32.0
21
168.0
31
0.0
0
LINE
8
0
10
32.0
20
168.0
30
0.0
11
36.0
21
168.0
31
0.0
0
LINE
8
0
10
36.0
20
168.0
30
0.0
11
40.0
21
168.0
31
0.0
0
LINE
8
0
10
40.0
20
168.0
30
0.0
11
44.0
21
168.0
31
0.0
0
LINE
8
0
10
44.0
20
168.0
30
0.0
11
48.0
21
168.0
31
0.0
0
LINE
8
0
10
48.0
20
168.0
30
0.0
11
52.0
21
168.0
31
0.0
0
LINE
8
0
10
52.0
20
168.0
30
0.0
11
56.0
21
168.0
31
0.0
0
LINE
8
0
10
56.0
20
168.0
30
0.0
11
60.0
21
168.0
31
0.0
0
LINE
8
0
10
60.0
20
168.0
30
0.0
11
64.0
21
168.0
31
0.0
0
LINE
8
0
10
64.0
20
168.0
30
0.0
11
68.0
21
168.0
31
0.0
0
LINE
8
0
10
68.0
20
168.0
30
0.0
11
72.0
21
168.0
31
0.0
0
LINE
8
0
10
72.0
20
168.0
30
0.0
11
76.0
21
168.0
31
0.0
0
LINE
8
0
10
76.0
20
168.0
30
0.0
11
80.0
21
168.0
31
0.0
0
LINE
8
0
10
80.0
20
168.0
30
0.0
11
84.0
21
168.0
31
0.0
0
LINE
8
0
10
84.0
20
168.0
30
0.0
11
88.0
21
168.0
31
0.0
0
LINE
8
0
10
88.0
20
168.0
30
0.0
11
92.0
21
168.0
31
0.0
0
LINE
8
0
10
92.0
20
168.0
30
0.0
11
96.0
21
168.0
31
0.0
0
LINE
8
0
10
96.0
20
168.0
30
0.0
11
100.0
21
168.0
31
0.0
0
LINE
8
0
10
100.0
20
168.0
30
0.0
11
104.0
21
168.0
31
0.0
0
LINE
8
0
10
104.0
20
168.0
30
0.0
11
108.0
21
168.0
31
0.0
0
LINE
8
0
10
108.0
20
168.0
30
0.0
11
112.0
21
168.0
31
0.0
0
LINE
8
0
10
112.0
20
168.0
30
0.0
11
116.0
21
168.0
31
0.0
0
LINE
8
0
10
116.0
20
168.0
30
0.0
11
120.0
21
168.0
31
0.0
0
LINE
8
0
10
120.0
20
168.0
30
0.0
11
124.0
21
168.0
31
0.0
0
LINE
8
0
10
124.0
20
168.0
30
0.0
11
128.0
21
168.0
31
0.0
0
LINE
8
0
10
128.0
20
168.0
30
0.0
11
132.0
21
168.0
31
0.0
0
LINE
8
0
10
132.0
20
168.0
30
0.0
11
136.0
21
168.0
31
0.0
0
LINE
8
0
10
136.0
20
168.0
30
0.0
11
140.0
21
168.0
31
0.0
0
LINE
8
0
10
140.0
20
168.0
30
0.0
11
144.0
21
168.0
31
0.0
0
LINE
8
0
10
144.0
20
168.0
30
0.0
11
148.0
21
168.0
31
0.0
0
LINE
8
0
10
148.0
20
168.0
30
0.0
11
152.0
21
168.0
31
0.0
0
LINE
8
0
10
152.0
20
168.0
30
0.0
11
156.0
21
168.0
31
0.0
0
LINE
8
0
10
156.0
20
168.0
30
0.0
11
156.0
21
172.0
31
0.0
0
LINE
8
0
10
156.0
20
172.0
30
0.0
11
152.0
21
172.0
31
0.0
0
LINE
8
0
10
152.0
20
172.0
30
0.0
11
148.0
21
172.0
31
0.0
0
LINE
8
0
10
148.0
20
172.0
30
0.0
11
144.0
21
172.0
31
0.0
0
LINE
8
0
10
144.0
20
172.0
30
0.0
11
140.0
21
172.0
31
0.0
0
LINE
8
0
10
140.0
20
172.0
30
0.0
11
136.0
21
172.0
31
0.0
0
LINE
8
0
10
136.0
20
172.0
30
0.0
11
132.0
21
172.0
31
0.0
0
LINE
8
0
10
132.0
20
172.0
30
0.0
11
128.0
21
172.0
31
0.0
0
LINE
8
0
10
128.0
20
172.0
30
0.0
11
124.0
21
172.0
31
0.0
0
LINE
8
0
10
124.0
20
172.0
30
0.0
11
120.0
21
172.0
31
0.0
0
LINE
8
0
10
120.0
20
172.0
30
0.0
11
116.0
21
172.0
31
0.0
0
LINE
8
0
10
116.0
20
172.0
30
0.0
11
112.0
21
172.0
31
0.0
0
LINE
8
0
10
112.0
20
172.0
30
0.0
11
108.0
21
172.0
31
0.0
0
LINE
8
0
10
108.0
20
172.0
30
0.0
11
104.0
21
172.0
31
0.0
0
LINE
8
0
10
104.0
20
172.0
30
0.0
11
100.0
21
172.0
31
0.0
0
LINE
8
0
10
100.0
20
172.0
30
0.0
11
96.0
21
172.0
31
0.0
0
LINE
8
0
10
96.0
20
172.0
30
0.0
11
92.0
21
172.0
31
0.0
0
LINE
8
0
10
92.0
20
172.0
30
0.0
11
88.0
21
172.0
31
0.0
0
LINE
8
0
10
88.0
20
172.0
30
0.0
11
84.0
21
172.0
31
0.0
0
LINE
8
0
10
84.0
20
172.0
30
0.0
11
80.0
21
172.0
31
0.0
0
LINE
8
0
10
80.0
20
172.0
30
0.0
11
76.0
21
172.0
31
0.0
0
LINE
8
0
10
76.0
20
172.0
30
0.0
11
72.0
21
172.0
31
0.0
0
LINE
8
0
10
72.0
20
172.0
30
0.0
11
68.0
21
172.0
31
0.0
0
LINE
8
0
10
68.0
20
172.0
30
0.0
11
64.0
21
172.0
31
0.0
0
LINE
8
0
10
64.0
20
172.0
30
0.0
11
60.0
21
172.0
31
0.0
0
LINE
8
0
10
60.0
20
172.0
30
0.0
11
56.0
21
172.0
31
0.0
0
LINE
8
0
10
56.0
20
172.0
30
0.0
11
52.0
21
172.0
31
0.0
0
LINE
8
0
10
52.0
20
172.0
30
0.0
11
48.0
21
172.0
31
0.0
0
LINE
8
0
10
48.0
20
172.0
30
0.0
11
44.0
21
172.0
31
0.0
0
LINE
8
0
10
44.0
20
172.0
30
0.0
11
40.0
21
172.0
31
0.0
0
LINE
8
0
10
40.0
20
172.0
30
0.0
11
36.0
21
172.0
31
0.0
0
LINE
8
0
10
36.0
20
172.0
30
0.0
11
32.0
21
172.0
31
0.0
0
LINE
8
0
10
32.0
20
172.0
30
0.0
11
28.0
21
172.0
31
0.0
0
LINE
8
0
10
28.0
20
172.0
30
0.0
11
24.0
21
172.0
31
0.0
0
LINE
8
0
10
24.0
20
172.0
30
0.0
11
20.0
21
172.0
31
0.0
0
LINE
8
0
10
20.0
20
172.0
30
0.0
11
16.0
21
172.0
31
0.0
0
LINE
8
0
10
16.0
20
172.0
30
0.0
11
12.0
21
172.0
31
0.0
0
LINE
8
0
10
12.0
20
172.0
30
0.0
11
8.0
21
172.0
31
0.0
0
LINE
8
0
10
8.0
20
172.0
30
0.0
11
4.0
21
172.0
31
0.0
0
LINE
8
0
10
4.0
20
172.0
30
0.0
11
0.0
21
172.0
31
0.0
0
LINE
8
0
10
0.0
20
172.0
30
0.0
11
0.0
21
176.0
31
0.0
0
LINE
8
0
10
0.0
20
176.0
30
0.0
11
4.0
21
176.0
31
0.0
0
LINE
8
0
10
4.0
20
176.0
30
0.0
11
8.0
21
176.0
31
0.0
0
LINE
8
0
10
8.0
20
176.0
30
0.0
11
12.0
21
176.0
31
0.0
0
LINE
8
0
10
12.0
20
176.0
30
0.0
11
16.0
21
176.0
31
0.0
0
LINE
8
0
10
16.0
20
176.0
30
0.0
11
20.0
21
176.0
31
0.0
0
LINE
8
0
10
20.0
20
176.0
30
0.0
11
24.0
21
176.0
31
0.0
0
LINE
8
0
10
24.0
20
176.0
30
0.0
11
28.0
21
176.0
31
0.0
0
LINE
8
0
10
28.0
20
176.0
30
0.0
11
32.0
21
176.0
31
0.0
0
LINE
8
0
10
32.0
20
176.0
30
0.0
11
36.0
21
176.0
31
0.0
0
LINE
8
0
10
36.0
20
176.0
30
0.0
11
40.0
21
176.0
31
0.0
0
LINE
8
0
10
40.0
20
176.0
30
0.0
11
44.0
21
176.0
31
0.0
0
LINE
8
0
10
44.0
20
176.0
30
0.0
11
48.0
21
176.0
31
0.0
0
LINE
8
0
10
48.0
20
176.0
30
0.0
11
52.0
21
176.0
31
0.0
0
LINE
8
0
10
52.0
20
176.0
30
0.0
11
56.0
21
176.0
31
0.0
0
LINE
8
0
10
56.0
20
176.0
30
0.0
11
60.0
21
176.0
31
0.0
0
LINE
8
0
10
60.0
20
176.0
30
0.0
11
64.0
21
176.0
31
0.0
0
LINE
8
0
10
64.0
20
176.0
30
0.0
11
68.0
21
176.0
31
0.0
0
LINE
8
0
10
68.0
20
176.0
30
0.0
11
72.0
21
176.0
31
0.0
0
LINE
8
0
10
72.0
20
176.0
30
0.0
11
76.0
21
176.0
31
0.0
0
LINE
8
0
10
76.0
20
176.0
30
0.0
11
80.0
21
176.0
31
0.0
0
LINE
8
0
10
80.0
20
176.0
30
0.0
11
84.0
21
176.0
31
0.0
0
LINE
8
0
10
84.0
20
176.0
30
0.0
11
88.0
21
176.0
31
0.0
0
LINE
8
0
10
88.0
20
176.0
30
0.0
11
92.0
21
176.0
31
0.0
0
LINE
8
0
10
92.0
20
176.0
30
0.0
11
96.0
21
176.0
31
0.0
0
LINE
8
0
10
96.0
20
176.0
30
0.0
11
100.0
21
176.0
31
0.0
0
LINE
8
0
10
100.0
20
176.0
30
0.0
11
104.0
21
176.0
31
0.0
0
LINE
8
0
10
104.0
20
176.0
30
0.0
11
108.0
21
176.0
31
0.0
0
LINE
8
0
10
108.0
20
176.0
30
0.0
11
112.0
21
176.0
31
0.0
0
LINE
8
0
10
112.0
20
176.0
30
0.0
11
116.0
21
176.0
31
0.0
0
LINE
8
0
10
116.0
20
176.0
30
0.0
11
120.0
21
176.0
31
0.0
0
LINE
8
0
10
120.0
20
176.0
30
0.0
11
124.0
21
176.0
31
0.0
0
LINE
8
0
10
124.0
20
176.0
30
0.0
11
128.0
21
176.0
31
0.0
0
LINE
8
0
10
128.0
20
176.0
30
0.0
11
132.0
21
176.0
31
0.0
0
LINE
8
0
10
132.0
20
176.0
30
0.0
11
136.0
21
176.0
31
0.0
0
LINE
8
0
10
136.0
20
176.0
30
0.0
11
140.0
21
176.0
31
0.0
0
LINE
8
0
10
140.0
20
176.0
30
0.0
11
144.0
21
176.0
31
0.0
0
LINE
8
0
10
144.0
20
176.0
30
0.0
11
148.0
21
176.0
31
0.0
0
LINE
8
0
10
148.0
20
176.0
30
0.0
11
152.0
21
176.0
31
0.0
0
LINE
8
0
10
152.0
20
176.0
30
0.0
11
156.0
21
176.0
31
0.0
0
LINE
8
0
10
156.0
20
176.0
30
0.0
11
156.0
21
180.0
31
0.0
0
LINE
8
0
10
156.0
20
180.0
30
0.0
11
152.0
21
180.0
31
0.0
0
LINE
8
0
10
152.0
20
180.0
30
0.0
11
148.0
21
180.0
31
0.0
0
LINE
8
0
10
148.0
20
180.0
30
0.0
11
144.0
21
180.0
31
0.0
0
LINE
8
0
10
144.0
20
180.0
30
0.0
11
140.0
21
180.0
31
0.0
0
LINE
8
0
10
140.0
20
180.0
30
0.0
11
136.0
21
180.0
31
0.0
0
LINE
8
0
10
136.0
20
180.0
30
0.0
11
132.0
21
180.0
31
0.0
0
LINE
8
0
10
132.0
20
180.0
30
0.0
11
128.0
21
180.0
31
0.0
0
LINE
8
0
10
128.0
20
180.0
30
0.0
11
124.0
21
180.0
31
0.0
0
LINE
8
0
10
124.0
20
180.0
30
0.0
11
120.0
21
180.0
31
0.0
0
LINE
8
0
10
120.0
20
180.0
30
0.0
11
116.0
21
180.0
31
0.0
0
LINE
8
0
10
116.0
20
180.0
30
0.0
11
112.0
21
180.0
31
0.0
0
LINE
8
0
10
112.0
20
180.0
30
0.0
11
108.0
21
180.0
31
0.0
0
LINE
8
0
10
108.0
20
180.0
30
0.0
11
104.0
21
180.0
31
0.0
0
LINE
8
0
10
104.0
20
180.0
30
0.0
11
100.0
21
180.0
31
0.0
0
LINE
8
0
10
100.0
20
180.0
30
0.0
11
96.0
21
180.0
31
0.0
0
LINE
8
0
10
96.0
20
180.0
30
0.0
11
92.0
21
180.0
31
0.0
0
LINE
8
0
10
92.0
20
180.0
30
0.0
11
88.0
21
180.0
31
0.0
0
LINE
8
0
10
88.0
20
180.0
30
0.0
11
84.0
21
180.0
31
0.0
0
LINE
8
0
10
84.0
20
180.0
30
0.0
11
80.0
21
180.0
31
0.0
0
LINE
8
0
10
80.0
20
180.0
30
0.0
11
76.0
21
180.0
31
0.0
0
LINE
8
0
10
76.0
20
180.0
30
0.0
11
72.0
21
180.0
31
0.0
0
LINE
8
0
10
72.0
20
180.0
30
0.0
11
68.0
21
180.0
31
0.0
0
LINE
8
0
10
68.0
20
180.0
30
0.0
11
64.0
21
180.0
31
0.0
0
LINE
8
0
10
64.0
20
180.0
30
0.0
11
60.0
21
180.0
31
0.0
0
LINE
8
0
10
60.0
20
180.0
30
0.0
11
56.0
21
180.0
31
0.0
0
LINE
8
0
10
56.0
20
180.0
30
0.0
11
52.0
21
180.0
31
0.0
0
LINE
8
0
10
52.0
20
180.0
30
0.0
11
48.0
21
180.0
31
0.0
0
LINE
8
0
10
48.0
20
180.0
30
0.0
11
44.0
21
180.0
31
0.0
0
LINE
8
0
10
44.0
20
180.0
30
0.0
11
40.0
21
180.0
31
0.0
0
LINE
8
0
10
40.0
20
180.0
30
0.0
11
36.0
21
180.0
31
0.0
0
LINE
8
0
10
36.0
20
180.0
30
0.0
11
32.0
21
180.0
31
0.0
0
LINE
8
0
10
32.0
20
180.0
30
0.0
11
28.0
21
180.0
31
0.0
0
LINE
8
0
10
28.0
20
180.0
30
0.0
11
24.0
21
180.0
31
0.0
0
LINE
8
0
10
24.0
20
180.0
30
0.0
11
20.0
21
180.0
31
0.0
0
LINE
8
0
10
20.0
20
180.0
30
0.0
11
16.0
21
180.0
31
0.0
0
LINE
8
0
10
16.0
20
180.0
30
0.0
11
12.0
21
180.0
31
0.0
0
LINE
8
0
10
12.0
20
180.0
30
0.0
11
8.0
21
180.0
31
0.0
0
LINE
8
0
10
8.0
20
180.0
30
0.0
11
4.0
21
180.0
31
0.0
0
LINE
8
0
10
4.0
20
180.0
30
0.0
11
0.0
21
180.0
31
0.0
0
LINE
8
0
10
0.0
20
180.0
30
0.0
11
0.0
21
184.0
31
0.0
0
LINE
8
0
10
0.0
20
184.0
30
0.0
11
4.0
21
184.0
31
0.0
0
LINE
8
0
10
4.0
20
184.0
30
0.0
11
8.0
21
184.0
31
0.0
0
LINE
8
0
10
8.0
20
184.0
30
0.0
11
12.0
21
184.0
31
0.0
0
LINE
8
0
10
12.0
20
184.0
30
0.0
11
16.0
21
184.0
31
0.0
0
LINE
8
0
10
16.0
20
184.0
30
0.0
11
20.0
21
184.0
31
0.0
0
LINE
8
0
10
20.0
20
184.0
30
0.0
11
24.0
21
184.0
31
0.0
0
LINE
8
0
10
24.0
20
184.0
30
0.0
11
28.0
21
184.0
31
0.0
0
LINE
8
0
10
28.0
20
184.0
30
0.0
11
32.0
21
184.0
31
0.0
0
LINE
8
0
10
32.0
20
184.0
30
0.0
11
36.0
21
184.0
31
0.0
0
LINE
8
0
10
36.0
20
184.0
30
0.0
11
40.0
21
184.0
31
0.0
0
LINE
8
0
10
40.0
20
184.0
30
0.0
11
44.0
21
184.0
31
0.0
0
LINE
8
0
10
44.0
20
184.0
30
0.0
11
48.0
21
184.0
31
0.0
0
LINE
8
0
10
48.0
20
184.0
30
0.0
11
52.0
21
184.0
31
0.0
0
LINE
8
0
10
52.0
20
184.0
30
0.0
11
56.0
21
184.0
31
0.0
0
LINE
8
0
10
56.0
20
184.0
30
0.0
11
60.0
21
184.0
31
0.0
0
LINE
8
0
10
60.0
20
184.0
30
0.0
11
64.0
21
184.0
31
0.0
0
LINE
8
0
10
64.0
20
184.0
30
0.0
11
68.0
21
184.0
31
0.0
0
LINE
8
0
10
68.0
20
184.0
30
0.0
11
72.0
21
184.0
31
0.0
0
LINE
8
0
10
72.0
20
184.0
30
0.0
11
76.0
21
184.0
31
0.0
0
LINE
8
0
10
76.0
20
184.0
30
0.0
11
80.0
21
184.0
31
0.0
0
LINE
8
0
10
80.0
20
184.0
30
0.0
11
84.0
21
184.0
31
0.0
0
LINE
8
0
10
84.0
20
184.0
30
0.0
11
88.0
21
184.0
31
0.0
0
LINE
8
0
10
88.0
20
184.0
30
0.0
11
92.0
21
184.0
31
0.0
0
LINE
8
0
10
92.0
20
184.0
30
0.0
11
96.0
21
184.0
31
0.0
0
LINE
8
0
10
96.0
20
184.0
30
0.0
11
100.0
21
184.0
31
0.0
0
LINE
8
0
10
100.0
20
184.0
30
0.0
11
104.0
21
184.0
31
0.0
0
LINE
8
0
10
104.0
20
184.0
30
0.0
11
108.0
21
184.0
31
0.0
0
LINE
8
0
10
108.0
20
184.0
30
0.0
11
112.0
21
184.0
31
0.0
0
LINE
8
0
10
112.0
20
184.0
30
0.0
11
116.0
21
184.0
31
0.0
0
LINE
8
0
10
116.0
20
184.0
30
0.0
11
120.0
21
184.0
31
0.0
0
LINE
8
0
10
120.0
20
184.0
30
0.0
11
124.0
21
184.0
31
0.0
0
LINE
8
0
10
124.0
20
184.0
30
0.0
11
128.0
21
184.0
31
0.0
0
LINE
8
0
10
128.0
20
184.0
30
0.0
11
132.0
21
184.0
31
0.0
0
LINE
8
0
10
132.0
20
184.0
30
0.0
11
136.0
21
184.0
31
0.0
0
LINE
8
0
10
136.0
20
184.0
30
0.0
11
140.0
21
184.0
31
0.0
0
LINE
8
0
10
140.0
20
184.0
30
0.0
11
144.0
21
184.0
31
0.0
0
LINE
8
0
10
144.0
20
184.0
30
0.0
11
148.0
21
184.0
31
0.0
0
LINE
8
0
10
148.0
20
184.0
30
0.0
11
152.0
21
184.0
31
0.0
0
LINE
8
0
10
152.0
20
184.0
30
0.0
11
156.0
21
184.0
31
0.0
0
LINE
8
0
10
156.0
20
184.0
30
0.0
11
156.0
21
188.0
31
0.0
0
LINE
8
0
10
156.0
20
188.0
30
0.0
11
152.0
21
188.0
31
0.0
0
LINE
8
0
10
152.0
20
188.0
30
0.0
11
148.0
21
188.0
31
0.0
0
LINE
8
0
10
148.0
20
188.0
30
0.0
11
144.0
21
188.0
31
0.0
0
LINE
8
0
10
144.0
20
188.0
30
0.0
11
140.0
21
188.0
31
0.0
0
LINE
8
0
10
140.0
20
188.0
30
0.0
11
136.0
21
188.0
31
0.0
0
LINE
8
0
10
136.0
20
188.0
30
0.0
11
132.0
21
188.0
31
0.0
0
LINE
8
0
10
132.0
20
188.0
30
0.0
11
128.0
21
188.0
31
0.0
0
LINE
8
0
10
128.0
20
188.0
30
0.0
11
124.0
21
188.0
31
0.0
0
LINE
8
0
10
124.0
20
188.0
30
0.0
11
120.0
21
188.0
31
0.0
0
LINE
8
0
10
120.0
20
188.0
30
0.0
11
116.0
21
188.0
31
0.0
0
LINE
8
0
10
116.0
20
188.0
30
0.0
11
112.0
21
188.0
31
0.0
0
LINE
8
0
10
112.0
20
188.0
30
0.0
11
108.0
21
188.0
31
0.0
0
LINE
8
0
10
108.0
20
188.0
30
0.0
11
104.0
21
188.0
31
0.0
0
LINE
8
0
10
104.0
20
188.0
30
0.0
11
100.0
21
188.0
31
0.0
0
LINE
8
0
10
100.0
20
188.0
30
0.0
11
96.0
21
188.0
31
0.0
0
LINE
8
0
10
96.0
20
188.0
30
0.0
11
92.0
21
188.0
31
0.0
0
LINE
8
0
10
92.0
20
188.0
30
0.0
11
88.0
21
188.0
31
0.0
0
LINE
8
0
10
88.0
20
188.0
30
0.0
11
84.0
21
188.0
31
0.0
0
LINE
8
0
10
84.0
20
188.0
30
0.0
11
80.0
21
188.0
31
0.0
0
LINE
8
0
10
80.0
20
188.0
30
0.0
11
76.0
21
188.0
31
0.0
0
LINE
8
0
10
76.0
20
188.0
30
0.0
11
72.0
21
188.0
31
0.0
0
LINE
8
0
10
72.0
20
188.0
30
0.0
11
68.0
21
188.0
31
0.0
0
LINE
8
0
10
68.0
20
188.0
30
0.0
11
64.0
21
188.0
31
0.0
0
LINE
8
0
10
64.0
20
188.0
30
0.0
11
60.0
21
188.0
31
0.0
0
LINE
8
0
10
60.0
20
188.0
30
0.0
11
56.0
21
188.0
31
0.0
0
LINE
8
0
10
56.0
20
188.0
30
0.0
11
52.0
21
188.0
31
0.0
0
LINE
8
0
10
52.0
20
188.0
30
0.0
11
48.0
21
188.0
31
0.0
0
LINE
8
0
10
48.0
20
188.0
30
0.0
11
44.0
21
188.0
31
0.0
0
LINE
8
0
10
44.0
20
188.0
30
0.0
11
40.0
21
188.0
31
0.0
0
LINE
8
0
10
40.0
20
188.0
30
0.0
11
36.0
21
188.0
31
0.0
0
LINE
8
0
10
36.0
20
188.0
30
0.0
11
32.0
21
188.0
31
0.0
0
LINE
8
0
10
32.0
20
188.0
30
0.0
11
28.0
21
188.0
31
0.0
0
LINE
8
0
10
28.0
20
188.0
30
0.0
11
24.0
21
188.0
31
0.0
0
LINE
8
0
10
24.0
20
188.0
30
0.0
11
20.0
21
188.0
31
0.0
0
LINE
8
0
10
20.0
20
188.0
30
0.0
11
16.0
21
188.0
31
0.0
0
LINE
8
0
10
16.0
20
188.0
30
0.0
11
12.0
21
188.0
31
0.0
0
LINE
8
0
10
12.0
20
188.0
30
0.0
11
8.0
21
188.0
31
0.0
0
LINE
8
0
10
8.0
20
188.0
30
0.0
11
4.0
21
188.0
31
0.0
0
LINE
8
0
10
4.0
20
188.0
30
0.0
11
0.0
21
188.0
31
0.0
0
ENDSEC
0
EOF
