0
SECTION
2
HEADER
9
$ACADVER
1
AC1015
9
$INSUNITS
70
4
9
$EXTMIN
10
0.0
20
0.0
30
0.0
9
$EXTMAX
10
115.0
20
75.0
30
0.0
0
ENDSEC
0
SECTION
2
TABLES
0
ENDSEC
0
SECTION
2
ENTITIES
0
LINE
8
0
10
0.0
20
0.0
30
0.0
11
5.0
21
0.0
31
0.0
0
LINE
8
0
10
5.0
20
0.0
30
0.0
11
10.0
21
0.0
31
0.0
0
LINE
8
0
10
10.0
20
0.0
30
0.0
11
15.0
21
0.0
31
0.0
0
LINE
8
0
10
15.0
20
0.0
30
0.0
11
20.0
21
0.0
31
0.0
0
LINE
8
0
10
20.0
20
0.0
30
0.0
11
25.0
21
0.0
31
0.0
0
LINE
8
0
10
25.0
20
0.0
30
0.0
11
30.0
21
0.0
31
0.0
0
LINE
8
0
10
30.0
20
0.0
30
0.0
11
35.0
21
0.0
31
0.0
0
LINE
8
0
10
35.0
20
0.0
30
0.0
11
40.0
21
0.0
31
0.0
0
LINE
8
0
10
40.0
20
0.0
30
0.0
11
45.0
21
0.0
31
0.0
0
LINE
8
0
10
45.0
20
0.0
30
0.0
11
50.0
21
0.0
31
0.0
0
LINE
8
0
10
50.0
20
0.0
30
0.0
11
55.0
21
0.0
31
0.0
0
LINE
8
0
10
55.0
20
0.0
30
0.0
11
60.0
21
0.0
31
0.0
0
LINE
8
0
10
60.0
20
0.0
30
0.0
11
65.0
21
0.0
31
0.0
0
LINE
8
0
10
65.0
20
0.0
30
0.0
11
70.0
21
0.0
31
0.0
0
LINE
8
0
10
70.0
20
0.0
30
0.0
11
75.0
21
0.0
31
0.0
0
LINE
8
0
10
75.0
20
0.0
30
0.0
11
80.0
21
0.0
31
0.0
0
LINE
8
0
10
80.0
20
0.0
30
0.0
11
85.0
21
0.0
31
0.0
0
LINE
8
0
10
85.0
20
0.0
30
0.0
11
90.0
21
0.0
31
0.0
0
LINE
8
0
10
90.0
20
0.0
30
0.0
11
95.0
21
0.0
31
0.0
0
LINE
8
0
10
95.0
20
0.0
30
0.0
11
100.0
21
0.0
31
0.0
0
LINE
8
0
10
100.0
20
0.0
30
0.0
11
105.0
21
0.0
31
0.0
0
LINE
8
0
10
105.0
20
0.0
30
0.0
11
110.0
21
0.0
31
0.0
0
LINE
8
0
10
110.0
20
0.0
30
0.0
11
115.0
21
0.0
31
0.0
0
LINE
8
0
10
115.0
20
0.0
30
0.0
11
115.0
21
5.0
31
0.0
0
LINE
8
0
10
115.0
20
5.0
30
0.0
11
110.0
21
5.0
31
0.0
0
LINE
8
0
10
110.0
20
5.0
30
0.0
11
105.0
21
5.0
31
0.0
0
LINE
8
0
10
105.0
20
5.0
30
0.0
11
100.0
21
5.0
31
0.0
0
LINE
8
0
10
100.0
20
5.0
30
0.0
11
95.0
21
5.0
31
0.0
0
LINE
8
0
10
95.0
20
5.0
30
0.0
11
90.0
21
5.0
31
0.0
0
LINE
8
0
10
90.0
20
5.0
30
0.0
11
85.0
21
5.0
31
0.0
0
LINE
8
0
10
85.0
20
5.0
30
0.0
11
80.0
21
5.0
31
0.0
0
LINE
8
0
10
80.0
20
5.0
30
0.0
11
75.0
21
5.0
31
0.0
0
LINE
8
0
10
75.0
20
5.0
30
0.0
11
70.0
21
5.0
31
0.0
0
LINE
8
0
10
70.0
20
5.0
30
0.0
11
65.0
21
5.0
31
0.0
0
LINE
8
0
10
65.0
20
5.0
30
0.0
11
60.0
21
5.0
31
0.0
0
LINE
8
0
10
60.0
20
5.0
30
0.0
11
55.0
21
5.0
31
0.0
0
LINE
8
0
10
55.0
20
5.0
30
0.0
11
50.0
21
5.0
31
0.0
0
LINE
8
0
10
50.0
20
5.0
30
0.0
11
45.0
21
5.0
31
0.0
0
LINE
8
0
10
45.0
20
5.0
30
0.0
11
40.0
21
5.0
31
0.0
0
LINE
8
0
10
40.0
20
5.0
30
0.0
11
35.0
21
5.0
31
0.0
0
LINE
8
0
10
35.0
20
5.0
30
0.0
11
30.0
21
5.0
31
0.0
0
LINE
8
0
10
30.0
20
5.0
30
0.0
11
25.0
21
5.0
31
0.0
0
LINE
8
0
10
25.0
20
5.0
30
0.0
11
20.0
21
5.0
31
0.0
0
LINE
8
0
10
20.0
20
5.0
30
0.0
11
15.0
21
5.0
31
0.0
0
LINE
8
0
10
15.0
20
5.0
30
0.0
11
10.0
21
5.0
31
0.0
0
LINE
8
0
10
10.0
20
5.0
30
0.0
11
5.0
21
5.0
31
0.0
0
LINE
8
0
10
5.0
20
5.0
30
0.0
11
0.0
21
5.0
31
0.0
0
LINE
8
0
10
0.0
20
5.0
30
0.0
11
0.0
21
10.0
31
0.0
0
LINE
8
0
10
0.0
20
10.0
30
0.0
11
5.0
21
10.0
31
0.0
0
LINE
8
0
10
5.0
20
10.0
30
0.0
11
10.0
21
10.0
31
0.0
0
LINE
8
0
10
10.0
20
10.0
30
0.0
11
15.0
21
10.0
31
0.0
0
LINE
8
0
10
15.0
20
10.0
30
0.0
11
20.0
21
10.0
31
0.0
0
LINE
8
0
10
20.0
20
10.0
30
0.0
11
25.0
21
10.0
31
0.0
0
LINE
8
0
10
25.0
20
10.0
30
0.0
11
30.0
21
10.0
31
0.0
0
LINE
8
0
10
30.0
20
10.0
30
0.0
11
35.0
21
10.0
31
0.0
0
LINE
8
0
10
35.0
20
10.0
30
0.0
11
40.0
21
10.0
31
0.0
0
LINE
8
0
10
40.0
20
10.0
30
0.0
11
45.0
21
10.0
31
0.0
0
LINE
8
0
10
45.0
20
10.0
30
0.0
11
50.0
21
10.0
31
0.0
0
LINE
8
0
10
50.0
20
10.0
30
0.0
11
55.0
21
10.0
31
0.0
0
LINE
8
0
10
55.0
20
10.0
30
0.0
11
60.0
21
10.0
31
0.0
0
LINE
8
0
10
60.0
20
10.0
30
0.0
11
65.0
21
10.0
31
0.0
0
LINE
8
0
10
65.0
20
10.0
30
0.0
11
70.0
21
10.0
31
0.0
0
LINE
8
0
10
70.0
20
10.0
30
0.0
11
75.0
21
10.0
31
0.0
0
LINE
8
0
10
75.0
20
10.0
30
0.0
11
80.0
21
10.0
31
0.0
0
LINE
8
0
10
80.0
20
10.0
30
0.0
11
85.0
21
10.0
31
0.0
0
LINE
8
0
10
85.0
20
10.0
30
0.0
11
90.0
21
10.0
31
0.0
0
LINE
8
0
10
90.0
20
10.0
30
0.0
11
95.0
21
10.0
31
0.0
0
LINE
8
0
10
95.0
20
10.0
30
0.0
11
100.0
21
10.0
31
0.0
0
LINE
8
0
10
100.0
20
10.0
30
0.0
11
105.0
21
10.0
31
0.0
0
LINE
8
0
10
105.0
20
10.0
30
0.0
11
110.0
21
10.0
31
0.0
0
LINE
8
0
10
110.0
20
10.0
30
0.0
11
115.0
21
10.0
31
0.0
0
LINE
8
0
10
115.0
20
10.0
30
0.0
11
115.0
21
15.0
31
0.0
0
LINE
8
0
10
115.0
20
15.0
30
0.0
11
110.0
21
15.0
31
0.0
0
LINE
8
0
10
110.0
20
15.0
30
0.0
11
105.0
21
15.0
31
0.0
0
LINE
8
0
10
105.0
20
15.0
30
0.0
11
100.0
21
15.0
31
0.0
0
LINE
8
0
10
100.0
20
15.0
30
0.0
11
95.0
21
15.0
31
0.0
0
LINE
8
0
10
95.0
20
15.0
30
0.0
11
90.0
21
15.0
31
0.0
0
LINE
8
0
10
90.0
20
15.0
30
0.0
11
85.0
21
15.0
31
0.0
0
LINE
8
0
10
85.0
20
15.0
30
0.0
11
80.0
21
15.0
31
0.0
0
LINE
8
0
10
80.0
20
15.0
30
0.0
11
75.0
21
15.0
31
0.0
0
LINE
8
0
10
75.0
20
15.0
30
0.0
11
70.0
21
15.0
31
0.0
0
LINE
8
0
10
70.0
20
15.0
30
0.0
11
65.0
21
15.0
31
0.0
0
LINE
8
0
10
65.0
20
15.0
30
0.0
11
60.0
21
15.0
31
0.0
0
LINE
8
0
10
60.0
20
15.0
30
0.0
11
55.0
21
15.0
31
0.0
0
LINE
8
0
10
55.0
20
15.0
30
0.0
11
50.0
21
15.0
31
0.0
0
LINE
8
0
10
50.0
20
15.0
30
0.0
11
45.0
21
15.0
31
0.0
0
LINE
8
0
10
45.0
20
15.0
30
0.0
11
40.0
21
15.0
31
0.0
0
LINE
8
0
10
40.0
20
15.0
30
0.0
11
35.0
21
15.0
31
0.0
0
LINE
8
0
10
35.0
20
15.0
30
0.0
11
30.0
21
15.0
31
0.0
0
LINE
8
0
10
30.0
20
15.0
30
0.0
11
25.0
21
15.0
31
0.0
0
LINE
8
0
10
25.0
20
15.0
30
0.0
11
20.0
21
15.0
31
0.0
0
LINE
8
0
10
20.0
20
15.0
30
0.0
11
15.0
21
15.0
31
0.0
0
LINE
8
0
10
15.0
20
15.0
30
0.0
11
10.0
21
15.0
31
0.0
0
LINE
8
0
10
10.0
20
15.0
30
0.0
11
5.0
21
15.0
31
0.0
0
LINE
8
0
10
5.0
20
15.0
30
0.0
11
0.0
21
15.0
31
0.0
0
LINE
8
0
10
0.0
20
15.0
30
0.0
11
0.0
21
20.0
31
0.0
0
LINE
8
0
10
0.0
20
20.0
30
0.0
11
5.0
21
20.0
31
0.0
0
LINE
8
0
10
5.0
20
20.0
30
0.0
11
10.0
21
20.0
31
0.0
0
LINE
8
0
10
10.0
20
20.0
30
0.0
11
15.0
21
20.0
31
0.0
0
LINE
8
0
10
15.0
20
20.0
30
0.0
11
20.0
21
20.0
31
0.0
0
LINE
8
0
10
20.0
20
20.0
30
0.0
11
25.0
21
20.0
31
0.0
0
LINE
8
0
10
25.0
20
20.0
30
0.0
11
30.0
21
20.0
31
0.0
0
LINE
8
0
10
30.0
20
20.0
30
0.0
11
35.0
21
20.0
31
0.0
0
LINE
8
0
10
35.0
20
20.0
30
0.0
11
40.0
21
20.0
31
0.0
0
LINE
8
0
10
40.0
20
20.0
30
0.0
11
45.0
21
20.0
31
0.0
0
LINE
8
0
10
45.0
20
20.0
30
0.0
11
50.0
21
20.0
31
0.0
0
LINE
8
0
10
50.0
20
20.0
30
0.0
11
55.0
21
20.0
31
0.0
0
LINE
8
0
10
55.0
20
20.0
30
0.0
11
60.0
21
20.0
31
0.0
0
LINE
8
0
10
60.0
20
20.0
30
0.0
11
65.0
21
20.0
31
0.0
0
LINE
8
0
10
65.0
20
20.0
30
0.0
11
70.0
21
20.0
31
0.0
0
LINE
8
0
10
70.0
20
20.0
30
0.0
11
75.0
21
20.0
31
0.0
0
LINE
8
0
10
75.0
20
20.0
30
0.0
11
80.0
21
20.0
31
0.0
0
LINE
8
0
10
80.0
20
20.0
30
0.0
11
85.0
21
20.0
31
0.0
0
LINE
8
0
10
85.0
20
20.0
30
0.0
11
90.0
21
20.0
31
0.0
0
LINE
8
0
10
90.0
20
20.0
30
0.0
11
95.0
21
20.0
31
0.0
0
LINE
8
0
10
95.0
20
20.0
30
0.0
11
100.0
21
20.0
31
0.0
0
LINE
8
0
10
100.0
20
20.0
30
0.0
11
105.0
21
20.0
31
0.0
0
LINE
8
0
10
105.0
20
20.0
30
0.0
11
110.0
21
20.0
31
0.0
0
LINE
8
0
10
110.0
20
20.0
30
0.0
11
115.0
21
20.0
31
0.0
0
LINE
8
0
10
115.0
20
20.0
30
0.0
11
115.0
21
25.0
31
0.0
0
LINE
8
0
10
115.0
20
25.0
30
0.0
11
110.0
21
25.0
31
0.0
0
LINE
8
0
10
110.0
20
25.0
30
0.0
11
105.0
21
25.0
31
0.0
0
LINE
8
0
10
105.0
20
25.0
30
0.0
11
100.0
21
25.0
31
0.0
0
LINE
8
0
10
100.0
20
25.0
30
0.0
11
95.0
21
25.0
31
0.0
0
LINE
8
0
10
95.0
20
25.0
30
0.0
11
90.0
21
25.0
31
0.0
0
LINE
8
0
10
90.0
20
25.0
30
0.0
11
85.0
21
25.0
31
0.0
0
LINE
8
0
10
85.0
20
25.0
30
0.0
11
80.0
21
25.0
31
0.0
0
LINE
8
0
10
80.0
20
25.0
30
0.0
11
75.0
21
25.0
31
0.0
0
LINE
8
0
10
75.0
20
25.0
30
0.0
11
70.0
21
25.0
31
0.0
0
LINE
8
0
10
70.0
20
25.0
30
0.0
11
65.0
21
25.0
31
0.0
0
LINE
8
0
10
65.0
20
25.0
30
0.0
11
60.0
21
25.0
31
0.0
0
LINE
8
0
10
60.0
20
25.0
30
0.0
11
55.0
21
25.0
31
0.0
0
LINE
8
0
10
55.0
20
25.0
30
0.0
11
50.0
21
25.0
31
0.0
0
LINE
8
0
10
50.0
20
25.0
30
0.0
11
45.0
21
25.0
31
0.0
0
LINE
8
0
10
45.0
20
25.0
30
0.0
11
40.0
21
25.0
31
0.0
0
LINE
8
0
10
40.0
20
25.0
30
0.0
11
35.0
21
25.0
31
0.0
0
LINE
8
0
10
35.0
20
25.0
30
0.0
11
30.0
21
25.0
31
0.0
0
LINE
8
0
10
30.0
20
25.0
30
0.0
11
25.0
21
25.0
31
0.0
0
LINE
8
0
10
25.0
20
25.0
30
0.0
11
20.0
21
25.0
31
0.0
0
LINE
8
0
10
20.0
20
25.0
30
0.0
11
15.0
21
25.0
31
0.0
0
LINE
8
0
10
15.0
20
25.0
30
0.0
11
10.0
21
25.0
31
0.0
0
LINE
8
0
10
10.0
20
25.0
30
0.0
11
5.0
21
25.0
31
0.0
0
LINE
8
0
10
5.0
20
25.0
30
0.0
11
0.0
21
25.0
31
0.0
0
LINE
8
0
10
0.0
20
25.0
30
0.0
11
0.0
21
30.0
31
0.0
0
LINE
8
0
10
0.0
20
30.0
30
0.0
11
5.0
21
30.0
31
0.0
0
LINE
8
0
10
5.0
20
30.0
30
0.0
11
10.0
21
30.0
31
0.0
0
LINE
8
0
10
10.0
20
30.0
30
0.0
11
15.0
21
30.0
31
0.0
0
LINE
8
0
10
15.0
20
30.0
30
0.0
11
20.0
21
30.0
31
0.0
0
LINE
8
0
10
20.0
20
30.0
30
0.0
11
25.0
21
30.0
31
0.0
0
LINE
8
0
10
25.0
20
30.0
30
0.0
11
30.0
21
30.0
31
0.0
0
LINE
8
0
10
30.0
20
30.0
30
0.0
11
35.0
21
30.0
31
0.0
0
LINE
8
0
10
35.0
20
30.0
30
0.0
11
40.0
21
30.0
31
0.0
0
LINE
8
0
10
40.0
20
30.0
30
0.0
11
45.0
21
30.0
31
0.0
0
LINE
8
0
10
45.0
20
30.0
30
0.0
11
50.0
21
30.0
31
0.0
0
LINE
8
0
10
50.0
20
30.0
30
0.0
11
55.0
21
30.0
31
0.0
0
LINE
8
0
10
55.0
20
30.0
30
0.0
11
60.0
21
30.0
31
0.0
0
LINE
8
0
10
60.0
20
30.0
30
0.0
11
65.0
21
30.0
31
0.0
0
LINE
8
0
10
65.0
20
30.0
30
0.0
11
70.0
21
30.0
31
0.0
0
LINE
8
0
10
70.0
20
30.0
30
0.0
11
75.0
21
30.0
31
0.0
0
LINE
8
0
10
75.0
20
30.0
30
0.0
11
80.0
21
30.0
31
0.0
0
LINE
8
0
10
80.0
20
30.0
30
0.0
11
85.0
21
30.0
31
0.0
0
LINE
8
0
10
85.0
20
30.0
30
0.0
11
90.0
21
30.0
31
0.0
0
LINE
8
0
10
90.0
20
30.0
30
0.0
11
95.0
21
30.0
31
0.0
0
LINE
8
0
10
95.0
20
30.0
30
0.0
11
100.0
21
30.0
31
0.0
0
LINE
8
0
10
100.0
20
30.0
30
0.0
11
105.0
21
30.0
31
0.0
0
LINE
8
0
10
105.0
20
30.0
30
0.0
11
110.0
21
30.0
31
0.0
0
LINE
8
0
10
110.0
20
30.0
30
0.0
11
115.0
21
30.0
31
0.0
0
LINE
8
0
10
115.0
20
30.0
30
0.0
11
115.0
21
35.0
31
0.0
0
LINE
8
0
10
115.0
20
35.0
30
0.0
11
110.0
21
35.0
31
0.0
0
LINE
8
0
10
110.0
20
35.0
30
0.0
11
105.0
21
35.0
31
0.0
0
LINE
8
0
10
105.0
20
35.0
30
0.0
11
100.0
21
35.0
31
0.0
0
LINE
8
0
10
100.0
20
35.0
30
0.0
11
95.0
21
35.0
31
0.0
0
LINE
8
0
10
95.0
20
35.0
30
0.0
11
90.0
21
35.0
31
0.0
0
LINE
8
0
10
90.0
20
35.0
30
0.0
11
85.0
21
35.0
31
0.0
0
LINE
8
0
10
85.0
20
35.0
30
0.0
11
80.0
21
35.0
31
0.0
0
LINE
8
0
10
80.0
20
35.0
30
0.0
11
75.0
21
35.0
31
0.0
0
LINE
8
0
10
75.0
20
35.0
30
0.0
11
70.0
21
35.0
31
0.0
0
LINE
8
0
10
70.0
20
35.0
30
0.0
11
65.0
21
35.0
31
0.0
0
LINE
8
0
10
65.0
20
35.0
30
0.0
11
60.0
21
35.0
31
0.0
0
LINE
8
0
10
60.0
20
35.0
30
0.0
11
55.0
21
35.0
31
0.0
0
LINE
8
0
10
55.0
20
35.0
30
0.0
11
50.0
21
35.0
31
0.0
0
LINE
8
0
10
50.0
20
35.0
30
0.0
11
45.0
21
35.0
31
0.0
0
LINE
8
0
10
45.0
20
35.0
30
0.0
11
40.0
21
35.0
31
0.0
0
LINE
8
0
10
40.0
20
35.0
30
0.0
11
35.0
21
35.0
31
0.0
0
LINE
8
0
10
35.0
20
35.0
30
0.0
11
30.0
21
35.0
31
0.0
0
LINE
8
0
10
30.0
20
35.0
30
0.0
11
25.0
21
35.0
31
0.0
0
LINE
8
0
10
25.0
20
35.0
30
0.0
11
20.0
21
35.0
31
0.0
0
LINE
8
0
10
20.0
20
35.0
30
0.0
11
15.0
21
35.0
31
0.0
0
LINE
8
0
10
15.0
20
35.0
30
0.0
11
10.0
21
35.0
31
0.0
0
LINE
8
0
10
10.0
20
35.0
30
0.0
11
5.0
21
35.0
31
0.0
0
LINE
8
0
10
5.0
20
35.0
30
0.0
11
0.0
21
35.0
31
0.0
0
LINE
8
0
10
0.0
20
35.0
30
0.0
11
0.0
21
40.0
31
0.0
0
LINE
8
0
10
0.0
20
40.0
30
0.0
11
5.0
21
40.0
31
0.0
0
LINE
8
0
10
5.0
20
40.0
30
0.0
11
10.0
21
40.0
31
0.0
0
LINE
8
0
10
10.0
20
40.0
30
0.0
11
15.0
21
40.0
31
0.0
0
LINE
8
0
10
15.0
20
40.0
30
0.0
11
20.0
21
40.0
31
0.0
0
LINE
8
0
10
20.0
20
40.0
30
0.0
11
25.0
21
40.0
31
0.0
0
LINE
8
0
10
25.0
20
40.0
30
0.0
11
30.0
21
40.0
31
0.0
0
LINE
8
0
10
30.0
20
40.0
30
0.0
11
35.0
21
40.0
31
0.0
0
LINE
8
0
10
35.0
20
40.0
30
0.0
11
40.0
21
40.0
31
0.0
0
LINE
8
0
10
40.0
20
40.0
30
0.0
11
45.0
21
40.0
31
0.0
0
LINE
8
0
10
45.0
20
40.0
30
0.0
11
50.0
21
40.0
31
0.0
0
LINE
8
0
10
50.0
20
40.0
30
0.0
11
55.0
21
40.0
31
0.0
0
LINE
8
0
10
55.0
20
40.0
30
0.0
11
60.0
21
40.0
31
0.0
0
LINE
8
0
10
60.0
20
40.0
30
0.0
11
65.0
21
40.0
31
0.0
0
LINE
8
0
10
65.0
20
40.0
30
0.0
11
70.0
21
40.0
31
0.0
0
LINE
8
0
10
70.0
20
40.0
30
0.0
11
75.0
21
40.0
31
0.0
0
LINE
8
0
10
75.0
20
40.0
30
0.0
11
80.0
21
40.0
31
0.0
0
LINE
8
0
10
80.0
20
40.0
30
0.0
11
85.0
21
40.0
31
0.0
0
LINE
8
0
10
85.0
20
40.0
30
0.0
11
90.0
21
40.0
31
0.0
0
LINE
8
0
10
90.0
20
40.0
30
0.0
11
95.0
21
40.0
31
0.0
0
LINE
8
0
10
95.0
20
40.0
30
0.0
11
100.0
21
40.0
31
0.0
0
LINE
8
0
10
100.0
20
40.0
30
0.0
11
105.0
21
40.0
31
0.0
0
LINE
8
0
10
105.0
20
40.0
30
0.0
11
110.0
21
40.0
31
0.0
0
LINE
8
0
10
110.0
20
40.0
30
0.0
11
115.0
21
40.0
31
0.0
0
LINE
8
0
10
115.0
20
40.0
30
0.0
11
115.0
21
45.0
31
0.0
0
LINE
8
0
10
115.0
20
45.0
30
0.0
11
110.0
21
45.0
31
0.0
0
LINE
8
0
10
110.0
20
45.0
30
0.0
11
105.0
21
45.0
31
0.0
0
LINE
8
0
10
105.0
20
45.0
30
0.0
11
100.0
21
45.0
31
0.0
0
LINE
8
0
10
100.0
20
45.0
30
0.0
11
95.0
21
45.0
31
0.0
0
LINE
8
0
10
95.0
20
45.0
30
0.0
11
90.0
21
45.0
31
0.0
0
LINE
8
0
10
90.0
20
45.0
30
0.0
11
85.0
21
45.0
31
0.0
0
LINE
8
0
10
85.0
20
45.0
30
0.0
11
80.0
21
45.0
31
0.0
0
LINE
8
0
10
80.0
20
45.0
30
0.0
11
75.0
21
45.0
31
0.0
0
LINE
8
0
10
75.0
20
45.0
30
0.0
11
70.0
21
45.0
31
0.0
0
LINE
8
0
10
70.0
20
45.0
30
0.0
11
65.0
21
45.0
31
0.0
0
LINE
8
0
10
65.0
20
45.0
30
0.0
11
60.0
21
45.0
31
0.0
0
LINE
8
0
10
60.0
20
45.0
30
0.0
11
55.0
21
45.0
31
0.0
0
LINE
8
0
10
55.0
20
45.0
30
0.0
11
50.0
21
45.0
31
0.0
0
LINE
8
0
10
50.0
20
45.0
30
0.0
11
45.0
21
45.0
31
0.0
0
LINE
8
0
10
45.0
20
45.0
30
0.0
11
40.0
21
45.0
31
0.0
0
LINE
8
0
10
40.0
20
45.0
30
0.0
11
35.0
21
45.0
31
0.0
0
LINE
8
0
10
35.0
20
45.0
30
0.0
11
30.0
21
45.0
31
0.0
0
LINE
8
0
10
30.0
20
45.0
30
0.0
11
25.0
21
45.0
31
0.0
0
LINE
8
0
10
25.0
20
45.0
30
0.0
11
20.0
21
45.0
31
0.0
0
LINE
8
0
10
20.0
20
45.0
30
0.0
11
15.0
21
45.0
31
0.0
0
LINE
8
0
10
15.0
20
45.0
30
0.0
11
10.0
21
45.0
31
0.0
0
LINE
8
0
10
10.0
20
45.0
30
0.0
11
5.0
21
45.0
31
0.0
0
LINE
8
0
10
5.0
20
45.0
30
0.0
11
0.0
21
45.0
31
0.0
0
LINE
8
0
10
0.0
20
45.0
30
0.0
11
0.0
21
50.0
31
0.0
0
LINE
8
0
10
0.0
20
50.0
30
0.0
11
5.0
21
50.0
31
0.0
0
LINE
8
0
10
5.0
20
50.0
30
0.0
11
10.0
21
50.0
31
0.0
0
LINE
8
0
10
10.0
20
50.0
30
0.0
11
15.0
21
50.0
31
0.0
0
LINE
8
0
10
15.0
20
50.0
30
0.0
11
20.0
21
50.0
31
0.0
0
LINE
8
0
10
20.0
20
50.0
30
0.0
11
25.0
21
50.0
31
0.0
0
LINE
8
0
10
25.0
20
50.0
30
0.0
11
30.0
21
50.0
31
0.0
0
LINE
8
0
10
30.0
20
50.0
30
0.0
11
35.0
21
50.0
31
0.0
0
LINE
8
0
10
35.0
20
50.0
30
0.0
11
40.0
21
50.0
31
0.0
0
LINE
8
0
10
40.0
20
50.0
30
0.0
11
45.0
21
50.0
31
0.0
0
LINE
8
0
10
45.0
20
50.0
30
0.0
11
50.0
21
50.0
31
0.0
0
LINE
8
0
10
50.0
20
50.0
30
0.0
11
55.0
21
50.0
31
0.0
0
LINE
8
0
10
55.0
20
50.0
30
0.0
11
60.0
21
50.0
31
0.0
0
LINE
8
0
10
60.0
20
50.0
30
0.0
11
65.0
21
50.0
31
0.0
0
LINE
8
0
10
65.0
20
50.0
30
0.0
11
70.0
21
50.0
31
0.0
0
LINE
8
0
10
70.0
20
50.0
30
0.0
11
75.0
21
50.0
31
0.0
0
LINE
8
0
10
75.0
20
50.0
30
0.0
11
80.0
21
50.0
31
0.0
0
LINE
8
0
10
80.0
20
50.0
30
0.0
11
85.0
21
50.0
31
0.0
0
LINE
8
0
10
85.0
20
50.0
30
0.0
11
90.0
21
50.0
31
0.0
0
LINE
8
0
10
90.0
20
50.0
30
0.0
11
95.0
21
50.0
31
0.0
0
LINE
8
0
10
95.0
20
50.0
30
0.0
11
100.0
21
50.0
31
0.0
0
LINE
8
0
10
100.0
20
50.0
30
0.0
11
105.0
21
50.0
31
0.0
0
LINE
8
0
10
105.0
20
50.0
30
0.0
11
110.0
21
50.0
31
0.0
0
LINE
8
0
10
110.0
20
50.0
30
0.0
11
115.0
21
50.0
31
0.0
0
LINE
8
0
10
115.0
20
50.0
30
0.0
11
115.0
21
55.0
31
0.0
0
LINE
8
0
10
115.0
20
55.0
30
0.0
11
110.0
21
55.0
31
0.0
0
LINE
8
0
10
110.0
20
55.0
30
0.0
11
105.0
21
55.0
31
0.0
0
LINE
8
0
10
105.0
20
55.0
30
0.0
11
100.0
21
55.0
31
0.0
0
LINE
8
0
10
100.0
20
55.0
30
0.0
11
95.0
21
55.0
31
0.0
0
LINE
8
0
10
95.0
20
55.0
30
0.0
11
90.0
21
55.0
31
0.0
0
LINE
8
0
10
90.0
20
55.0
30
0.0
11
85.0
21
55.0
31
0.0
0
LINE
8
0
10
85.0
20
55.0
30
0.0
11
80.0
21
55.0
31
0.0
0
LINE
8
0
10
80.0
20
55.0
30
0.0
11
75.0
21
55.0
31
0.0
0
LINE
8
0
10
75.0
20
55.0
30
0.0
11
70.0
21
55.0
31
0.0
0
LINE
8
0
10
70.0
20
55.0
30
0.0
11
65.0
21
55.0
31
0.0
0
LINE
8
0
10
65.0
20
55.0
30
0.0
11
60.0
21
55.0
31
0.0
0
LINE
8
0
10
60.0
20
55.0
30
0.0
11
55.0
21
55.0
31
0.0
0
LINE
8
0
10
55.0
20
55.0
30
0.0
11
50.0
21
55.0
31
0.0
0
LINE
8
0
10
50.0
20
55.0
30
0.0
11
45.0
21
55.0
31
0.0
0
LINE
8
0
10
45.0
20
55.0
30
0.0
11
40.0
21
55.0
31
0.0
0
LINE
8
0
10
40.0
20
55.0
30
0.0
11
35.0
21
55.0
31
0.0
0
LINE
8
0
10
35.0
20
55.0
30
0.0
11
30.0
21
55.0
31
0.0
0
LINE
8
0
10
30.0
20
55.0
30
0.0
11
25.0
21
55.0
31
0.0
0
LINE
8
0
10
25.0
20
55.0
30
0.0
11
20.0
21
55.0
31
0.0
0
LINE
8
0
10
20.0
20
55.0
30
0.0
11
15.0
21
55.0
31
0.0
0
LINE
8
0
10
15.0
20
55.0
30
0.0
11
10.0
21
55.0
31
0.0
0
LINE
8
0
10
10.0
20
55.0
30
0.0
11
5.0
21
55.0
31
0.0
0
LINE
8
0
10
5.0
20
55.0
30
0.0
11
0.0
21
55.0
31
0.0
0
LINE
8
0
10
0.0
20
55.0
30
0.0
11
0.0
21
60.0
31
0.0
0
LINE
8
0
10
0.0
20
60.0
30
0.0
11
5.0
21
60.0
31
0.0
0
LINE
8
0
10
5.0
20
60.0
30
0.0
11
10.0
21
60.0
31
0.0
0
LINE
8
0
10
10.0
20
60.0
30
0.0
11
15.0
21
60.0
31
0.0
0
LINE
8
0
10
15.0
20
60.0
30
0.0
11
20.0
21
60.0
31
0.0
0
LINE
8
0
10
20.0
20
60.0
30
0.0
11
25.0
21
60.0
31
0.0
0
LINE
8
0
10
25.0
20
60.0
30
0.0
11
30.0
21
60.0
31
0.0
0
LINE
8
0
10
30.0
20
60.0
30
0.0
11
35.0
21
60.0
31
0.0
0
LINE
8
0
10
35.0
20
60.0
30
0.0
11
40.0
21
60.0
31
0.0
0
LINE
8
0
10
40.0
20
60.0
30
0.0
11
45.0
21
60.0
31
0.0
0
LINE
8
0
10
45.0
20
60.0
30
0.0
11
50.0
21
60.0
31
0.0
0
LINE
8
0
10
50.0
20
60.0
30
0.0
11
55.0
21
60.0
31
0.0
0
LINE
8
0
10
55.0
20
60.0
30
0.0
11
60.0
21
60.0
31
0.0
0
LINE
8
0
10
60.0
20
60.0
30
0.0
11
65.0
21
60.0
31
0.0
0
LINE
8
0
10
65.0
20
60.0
30
0.0
11
70.0
21
60.0
31
0.0
0
LINE
8
0
10
70.0
20
60.0
30
0.0
11
75.0
21
60.0
31
0.0
0
LINE
8
0
10
75.0
20
60.0
30
0.0
11
80.0
21
60.0
31
0.0
0
LINE
8
0
10
80.0
20
60.0
30
0.0
11
85.0
21
60.0
31
0.0
0
LINE
8
0
10
85.0
20
60.0
30
0.0
11
90.0
21
60.0
31
0.0
0
LINE
8
0
10
90.0
20
60.0
30
0.0
11
95.0
21
60.0
31
0.0
0
LINE
8
0
10
95.0
20
60.0
30
0.0
11
100.0
21
60.0
31
0.0
0
LINE
8
0
10
100.0
20
60.0
30
0.0
11
105.0
21
60.0
31
0.0
0
LINE
8
0
10
105.0
20
60.0
30
0.0
11
110.0
21
60.0
31
0.0
0
LINE
8
0
10
110.0
20
60.0
30
0.0
11
115.0
21
60.0
31
0.0
0
LINE
8
0
10
115.0
20
60.0
30
0.0
11
115.0
21
65.0
31
0.0
0
LINE
8
0
10
115.0
20
65.0
30
0.0
11
110.0
21
65.0
31
0.0
0
LINE
8
0
10
110.0
20
65.0
30
0.0
11
105.0
21
65.0
31
0.0
0
LINE
8
0
10
105.0
20
65.0
30
0.0
11
100.0
21
65.0
31
0.0
0
LINE
8
0
10
100.0
20
65.0
30
0.0
11
95.0
21
65.0
31
0.0
0
LINE
8
0
10
95.0
20
65.0
30
0.0
11
90.0
21
65.0
31
0.0
0
LINE
8
0
10
90.0
20
65.0
30
0.0
11
85.0
21
65.0
31
0.0
0
LINE
8
0
10
85.0
20
65.0
30
0.0
11
80.0
21
65.0
31
0.0
0
LINE
8
0
10
80.0
20
65.0
30
0.0
11
75.0
21
65.0
31
0.0
0
LINE
8
0
10
75.0
20
65.0
30
0.0
11
70.0
21
65.0
31
0.0
0
LINE
8
0
10
70.0
20
65.0
30
0.0
11
65.0
21
65.0
31
0.0
0
LINE
8
0
10
65.0
20
65.0
30
0.0
11
60.0
21
65.0
31
0.0
0
LINE
8
0
10
60.0
20
65.0
30
0.0
11
55.0
21
65.0
31
0.0
0
LINE
8
0
10
55.0
20
65.0
30
0.0
11
50.0
21
65.0
31
0.0
0
LINE
8
0
10
50.0
20
65.0
30
0.0
11
45.0
21
65.0
31
0.0
0
LINE
8
0
10
45.0
20
65.0
30
0.0
11
40.0
21
65.0
31
0.0
0
LINE
8
0
10
40.0
20
65.0
30
0.0
11
35.0
21
65.0
31
0.0
0
LINE
8
0
10
35.0
20
65.0
30
0.0
11
30.0
21
65.0
31
0.0
0
LINE
8
0
10
30.0
20
65.0
30
0.0
11
25.0
21
65.0
31
0.0
0
LINE
8
0
10
25.0
20
65.0
30
0.0
11
20.0
21
65.0
31
0.0
0
LINE
8
0
10
20.0
20
65.0
30
0.0
11
15.0
21
65.0
31
0.0
0
LINE
8
0
10
15.0
20
65.0
30
0.0
11
10.0
21
65.0
31
0.0
0
LINE
8
0
10
10.0
20
65.0
30
0.0
11
5.0
21
65.0
31
0.0
0
LINE
8
0
10
5.0
20
65.0
30
0.0
11
0.0
21
65.0
31
0.0
0
LINE
8
0
10
0.0
20
65.0
30
0.0
11
0.0
21
70.0
31
0.0
0
LINE
8
0
10
0.0
20
70.0
30
0.0
11
5.0
21
70.0
31
0.0
0
LINE
8
0
10
5.0
20
70.0
30
0.0
11
10.0
21
70.0
31
0.0
0
LINE
8
0
10
10.0
20
70.0
30
0.0
11
15.0
21
70.0
31
0.0
0
LINE
8
0
10
15.0
20
70.0
30
0.0
11
20.0
21
70.0
31
0.0
0
LINE
8
0
10
20.0
20
70.0
30
0.0
11
25.0
21
70.0
31
0.0
0
LINE
8
0
10
25.0
20
70.0
30
0.0
11
30.0
21
70.0
31
0.0
0
LINE
8
0
10
30.0
20
70.0
30
0.0
11
35.0
21
70.0
31
0.0
0
LINE
8
0
10
35.0
20
70.0
30
0.0
11
40.0
21
70.0
31
0.0
0
LINE
8
0
10
40.0
20
70.0
30
0.0
11
45.0
21
70.0
31
0.0
0
LINE
8
0
10
45.0
20
70.0
30
0.0
11
50.0
21
70.0
31
0.0
0
LINE
8
0
10
50.0
20
70.0
30
0.0
11
55.0
21
70.0
31
0.0
0
LINE
8
0
10
55.0
20
70.0
30
0.0
11
60.0
21
70.0
31
0.0
0
LINE
8
0
10
60.0
20
70.0
30
0.0
11
65.0
21
70.0
31
0.0
0
LINE
8
0
10
65.0
20
70.0
30
0.0
11
70.0
21
70.0
31
0.0
0
LINE
8
0
10
70.0
20
70.0
30
0.0
11
75.0
21
70.0
31
0.0
0
LINE
8
0
10
75.0
20
70.0
30
0.0
11
80.0
21
70.0
31
0.0
0
LINE
8
0
10
80.0
20
70.0
30
0.0
11
85.0
21
70.0
31
0.0
0
LINE
8
0
10
85.0
20
70.0
30
0.0
11
90.0
21
70.0
31
0.0
0
LINE
8
0
10
90.0
20
70.0
30
0.0
11
95.0
21
70.0
31
0.0
0
LINE
8
0
10
95.0
20
70.0
30
0.0
11
100.0
21
70.0
31
0.0
0
LINE
8
0
10
100.0
20
70.0
30
0.0
11
105.0
21
70.0
31
0.0
0
LINE
8
0
10
105.0
20
70.0
30
0.0
11
110.0
21
70.0
31
0.0
0
LINE
8
0
10
110.0
20
70.0
30
0.0
11
115.0
21
70.0
31
0.0
0
LINE
8
0
10
115.0
20
70.0
30
0.0
11
115.0
21
75.0
31
0.0
0
LINE
8
0
10
115.0
20
75.0
30
0.0
11
110.0
21
75.0
31
0.0
0
LINE
8
0
10
110.0
20
75.0
30
0.0
11
105.0
21
75.0
31
0.0
0
LINE
8
0
10
105.0
20
75.0
30
0.0
11
100.0
21
75.0
31
0.0
0
LINE
8
0
10
100.0
20
75.0
30
0.0
11
95.0
21
75.0
31
0.0
0
LINE
8
0
10
95.0
20
75.0
30
0.0
11
90.0
21
75.0
31
0.0
0
LINE
8
0
10
90.0
20
75.0
30
0.0
11
85.0
21
75.0
31
0.0
0
LINE
8
0
10
85.0
20
75.0
30
0.0
11
80.0
21
75.0
31
0.0
0
LINE
8
0
10
80.0
20
75.0
30
0.0
11
75.0
21
75.0
31
0.0
0
LINE
8
0
10
75.0
20
75.0
30
0.0
11
70.0
21
75.0
31
0.0
0
LINE
8
0
10
70.0
20
75.0
30
0.0
11
65.0
21
75.0
31
0.0
0
LINE
8
0
10
65.0
20
75.0
30
0.0
11
60.0
21
75.0
31
0.0
0
LINE
8
0
10
60.0
20
75.0
30
0.0
11
55.0
21
75.0
31
0.0
0
LINE
8
0
10
55.0
20
75.0
30
0.0
11
50.0
21
75.0
31
0.0
0
LINE
8
0
10
50.0
20
75.0
30
0.0
11
45.0
21
75.0
31
0.0
0
LINE
8
0
10
45.0
20
75.0
30
0.0
11
40.0
21
75.0
31
0.0
0
LINE
8
0
10
40.0
20
75.0
30
0.0
11
35.0
21
75.0
31
0.0
0
LINE
8
0
10
35.0
20
75.0
30
0.0
11
30.0
21
75.0
31
0.0
0
LINE
8
0
10
30.0
20
75.0
30
0.0
11
25.0
21
75.0
31
0.0
0
LINE
8
0
10
25.0
20
75.0
30
0.0
11
20.0
21
75.0
31
0.0
0
LINE
8
0
10
20.0
20
75.0
30
0.0
11
15.0
21
75.0
31
0.0
0
LINE
8
0
10
15.0
20
75.0
30
0.0
11
10.0
21
75.0
31
0.0
0
LINE
8
0
10
10.0
20
75.0
30
0.0
11
5.0
21
75.0
31
0.0
0
LINE
8
0
10
5.0
20
75.0
30
0.0
11
0.0
21
75.0
31
0.0
0
ENDSEC
0
EOF
