0
SECTION
2
HEADER
9
$ACADVER
1
AC1009
9
$INSBASE
10
0.0
20
0.0
30
0.0
9
$EXTMIN
10
15.5135608027546095
20
11.2226824300302308
30
0.0
9
$EXTMAX
10
390.5136828730675802
20
229.2227129476083007
30
0.0
9
$LIMMIN
10
0.0
20
0.0
9
$LIMMAX
10
12.0
20
9.0
9
$ORTHOMODE
70
0
9
$REGENMODE
70
1
9
$FILLMODE
70
1
9
$QTEXTMODE
70
0
9
$MIRRTEXT
70
0
9
$DRAGMODE
70
2
9
$LTSCALE
40
1.0
9
$OSMODE
70
37
9
$ATTMODE
70
1
9
$TEXTSIZE
40
0.2
9
$TRACEWID
40
0.05
9
$TEXTSTYLE
7
STANDARD
9
$CLAYER
8
0
9
$CELTYPE
6
BYLAYER
9
$CECOLOR
62
256
9
$DIMSCALE
40
1.0
9
$DIMASZ
40
0.18
9
$DIMEXO
40
0.0625
9
$DIMDLI
40
0.38
9
$DIMRND
40
0.0
9
$DIMDLE
40
0.0
9
$DIMEXE
40
0.18
9
$DIMTP
40
0.0
9
$DIMTM
40
0.0
9
$DIMTXT
40
0.18
9
$DIMCEN
40
0.09
9
$DIMTSZ
40
0.0
9
$DIMTOL
70
0
9
$DIMLIM
70
0
9
$DIMTIH
70
1
9
$DIMTOH
70
1
9
$DIMSE1
70
0
9
$DIMSE2
70
0
9
$DIMTAD
70
0
9
$DIMZIN
70
0
9
$DIMBLK
1

9
$DIMASO
70
1
9
$DIMSHO
70
1
9
$DIMPOST
1

9
$DIMAPOST
1

9
$DIMALT
70
0
9
$DIMALTD
70
2
9
$DIMALTF
40
25.3999999999999986
9
$DIMLFAC
40
1.0
9
$DIMTOFL
70
0
9
$DIMTVP
40
0.0
9
$DIMTIX
70
0
9
$DIMSOXD
70
0
9
$DIMSAH
70
0
9
$DIMBLK1
1

9
$DIMBLK2
1

9
$DIMSTYLE
2
STANDARD
9
$DIMCLRD
70
0
9
$DIMCLRE
70
0
9
$DIMCLRT
70
0
9
$DIMTFAC
40
1.0
9
$DIMGAP
40
0.09
9
$LUNITS
70
2
9
$LUPREC
70
4
9
$SKETCHINC
40
0.1
9
$FILLETRAD
40
0.0
9
$AUNITS
70
0
9
$AUPREC
70
0
9
$MENU
1
.
9
$ELEVATION
40
0.0
9
$PELEVATION
40
0.0
9
$THICKNESS
40
0.0
9
$LIMCHECK
70
0
9
$BLIPMODE
70
0
9
$CHAMFERA
40
0.0
9
$CHAMFERB
40
0.0
9
$SKPOLY
70
0
9
$TDCREATE
40
2460803.6855208328925073
9
$TDUPDATE
40
2461075.6701157409697771
9
$TDINDWG
40
0.2409375
9
$TDUSRTIMER
40
0.2409375
9
$USRTIMER
70
1
9
$ANGBASE
50
0.0
9
$ANGDIR
70
0
9
$PDMODE
70
3
9
$PDSIZE
40
2.0
9
$PLINEWID
40
0.0
9
$COORDS
70
1
9
$SPLFRAME
70
0
9
$SPLINETYPE
70
6
9
$SPLINESEGS
70
8
9
$ATTDIA
70
1
9
$ATTREQ
70
1
9
$HANDLING
70
1
9
$HANDSEED
5
1F18
9
$SURFTAB1
70
6
9
$SURFTAB2
70
6
9
$SURFTYPE
70
6
9
$SURFU
70
6
9
$SURFV
70
6
9
$UCSNAME
2

9
$UCSORG
10
0.0
20
0.0
30
0.0
9
$UCSXDIR
10
1.0
20
0.0
30
0.0
9
$UCSYDIR
10
0.0
20
1.0
30
0.0
9
$PUCSNAME
2

9
$PUCSORG
10
0.0
20
0.0
30
0.0
9
$PUCSXDIR
10
1.0
20
0.0
30
0.0
9
$PUCSYDIR
10
0.0
20
1.0
30
0.0
9
$USERI1
70
0
9
$USERI2
70
0
9
$USERI3
70
0
9
$USERI4
70
0
9
$USERI5
70
0
9
$USERR1
40
0.0
9
$USERR2
40
0.0
9
$USERR3
40
0.0
9
$USERR4
40
0.0
9
$USERR5
40
0.0
9
$WORLDVIEW
70
1
9
$SHADEDGE
70
3
9
$SHADEDIF
70
70
9
$TILEMODE
70
1
9
$MAXACTVP
70
64
9
$PLIMCHECK
70
0
9
$PEXTMIN
10
0.0
20
0.0
30
0.0
9
$PEXTMAX
10
0.0
20
0.0
30
0.0
9
$PLIMMIN
10
0.0
20
0.0
9
$PLIMMAX
10
12.0
20
9.0
9
$UNITMODE
70
0
9
$VISRETAIN
70
1
9
$PLINEGEN
70
0
9
$PSLTSCALE
70
1
0
ENDSEC
0
SECTION
2
TABLES
0
TABLE
2
VPORT
70
1
0
VPORT
2
*ACTIVE
70
0
10
0.0
20
0.0
11
1.0
21
1.0
12
195.1308796229835139
22
128.372542498516907
13
0.0
23
0.0
14
0.5
24
0.5
15
0.5
25
0.5
16
0.0
26
0.0
36
1.0
17
0.0
27
0.0
37
0.0
40
324.6155212409278192
41
1.88427299703264
42
50.0
43
0.0
44
0.0
50
0.0
51
0.0
71
0
72
1000
73
1
74
3
75
0
76
1
77
0
78
0
0
ENDTAB
0
TABLE
2
LTYPE
70
2
0
LTYPE
2
CONTINUOUS
70
0
3
Solid line
72
65
73
0
40
0.0
0
ENDTAB
0
TABLE
2
LAYER
70
2
0
LAYER
2
0
70
0
62
7
6
CONTINUOUS
0
LAYER
2
LAYER0
70
0
62
255
6
CONTINUOUS
0
ENDTAB
0
TABLE
2
STYLE
70
2
0
STYLE
2
STANDARD
70
0
40
0.0
41
1.0
50
0.0
71
0
42
0.2
3
txt
4

0
ENDTAB
0
TABLE
2
VIEW
70
1
0
ENDTAB
0
TABLE
2
UCS
70
0
0
ENDTAB
0
TABLE
2
APPID
70
8
0
APPID
2
ACAD
70
0
0
APPID
2
ACADANNOPO
70
0
0
APPID
2
ACADANNOTATIVE
70
0
0
APPID
2
ACAD_DSTYLE_DIMJAG
70
0
0
APPID
2
ACAD_DSTYLE_DIMTALN
70
0
0
APPID
2
ACAD_MLEADERVER
70
0
0
APPID
2
ACAD_NAV_VCDISPLAY
70
0
0
APPID
2
ACAD_EXEMPT_FROM_CAD_STANDARDS
70
0
0
ENDTAB
0
TABLE
2
DIMSTYLE
70
3
0
DIMSTYLE
2
STANDARD
70
0
3

4

5

6

7

40
1.0
41
0.18
42
0.0625
43
0.38
44
0.18
45
0.0
46
0.0
47
0.0
48
0.0
140
0.18
141
0.09
142
0.0
143
25.3999999999999986
144
1.0
145
0.0
146
1.0
147
0.09
71
0
72
0
73
1
74
1
75
0
76
0
77
0
78
0
170
0
171
2
172
0
173
0
174
0
175
0
176
0
177
0
178
0
0
ENDTAB
0
ENDSEC
0
SECTION
2
BLOCKS
0
BLOCK
8
0
2
$MODEL_SPACE
70
0
10
0.0
20
0.0
30
0.0
3
$MODEL_SPACE
1

0
ENDBLK
5
21
8
0
0
BLOCK
67
1
8
0
2
$PAPER_SPACE
70
0
10
0.0
20
0.0
30
0.0
3
$PAPER_SPACE
1

0
ENDBLK
5
5B
67
1
8
0
0
ENDSEC
0
SECTION
2
ENTITIES
0
POLYLINE
5
1000
8
LAYER0
62
7
66
1
70
1
10
0.0
20
0.0
30
0.0
0
VERTEX
5
1001
8
LAYER0
62
7
10
384.363647
20
138.282684
30
0.0
70
0
0
VERTEX
5
1002
8
LAYER0
62
7
10
390.513672
20
133.942688
30
0.0
70
0
0
VERTEX
5
1003
8
LAYER0
62
7
10
373.013672
20
11.222682
30
0.0
70
0
0
VERTEX
5
1004
8
LAYER0
62
7
10
330.673645
20
15.942683
30
0.0
70
0
0
VERTEX
5
1005
8
LAYER0
62
7
10
288.293640
20
20.392696
30
0.0
70
0
0
VERTEX
5
1006
8
LAYER0
62
7
10
261.923645
20
22.942684
30
0.0
70
0
0
VERTEX
5
1007
8
LAYER0
62
7
10
251.253677
20
23.842678
30
0.0
70
0
0
VERTEX
5
1008
8
LAYER0
62
7
10
241.393631
20
24.572689
30
0.0
70
0
0
VERTEX
5
1009
8
LAYER0
62
7
10
231.813675
20
25.162685
30
0.0
70
0
0
VERTEX
5
100A
8
LAYER0
62
7
10
222.223648
20
25.632687
30
0.0
70
0
0
VERTEX
5
100B
8
LAYER0
62
7
10
212.623672
20
25.982693
30
0.0
70
0
0
VERTEX
5
100C
8
LAYER0
62
7
10
203.013626
20
26.222683
30
0.0
70
0
0
VERTEX
5
100D
8
LAYER0
62
7
10
193.403580
20
25.982693
30
0.0
70
0
0
VERTEX
5
100E
8
LAYER0
62
7
10
183.803604
20
25.632687
30
0.0
70
0
0
VERTEX
5
100F
8
LAYER0
62
7
10
174.213577
20
25.162685
30
0.0
70
0
0
VERTEX
5
1010
8
LAYER0
62
7
10
164.633621
20
24.572689
30
0.0
70
0
0
VERTEX
5
1011
8
LAYER0
62
7
10
154.773575
20
23.842678
30
0.0
70
0
0
VERTEX
5
1012
8
LAYER0
62
7
10
144.103592
20
22.942684
30
0.0
70
0
0
VERTEX
5
1013
8
LAYER0
62
7
10
117.733589
20
20.392696
30
0.0
70
0
0
VERTEX
5
1014
8
LAYER0
62
7
10
75.353584
20
15.942683
30
0.0
70
0
0
VERTEX
5
1015
8
LAYER0
62
7
10
33.013561
20
11.222682
30
0.0
70
0
0
VERTEX
5
1016
8
LAYER0
62
7
10
15.513561
20
133.942688
30
0.0
70
0
0
VERTEX
5
1017
8
LAYER0
62
7
10
21.663586
20
138.282684
30
0.0
70
0
0
VERTEX
5
1018
8
LAYER0
62
7
10
27.693615
20
142.742676
30
0.0
70
0
0
VERTEX
5
1019
8
LAYER0
62
7
10
33.583569
20
147.332672
30
0.0
70
0
0
VERTEX
5
101A
8
LAYER0
62
7
10
39.343578
20
152.042694
30
0.0
70
0
0
VERTEX
5
101B
8
LAYER0
62
7
10
44.973583
20
156.882690
30
0.0
70
0
0
VERTEX
5
101C
8
LAYER0
62
7
10
50.473583
20
161.852692
30
0.0
70
0
0
VERTEX
5
101D
8
LAYER0
62
7
10
55.833569
20
166.942688
30
0.0
70
0
0
VERTEX
5
101E
8
LAYER0
62
7
10
61.073620
20
172.162689
30
0.0
70
0
0
VERTEX
5
101F
8
LAYER0
62
7
10
67.243599
20
178.652679
30
0.0
70
0
0
VERTEX
5
1020
8
LAYER0
62
7
10
73.213570
20
185.322693
30
0.0
70
0
0
VERTEX
5
1021
8
LAYER0
62
7
10
78.993599
20
192.172729
30
0.0
70
0
0
VERTEX
5
1022
8
LAYER0
62
7
10
84.583565
20
199.212708
30
0.0
70
0
0
VERTEX
5
1023
8
LAYER0
62
7
10
89.973579
20
206.442688
30
0.0
70
0
0
VERTEX
5
1024
8
LAYER0
62
7
10
95.183601
20
213.852722
30
0.0
70
0
0
VERTEX
5
1025
8
LAYER0
62
7
10
100.193611
20
221.442688
30
0.0
70
0
0
VERTEX
5
1026
8
LAYER0
62
7
10
105.013557
20
229.222717
30
0.0
70
0
0
VERTEX
5
1027
8
LAYER0
62
7
10
111.013557
20
229.222717
30
0.0
70
0
0
VERTEX
5
1028
8
LAYER0
62
7
10
118.483589
20
220.702698
30
0.0
70
0
0
VERTEX
5
1029
8
LAYER0
62
7
10
126.103584
20
212.292725
30
0.0
70
0
0
VERTEX
5
102A
8
LAYER0
62
7
10
133.853592
20
204.002686
30
0.0
70
0
0
VERTEX
5
102B
8
LAYER0
62
7
10
141.743607
20
195.832703
30
0.0
70
0
0
VERTEX
5
102C
8
LAYER0
62
7
10
155.203629
20
182.192688
30
0.0
70
0
0
VERTEX
5
102D
8
LAYER0
62
7
10
162.613602
20
174.342682
30
0.0
70
0
0
VERTEX
5
102E
8
LAYER0
62
7
10
167.253616
20
169.142700
30
0.0
70
0
0
VERTEX
5
102F
8
LAYER0
62
7
10
177.453629
20
157.402679
30
0.0
70
0
0
VERTEX
5
1030
8
LAYER0
62
7
10
182.003616
20
152.332672
30
0.0
70
0
0
VERTEX
5
1031
8
LAYER0
62
7
10
187.623611
20
146.472687
30
0.0
70
0
0
VERTEX
5
1032
8
LAYER0
62
7
10
192.953629
20
141.402679
30
0.0
70
0
0
VERTEX
5
1033
8
LAYER0
62
7
10
194.853592
20
139.752686
30
0.0
70
0
0
VERTEX
5
1034
8
LAYER0
62
7
10
196.423599
20
138.562683
30
0.0
70
0
0
VERTEX
5
1035
8
LAYER0
62
7
10
197.913589
20
137.642700
30
0.0
70
0
0
VERTEX
5
1036
8
LAYER0
62
7
10
199.363602
20
136.972687
30
0.0
70
0
0
VERTEX
5
1037
8
LAYER0
62
7
10
201.133621
20
136.452698
30
0.0
70
0
0
VERTEX
5
1038
8
LAYER0
62
7
10
203.013626
20
136.222687
30
0.0
70
0
0
VERTEX
5
1039
8
LAYER0
62
7
10
204.893631
20
136.452698
30
0.0
70
0
0
VERTEX
5
103A
8
LAYER0
62
7
10
206.663651
20
136.972687
30
0.0
70
0
0
VERTEX
5
103B
8
LAYER0
62
7
10
208.113663
20
137.642700
30
0.0
70
0
0
VERTEX
5
103C
8
LAYER0
62
7
10
209.603653
20
138.562683
30
0.0
70
0
0
VERTEX
5
103D
8
LAYER0
62
7
10
211.173660
20
139.752686
30
0.0
70
0
0
VERTEX
5
103E
8
LAYER0
62
7
10
213.073624
20
141.402679
30
0.0
70
0
0
VERTEX
5
103F
8
LAYER0
62
7
10
218.403641
20
146.472687
30
0.0
70
0
0
VERTEX
5
1040
8
LAYER0
62
7
10
224.023636
20
152.332672
30
0.0
70
0
0
VERTEX
5
1041
8
LAYER0
62
7
10
228.573624
20
157.402679
30
0.0
70
0
0
VERTEX
5
1042
8
LAYER0
62
7
10
238.773636
20
169.142700
30
0.0
70
0
0
VERTEX
5
1043
8
LAYER0
62
7
10
243.413651
20
174.342682
30
0.0
70
0
0
VERTEX
5
1044
8
LAYER0
62
7
10
250.823624
20
182.192688
30
0.0
70
0
0
VERTEX
5
1045
8
LAYER0
62
7
10
264.283630
20
195.832703
30
0.0
70
0
0
VERTEX
5
1046
8
LAYER0
62
7
10
272.173645
20
204.002686
30
0.0
70
0
0
VERTEX
5
1047
8
LAYER0
62
7
10
279.923645
20
212.292725
30
0.0
70
0
0
VERTEX
5
1048
8
LAYER0
62
7
10
287.543640
20
220.702698
30
0.0
70
0
0
VERTEX
5
1049
8
LAYER0
62
7
10
295.013672
20
229.222717
30
0.0
70
0
0
VERTEX
5
104A
8
LAYER0
62
7
10
301.013672
20
229.222717
30
0.0
70
0
0
VERTEX
5
104B
8
LAYER0
62
7
10
305.833618
20
221.442688
30
0.0
70
0
0
VERTEX
5
104C
8
LAYER0
62
7
10
310.843628
20
213.852722
30
0.0
70
0
0
VERTEX
5
104D
8
LAYER0
62
7
10
316.053650
20
206.442688
30
0.0
70
0
0
VERTEX
5
104E
8
LAYER0
62
7
10
321.443665
20
199.212708
30
0.0
70
0
0
VERTEX
5
104F
8
LAYER0
62
7
10
327.033630
20
192.172729
30
0.0
70
0
0
VERTEX
5
1050
8
LAYER0
62
7
10
332.813660
20
185.322693
30
0.0
70
0
0
VERTEX
5
1051
8
LAYER0
62
7
10
338.783630
20
178.652679
30
0.0
70
0
0
VERTEX
5
1052
8
LAYER0
62
7
10
344.953613
20
172.162689
30
0.0
70
0
0
VERTEX
5
1053
8
LAYER0
62
7
10
350.193665
20
166.942688
30
0.0
70
0
0
VERTEX
5
1054
8
LAYER0
62
7
10
355.553650
20
161.852692
30
0.0
70
0
0
VERTEX
5
1055
8
LAYER0
62
7
10
361.053650
20
156.882690
30
0.0
70
0
0
VERTEX
5
1056
8
LAYER0
62
7
10
366.683655
20
152.042694
30
0.0
70
0
0
VERTEX
5
1057
8
LAYER0
62
7
10
372.443665
20
147.332672
30
0.0
70
0
0
VERTEX
5
1058
8
LAYER0
62
7
10
378.333618
20
142.742676
30
0.0
70
0
0
SEQEND
5
1059
0
POLYLINE
5
105A
8
LAYER0
62
7
66
1
70
1
10
0.0
20
0.0
30
0.0
0
VERTEX
5
105B
8
LAYER0
62
7
10
380.547119
20
134.886490
30
0.0
70
0
0
VERTEX
5
105C
8
LAYER0
62
7
10
363.776794
20
17.283371
30
0.0
70
0
0
VERTEX
5
105D
8
LAYER0
62
7
10
331.211700
20
20.913675
30
0.0
70
0
0
VERTEX
5
105E
8
LAYER0
62
7
10
288.795349
20
25.367504
30
0.0
70
0
0
VERTEX
5
105F
8
LAYER0
62
7
10
262.374420
20
27.922417
30
0.0
70
0
0
VERTEX
5
1060
8
LAYER0
62
7
10
251.648392
20
28.827139
30
0.0
70
0
0
VERTEX
5
1061
8
LAYER0
62
7
10
241.731903
20
29.561329
30
0.0
70
0
0
VERTEX
5
1062
8
LAYER0
62
7
10
232.089737
20
30.155157
30
0.0
70
0
0
VERTEX
5
1063
8
LAYER0
62
7
10
222.437119
20
30.628225
30
0.0
70
0
0
VERTEX
5
1064
8
LAYER0
62
7
10
212.777176
20
30.980417
30
0.0
70
0
0
VERTEX
5
1065
8
LAYER0
62
7
10
203.013626
20
31.224241
30
0.0
70
0
0
VERTEX
5
1066
8
LAYER0
62
7
10
193.250076
20
30.980417
30
0.0
70
0
0
VERTEX
5
1067
8
LAYER0
62
7
10
183.590134
20
30.628225
30
0.0
70
0
0
VERTEX
5
1068
8
LAYER0
62
7
10
173.937515
20
30.155157
30
0.0
70
0
0
VERTEX
5
1069
8
LAYER0
62
7
10
164.295334
20
29.561329
30
0.0
70
0
0
VERTEX
5
106A
8
LAYER0
62
7
10
154.378845
20
28.827139
30
0.0
70
0
0
VERTEX
5
106B
8
LAYER0
62
7
10
143.652817
20
27.922417
30
0.0
70
0
0
VERTEX
5
106C
8
LAYER0
62
7
10
117.231888
20
25.367504
30
0.0
70
0
0
VERTEX
5
106D
8
LAYER0
62
7
10
74.815529
20
20.913675
30
0.0
70
0
0
VERTEX
5
106E
8
LAYER0
62
7
10
42.250465
20
17.283371
30
0.0
70
0
0
VERTEX
5
106F
8
LAYER0
62
7
10
25.480137
20
134.886490
30
0.0
70
0
0
VERTEX
5
1070
8
LAYER0
62
7
10
30.717432
20
138.760147
30
0.0
70
0
0
VERTEX
5
1071
8
LAYER0
62
7
10
36.703259
20
143.424850
30
0.0
70
0
0
VERTEX
5
1072
8
LAYER0
62
7
10
42.556362
20
148.210999
30
0.0
70
0
0
VERTEX
5
1073
8
LAYER0
62
7
10
48.279972
20
153.131470
30
0.0
70
0
0
VERTEX
5
1074
8
LAYER0
62
7
10
53.871758
20
158.184418
30
0.0
70
0
0
VERTEX
5
1075
8
LAYER0
62
7
10
59.319962
20
163.358185
30
0.0
70
0
0
VERTEX
5
1076
8
LAYER0
62
7
10
64.650528
20
168.668350
30
0.0
70
0
0
VERTEX
5
1077
8
LAYER0
62
7
10
70.919121
20
175.262070
30
0.0
70
0
0
VERTEX
5
1078
8
LAYER0
62
7
10
76.987877
20
182.042450
30
0.0
70
0
0
VERTEX
5
1079
8
LAYER0
62
7
10
82.863007
20
189.005188
30
0.0
70
0
0
VERTEX
5
107A
8
LAYER0
62
7
10
88.546661
20
196.163162
30
0.0
70
0
0
VERTEX
5
107B
8
LAYER0
62
7
10
94.023773
20
203.509964
30
0.0
70
0
0
VERTEX
5
107C
8
LAYER0
62
7
10
99.316032
20
211.036972
30
0.0
70
0
0
VERTEX
5
107D
8
LAYER0
62
7
10
104.406136
20
218.748276
30
0.0
70
0
0
VERTEX
5
107E
8
LAYER0
62
7
10
107.797707
20
224.222717
30
0.0
70
0
0
VERTEX
5
107F
8
LAYER0
62
7
10
108.747726
20
224.222717
30
0.0
70
0
0
VERTEX
5
1080
8
LAYER0
62
7
10
114.750908
20
217.375717
30
0.0
70
0
0
VERTEX
5
1081
8
LAYER0
62
7
10
122.424477
20
208.906616
30
0.0
70
0
0
VERTEX
5
1082
8
LAYER0
62
7
10
130.228790
20
200.558487
30
0.0
70
0
0
VERTEX
5
1083
8
LAYER0
62
7
10
138.165726
20
192.339920
30
0.0
70
0
0
VERTEX
5
1084
8
LAYER0
62
7
10
151.605728
20
178.720184
30
0.0
70
0
0
VERTEX
5
1085
8
LAYER0
62
7
10
158.929535
20
170.961456
30
0.0
70
0
0
VERTEX
5
1086
8
LAYER0
62
7
10
163.500900
20
165.838425
30
0.0
70
0
0
VERTEX
5
1087
8
LAYER0
62
7
10
173.705566
20
154.093048
30
0.0
70
0
0
VERTEX
5
1088
8
LAYER0
62
7
10
178.337677
20
148.931534
30
0.0
70
0
0
VERTEX
5
1089
8
LAYER0
62
7
10
184.094391
20
142.928986
30
0.0
70
0
0
VERTEX
5
108A
8
LAYER0
62
7
10
189.589630
20
137.701813
30
0.0
70
0
0
VERTEX
5
108B
8
LAYER0
62
7
10
191.700745
20
135.868454
30
0.0
70
0
0
VERTEX
5
108C
8
LAYER0
62
7
10
193.593613
20
134.433731
30
0.0
70
0
0
VERTEX
5
108D
8
LAYER0
62
7
10
195.542953
20
133.230133
30
0.0
70
0
0
VERTEX
5
108E
8
LAYER0
62
7
10
197.600769
20
132.279266
30
0.0
70
0
0
VERTEX
5
108F
8
LAYER0
62
7
10
200.118546
20
131.539597
30
0.0
70
0
0
VERTEX
5
1090
8
LAYER0
62
7
10
203.013626
20
131.185394
30
0.0
70
0
0
VERTEX
5
1091
8
LAYER0
62
7
10
205.908691
20
131.539597
30
0.0
70
0
0
VERTEX
5
1092
8
LAYER0
62
7
10
208.426483
20
132.279266
30
0.0
70
0
0
VERTEX
5
1093
8
LAYER0
62
7
10
210.484283
20
133.230133
30
0.0
70
0
0
VERTEX
5
1094
8
LAYER0
62
7
10
212.433640
20
134.433731
30
0.0
70
0
0
VERTEX
5
1095
8
LAYER0
62
7
10
214.326508
20
135.868454
30
0.0
70
0
0
VERTEX
5
1096
8
LAYER0
62
7
10
216.437607
20
137.701813
30
0.0
70
0
0
VERTEX
5
1097
8
LAYER0
62
7
10
221.932861
20
142.928986
30
0.0
70
0
0
VERTEX
5
1098
8
LAYER0
62
7
10
227.689575
20
148.931534
30
0.0
70
0
0
VERTEX
5
1099
8
LAYER0
62
7
10
232.321671
20
154.093048
30
0.0
70
0
0
VERTEX
5
109A
8
LAYER0
62
7
10
242.526352
20
165.838425
30
0.0
70
0
0
VERTEX
5
109B
8
LAYER0
62
7
10
247.097702
20
170.961456
30
0.0
70
0
0
VERTEX
5
109C
8
LAYER0
62
7
10
254.421524
20
178.720184
30
0.0
70
0
0
VERTEX
5
109D
8
LAYER0
62
7
10
267.861511
20
192.339920
30
0.0
70
0
0
VERTEX
5
109E
8
LAYER0
62
7
10
275.798462
20
200.558487
30
0.0
70
0
0
VERTEX
5
109F
8
LAYER0
62
7
10
283.602753
20
208.906616
30
0.0
70
0
0
VERTEX
5
10A0
8
LAYER0
62
7
10
291.276337
20
217.375717
30
0.0
70
0
0
VERTEX
5
10A1
8
LAYER0
62
7
10
297.279510
20
224.222717
30
0.0
70
0
0
VERTEX
5
10A2
8
LAYER0
62
7
10
298.229553
20
224.222717
30
0.0
70
0
0
VERTEX
5
10A3
8
LAYER0
62
7
10
301.621094
20
218.748276
30
0.0
70
0
0
VERTEX
5
10A4
8
LAYER0
62
7
10
306.711212
20
211.036972
30
0.0
70
0
0
VERTEX
5
10A5
8
LAYER0
62
7
10
312.003479
20
203.509964
30
0.0
70
0
0
VERTEX
5
10A6
8
LAYER0
62
7
10
317.480591
20
196.163162
30
0.0
70
0
0
VERTEX
5
10A7
8
LAYER0
62
7
10
323.164246
20
189.005188
30
0.0
70
0
0
VERTEX
5
10A8
8
LAYER0
62
7
10
329.039368
20
182.042450
30
0.0
70
0
0
VERTEX
5
10A9
8
LAYER0
62
7
10
335.108124
20
175.262070
30
0.0
70
0
0
VERTEX
5
10AA
8
LAYER0
62
7
10
341.376709
20
168.668350
30
0.0
70
0
0
VERTEX
5
10AB
8
LAYER0
62
7
10
346.707275
20
163.358185
30
0.0
70
0
0
VERTEX
5
10AC
8
LAYER0
62
7
10
352.155487
20
158.184418
30
0.0
70
0
0
VERTEX
5
10AD
8
LAYER0
62
7
10
357.747284
20
153.131470
30
0.0
70
0
0
VERTEX
5
10AE
8
LAYER0
62
7
10
363.470886
20
148.210999
30
0.0
70
0
0
VERTEX
5
10AF
8
LAYER0
62
7
10
369.323975
20
143.424850
30
0.0
70
0
0
VERTEX
5
10B0
8
LAYER0
62
7
10
375.309814
20
138.760147
30
0.0
70
0
0
SEQEND
5
10B1
0
POLYLINE
5
10B2
8
0
62
7
66
1
70
1
10
0.0
20
0.0
30
0.0
0
VERTEX
5
10B3
8
0
62
7
10
85.306870
20
155.511200
30
0.0
70
0
0
VERTEX
5
10B4
8
0
62
7
10
83.201202
20
150.625275
30
0.0
70
0
0
VERTEX
5
10B5
8
0
62
7
10
81.892952
20
147.068726
30
0.0
70
0
0
VERTEX
5
10B6
8
0
62
7
10
80.577431
20
143.514633
30
0.0
70
0
0
VERTEX
5
10B7
8
0
62
7
10
79.247353
20
139.965393
30
0.0
70
0
0
VERTEX
5
10B8
8
0
62
7
10
77.735970
20
136.010803
30
0.0
70
0
0
VERTEX
5
10B9
8
0
62
7
10
76.520203
20
132.889282
30
0.0
70
0
0
VERTEX
5
10BA
8
0
62
7
10
75.153046
20
129.352264
30
0.0
70
0
0
VERTEX
5
10BB
8
0
62
7
10
73.837013
20
125.797829
30
0.0
70
0
0
VERTEX
5
10BC
8
0
62
7
10
72.525940
20
121.932686
30
0.0
70
0
0
VERTEX
5
10BD
8
0
62
7
10
71.525269
20
118.581291
30
0.0
70
0
0
VERTEX
5
10BE
8
0
62
7
10
70.736359
20
115.565056
30
0.0
70
0
0
VERTEX
5
10BF
8
0
62
7
10
69.786530
20
111.203178
30
0.0
70
0
0
VERTEX
5
10C0
8
0
62
7
10
69.176399
20
107.460175
30
0.0
70
0
0
VERTEX
5
10C1
8
0
62
7
10
68.916542
20
105.256714
30
0.0
70
0
0
VERTEX
5
10C2
8
0
62
7
10
68.624817
20
99.875648
30
0.0
70
0
0
VERTEX
5
10C3
8
0
62
7
10
68.742477
20
96.070412
30
0.0
70
0
0
VERTEX
5
10C4
8
0
62
7
10
69.161224
20
92.291168
30
0.0
70
0
0
VERTEX
5
10C5
8
0
62
7
10
69.627060
20
89.775780
30
0.0
70
0
0
VERTEX
5
10C6
8
0
62
7
10
71.003166
20
84.919998
30
0.0
70
0
0
VERTEX
5
10C7
8
0
62
7
10
72.433350
20
81.395882
30
0.0
70
0
0
VERTEX
5
10C8
8
0
62
7
10
73.772469
20
78.762154
30
0.0
70
0
0
VERTEX
5
10C9
8
0
62
7
10
76.255234
20
74.846138
30
0.0
70
0
0
VERTEX
5
10CA
8
0
62
7
10
78.584846
20
71.843544
30
0.0
70
0
0
VERTEX
5
10CB
8
0
62
7
10
81.471970
20
68.670021
30
0.0
70
0
0
VERTEX
5
10CC
8
0
62
7
10
83.864807
20
66.362503
30
0.0
70
0
0
VERTEX
5
10CD
8
0
62
7
10
86.759102
20
63.895397
30
0.0
70
0
0
VERTEX
5
10CE
8
0
62
7
10
89.811226
20
61.635006
30
0.0
70
0
0
VERTEX
5
10CF
8
0
62
7
10
92.953941
20
59.636696
30
0.0
70
0
0
VERTEX
5
10D0
8
0
62
7
10
96.359894
20
57.808319
30
0.0
70
0
0
VERTEX
5
10D1
8
0
62
7
10
99.825890
20
56.250446
30
0.0
70
0
0
VERTEX
5
10D2
8
0
62
7
10
103.388908
20
54.916706
30
0.0
70
0
0
VERTEX
5
10D3
8
0
62
7
10
107.915039
20
53.555561
30
0.0
70
0
0
VERTEX
5
10D4
8
0
62
7
10
110.712242
20
52.878277
30
0.0
70
0
0
VERTEX
5
10D5
8
0
62
7
10
114.437012
20
52.152039
30
0.0
70
0
0
VERTEX
5
10D6
8
0
62
7
10
118.191460
20
51.606873
30
0.0
70
0
0
VERTEX
5
10D7
8
0
62
7
10
122.501450
20
51.192356
30
0.0
70
0
0
VERTEX
5
10D8
8
0
62
7
10
125.757317
20
51.018215
30
0.0
70
0
0
VERTEX
5
10D9
8
0
62
7
10
129.553421
20
50.962425
30
0.0
70
0
0
VERTEX
5
10DA
8
0
62
7
10
133.348709
20
51.064587
30
0.0
70
0
0
VERTEX
5
10DB
8
0
62
7
10
137.136032
20
51.324543
30
0.0
70
0
0
VERTEX
5
10DC
8
0
62
7
10
140.569931
20
51.698154
30
0.0
70
0
0
VERTEX
5
10DD
8
0
62
7
10
144.658936
20
52.316422
30
0.0
70
0
0
VERTEX
5
10DE
8
0
62
7
10
148.383667
20
53.043945
30
0.0
70
0
0
VERTEX
5
10DF
8
0
62
7
10
152.078461
20
53.920811
30
0.0
70
0
0
VERTEX
5
10E0
8
0
62
7
10
155.739334
20
54.943115
30
0.0
70
0
0
VERTEX
5
10E1
8
0
62
7
10
159.362305
20
56.106953
30
0.0
70
0
0
VERTEX
5
10E2
8
0
62
7
10
162.943375
20
57.408421
30
0.0
70
0
0
VERTEX
5
10E3
8
0
62
7
10
166.478577
20
58.843613
30
0.0
70
0
0
VERTEX
5
10E4
8
0
62
7
10
168.255798
20
59.622753
30
0.0
70
0
0
VERTEX
5
10E5
8
0
62
7
10
173.380783
20
62.116333
30
0.0
70
0
0
VERTEX
5
10E6
8
0
62
7
10
176.701050
20
63.990669
30
0.0
70
0
0
VERTEX
5
10E7
8
0
62
7
10
179.893875
20
66.058640
30
0.0
70
0
0
VERTEX
5
10E8
8
0
62
7
10
182.928925
20
68.346657
30
0.0
70
0
0
VERTEX
5
10E9
8
0
62
7
10
186.427261
20
71.528450
30
0.0
70
0
0
VERTEX
5
10EA
8
0
62
7
10
188.403137
20
73.683914
30
0.0
70
0
0
VERTEX
5
10EB
8
0
62
7
10
190.768082
20
76.738892
30
0.0
70
0
0
VERTEX
5
10EC
8
0
62
7
10
192.822662
20
80.010872
30
0.0
70
0
0
VERTEX
5
10ED
8
0
62
7
10
194.518768
20
83.464516
30
0.0
70
0
0
VERTEX
5
10EE
8
0
62
7
10
195.808289
20
87.064507
30
0.0
70
0
0
VERTEX
5
10EF
8
0
62
7
10
196.496109
20
89.925850
30
0.0
70
0
0
VERTEX
5
10F0
8
0
62
7
10
197.003693
20
94.560493
30
0.0
70
0
0
VERTEX
5
10F1
8
0
62
7
10
196.927078
20
98.379036
30
0.0
70
0
0
VERTEX
5
10F2
8
0
62
7
10
196.458176
20
102.190247
30
0.0
70
0
0
VERTEX
5
10F3
8
0
62
7
10
195.641724
20
105.953255
30
0.0
70
0
0
VERTEX
5
10F4
8
0
62
7
10
194.735580
20
109.000427
30
0.0
70
0
0
VERTEX
5
10F5
8
0
62
7
10
193.141052
20
113.184402
30
0.0
70
0
0
VERTEX
5
10F6
8
0
62
7
10
191.528656
20
116.628586
30
0.0
70
0
0
VERTEX
5
10F7
8
0
62
7
10
189.714905
20
119.968201
30
0.0
70
0
0
VERTEX
5
10F8
8
0
62
7
10
187.729492
20
123.211693
30
0.0
70
0
0
VERTEX
5
10F9
8
0
62
7
10
185.602066
20
126.367493
30
0.0
70
0
0
VERTEX
5
10FA
8
0
62
7
10
183.550400
20
129.193329
30
0.0
70
0
0
VERTEX
5
10FB
8
0
62
7
10
181.034653
20
132.448593
30
0.0
70
0
0
VERTEX
5
10FC
8
0
62
7
10
178.627167
20
135.384644
30
0.0
70
0
0
VERTEX
5
10FD
8
0
62
7
10
176.144669
20
138.254990
30
0.0
70
0
0
VERTEX
5
10FE
8
0
62
7
10
173.592041
20
141.062424
30
0.0
70
0
0
VERTEX
5
10FF
8
0
62
7
10
170.974136
20
143.809723
30
0.0
70
0
0
VERTEX
5
1100
8
0
62
7
10
168.295807
20
146.499680
30
0.0
70
0
0
VERTEX
5
1101
8
0
62
7
10
165.561920
20
149.135086
30
0.0
70
0
0
VERTEX
5
1102
8
0
62
7
10
162.777313
20
151.718735
30
0.0
70
0
0
VERTEX
5
1103
8
0
62
7
10
159.234756
20
154.877899
30
0.0
70
0
0
VERTEX
5
1104
8
0
62
7
10
157.075058
20
156.741486
30
0.0
70
0
0
VERTEX
5
1105
8
0
62
7
10
154.163284
20
159.182205
30
0.0
70
0
0
VERTEX
5
1106
8
0
62
7
10
151.211365
20
161.573090
30
0.0
70
0
0
VERTEX
5
1107
8
0
62
7
10
148.219055
20
163.911636
30
0.0
70
0
0
VERTEX
5
1108
8
0
62
7
10
145.186172
20
166.195374
30
0.0
70
0
0
VERTEX
5
1109
8
0
62
7
10
142.112488
20
168.421799
30
0.0
70
0
0
VERTEX
5
110A
8
0
62
7
10
138.997787
20
170.588455
30
0.0
70
0
0
VERTEX
5
110B
8
0
62
7
10
135.841858
20
172.692856
30
0.0
70
0
0
VERTEX
5
110C
8
0
62
7
10
132.644485
20
174.732498
30
0.0
70
0
0
VERTEX
5
110D
8
0
62
7
10
128.333054
20
177.337326
30
0.0
70
0
0
VERTEX
5
110E
8
0
62
7
10
126.123367
20
178.604980
30
0.0
70
0
0
VERTEX
5
110F
8
0
62
7
10
122.782928
20
180.397812
30
0.0
70
0
0
VERTEX
5
1110
8
0
62
7
10
120.047676
20
181.720810
30
0.0
70
0
0
VERTEX
5
1111
8
0
62
7
10
115.835571
20
183.435837
30
0.0
70
0
0
VERTEX
5
1112
8
0
62
7
10
111.290123
20
184.742615
30
0.0
70
0
0
VERTEX
5
1113
8
0
62
7
10
107.127914
20
185.214447
30
0.0
70
0
0
VERTEX
5
1114
8
0
62
7
10
103.087662
20
184.405045
30
0.0
70
0
0
VERTEX
5
1115
8
0
62
7
10
101.150963
20
183.487106
30
0.0
70
0
0
VERTEX
5
1116
8
0
62
7
10
97.762306
20
180.879486
30
0.0
70
0
0
VERTEX
5
1117
8
0
62
7
10
95.627502
20
178.350021
30
0.0
70
0
0
VERTEX
5
1118
8
0
62
7
10
93.645805
20
175.113892
30
0.0
70
0
0
VERTEX
5
1119
8
0
62
7
10
91.990479
20
171.647690
30
0.0
70
0
0
VERTEX
5
111A
8
0
62
7
10
90.868660
20
168.995850
30
0.0
70
0
0
VERTEX
5
111B
8
0
62
7
10
89.054260
20
164.576874
30
0.0
70
0
0
VERTEX
5
111C
8
0
62
7
10
87.622459
20
161.074860
30
0.0
70
0
0
VERTEX
5
111D
8
0
62
7
10
86.180763
20
157.587357
30
0.0
70
0
0
SEQEND
5
111E
0
POLYLINE
5
111F
8
0
62
7
66
1
70
1
10
0.0
20
0.0
30
0.0
0
VERTEX
5
1120
8
0
62
7
10
320.720367
20
155.511200
30
0.0
70
0
0
VERTEX
5
1121
8
0
62
7
10
322.826050
20
150.625275
30
0.0
70
0
0
VERTEX
5
1122
8
0
62
7
10
324.134277
20
147.068726
30
0.0
70
0
0
VERTEX
5
1123
8
0
62
7
10
325.449799
20
143.514633
30
0.0
70
0
0
VERTEX
5
1124
8
0
62
7
10
326.779877
20
139.965393
30
0.0
70
0
0
VERTEX
5
1125
8
0
62
7
10
328.291290
20
136.010803
30
0.0
70
0
0
VERTEX
5
1126
8
0
62
7
10
329.507050
20
132.889282
30
0.0
70
0
0
VERTEX
5
1127
8
0
62
7
10
330.874207
20
129.352264
30
0.0
70
0
0
VERTEX
5
1128
8
0
62
7
10
332.190247
20
125.797829
30
0.0
70
0
0
VERTEX
5
1129
8
0
62
7
10
333.501312
20
121.932686
30
0.0
70
0
0
VERTEX
5
112A
8
0
62
7
10
334.501984
20
118.581291
30
0.0
70
0
0
VERTEX
5
112B
8
0
62
7
10
335.290894
20
115.565056
30
0.0
70
0
0
VERTEX
5
112C
8
0
62
7
10
336.240723
20
111.203178
30
0.0
70
0
0
VERTEX
5
112D
8
0
62
7
10
336.850830
20
107.460175
30
0.0
70
0
0
VERTEX
5
112E
8
0
62
7
10
337.110718
20
105.256714
30
0.0
70
0
0
VERTEX
5
112F
8
0
62
7
10
337.402435
20
99.875648
30
0.0
70
0
0
VERTEX
5
1130
8
0
62
7
10
337.284760
20
96.070412
30
0.0
70
0
0
VERTEX
5
1131
8
0
62
7
10
336.866028
20
92.291168
30
0.0
70
0
0
VERTEX
5
1132
8
0
62
7
10
336.400177
20
89.775780
30
0.0
70
0
0
VERTEX
5
1133
8
0
62
7
10
335.024078
20
84.919998
30
0.0
70
0
0
VERTEX
5
1134
8
0
62
7
10
333.593903
20
81.395882
30
0.0
70
0
0
VERTEX
5
1135
8
0
62
7
10
332.254761
20
78.762154
30
0.0
70
0
0
VERTEX
5
1136
8
0
62
7
10
329.772003
20
74.846138
30
0.0
70
0
0
VERTEX
5
1137
8
0
62
7
10
327.442413
20
71.843544
30
0.0
70
0
0
VERTEX
5
1138
8
0
62
7
10
324.555267
20
68.670021
30
0.0
70
0
0
VERTEX
5
1139
8
0
62
7
10
322.162445
20
66.362503
30
0.0
70
0
0
VERTEX
5
113A
8
0
62
7
10
319.268127
20
63.895397
30
0.0
70
0
0
VERTEX
5
113B
8
0
62
7
10
316.216034
20
61.635006
30
0.0
70
0
0
VERTEX
5
113C
8
0
62
7
10
313.073303
20
59.636696
30
0.0
70
0
0
VERTEX
5
113D
8
0
62
7
10
309.667358
20
57.808319
30
0.0
70
0
0
VERTEX
5
113E
8
0
62
7
10
306.201355
20
56.250446
30
0.0
70
0
0
VERTEX
5
113F
8
0
62
7
10
302.638336
20
54.916706
30
0.0
70
0
0
VERTEX
5
1140
8
0
62
7
10
298.112213
20
53.555561
30
0.0
70
0
0
VERTEX
5
1141
8
0
62
7
10
295.315002
20
52.878277
30
0.0
70
0
0
VERTEX
5
1142
8
0
62
7
10
291.590240
20
52.152039
30
0.0
70
0
0
VERTEX
5
1143
8
0
62
7
10
287.835785
20
51.606873
30
0.0
70
0
0
VERTEX
5
1144
8
0
62
7
10
283.525787
20
51.192356
30
0.0
70
0
0
VERTEX
5
1145
8
0
62
7
10
280.269928
20
51.018215
30
0.0
70
0
0
VERTEX
5
1146
8
0
62
7
10
276.473816
20
50.962425
30
0.0
70
0
0
VERTEX
5
1147
8
0
62
7
10
272.678528
20
51.064587
30
0.0
70
0
0
VERTEX
5
1148
8
0
62
7
10
268.891205
20
51.324543
30
0.0
70
0
0
VERTEX
5
1149
8
0
62
7
10
265.457306
20
51.698154
30
0.0
70
0
0
VERTEX
5
114A
8
0
62
7
10
261.368317
20
52.316422
30
0.0
70
0
0
VERTEX
5
114B
8
0
62
7
10
257.643585
20
53.043945
30
0.0
70
0
0
VERTEX
5
114C
8
0
62
7
10
253.948776
20
53.920811
30
0.0
70
0
0
VERTEX
5
114D
8
0
62
7
10
250.287903
20
54.943115
30
0.0
70
0
0
VERTEX
5
114E
8
0
62
7
10
246.664932
20
56.106953
30
0.0
70
0
0
VERTEX
5
114F
8
0
62
7
10
243.083862
20
57.408421
30
0.0
70
0
0
VERTEX
5
1150
8
0
62
7
10
239.548676
20
58.843613
30
0.0
70
0
0
VERTEX
5
1151
8
0
62
7
10
237.771439
20
59.622753
30
0.0
70
0
0
VERTEX
5
1152
8
0
62
7
10
232.646469
20
62.116333
30
0.0
70
0
0
VERTEX
5
1153
8
0
62
7
10
229.326187
20
63.990669
30
0.0
70
0
0
VERTEX
5
1154
8
0
62
7
10
226.133362
20
66.058640
30
0.0
70
0
0
VERTEX
5
1155
8
0
62
7
10
223.098312
20
68.346657
30
0.0
70
0
0
VERTEX
5
1156
8
0
62
7
10
219.599976
20
71.528450
30
0.0
70
0
0
VERTEX
5
1157
8
0
62
7
10
217.624100
20
73.683914
30
0.0
70
0
0
VERTEX
5
1158
8
0
62
7
10
215.259155
20
76.738892
30
0.0
70
0
0
VERTEX
5
1159
8
0
62
7
10
213.204575
20
80.010872
30
0.0
70
0
0
VERTEX
5
115A
8
0
62
7
10
211.508469
20
83.464516
30
0.0
70
0
0
VERTEX
5
115B
8
0
62
7
10
210.218948
20
87.064507
30
0.0
70
0
0
VERTEX
5
115C
8
0
62
7
10
209.531128
20
89.925850
30
0.0
70
0
0
VERTEX
5
115D
8
0
62
7
10
209.023560
20
94.560493
30
0.0
70
0
0
VERTEX
5
115E
8
0
62
7
10
209.100174
20
98.379036
30
0.0
70
0
0
VERTEX
5
115F
8
0
62
7
10
209.569077
20
102.190247
30
0.0
70
0
0
VERTEX
5
1160
8
0
62
7
10
210.385529
20
105.953255
30
0.0
70
0
0
VERTEX
5
1161
8
0
62
7
10
211.291672
20
109.000427
30
0.0
70
0
0
VERTEX
5
1162
8
0
62
7
10
212.886185
20
113.184402
30
0.0
70
0
0
VERTEX
5
1163
8
0
62
7
10
214.498596
20
116.628586
30
0.0
70
0
0
VERTEX
5
1164
8
0
62
7
10
216.312332
20
119.968201
30
0.0
70
0
0
VERTEX
5
1165
8
0
62
7
10
218.297760
20
123.211693
30
0.0
70
0
0
VERTEX
5
1166
8
0
62
7
10
220.425171
20
126.367493
30
0.0
70
0
0
VERTEX
5
1167
8
0
62
7
10
222.476852
20
129.193329
30
0.0
70
0
0
VERTEX
5
1168
8
0
62
7
10
224.992584
20
132.448593
30
0.0
70
0
0
VERTEX
5
1169
8
0
62
7
10
227.400085
20
135.384644
30
0.0
70
0
0
VERTEX
5
116A
8
0
62
7
10
229.882584
20
138.254990
30
0.0
70
0
0
VERTEX
5
116B
8
0
62
7
10
232.435196
20
141.062424
30
0.0
70
0
0
VERTEX
5
116C
8
0
62
7
10
235.053116
20
143.809723
30
0.0
70
0
0
VERTEX
5
116D
8
0
62
7
10
237.731430
20
146.499680
30
0.0
70
0
0
VERTEX
5
116E
8
0
62
7
10
240.465332
20
149.135086
30
0.0
70
0
0
VERTEX
5
116F
8
0
62
7
10
243.249924
20
151.718735
30
0.0
70
0
0
VERTEX
5
1170
8
0
62
7
10
246.792496
20
154.877899
30
0.0
70
0
0
VERTEX
5
1171
8
0
62
7
10
248.952194
20
156.741486
30
0.0
70
0
0
VERTEX
5
1172
8
0
62
7
10
251.863953
20
159.182205
30
0.0
70
0
0
VERTEX
5
1173
8
0
62
7
10
254.815887
20
161.573090
30
0.0
70
0
0
VERTEX
5
1174
8
0
62
7
10
257.808197
20
163.911636
30
0.0
70
0
0
VERTEX
5
1175
8
0
62
7
10
260.841064
20
166.195374
30
0.0
70
0
0
VERTEX
5
1176
8
0
62
7
10
263.914764
20
168.421799
30
0.0
70
0
0
VERTEX
5
1177
8
0
62
7
10
267.029449
20
170.588455
30
0.0
70
0
0
VERTEX
5
1178
8
0
62
7
10
270.185394
20
172.692856
30
0.0
70
0
0
VERTEX
5
1179
8
0
62
7
10
273.382751
20
174.732498
30
0.0
70
0
0
VERTEX
5
117A
8
0
62
7
10
277.694183
20
177.337326
30
0.0
70
0
0
VERTEX
5
117B
8
0
62
7
10
279.903870
20
178.604980
30
0.0
70
0
0
VERTEX
5
117C
8
0
62
7
10
283.244324
20
180.397812
30
0.0
70
0
0
VERTEX
5
117D
8
0
62
7
10
285.979553
20
181.720810
30
0.0
70
0
0
VERTEX
5
117E
8
0
62
7
10
290.191681
20
183.435837
30
0.0
70
0
0
VERTEX
5
117F
8
0
62
7
10
294.737122
20
184.742615
30
0.0
70
0
0
VERTEX
5
1180
8
0
62
7
10
298.899323
20
185.214447
30
0.0
70
0
0
VERTEX
5
1181
8
0
62
7
10
302.939575
20
184.405045
30
0.0
70
0
0
VERTEX
5
1182
8
0
62
7
10
304.876282
20
183.487106
30
0.0
70
0
0
VERTEX
5
1183
8
0
62
7
10
308.264954
20
180.879486
30
0.0
70
0
0
VERTEX
5
1184
8
0
62
7
10
310.399750
20
178.350021
30
0.0
70
0
0
VERTEX
5
1185
8
0
62
7
10
312.381439
20
175.113892
30
0.0
70
0
0
VERTEX
5
1186
8
0
62
7
10
314.036774
20
171.647690
30
0.0
70
0
0
VERTEX
5
1187
8
0
62
7
10
315.158600
20
168.995850
30
0.0
70
0
0
VERTEX
5
1188
8
0
62
7
10
316.972992
20
164.576874
30
0.0
70
0
0
VERTEX
5
1189
8
0
62
7
10
318.404785
20
161.074860
30
0.0
70
0
0
VERTEX
5
118A
8
0
62
7
10
319.846466
20
157.587357
30
0.0
70
0
0
SEQEND
5
118B
0
POLYLINE
5
118C
8
0
62
7
66
1
70
0
10
0.0
20
0.0
30
0.0
0
VERTEX
5
118D
8
0
62
7
10
92.561783
20
201.548904
30
0.0
70
0
0
VERTEX
5
118E
8
0
62
7
10
92.516800
20
201.527374
30
0.0
70
0
0
VERTEX
5
118F
8
0
62
7
10
90.678337
20
200.526001
30
0.0
70
0
0
VERTEX
5
1190
8
0
62
7
10
88.954620
20
199.337952
30
0.0
70
0
0
VERTEX
5
1191
8
0
62
7
10
86.225121
20
197.237747
30
0.0
70
0
0
VERTEX
5
1192
8
0
62
7
10
85.562393
20
196.727585
30
0.0
70
0
0
VERTEX
5
1193
8
0
62
7
10
83.965103
20
195.358337
30
0.0
70
0
0
VERTEX
5
1194
8
0
62
7
10
82.520485
20
193.828888
30
0.0
70
0
0
VERTEX
5
1195
8
0
62
7
10
80.638382
20
191.613586
30
0.0
70
0
0
VERTEX
5
1196
8
0
62
7
10
80.149429
20
191.016083
30
0.0
70
0
0
VERTEX
5
1197
8
0
62
7
10
78.574844
20
188.800232
30
0.0
70
0
0
VERTEX
5
1198
8
0
62
7
10
77.058517
20
186.325882
30
0.0
70
0
0
VERTEX
5
1199
8
0
62
7
10
76.578735
20
185.540543
30
0.0
70
0
0
VERTEX
5
119A
8
0
62
7
10
75.602676
20
183.742081
30
0.0
70
0
0
VERTEX
5
119B
8
0
62
7
10
74.409210
20
181.246307
30
0.0
70
0
0
VERTEX
5
119C
8
0
62
7
10
73.931686
20
180.243042
30
0.0
70
0
0
VERTEX
5
119D
8
0
62
7
10
73.575203
20
179.450104
30
0.0
70
0
0
VERTEX
5
119E
8
0
62
7
10
72.787598
20
177.591187
30
0.0
70
0
0
VERTEX
5
119F
8
0
62
7
10
72.439148
20
176.764572
30
0.0
70
0
0
VERTEX
5
11A0
8
0
62
7
10
72.368866
20
176.595688
30
0.0
70
0
0
VERTEX
5
11A1
8
0
62
7
10
71.114288
20
173.541763
30
0.0
70
0
0
VERTEX
5
11A2
8
0
62
7
10
70.549988
20
172.165802
30
0.0
70
0
0
VERTEX
5
11A3
8
0
62
7
10
70.544258
20
172.151825
30
0.0
70
0
0
VERTEX
5
11A4
8
0
62
7
10
69.552620
20
169.728668
30
0.0
70
0
0
VERTEX
5
11A5
8
0
62
7
10
69.122910
20
168.675446
30
0.0
70
0
0
VERTEX
5
11A6
8
0
62
7
10
68.141273
20
166.302704
30
0.0
70
0
0
VERTEX
5
11A7
8
0
62
7
10
67.721458
20
165.285385
30
0.0
70
0
0
VERTEX
5
11A8
8
0
62
7
10
67.138092
20
163.901047
30
0.0
70
0
0
VERTEX
5
11A9
8
0
62
7
10
66.908783
20
163.354843
30
0.0
70
0
0
VERTEX
5
11AA
8
0
62
7
10
65.456566
20
159.999969
30
0.0
70
0
0
VERTEX
5
11AB
8
0
62
7
10
64.805061
20
158.472687
30
0.0
70
0
0
VERTEX
5
11AC
8
0
62
7
10
64.433441
20
157.536926
30
0.0
70
0
0
VERTEX
5
11AD
8
0
62
7
10
63.548584
20
155.134216
30
0.0
70
0
0
VERTEX
5
11AE
8
0
62
7
10
63.128162
20
153.988525
30
0.0
70
0
0
VERTEX
5
11AF
8
0
62
7
10
62.248188
20
151.613907
30
0.0
70
0
0
VERTEX
5
11B0
8
0
62
7
10
61.833683
20
150.491348
30
0.0
70
0
0
VERTEX
5
11B1
8
0
62
7
10
60.948532
20
148.132126
30
0.0
70
0
0
VERTEX
5
11B2
8
0
62
7
10
60.539875
20
147.039001
30
0.0
70
0
0
VERTEX
5
11B3
8
0
62
7
10
59.538551
20
144.420456
30
0.0
70
0
0
VERTEX
5
11B4
8
0
62
7
10
59.087227
20
143.238159
30
0.0
70
0
0
VERTEX
5
11B5
8
0
62
7
10
58.249607
20
141.108948
30
0.0
70
0
0
VERTEX
5
11B6
8
0
62
7
10
57.849720
20
140.059753
30
0.0
70
0
0
VERTEX
5
11B7
8
0
62
7
10
56.932732
20
137.690109
30
0.0
70
0
0
VERTEX
5
11B8
8
0
62
7
10
56.492176
20
136.547546
30
0.0
70
0
0
VERTEX
5
11B9
8
0
62
7
10
56.399998
20
136.303741
30
0.0
70
0
0
VERTEX
5
11BA
8
0
62
7
10
55.508518
20
133.898804
30
0.0
70
0
0
VERTEX
5
11BB
8
0
62
7
10
55.075832
20
132.727341
30
0.0
70
0
0
VERTEX
5
11BC
8
0
62
7
10
54.897907
20
132.225128
30
0.0
70
0
0
VERTEX
5
11BD
8
0
62
7
10
54.030041
20
129.667831
30
0.0
70
0
0
VERTEX
5
11BE
8
0
62
7
10
53.584076
20
128.351868
30
0.0
70
0
0
VERTEX
5
11BF
8
0
62
7
10
53.366898
20
127.671249
30
0.0
70
0
0
VERTEX
5
11C0
8
0
62
7
10
52.714630
20
125.493561
30
0.0
70
0
0
VERTEX
5
11C1
8
0
62
7
10
52.352428
20
124.273582
30
0.0
70
0
0
VERTEX
5
11C2
8
0
62
7
10
52.179058
20
123.653198
30
0.0
70
0
0
VERTEX
5
11C3
8
0
62
7
10
51.679829
20
121.748940
30
0.0
70
0
0
VERTEX
5
11C4
8
0
62
7
10
51.382412
20
120.607346
30
0.0
70
0
0
VERTEX
5
11C5
8
0
62
7
10
51.195831
20
119.827431
30
0.0
70
0
0
VERTEX
5
11C6
8
0
62
7
10
50.617001
20
117.173820
30
0.0
70
0
0
VERTEX
5
11C7
8
0
62
7
10
50.242157
20
115.447876
30
0.0
70
0
0
VERTEX
5
11C8
8
0
62
7
10
50.048615
20
114.430359
30
0.0
70
0
0
VERTEX
5
11C9
8
0
62
7
10
49.691563
20
112.246574
30
0.0
70
0
0
VERTEX
5
11CA
8
0
62
7
10
49.434780
20
110.664619
30
0.0
70
0
0
VERTEX
5
11CB
8
0
62
7
10
49.316696
20
109.824951
30
0.0
70
0
0
VERTEX
5
11CC
8
0
62
7
10
49.167145
20
108.569000
30
0.0
70
0
0
VERTEX
5
11CD
8
0
62
7
10
49.050865
20
107.570786
30
0.0
70
0
0
VERTEX
5
11CE
8
0
62
7
10
48.945923
20
106.340408
30
0.0
70
0
0
VERTEX
5
11CF
8
0
62
7
10
48.791962
20
103.503159
30
0.0
70
0
0
VERTEX
5
11D0
8
0
62
7
10
48.654083
20
100.957191
30
0.0
70
0
0
VERTEX
5
11D1
8
0
62
7
10
48.624817
20
99.875648
30
0.0
70
0
0
VERTEX
5
11D2
8
0
62
7
10
48.633926
20
99.272079
30
0.0
70
0
0
VERTEX
5
11D3
8
0
62
7
10
48.690022
20
97.414108
30
0.0
70
0
0
VERTEX
5
11D4
8
0
62
7
10
48.752460
20
95.438614
30
0.0
70
0
0
VERTEX
5
11D5
8
0
62
7
10
48.862511
20
93.882515
30
0.0
70
0
0
VERTEX
5
11D6
8
0
62
7
10
49.049038
20
92.187653
30
0.0
70
0
0
VERTEX
5
11D7
8
0
62
7
10
49.284180
20
90.076859
30
0.0
70
0
0
VERTEX
5
11D8
8
0
62
7
10
49.491852
20
88.669601
30
0.0
70
0
0
VERTEX
5
11D9
8
0
62
7
10
49.684464
20
87.623482
30
0.0
70
0
0
VERTEX
5
11DA
8
0
62
7
10
49.964069
20
86.119713
30
0.0
70
0
0
VERTEX
5
11DB
8
0
62
7
10
50.318817
20
84.561211
30
0.0
70
0
0
VERTEX
5
11DC
8
0
62
7
10
50.848118
20
82.601341
30
0.0
70
0
0
VERTEX
5
11DD
8
0
62
7
10
51.800003
20
79.330856
30
0.0
70
0
0
VERTEX
5
11DE
8
0
62
7
10
52.463646
20
77.417587
30
0.0
70
0
0
VERTEX
5
11DF
8
0
62
7
10
52.914158
20
76.304314
30
0.0
70
0
0
VERTEX
5
11E0
8
0
62
7
10
53.904678
20
73.866714
30
0.0
70
0
0
VERTEX
5
11E1
8
0
62
7
10
54.385750
20
72.777054
30
0.0
70
0
0
VERTEX
5
11E2
8
0
62
7
10
54.881310
20
71.739372
30
0.0
70
0
0
VERTEX
5
11E3
8
0
62
7
10
56.030117
20
69.531281
30
0.0
70
0
0
VERTEX
5
11E4
8
0
62
7
10
56.757076
20
68.251373
30
0.0
70
0
0
VERTEX
5
11E5
8
0
62
7
10
57.403183
20
67.205421
30
0.0
70
0
0
VERTEX
5
11E6
8
0
62
7
10
59.401978
20
64.077309
30
0.0
70
0
0
VERTEX
5
11E7
8
0
62
7
10
60.437534
20
62.606842
30
0.0
70
0
0
VERTEX
5
11E8
8
0
62
7
10
60.897484
20
62.012413
30
0.0
70
0
0
VERTEX
5
11E9
8
0
62
7
10
62.787029
20
59.578594
30
0.0
70
0
0
VERTEX
5
11EA
8
0
62
7
10
63.490982
20
58.721989
30
0.0
70
0
0
VERTEX
5
11EB
8
0
62
7
10
64.128372
20
57.988792
30
0.0
70
0
0
VERTEX
5
11EC
8
0
62
7
10
66.737572
20
55.146057
30
0.0
70
0
0
VERTEX
5
11ED
8
0
62
7
10
67.572052
20
54.289745
30
0.0
70
0
0
VERTEX
5
11EE
8
0
62
7
10
69.651505
20
52.279755
30
0.0
70
0
0
VERTEX
5
11EF
8
0
62
7
10
70.074913
20
51.876690
30
0.0
70
0
0
VERTEX
5
11F0
8
0
62
7
10
70.885933
20
51.145779
30
0.0
70
0
0
VERTEX
5
11F1
8
0
62
7
10
73.284569
20
49.099895
30
0.0
70
0
0
VERTEX
5
11F2
8
0
62
7
10
73.806923
20
48.655937
30
0.0
70
0
0
VERTEX
5
11F3
8
0
62
7
10
74.851036
20
47.826855
30
0.0
70
0
0
VERTEX
5
11F4
8
0
62
7
10
77.297157
20
46.014088
30
0.0
70
0
0
VERTEX
5
11F5
8
0
62
7
10
77.927940
20
45.548134
30
0.0
70
0
0
VERTEX
5
11F6
8
0
62
7
10
79.078705
20
44.758602
30
0.0
70
0
0
VERTEX
5
11F7
8
0
62
7
10
81.495529
20
43.221626
30
0.0
70
0
0
VERTEX
5
11F8
8
0
62
7
10
82.226273
20
42.757206
30
0.0
70
0
0
VERTEX
5
11F9
8
0
62
7
10
83.488258
20
42.018501
30
0.0
70
0
0
VERTEX
5
11FA
8
0
62
7
10
86.007896
20
40.664780
30
0.0
70
0
0
VERTEX
5
11FB
8
0
62
7
10
86.917542
20
40.177608
30
0.0
70
0
0
VERTEX
5
11FC
8
0
62
7
10
88.153061
20
39.569679
30
0.0
70
0
0
VERTEX
5
11FD
8
0
62
7
10
90.608833
20
38.464661
30
0.0
70
0
0
VERTEX
5
11FE
8
0
62
7
10
91.644577
20
38.000347
30
0.0
70
0
0
VERTEX
5
11FF
8
0
62
7
10
92.805611
20
37.523041
30
0.0
70
0
0
VERTEX
5
1200
8
0
62
7
10
95.224846
20
36.616150
30
0.0
70
0
0
VERTEX
5
1201
8
0
62
7
10
96.395844
20
36.179123
30
0.0
70
0
0
VERTEX
5
1202
8
0
62
7
10
97.448357
20
35.819328
30
0.0
70
0
0
VERTEX
5
1203
8
0
62
7
10
100.608444
20
34.836330
30
0.0
70
0
0
VERTEX
5
1204
8
0
62
7
10
102.483536
20
34.307217
30
0.0
70
0
0
VERTEX
5
1205
8
0
62
7
10
103.195290
20
34.120438
30
0.0
70
0
0
VERTEX
5
1206
8
0
62
7
10
104.939957
20
33.696751
30
0.0
70
0
0
VERTEX
5
1207
8
0
62
7
10
106.026939
20
33.434822
30
0.0
70
0
0
VERTEX
5
1208
8
0
62
7
10
106.875252
20
33.249790
30
0.0
70
0
0
VERTEX
5
1209
8
0
62
7
10
109.105652
20
32.813789
30
0.0
70
0
0
VERTEX
5
120A
8
0
62
7
10
110.623657
20
32.518948
30
0.0
70
0
0
VERTEX
5
120B
8
0
62
7
10
111.553093
20
32.361053
30
0.0
70
0
0
VERTEX
5
120C
8
0
62
7
10
113.711533
20
32.046532
30
0.0
70
0
0
VERTEX
5
120D
8
0
62
7
10
115.330780
20
31.812517
30
0.0
70
0
0
VERTEX
5
120E
8
0
62
7
10
116.262352
20
31.700127
30
0.0
70
0
0
VERTEX
5
120F
8
0
62
7
10
118.639442
20
31.469769
30
0.0
70
0
0
VERTEX
5
1210
8
0
62
7
10
120.604256
20
31.282543
30
0.0
70
0
0
VERTEX
5
1211
8
0
62
7
10
121.015442
20
31.247639
30
0.0
70
0
0
VERTEX
5
1212
8
0
62
7
10
123.169586
20
31.087141
30
0.0
70
0
0
VERTEX
5
1213
8
0
62
7
10
125.154655
20
31.027298
30
0.0
70
0
0
VERTEX
5
1214
8
0
62
7
10
125.451485
20
31.020554
30
0.0
70
0
0
VERTEX
5
1215
8
0
62
7
10
127.389519
20
30.990915
30
0.0
70
0
0
VERTEX
5
1216
8
0
62
7
10
129.271805
20
30.964409
30
0.0
70
0
0
VERTEX
5
1217
8
0
62
7
10
276.755432
20
30.964409
30
0.0
70
0
0
VERTEX
5
1218
8
0
62
7
10
278.637726
20
30.990915
30
0.0
70
0
0
VERTEX
5
1219
8
0
62
7
10
280.575775
20
31.020554
30
0.0
70
0
0
VERTEX
5
121A
8
0
62
7
10
280.872528
20
31.027296
30
0.0
70
0
0
VERTEX
5
121B
8
0
62
7
10
282.857666
20
31.087135
30
0.0
70
0
0
VERTEX
5
121C
8
0
62
7
10
285.011841
20
31.247641
30
0.0
70
0
0
VERTEX
5
121D
8
0
62
7
10
285.423004
20
31.282547
30
0.0
70
0
0
VERTEX
5
121E
8
0
62
7
10
287.387787
20
31.469772
30
0.0
70
0
0
VERTEX
5
121F
8
0
62
7
10
289.764862
20
31.700123
30
0.0
70
0
0
VERTEX
5
1220
8
0
62
7
10
290.696442
20
31.812515
30
0.0
70
0
0
VERTEX
5
1221
8
0
62
7
10
292.315704
20
32.046528
30
0.0
70
0
0
VERTEX
5
1222
8
0
62
7
10
294.474152
20
32.361053
30
0.0
70
0
0
VERTEX
5
1223
8
0
62
7
10
295.403595
20
32.518948
30
0.0
70
0
0
VERTEX
5
1224
8
0
62
7
10
296.921600
20
32.813793
30
0.0
70
0
0
VERTEX
5
1225
8
0
62
7
10
299.152008
20
33.249790
30
0.0
70
0
0
VERTEX
5
1226
8
0
62
7
10
300.000305
20
33.434818
30
0.0
70
0
0
VERTEX
5
1227
8
0
62
7
10
301.087280
20
33.696751
30
0.0
70
0
0
VERTEX
5
1228
8
0
62
7
10
302.831940
20
34.120438
30
0.0
70
0
0
VERTEX
5
1229
8
0
62
7
10
303.543762
20
34.307232
30
0.0
70
0
0
VERTEX
5
122A
8
0
62
7
10
305.418823
20
34.836338
30
0.0
70
0
0
VERTEX
5
122B
8
0
62
7
10
308.578888
20
35.819324
30
0.0
70
0
0
VERTEX
5
122C
8
0
62
7
10
309.631409
20
36.179123
30
0.0
70
0
0
VERTEX
5
122D
8
0
62
7
10
310.802399
20
36.616150
30
0.0
70
0
0
VERTEX
5
122E
8
0
62
7
10
313.221649
20
37.523041
30
0.0
70
0
0
VERTEX
5
122F
8
0
62
7
10
314.382660
20
38.000340
30
0.0
70
0
0
VERTEX
5
1230
8
0
62
7
10
315.418396
20
38.464653
30
0.0
70
0
0
VERTEX
5
1231
8
0
62
7
10
317.874176
20
39.569675
30
0.0
70
0
0
VERTEX
5
1232
8
0
62
7
10
319.109711
20
40.177616
30
0.0
70
0
0
VERTEX
5
1233
8
0
62
7
10
320.019379
20
40.664787
30
0.0
70
0
0
VERTEX
5
1234
8
0
62
7
10
322.539001
20
42.018509
30
0.0
70
0
0
VERTEX
5
1235
8
0
62
7
10
323.800934
20
42.757179
30
0.0
70
0
0
VERTEX
5
1236
8
0
62
7
10
324.531677
20
43.221603
30
0.0
70
0
0
VERTEX
5
1237
8
0
62
7
10
326.948517
20
44.758579
30
0.0
70
0
0
VERTEX
5
1238
8
0
62
7
10
328.099396
20
45.548195
30
0.0
70
0
0
VERTEX
5
1239
8
0
62
7
10
328.730164
20
46.014141
30
0.0
70
0
0
VERTEX
5
123A
8
0
62
7
10
331.176270
20
47.826912
30
0.0
70
0
0
VERTEX
5
123B
8
0
62
7
10
332.220245
20
48.655884
30
0.0
70
0
0
VERTEX
5
123C
8
0
62
7
10
332.742615
20
49.099846
30
0.0
70
0
0
VERTEX
5
123D
8
0
62
7
10
335.141266
20
51.145729
30
0.0
70
0
0
VERTEX
5
123E
8
0
62
7
10
335.952271
20
51.876629
30
0.0
70
0
0
VERTEX
5
123F
8
0
62
7
10
336.375732
20
52.279747
30
0.0
70
0
0
VERTEX
5
1240
8
0
62
7
10
338.455261
20
54.289810
30
0.0
70
0
0
VERTEX
5
1241
8
0
62
7
10
339.041779
20
54.880848
30
0.0
70
0
0
VERTEX
5
1242
8
0
62
7
10
339.711517
20
55.584469
30
0.0
70
0
0
VERTEX
5
1243
8
0
62
7
10
342.295502
20
58.450047
30
0.0
70
0
0
VERTEX
5
1244
8
0
62
7
10
343.228088
20
59.562965
30
0.0
70
0
0
VERTEX
5
1245
8
0
62
7
10
343.689575
20
60.156189
30
0.0
70
0
0
VERTEX
5
1246
8
0
62
7
10
345.577576
20
62.591187
30
0.0
70
0
0
VERTEX
5
1247
8
0
62
7
10
346.536835
20
63.940155
30
0.0
70
0
0
VERTEX
5
1248
8
0
62
7
10
347.207245
20
64.970718
30
0.0
70
0
0
VERTEX
5
1249
8
0
62
7
10
349.183838
20
68.112923
30
0.0
70
0
0
VERTEX
5
124A
8
0
62
7
10
349.851898
20
69.257385
30
0.0
70
0
0
VERTEX
5
124B
8
0
62
7
10
350.398346
20
70.269096
30
0.0
70
0
0
VERTEX
5
124C
8
0
62
7
10
351.505676
20
72.498215
30
0.0
70
0
0
VERTEX
5
124D
8
0
62
7
10
352.118500
20
73.856697
30
0.0
70
0
0
VERTEX
5
124E
8
0
62
7
10
352.571228
20
74.969078
30
0.0
70
0
0
VERTEX
5
124F
8
0
62
7
10
353.559540
20
77.407562
30
0.0
70
0
0
VERTEX
5
1250
8
0
62
7
10
354.197327
20
79.229126
30
0.0
70
0
0
VERTEX
5
1251
8
0
62
7
10
354.774994
20
81.175293
30
0.0
70
0
0
VERTEX
5
1252
8
0
62
7
10
355.680511
20
84.458900
30
0.0
70
0
0
VERTEX
5
1253
8
0
62
7
10
356.061981
20
86.113319
30
0.0
70
0
0
VERTEX
5
1254
8
0
62
7
10
356.256775
20
87.159027
30
0.0
70
0
0
VERTEX
5
1255
8
0
62
7
10
356.534210
20
88.663208
30
0.0
70
0
0
VERTEX
5
1256
8
0
62
7
10
356.742767
20
90.074036
30
0.0
70
0
0
VERTEX
5
1257
8
0
62
7
10
356.931793
20
91.768631
30
0.0
70
0
0
VERTEX
5
1258
8
0
62
7
10
357.164429
20
93.879684
30
0.0
70
0
0
VERTEX
5
1259
8
0
62
7
10
357.274750
20
95.437660
30
0.0
70
0
0
VERTEX
5
125A
8
0
62
7
10
357.333557
20
97.295547
30
0.0
70
0
0
VERTEX
5
125B
8
0
62
7
10
357.393311
20
99.271126
30
0.0
70
0
0
VERTEX
5
125C
8
0
62
7
10
357.402435
20
99.875648
30
0.0
70
0
0
VERTEX
5
125D
8
0
62
7
10
357.373169
20
100.957275
30
0.0
70
0
0
VERTEX
5
125E
8
0
62
7
10
357.219513
20
103.794540
30
0.0
70
0
0
VERTEX
5
125F
8
0
62
7
10
357.081329
20
106.340500
30
0.0
70
0
0
VERTEX
5
1260
8
0
62
7
10
356.975677
20
107.576996
30
0.0
70
0
0
VERTEX
5
1261
8
0
62
7
10
356.828918
20
108.833298
30
0.0
70
0
0
VERTEX
5
1262
8
0
62
7
10
356.709808
20
109.831161
30
0.0
70
0
0
VERTEX
5
1263
8
0
62
7
10
356.591888
20
110.668159
30
0.0
70
0
0
VERTEX
5
1264
8
0
62
7
10
356.236938
20
112.852280
30
0.0
70
0
0
VERTEX
5
1265
8
0
62
7
10
355.978058
20
114.433899
30
0.0
70
0
0
VERTEX
5
1266
8
0
62
7
10
355.784271
20
115.451637
30
0.0
70
0
0
VERTEX
5
1267
8
0
62
7
10
355.207336
20
118.105659
30
0.0
70
0
0
VERTEX
5
1268
8
0
62
7
10
354.830597
20
119.831192
30
0.0
70
0
0
VERTEX
5
1269
8
0
62
7
10
354.642883
20
120.614838
30
0.0
70
0
0
VERTEX
5
126A
8
0
62
7
10
354.145844
20
122.519669
30
0.0
70
0
0
VERTEX
5
126B
8
0
62
7
10
353.846222
20
123.660690
30
0.0
70
0
0
VERTEX
5
126C
8
0
62
7
10
353.670898
20
124.286827
30
0.0
70
0
0
VERTEX
5
126D
8
0
62
7
10
353.022369
20
126.465637
30
0.0
70
0
0
VERTEX
5
126E
8
0
62
7
10
352.656372
20
127.684479
30
0.0
70
0
0
VERTEX
5
126F
8
0
62
7
10
352.442291
20
128.354446
30
0.0
70
0
0
VERTEX
5
1270
8
0
62
7
10
351.575195
20
130.911987
30
0.0
70
0
0
VERTEX
5
1271
8
0
62
7
10
351.128479
20
132.227707
30
0.0
70
0
0
VERTEX
5
1272
8
0
62
7
10
350.948608
20
132.735001
30
0.0
70
0
0
VERTEX
5
1273
8
0
62
7
10
350.058960
20
135.140625
30
0.0
70
0
0
VERTEX
5
1274
8
0
62
7
10
349.624420
20
136.311417
30
0.0
70
0
0
VERTEX
5
1275
8
0
62
7
10
349.531921
20
136.555695
30
0.0
70
0
0
VERTEX
5
1276
8
0
62
7
10
348.598480
20
138.973465
30
0.0
70
0
0
VERTEX
5
1277
8
0
62
7
10
348.162018
20
140.099884
30
0.0
70
0
0
VERTEX
5
1278
8
0
62
7
10
347.308350
20
142.313858
30
0.0
70
0
0
VERTEX
5
1279
8
0
62
7
10
346.925476
20
143.276245
30
0.0
70
0
0
VERTEX
5
127A
8
0
62
7
10
345.947601
20
145.836258
30
0.0
70
0
0
VERTEX
5
127B
8
0
62
7
10
345.485138
20
147.044846
30
0.0
70
0
0
VERTEX
5
127C
8
0
62
7
10
344.609070
20
149.385330
30
0.0
70
0
0
VERTEX
5
127D
8
0
62
7
10
344.190704
20
150.498993
30
0.0
70
0
0
VERTEX
5
127E
8
0
62
7
10
343.319580
20
152.855194
30
0.0
70
0
0
VERTEX
5
127F
8
0
62
7
10
342.896301
20
153.996017
30
0.0
70
0
0
VERTEX
5
1280
8
0
62
7
10
342.024292
20
156.369431
30
0.0
70
0
0
VERTEX
5
1281
8
0
62
7
10
341.591095
20
157.544327
30
0.0
70
0
0
VERTEX
5
1282
8
0
62
7
10
341.205627
20
158.511398
30
0.0
70
0
0
VERTEX
5
1283
8
0
62
7
10
339.720642
20
161.972351
30
0.0
70
0
0
VERTEX
5
1284
8
0
62
7
10
339.108215
20
163.379044
30
0.0
70
0
0
VERTEX
5
1285
8
0
62
7
10
338.546021
20
164.716171
30
0.0
70
0
0
VERTEX
5
1286
8
0
62
7
10
338.302460
20
165.293365
30
0.0
70
0
0
VERTEX
5
1287
8
0
62
7
10
337.332611
20
167.641312
30
0.0
70
0
0
VERTEX
5
1288
8
0
62
7
10
336.901520
20
168.682281
30
0.0
70
0
0
VERTEX
5
1289
8
0
62
7
10
335.929749
20
171.061371
30
0.0
70
0
0
VERTEX
5
128A
8
0
62
7
10
335.479950
20
172.159225
30
0.0
70
0
0
VERTEX
5
128B
8
0
62
7
10
335.475586
20
172.169922
30
0.0
70
0
0
VERTEX
5
128C
8
0
62
7
10
334.222137
20
175.224304
30
0.0
70
0
0
VERTEX
5
128D
8
0
62
7
10
333.656708
20
176.599808
30
0.0
70
0
0
VERTEX
5
128E
8
0
62
7
10
333.582550
20
176.777740
30
0.0
70
0
0
VERTEX
5
128F
8
0
62
7
10
332.797028
20
178.637527
30
0.0
70
0
0
VERTEX
5
1290
8
0
62
7
10
332.446472
20
179.463257
30
0.0
70
0
0
VERTEX
5
1291
8
0
62
7
10
332.088806
20
180.257233
30
0.0
70
0
0
VERTEX
5
1292
8
0
62
7
10
330.897919
20
182.754227
30
0.0
70
0
0
VERTEX
5
1293
8
0
62
7
10
330.417786
20
183.756241
30
0.0
70
0
0
VERTEX
5
1294
8
0
62
7
10
329.441010
20
185.552826
30
0.0
70
0
0
VERTEX
5
1295
8
0
62
7
10
327.926331
20
188.028152
30
0.0
70
0
0
VERTEX
5
1296
8
0
62
7
10
327.444885
20
188.812500
30
0.0
70
0
0
VERTEX
5
1297
8
0
62
7
10
325.726074
20
191.199295
30
0.0
70
0
0
VERTEX
5
1298
8
0
62
7
10
323.858490
20
193.426895
30
0.0
70
0
0
VERTEX
5
1299
8
0
62
7
10
323.351624
20
194.009323
30
0.0
70
0
0
VERTEX
5
129A
8
0
62
7
10
320.464844
20
196.727615
30
0.0
70
0
0
VERTEX
5
129B
8
0
62
7
10
319.802094
20
197.237778
30
0.0
70
0
0
VERTEX
5
129C
8
0
62
7
10
317.072601
20
199.337982
30
0.0
70
0
0
VERTEX
5
129D
8
0
62
7
10
315.348877
20
200.526016
30
0.0
70
0
0
VERTEX
5
129E
8
0
62
7
10
313.510437
20
201.527390
30
0.0
70
0
0
VERTEX
5
129F
8
0
62
7
10
313.465454
20
201.548920
30
0.0
70
0
0
SEQEND
5
12A0
0
POLYLINE
5
12A1
8
0
62
7
66
1
70
0
10
0.0
20
0.0
30
0.0
0
VERTEX
5
12A2
8
0
62
7
10
87.947586
20
195.408691
30
0.0
70
0
0
VERTEX
5
12A3
8
0
62
7
10
87.749893
20
195.256577
30
0.0
70
0
0
VERTEX
5
12A4
8
0
62
7
10
87.087379
20
194.746567
30
0.0
70
0
0
VERTEX
5
12A5
8
0
62
7
10
84.425713
20
192.210205
30
0.0
70
0
0
VERTEX
5
12A6
8
0
62
7
10
82.558533
20
190.012482
30
0.0
70
0
0
VERTEX
5
12A7
8
0
62
7
10
82.084190
20
189.432831
30
0.0
70
0
0
VERTEX
5
12A8
8
0
62
7
10
80.706429
20
187.493958
30
0.0
70
0
0
VERTEX
5
12A9
8
0
62
7
10
79.191002
20
185.021088
30
0.0
70
0
0
VERTEX
5
12AA
8
0
62
7
10
78.712120
20
184.237213
30
0.0
70
0
0
VERTEX
5
12AB
8
0
62
7
10
77.858070
20
182.663559
30
0.0
70
0
0
VERTEX
5
12AC
8
0
62
7
10
76.665581
20
180.169846
30
0.0
70
0
0
VERTEX
5
12AD
8
0
62
7
10
76.189041
20
179.168625
30
0.0
70
0
0
VERTEX
5
12AE
8
0
62
7
10
75.877113
20
178.474792
30
0.0
70
0
0
VERTEX
5
12AF
8
0
62
7
10
75.090401
20
176.617996
30
0.0
70
0
0
VERTEX
5
12B0
8
0
62
7
10
74.742836
20
175.793488
30
0.0
70
0
0
VERTEX
5
12B1
8
0
62
7
10
74.681335
20
175.645706
30
0.0
70
0
0
VERTEX
5
12B2
8
0
62
7
10
73.427048
20
172.592468
30
0.0
70
0
0
VERTEX
5
12B3
8
0
62
7
10
72.863022
20
171.217178
30
0.0
70
0
0
VERTEX
5
12B4
8
0
62
7
10
72.858009
20
171.204956
30
0.0
70
0
0
VERTEX
5
12B5
8
0
62
7
10
71.866867
20
168.783020
30
0.0
70
0
0
VERTEX
5
12B6
8
0
62
7
10
71.435349
20
167.725372
30
0.0
70
0
0
VERTEX
5
12B7
8
0
62
7
10
70.451805
20
165.348022
30
0.0
70
0
0
VERTEX
5
12B8
8
0
62
7
10
70.028870
20
164.323135
30
0.0
70
0
0
VERTEX
5
12B9
8
0
62
7
10
69.442543
20
162.931763
30
0.0
70
0
0
VERTEX
5
12BA
8
0
62
7
10
69.208549
20
162.374390
30
0.0
70
0
0
VERTEX
5
12BB
8
0
62
7
10
67.753479
20
159.012939
30
0.0
70
0
0
VERTEX
5
12BC
8
0
62
7
10
67.104576
20
157.491760
30
0.0
70
0
0
VERTEX
5
12BD
8
0
62
7
10
66.779411
20
156.672974
30
0.0
70
0
0
VERTEX
5
12BE
8
0
62
7
10
65.895058
20
154.271622
30
0.0
70
0
0
VERTEX
5
12BF
8
0
62
7
10
65.473763
20
153.123550
30
0.0
70
0
0
VERTEX
5
12C0
8
0
62
7
10
64.592911
20
150.746567
30
0.0
70
0
0
VERTEX
5
12C1
8
0
62
7
10
64.176651
20
149.619263
30
0.0
70
0
0
VERTEX
5
12C2
8
0
62
7
10
63.289730
20
147.255310
30
0.0
70
0
0
VERTEX
5
12C3
8
0
62
7
10
62.878307
20
146.154800
30
0.0
70
0
0
VERTEX
5
12C4
8
0
62
7
10
61.873905
20
143.528198
30
0.0
70
0
0
VERTEX
5
12C5
8
0
62
7
10
61.418320
20
142.334732
30
0.0
70
0
0
VERTEX
5
12C6
8
0
62
7
10
60.580936
20
140.206131
30
0.0
70
0
0
VERTEX
5
12C7
8
0
62
7
10
60.183529
20
139.163437
30
0.0
70
0
0
VERTEX
5
12C8
8
0
62
7
10
59.264793
20
136.789291
30
0.0
70
0
0
VERTEX
5
12C9
8
0
62
7
10
58.824787
20
135.648132
30
0.0
70
0
0
VERTEX
5
12CA
8
0
62
7
10
58.744129
20
135.434814
30
0.0
70
0
0
VERTEX
5
12CB
8
0
62
7
10
57.853161
20
133.031250
30
0.0
70
0
0
VERTEX
5
12CC
8
0
62
7
10
57.420982
20
131.861145
30
0.0
70
0
0
VERTEX
5
12CD
8
0
62
7
10
57.265293
20
131.421722
30
0.0
70
0
0
VERTEX
5
12CE
8
0
62
7
10
56.397602
20
128.864929
30
0.0
70
0
0
VERTEX
5
12CF
8
0
62
7
10
55.951809
20
127.549461
30
0.0
70
0
0
VERTEX
5
12D0
8
0
62
7
10
55.761776
20
126.953926
30
0.0
70
0
0
VERTEX
5
12D1
8
0
62
7
10
55.110378
20
124.779129
30
0.0
70
0
0
VERTEX
5
12D2
8
0
62
7
10
54.749035
20
123.562050
30
0.0
70
0
0
VERTEX
5
12D3
8
0
62
7
10
54.597336
20
123.019211
30
0.0
70
0
0
VERTEX
5
12D4
8
0
62
7
10
54.098591
20
121.116798
30
0.0
70
0
0
VERTEX
5
12D5
8
0
62
7
10
53.801655
20
119.977058
30
0.0
70
0
0
VERTEX
5
12D6
8
0
62
7
10
53.638397
20
119.294632
30
0.0
70
0
0
VERTEX
5
12D7
8
0
62
7
10
53.059807
20
116.642128
30
0.0
70
0
0
VERTEX
5
12D8
8
0
62
7
10
52.685204
20
114.917290
30
0.0
70
0
0
VERTEX
5
12D9
8
0
62
7
10
52.515854
20
114.026962
30
0.0
70
0
0
VERTEX
5
12DA
8
0
62
7
10
52.159035
20
111.844597
30
0.0
70
0
0
VERTEX
5
12DB
8
0
62
7
10
51.902481
20
110.264069
30
0.0
70
0
0
VERTEX
5
12DC
8
0
62
7
10
51.799160
20
109.529358
30
0.0
70
0
0
VERTEX
5
12DD
8
0
62
7
10
51.649986
20
108.276573
30
0.0
70
0
0
VERTEX
5
12DE
8
0
62
7
10
51.534077
20
107.281525
30
0.0
70
0
0
VERTEX
5
12DF
8
0
62
7
10
51.442249
20
106.204948
30
0.0
70
0
0
VERTEX
5
12E0
8
0
62
7
10
51.288296
20
103.367828
30
0.0
70
0
0
VERTEX
5
12E1
8
0
62
7
10
51.150425
20
100.821999
30
0.0
70
0
0
VERTEX
5
12E2
8
0
62
7
10
51.124817
20
99.875648
30
0.0
70
0
0
VERTEX
5
12E3
8
0
62
7
10
51.132786
20
99.347527
30
0.0
70
0
0
VERTEX
5
12E4
8
0
62
7
10
51.188831
20
97.491318
30
0.0
70
0
0
VERTEX
5
12E5
8
0
62
7
10
51.251213
20
95.517593
30
0.0
70
0
0
VERTEX
5
12E6
8
0
62
7
10
51.347507
20
94.155998
30
0.0
70
0
0
VERTEX
5
12E7
8
0
62
7
10
51.533852
20
92.462784
30
0.0
70
0
0
VERTEX
5
12E8
8
0
62
7
10
51.768810
20
90.353653
30
0.0
70
0
0
VERTEX
5
12E9
8
0
62
7
10
51.950523
20
89.122299
30
0.0
70
0
0
VERTEX
5
12EA
8
0
62
7
10
52.142738
20
88.078331
30
0.0
70
0
0
VERTEX
5
12EB
8
0
62
7
10
52.421944
20
86.576721
30
0.0
70
0
0
VERTEX
5
12EC
8
0
62
7
10
52.732346
20
85.213028
30
0.0
70
0
0
VERTEX
5
12ED
8
0
62
7
10
53.255310
20
83.276634
30
0.0
70
0
0
VERTEX
5
12EE
8
0
62
7
10
54.200397
20
80.029503
30
0.0
70
0
0
VERTEX
5
12EF
8
0
62
7
10
54.781086
20
78.355392
30
0.0
70
0
0
VERTEX
5
12F0
8
0
62
7
10
55.230919
20
77.243782
30
0.0
70
0
0
VERTEX
5
12F1
8
0
62
7
10
56.220760
20
74.807861
30
0.0
70
0
0
VERTEX
5
12F2
8
0
62
7
10
56.641701
20
73.854408
30
0.0
70
0
0
VERTEX
5
12F3
8
0
62
7
10
57.118835
20
72.855301
30
0.0
70
0
0
VERTEX
5
12F4
8
0
62
7
10
58.247913
20
70.685143
30
0.0
70
0
0
VERTEX
5
12F5
8
0
62
7
10
58.884003
20
69.565224
30
0.0
70
0
0
VERTEX
5
12F6
8
0
62
7
10
59.520096
20
68.535477
30
0.0
70
0
0
VERTEX
5
12F7
8
0
62
7
10
61.508633
20
65.423409
30
0.0
70
0
0
VERTEX
5
12F8
8
0
62
7
10
62.414745
20
64.136757
30
0.0
70
0
0
VERTEX
5
12F9
8
0
62
7
10
62.873455
20
63.543930
30
0.0
70
0
0
VERTEX
5
12FA
8
0
62
7
10
64.761757
20
61.111713
30
0.0
70
0
0
VERTEX
5
12FB
8
0
62
7
10
65.377716
20
60.362183
30
0.0
70
0
0
VERTEX
5
12FC
8
0
62
7
10
65.992973
20
59.654442
30
0.0
70
0
0
VERTEX
5
12FD
8
0
62
7
10
68.579376
20
56.836555
30
0.0
70
0
0
VERTEX
5
12FE
8
0
62
7
10
69.309540
20
56.087280
30
0.0
70
0
0
VERTEX
5
12FF
8
0
62
7
10
71.382149
20
54.083908
30
0.0
70
0
0
VERTEX
5
1300
8
0
62
7
10
71.798645
20
53.687416
30
0.0
70
0
0
VERTEX
5
1301
8
0
62
7
10
72.508286
20
53.047867
30
0.0
70
0
0
VERTEX
5
1302
8
0
62
7
10
74.905258
20
51.003407
30
0.0
70
0
0
VERTEX
5
1303
8
0
62
7
10
75.425949
20
50.560871
30
0.0
70
0
0
VERTEX
5
1304
8
0
62
7
10
76.339546
20
49.835423
30
0.0
70
0
0
VERTEX
5
1305
8
0
62
7
10
78.784119
20
48.023800
30
0.0
70
0
0
VERTEX
5
1306
8
0
62
7
10
79.413345
20
47.558994
30
0.0
70
0
0
VERTEX
5
1307
8
0
62
7
10
80.420273
20
46.868153
30
0.0
70
0
0
VERTEX
5
1308
8
0
62
7
10
82.836792
20
45.331367
30
0.0
70
0
0
VERTEX
5
1309
8
0
62
7
10
83.567230
20
44.867142
30
0.0
70
0
0
VERTEX
5
130A
8
0
62
7
10
84.671471
20
44.220776
30
0.0
70
0
0
VERTEX
5
130B
8
0
62
7
10
87.189644
20
42.867840
30
0.0
70
0
0
VERTEX
5
130C
8
0
62
7
10
88.097839
20
42.381447
30
0.0
70
0
0
VERTEX
5
130D
8
0
62
7
10
89.178917
20
41.849510
30
0.0
70
0
0
VERTEX
5
130E
8
0
62
7
10
91.633095
20
40.745209
30
0.0
70
0
0
VERTEX
5
130F
8
0
62
7
10
92.667244
20
40.281609
30
0.0
70
0
0
VERTEX
5
1310
8
0
62
7
10
93.683144
20
39.863968
30
0.0
70
0
0
VERTEX
5
1311
8
0
62
7
10
96.100677
20
38.957714
30
0.0
70
0
0
VERTEX
5
1312
8
0
62
7
10
97.269981
20
38.521320
30
0.0
70
0
0
VERTEX
5
1313
8
0
62
7
10
98.190926
20
38.206501
30
0.0
70
0
0
VERTEX
5
1314
8
0
62
7
10
101.319328
20
37.233360
30
0.0
70
0
0
VERTEX
5
1315
8
0
62
7
10
103.162468
20
36.713261
30
0.0
70
0
0
VERTEX
5
1316
8
0
62
7
10
103.785255
20
36.549831
30
0.0
70
0
0
VERTEX
5
1317
8
0
62
7
10
105.527779
20
36.126667
30
0.0
70
0
0
VERTEX
5
1318
8
0
62
7
10
106.612602
20
35.865253
30
0.0
70
0
0
VERTEX
5
1319
8
0
62
7
10
107.354874
20
35.703350
30
0.0
70
0
0
VERTEX
5
131A
8
0
62
7
10
109.583794
20
35.267639
30
0.0
70
0
0
VERTEX
5
131B
8
0
62
7
10
111.100327
20
34.973083
30
0.0
70
0
0
VERTEX
5
131C
8
0
62
7
10
111.913582
20
34.834927
30
0.0
70
0
0
VERTEX
5
131D
8
0
62
7
10
114.070572
20
34.520615
30
0.0
70
0
0
VERTEX
5
131E
8
0
62
7
10
115.688370
20
34.286812
30
0.0
70
0
0
VERTEX
5
131F
8
0
62
7
10
116.503487
20
34.188469
30
0.0
70
0
0
VERTEX
5
1320
8
0
62
7
10
118.878586
20
33.958305
30
0.0
70
0
0
VERTEX
5
1321
8
0
62
7
10
120.841408
20
33.771271
30
0.0
70
0
0
VERTEX
5
1322
8
0
62
7
10
121.201195
20
33.740726
30
0.0
70
0
0
VERTEX
5
1323
8
0
62
7
10
123.300194
20
33.584339
30
0.0
70
0
0
VERTEX
5
1324
8
0
62
7
10
125.229988
20
33.526161
30
0.0
70
0
0
VERTEX
5
1325
8
0
62
7
10
125.489716
20
33.520260
30
0.0
70
0
0
VERTEX
5
1326
8
0
62
7
10
127.426239
20
33.490646
30
0.0
70
0
0
VERTEX
5
1327
8
0
62
7
10
129.307007
20
33.464161
30
0.0
70
0
0
VERTEX
5
1328
8
0
62
7
10
276.720215
20
33.464161
30
0.0
70
0
0
VERTEX
5
1329
8
0
62
7
10
278.601013
20
33.490646
30
0.0
70
0
0
VERTEX
5
132A
8
0
62
7
10
280.537537
20
33.520260
30
0.0
70
0
0
VERTEX
5
132B
8
0
62
7
10
280.797211
20
33.526161
30
0.0
70
0
0
VERTEX
5
132C
8
0
62
7
10
282.727051
20
33.584335
30
0.0
70
0
0
VERTEX
5
132D
8
0
62
7
10
284.826080
20
33.740730
30
0.0
70
0
0
VERTEX
5
132E
8
0
62
7
10
285.185852
20
33.771271
30
0.0
70
0
0
VERTEX
5
132F
8
0
62
7
10
287.148651
20
33.958309
30
0.0
70
0
0
VERTEX
5
1330
8
0
62
7
10
289.523712
20
34.188465
30
0.0
70
0
0
VERTEX
5
1331
8
0
62
7
10
290.338867
20
34.286812
30
0.0
70
0
0
VERTEX
5
1332
8
0
62
7
10
291.956665
20
34.520615
30
0.0
70
0
0
VERTEX
5
1333
8
0
62
7
10
294.113678
20
34.834927
30
0.0
70
0
0
VERTEX
5
1334
8
0
62
7
10
294.926941
20
34.973083
30
0.0
70
0
0
VERTEX
5
1335
8
0
62
7
10
296.443451
20
35.267639
30
0.0
70
0
0
VERTEX
5
1336
8
0
62
7
10
298.672363
20
35.703350
30
0.0
70
0
0
VERTEX
5
1337
8
0
62
7
10
299.414642
20
35.865253
30
0.0
70
0
0
VERTEX
5
1338
8
0
62
7
10
300.499451
20
36.126663
30
0.0
70
0
0
VERTEX
5
1339
8
0
62
7
10
302.241974
20
36.549828
30
0.0
70
0
0
VERTEX
5
133A
8
0
62
7
10
302.864838
20
36.713272
30
0.0
70
0
0
VERTEX
5
133B
8
0
62
7
10
304.707947
20
37.233368
30
0.0
70
0
0
VERTEX
5
133C
8
0
62
7
10
307.836304
20
38.206497
30
0.0
70
0
0
VERTEX
5
133D
8
0
62
7
10
308.757263
20
38.521320
30
0.0
70
0
0
VERTEX
5
133E
8
0
62
7
10
309.926575
20
38.957714
30
0.0
70
0
0
VERTEX
5
133F
8
0
62
7
10
312.344086
20
39.863968
30
0.0
70
0
0
VERTEX
5
1340
8
0
62
7
10
313.359985
20
40.281601
30
0.0
70
0
0
VERTEX
5
1341
8
0
62
7
10
314.394135
20
40.745201
30
0.0
70
0
0
VERTEX
5
1342
8
0
62
7
10
316.848328
20
41.849506
30
0.0
70
0
0
VERTEX
5
1343
8
0
62
7
10
317.929443
20
42.381454
30
0.0
70
0
0
VERTEX
5
1344
8
0
62
7
10
318.837616
20
42.867844
30
0.0
70
0
0
VERTEX
5
1345
8
0
62
7
10
321.355804
20
44.220783
30
0.0
70
0
0
VERTEX
5
1346
8
0
62
7
10
322.459991
20
44.867119
30
0.0
70
0
0
VERTEX
5
1347
8
0
62
7
10
323.190430
20
45.331348
30
0.0
70
0
0
VERTEX
5
1348
8
0
62
7
10
325.606964
20
46.868130
30
0.0
70
0
0
VERTEX
5
1349
8
0
62
7
10
326.613983
20
47.559048
30
0.0
70
0
0
VERTEX
5
134A
8
0
62
7
10
327.243195
20
48.023849
30
0.0
70
0
0
VERTEX
5
134B
8
0
62
7
10
329.687744
20
49.835472
30
0.0
70
0
0
VERTEX
5
134C
8
0
62
7
10
330.601227
20
50.560822
30
0.0
70
0
0
VERTEX
5
134D
8
0
62
7
10
331.121918
20
51.003365
30
0.0
70
0
0
VERTEX
5
134E
8
0
62
7
10
333.518921
20
53.047825
30
0.0
70
0
0
VERTEX
5
134F
8
0
62
7
10
334.228546
20
53.687363
30
0.0
70
0
0
VERTEX
5
1350
8
0
62
7
10
334.645111
20
54.083904
30
0.0
70
0
0
VERTEX
5
1351
8
0
62
7
10
336.717743
20
56.087337
30
0.0
70
0
0
VERTEX
5
1352
8
0
62
7
10
337.230957
20
56.604496
30
0.0
70
0
0
VERTEX
5
1353
8
0
62
7
10
337.877472
20
57.283695
30
0.0
70
0
0
VERTEX
5
1354
8
0
62
7
10
340.438873
20
60.124233
30
0.0
70
0
0
VERTEX
5
1355
8
0
62
7
10
341.254883
20
61.098038
30
0.0
70
0
0
VERTEX
5
1356
8
0
62
7
10
341.715118
20
61.689663
30
0.0
70
0
0
VERTEX
5
1357
8
0
62
7
10
343.601868
20
64.123055
30
0.0
70
0
0
VERTEX
5
1358
8
0
62
7
10
344.441223
20
65.303406
30
0.0
70
0
0
VERTEX
5
1359
8
0
62
7
10
345.101257
20
66.318001
30
0.0
70
0
0
VERTEX
5
135A
8
0
62
7
10
347.067719
20
69.444077
30
0.0
70
0
0
VERTEX
5
135B
8
0
62
7
10
347.652252
20
70.445480
30
0.0
70
0
0
VERTEX
5
135C
8
0
62
7
10
348.178406
20
71.419579
30
0.0
70
0
0
VERTEX
5
135D
8
0
62
7
10
349.266693
20
73.610420
30
0.0
70
0
0
VERTEX
5
135E
8
0
62
7
10
349.802917
20
74.799095
30
0.0
70
0
0
VERTEX
5
135F
8
0
62
7
10
350.254974
20
75.909805
30
0.0
70
0
0
VERTEX
5
1360
8
0
62
7
10
351.242615
20
78.346611
30
0.0
70
0
0
VERTEX
5
1361
8
0
62
7
10
351.800690
20
79.940491
30
0.0
70
0
0
VERTEX
5
1362
8
0
62
7
10
352.371399
20
81.863342
30
0.0
70
0
0
VERTEX
5
1363
8
0
62
7
10
353.270447
20
85.123512
30
0.0
70
0
0
VERTEX
5
1364
8
0
62
7
10
353.604248
20
86.571121
30
0.0
70
0
0
VERTEX
5
1365
8
0
62
7
10
353.798645
20
87.614685
30
0.0
70
0
0
VERTEX
5
1366
8
0
62
7
10
354.075684
20
89.116699
30
0.0
70
0
0
VERTEX
5
1367
8
0
62
7
10
354.258179
20
90.351173
30
0.0
70
0
0
VERTEX
5
1368
8
0
62
7
10
354.446991
20
92.044121
30
0.0
70
0
0
VERTEX
5
1369
8
0
62
7
10
354.679443
20
94.153526
30
0.0
70
0
0
VERTEX
5
136A
8
0
62
7
10
354.776001
20
95.516754
30
0.0
70
0
0
VERTEX
5
136B
8
0
62
7
10
354.834747
20
97.372871
30
0.0
70
0
0
VERTEX
5
136C
8
0
62
7
10
354.894440
20
99.346695
30
0.0
70
0
0
VERTEX
5
136D
8
0
62
7
10
354.902435
20
99.875648
30
0.0
70
0
0
VERTEX
5
136E
8
0
62
7
10
354.876831
20
100.822075
30
0.0
70
0
0
VERTEX
5
136F
8
0
62
7
10
354.723175
20
103.659203
30
0.0
70
0
0
VERTEX
5
1370
8
0
62
7
10
354.584991
20
106.205025
30
0.0
70
0
0
VERTEX
5
1371
8
0
62
7
10
354.492554
20
107.286964
30
0.0
70
0
0
VERTEX
5
1372
8
0
62
7
10
354.346191
20
108.540092
30
0.0
70
0
0
VERTEX
5
1373
8
0
62
7
10
354.227417
20
109.534790
30
0.0
70
0
0
VERTEX
5
1374
8
0
62
7
10
354.124237
20
110.267166
30
0.0
70
0
0
VERTEX
5
1375
8
0
62
7
10
353.769562
20
112.449860
30
0.0
70
0
0
VERTEX
5
1376
8
0
62
7
10
353.510895
20
114.030060
30
0.0
70
0
0
VERTEX
5
1377
8
0
62
7
10
353.341339
20
114.920578
30
0.0
70
0
0
VERTEX
5
1378
8
0
62
7
10
352.764618
20
117.573494
30
0.0
70
0
0
VERTEX
5
1379
8
0
62
7
10
352.388123
20
119.297920
30
0.0
70
0
0
VERTEX
5
137A
8
0
62
7
10
352.223877
20
119.983620
30
0.0
70
0
0
VERTEX
5
137B
8
0
62
7
10
351.727325
20
121.886589
30
0.0
70
0
0
VERTEX
5
137C
8
0
62
7
10
351.428192
20
123.025764
30
0.0
70
0
0
VERTEX
5
137D
8
0
62
7
10
351.274780
20
123.573631
30
0.0
70
0
0
VERTEX
5
137E
8
0
62
7
10
350.627136
20
125.749550
30
0.0
70
0
0
VERTEX
5
137F
8
0
62
7
10
350.261993
20
126.965500
30
0.0
70
0
0
VERTEX
5
1380
8
0
62
7
10
350.074677
20
127.551720
30
0.0
70
0
0
VERTEX
5
1381
8
0
62
7
10
349.207733
20
130.108765
30
0.0
70
0
0
VERTEX
5
1382
8
0
62
7
10
348.761200
20
131.423981
30
0.0
70
0
0
VERTEX
5
1383
8
0
62
7
10
348.603790
20
131.867859
30
0.0
70
0
0
VERTEX
5
1384
8
0
62
7
10
347.714661
20
134.272110
30
0.0
70
0
0
VERTEX
5
1385
8
0
62
7
10
347.280640
20
135.441513
30
0.0
70
0
0
VERTEX
5
1386
8
0
62
7
10
347.199707
20
135.655258
30
0.0
70
0
0
VERTEX
5
1387
8
0
62
7
10
346.266785
20
138.071625
30
0.0
70
0
0
VERTEX
5
1388
8
0
62
7
10
345.830139
20
139.198547
30
0.0
70
0
0
VERTEX
5
1389
8
0
62
7
10
344.980530
20
141.402039
30
0.0
70
0
0
VERTEX
5
138A
8
0
62
7
10
344.596191
20
142.368057
30
0.0
70
0
0
VERTEX
5
138B
8
0
62
7
10
343.612427
20
144.943512
30
0.0
70
0
0
VERTEX
5
138C
8
0
62
7
10
343.146973
20
146.159912
30
0.0
70
0
0
VERTEX
5
138D
8
0
62
7
10
342.268219
20
148.507553
30
0.0
70
0
0
VERTEX
5
138E
8
0
62
7
10
341.848083
20
149.625946
30
0.0
70
0
0
VERTEX
5
138F
8
0
62
7
10
340.975220
20
151.986908
30
0.0
70
0
0
VERTEX
5
1390
8
0
62
7
10
340.551056
20
153.130096
30
0.0
70
0
0
VERTEX
5
1391
8
0
62
7
10
339.678162
20
155.505905
30
0.0
70
0
0
VERTEX
5
1392
8
0
62
7
10
339.245453
20
156.679443
30
0.0
70
0
0
VERTEX
5
1393
8
0
62
7
10
338.908173
20
157.525635
30
0.0
70
0
0
VERTEX
5
1394
8
0
62
7
10
337.425812
20
160.980499
30
0.0
70
0
0
VERTEX
5
1395
8
0
62
7
10
336.809723
20
162.395554
30
0.0
70
0
0
VERTEX
5
1396
8
0
62
7
10
336.242096
20
163.745682
30
0.0
70
0
0
VERTEX
5
1397
8
0
62
7
10
335.995453
20
164.330109
30
0.0
70
0
0
VERTEX
5
1398
8
0
62
7
10
335.022400
20
166.685837
30
0.0
70
0
0
VERTEX
5
1399
8
0
62
7
10
334.589447
20
167.731354
30
0.0
70
0
0
VERTEX
5
139A
8
0
62
7
10
333.615875
20
170.114807
30
0.0
70
0
0
VERTEX
5
139B
8
0
62
7
10
333.166595
20
171.211426
30
0.0
70
0
0
VERTEX
5
139C
8
0
62
7
10
333.162750
20
171.220779
30
0.0
70
0
0
VERTEX
5
139D
8
0
62
7
10
331.909576
20
174.274490
30
0.0
70
0
0
VERTEX
5
139E
8
0
62
7
10
331.344452
20
175.649307
30
0.0
70
0
0
VERTEX
5
139F
8
0
62
7
10
331.279572
20
175.805008
30
0.0
70
0
0
VERTEX
5
13A0
8
0
62
7
10
330.494904
20
177.662689
30
0.0
70
0
0
VERTEX
5
13A1
8
0
62
7
10
330.145264
20
178.486313
30
0.0
70
0
0
VERTEX
5
13A2
8
0
62
7
10
329.832306
20
179.181030
30
0.0
70
0
0
VERTEX
5
13A3
8
0
62
7
10
328.642395
20
181.675980
30
0.0
70
0
0
VERTEX
5
13A4
8
0
62
7
10
328.163239
20
182.675949
30
0.0
70
0
0
VERTEX
5
13A5
8
0
62
7
10
327.308563
20
184.247955
30
0.0
70
0
0
VERTEX
5
13A6
8
0
62
7
10
325.794769
20
186.721817
30
0.0
70
0
0
VERTEX
5
13A7
8
0
62
7
10
325.314240
20
187.504684
30
0.0
70
0
0
VERTEX
5
13A8
8
0
62
7
10
323.810272
20
189.593124
30
0.0
70
0
0
VERTEX
5
13A9
8
0
62
7
10
321.957520
20
191.803070
30
0.0
70
0
0
VERTEX
5
13AA
8
0
62
7
10
321.465790
20
192.368088
30
0.0
70
0
0
VERTEX
5
13AB
8
0
62
7
10
318.939850
20
194.746597
30
0.0
70
0
0
VERTEX
5
13AC
8
0
62
7
10
318.277344
20
195.256592
30
0.0
70
0
0
VERTEX
5
13AD
8
0
62
7
10
318.079651
20
195.408707
30
0.0
70
0
0
SEQEND
5
13AE
0
POLYLINE
5
13AF
8
0
62
7
66
1
70
0
10
0.0
20
0.0
30
0.0
0
VERTEX
5
13B0
8
0
62
7
10
76.419128
20
139.568756
30
0.0
70
0
0
VERTEX
5
13B1
8
0
62
7
10
75.886024
20
138.174652
30
0.0
70
0
0
VERTEX
5
13B2
8
0
62
7
10
75.404877
20
136.914215
30
0.0
70
0
0
VERTEX
5
13B3
8
0
62
7
10
74.568916
20
134.789230
30
0.0
70
0
0
VERTEX
5
13B4
8
0
62
7
10
74.186394
20
133.785583
30
0.0
70
0
0
VERTEX
5
13B5
8
0
62
7
10
73.257179
20
131.384354
30
0.0
70
0
0
VERTEX
5
13B6
8
0
62
7
10
72.820435
20
130.251678
30
0.0
70
0
0
VERTEX
5
13B7
8
0
62
7
10
72.808914
20
130.221207
30
0.0
70
0
0
VERTEX
5
13B8
8
0
62
7
10
71.920998
20
127.825867
30
0.0
70
0
0
VERTEX
5
13B9
8
0
62
7
10
71.491867
20
126.664017
30
0.0
70
0
0
VERTEX
5
13BA
8
0
62
7
10
71.469627
20
126.601242
30
0.0
70
0
0
VERTEX
5
13BB
8
0
62
7
10
70.602966
20
124.047493
30
0.0
70
0
0
VERTEX
5
13BC
8
0
62
7
10
70.158211
20
122.735085
30
0.0
70
0
0
VERTEX
5
13BD
8
0
62
7
10
70.131058
20
122.650009
30
0.0
70
0
0
VERTEX
5
13BE
8
0
62
7
10
69.484856
20
120.492554
30
0.0
70
0
0
VERTEX
5
13BF
8
0
62
7
10
69.128662
20
119.292831
30
0.0
70
0
0
VERTEX
5
13C0
8
0
62
7
10
69.106995
20
119.215279
30
0.0
70
0
0
VERTEX
5
13C1
8
0
62
7
10
68.611160
20
117.323975
30
0.0
70
0
0
VERTEX
5
13C2
8
0
62
7
10
68.317116
20
116.195343
30
0.0
70
0
0
VERTEX
5
13C3
8
0
62
7
10
68.293793
20
116.097855
30
0.0
70
0
0
VERTEX
5
13C4
8
0
62
7
10
67.716644
20
113.451973
30
0.0
70
0
0
VERTEX
5
13C5
8
0
62
7
10
67.343483
20
111.733765
30
0.0
70
0
0
VERTEX
5
13C6
8
0
62
7
10
67.319290
20
111.606575
30
0.0
70
0
0
VERTEX
5
13C7
8
0
62
7
10
66.963860
20
109.432732
30
0.0
70
0
0
VERTEX
5
13C8
8
0
62
7
10
66.708694
20
107.860733
30
0.0
70
0
0
VERTEX
5
13C9
8
0
62
7
10
66.693939
20
107.755775
30
0.0
70
0
0
VERTEX
5
13CA
8
0
62
7
10
66.547028
20
106.522003
30
0.0
70
0
0
VERTEX
5
13CB
8
0
62
7
10
66.433334
20
105.545975
30
0.0
70
0
0
VERTEX
5
13CC
8
0
62
7
10
66.420212
20
105.392174
30
0.0
70
0
0
VERTEX
5
13CD
8
0
62
7
10
66.266304
20
102.555870
30
0.0
70
0
0
VERTEX
5
13CE
8
0
62
7
10
66.128471
20
100.010841
30
0.0
70
0
0
VERTEX
5
13CF
8
0
62
7
10
66.124817
20
99.875648
30
0.0
70
0
0
VERTEX
5
13D0
8
0
62
7
10
66.125954
20
99.800201
30
0.0
70
0
0
VERTEX
5
13D1
8
0
62
7
10
66.181679
20
97.954582
30
0.0
70
0
0
VERTEX
5
13D2
8
0
62
7
10
66.243729
20
95.991440
30
0.0
70
0
0
VERTEX
5
13D3
8
0
62
7
10
66.257484
20
95.796921
30
0.0
70
0
0
VERTEX
5
13D4
8
0
62
7
10
66.442741
20
94.113617
30
0.0
70
0
0
VERTEX
5
13D5
8
0
62
7
10
66.676598
20
92.014381
30
0.0
70
0
0
VERTEX
5
13D6
8
0
62
7
10
66.702553
20
91.838470
30
0.0
70
0
0
VERTEX
5
13D7
8
0
62
7
10
66.892387
20
90.807449
30
0.0
70
0
0
VERTEX
5
13D8
8
0
62
7
10
67.169189
20
89.318771
30
0.0
70
0
0
VERTEX
5
13D9
8
0
62
7
10
67.213531
20
89.123955
30
0.0
70
0
0
VERTEX
5
13DA
8
0
62
7
10
67.698456
20
87.328407
30
0.0
70
0
0
VERTEX
5
13DB
8
0
62
7
10
68.602768
20
84.221359
30
0.0
70
0
0
VERTEX
5
13DC
8
0
62
7
10
68.685722
20
83.982201
30
0.0
70
0
0
VERTEX
5
13DD
8
0
62
7
10
69.131500
20
82.880630
30
0.0
70
0
0
VERTEX
5
13DE
8
0
62
7
10
70.117264
20
80.454735
30
0.0
70
0
0
VERTEX
5
13DF
8
0
62
7
10
70.177399
20
80.318527
30
0.0
70
0
0
VERTEX
5
13E0
8
0
62
7
10
70.543991
20
79.550896
30
0.0
70
0
0
VERTEX
5
13E1
8
0
62
7
10
71.554672
20
77.608292
30
0.0
70
0
0
VERTEX
5
13E2
8
0
62
7
10
71.645546
20
77.448303
30
0.0
70
0
0
VERTEX
5
13E3
8
0
62
7
10
72.221581
20
76.515793
30
0.0
70
0
0
VERTEX
5
13E4
8
0
62
7
10
74.148575
20
73.500031
30
0.0
70
0
0
VERTEX
5
13E5
8
0
62
7
10
74.278023
20
73.316223
30
0.0
70
0
0
VERTEX
5
13E6
8
0
62
7
10
74.729286
20
72.733032
30
0.0
70
0
0
VERTEX
5
13E7
8
0
62
7
10
76.610123
20
70.310425
30
0.0
70
0
0
VERTEX
5
13E8
8
0
62
7
10
76.698112
20
70.203346
30
0.0
70
0
0
VERTEX
5
13E9
8
0
62
7
10
77.180611
20
69.648331
30
0.0
70
0
0
VERTEX
5
13EA
8
0
62
7
10
79.630173
20
66.979523
30
0.0
70
0
0
VERTEX
5
13EB
8
0
62
7
10
79.734482
20
66.872490
30
0.0
70
0
0
VERTEX
5
13EC
8
0
62
7
10
81.765976
20
64.908852
30
0.0
70
0
0
VERTEX
5
13ED
8
0
62
7
10
82.141068
20
64.551773
30
0.0
70
0
0
VERTEX
5
13EE
8
0
62
7
10
82.242447
20
64.460411
30
0.0
70
0
0
VERTEX
5
13EF
8
0
62
7
10
84.629417
20
62.424484
30
0.0
70
0
0
VERTEX
5
13F0
8
0
62
7
10
85.140083
20
61.990463
30
0.0
70
0
0
VERTEX
5
13F1
8
0
62
7
10
85.270592
20
61.886829
30
0.0
70
0
0
VERTEX
5
13F2
8
0
62
7
10
87.705879
20
60.082088
30
0.0
70
0
0
VERTEX
5
13F3
8
0
62
7
10
88.325813
20
59.624146
30
0.0
70
0
0
VERTEX
5
13F4
8
0
62
7
10
88.469658
20
59.525455
30
0.0
70
0
0
VERTEX
5
13F5
8
0
62
7
10
90.884361
20
57.989830
30
0.0
70
0
0
VERTEX
5
13F6
8
0
62
7
10
91.612984
20
57.526760
30
0.0
70
0
0
VERTEX
5
13F7
8
0
62
7
10
91.770729
20
57.434422
30
0.0
70
0
0
VERTEX
5
13F8
8
0
62
7
10
94.280167
20
56.086185
30
0.0
70
0
0
VERTEX
5
13F9
8
0
62
7
10
95.179604
20
55.604481
30
0.0
70
0
0
VERTEX
5
13FA
8
0
62
7
10
95.334038
20
55.528488
30
0.0
70
0
0
VERTEX
5
13FB
8
0
62
7
10
97.778648
20
54.428490
30
0.0
70
0
0
VERTEX
5
13FC
8
0
62
7
10
98.803223
20
53.969185
30
0.0
70
0
0
VERTEX
5
13FD
8
0
62
7
10
98.948357
20
53.909519
30
0.0
70
0
0
VERTEX
5
13FE
8
0
62
7
10
101.355690
20
53.007092
30
0.0
70
0
0
VERTEX
5
13FF
8
0
62
7
10
102.514778
20
52.574509
30
0.0
70
0
0
VERTEX
5
1400
8
0
62
7
10
102.646339
20
52.529533
30
0.0
70
0
0
VERTEX
5
1401
8
0
62
7
10
105.584602
20
51.615540
30
0.0
70
0
0
VERTEX
5
1402
8
0
62
7
10
107.236099
20
51.149517
30
0.0
70
0
0
VERTEX
5
1403
8
0
62
7
10
107.325073
20
51.126171
30
0.0
70
0
0
VERTEX
5
1404
8
0
62
7
10
109.054672
20
50.706142
30
0.0
70
0
0
VERTEX
5
1405
8
0
62
7
10
110.126579
20
50.447845
30
0.0
70
0
0
VERTEX
5
1406
8
0
62
7
10
110.232620
20
50.424717
30
0.0
70
0
0
VERTEX
5
1407
8
0
62
7
10
112.452675
20
49.990738
30
0.0
70
0
0
VERTEX
5
1408
8
0
62
7
10
113.960342
20
49.697903
30
0.0
70
0
0
VERTEX
5
1409
8
0
62
7
10
114.076523
20
49.678165
30
0.0
70
0
0
VERTEX
5
140A
8
0
62
7
10
116.224792
20
49.365124
30
0.0
70
0
0
VERTEX
5
140B
8
0
62
7
10
117.833878
20
49.132580
30
0.0
70
0
0
VERTEX
5
140C
8
0
62
7
10
117.950317
20
49.118530
30
0.0
70
0
0
VERTEX
5
140D
8
0
62
7
10
120.313454
20
48.889526
30
0.0
70
0
0
VERTEX
5
140E
8
0
62
7
10
122.264297
20
48.703629
30
0.0
70
0
0
VERTEX
5
140F
8
0
62
7
10
122.315697
20
48.699265
30
0.0
70
0
0
VERTEX
5
1410
8
0
62
7
10
124.083824
20
48.567532
30
0.0
70
0
0
VERTEX
5
1411
8
0
62
7
10
125.681984
20
48.519352
30
0.0
70
0
0
VERTEX
5
1412
8
0
62
7
10
125.719086
20
48.518509
30
0.0
70
0
0
VERTEX
5
1413
8
0
62
7
10
127.646530
20
48.489029
30
0.0
70
0
0
VERTEX
5
1414
8
0
62
7
10
129.518219
20
48.462673
30
0.0
70
0
0
VERTEX
5
1415
8
0
62
7
10
276.509003
20
48.462673
30
0.0
70
0
0
VERTEX
5
1416
8
0
62
7
10
278.380707
20
48.489029
30
0.0
70
0
0
VERTEX
5
1417
8
0
62
7
10
280.308167
20
48.518509
30
0.0
70
0
0
VERTEX
5
1418
8
0
62
7
10
280.345245
20
48.519352
30
0.0
70
0
0
VERTEX
5
1419
8
0
62
7
10
281.943420
20
48.567528
30
0.0
70
0
0
VERTEX
5
141A
8
0
62
7
10
283.711548
20
48.699268
30
0.0
70
0
0
VERTEX
5
141B
8
0
62
7
10
283.762939
20
48.703629
30
0.0
70
0
0
VERTEX
5
141C
8
0
62
7
10
285.713776
20
48.889530
30
0.0
70
0
0
VERTEX
5
141D
8
0
62
7
10
288.076904
20
49.118530
30
0.0
70
0
0
VERTEX
5
141E
8
0
62
7
10
288.193359
20
49.132580
30
0.0
70
0
0
VERTEX
5
141F
8
0
62
7
10
289.802460
20
49.365120
30
0.0
70
0
0
VERTEX
5
1420
8
0
62
7
10
291.950745
20
49.678165
30
0.0
70
0
0
VERTEX
5
1421
8
0
62
7
10
292.066925
20
49.697903
30
0.0
70
0
0
VERTEX
5
1422
8
0
62
7
10
293.574585
20
49.990738
30
0.0
70
0
0
VERTEX
5
1423
8
0
62
7
10
295.794617
20
50.424717
30
0.0
70
0
0
VERTEX
5
1424
8
0
62
7
10
295.900665
20
50.447845
30
0.0
70
0
0
VERTEX
5
1425
8
0
62
7
10
296.972565
20
50.706142
30
0.0
70
0
0
VERTEX
5
1426
8
0
62
7
10
298.702179
20
51.126171
30
0.0
70
0
0
VERTEX
5
1427
8
0
62
7
10
298.791168
20
51.149521
30
0.0
70
0
0
VERTEX
5
1428
8
0
62
7
10
300.442657
20
51.615543
30
0.0
70
0
0
VERTEX
5
1429
8
0
62
7
10
303.380890
20
52.529533
30
0.0
70
0
0
VERTEX
5
142A
8
0
62
7
10
303.512482
20
52.574509
30
0.0
70
0
0
VERTEX
5
142B
8
0
62
7
10
304.671570
20
53.007092
30
0.0
70
0
0
VERTEX
5
142C
8
0
62
7
10
307.078888
20
53.909519
30
0.0
70
0
0
VERTEX
5
142D
8
0
62
7
10
307.224030
20
53.969181
30
0.0
70
0
0
VERTEX
5
142E
8
0
62
7
10
308.248596
20
54.428490
30
0.0
70
0
0
VERTEX
5
142F
8
0
62
7
10
310.693207
20
55.528488
30
0.0
70
0
0
VERTEX
5
1430
8
0
62
7
10
310.847656
20
55.604481
30
0.0
70
0
0
VERTEX
5
1431
8
0
62
7
10
311.747101
20
56.086185
30
0.0
70
0
0
VERTEX
5
1432
8
0
62
7
10
314.256531
20
57.434422
30
0.0
70
0
0
VERTEX
5
1433
8
0
62
7
10
314.414246
20
57.526756
30
0.0
70
0
0
VERTEX
5
1434
8
0
62
7
10
315.142883
20
57.989830
30
0.0
70
0
0
VERTEX
5
1435
8
0
62
7
10
317.557587
20
59.525452
30
0.0
70
0
0
VERTEX
5
1436
8
0
62
7
10
317.701447
20
59.624153
30
0.0
70
0
0
VERTEX
5
1437
8
0
62
7
10
318.321381
20
60.082092
30
0.0
70
0
0
VERTEX
5
1438
8
0
62
7
10
320.756653
20
61.886837
30
0.0
70
0
0
VERTEX
5
1439
8
0
62
7
10
320.887146
20
61.990459
30
0.0
70
0
0
VERTEX
5
143A
8
0
62
7
10
321.397827
20
62.424480
30
0.0
70
0
0
VERTEX
5
143B
8
0
62
7
10
323.784790
20
64.460403
30
0.0
70
0
0
VERTEX
5
143C
8
0
62
7
10
323.886169
20
64.551765
30
0.0
70
0
0
VERTEX
5
143D
8
0
62
7
10
324.261261
20
64.908844
30
0.0
70
0
0
VERTEX
5
143E
8
0
62
7
10
326.292755
20
66.872498
30
0.0
70
0
0
VERTEX
5
143F
8
0
62
7
10
326.366089
20
66.946373
30
0.0
70
0
0
VERTEX
5
1440
8
0
62
7
10
326.873108
20
67.479050
30
0.0
70
0
0
VERTEX
5
1441
8
0
62
7
10
329.299042
20
70.169357
30
0.0
70
0
0
VERTEX
5
1442
8
0
62
7
10
329.415619
20
70.308472
30
0.0
70
0
0
VERTEX
5
1443
8
0
62
7
10
329.868408
20
70.890488
30
0.0
70
0
0
VERTEX
5
1444
8
0
62
7
10
331.747711
20
73.314270
30
0.0
70
0
0
VERTEX
5
1445
8
0
62
7
10
331.867615
20
73.482887
30
0.0
70
0
0
VERTEX
5
1446
8
0
62
7
10
332.465302
20
74.401672
30
0.0
70
0
0
VERTEX
5
1447
8
0
62
7
10
334.370911
20
77.431000
30
0.0
70
0
0
VERTEX
5
1448
8
0
62
7
10
334.454407
20
77.574059
30
0.0
70
0
0
VERTEX
5
1449
8
0
62
7
10
334.858673
20
78.322517
30
0.0
70
0
0
VERTEX
5
144A
8
0
62
7
10
335.832886
20
80.283676
30
0.0
70
0
0
VERTEX
5
144B
8
0
62
7
10
335.909485
20
80.453484
30
0.0
70
0
0
VERTEX
5
144C
8
0
62
7
10
336.357422
20
81.554169
30
0.0
70
0
0
VERTEX
5
144D
8
0
62
7
10
337.341003
20
83.980942
30
0.0
70
0
0
VERTEX
5
144E
8
0
62
7
10
337.420746
20
84.208641
30
0.0
70
0
0
VERTEX
5
144F
8
0
62
7
10
337.949951
20
85.991638
30
0.0
70
0
0
VERTEX
5
1450
8
0
62
7
10
338.810211
20
89.111168
30
0.0
70
0
0
VERTEX
5
1451
8
0
62
7
10
338.857910
20
89.317970
30
0.0
70
0
0
VERTEX
5
1452
8
0
62
7
10
339.049866
20
90.348595
30
0.0
70
0
0
VERTEX
5
1453
8
0
62
7
10
339.324554
20
91.837669
30
0.0
70
0
0
VERTEX
5
1454
8
0
62
7
10
339.350616
20
92.014023
30
0.0
70
0
0
VERTEX
5
1455
8
0
62
7
10
339.538361
20
93.697067
30
0.0
70
0
0
VERTEX
5
1456
8
0
62
7
10
339.769714
20
95.796570
30
0.0
70
0
0
VERTEX
5
1457
8
0
62
7
10
339.783508
20
95.991318
30
0.0
70
0
0
VERTEX
5
1458
8
0
62
7
10
339.841919
20
97.836853
30
0.0
70
0
0
VERTEX
5
1459
8
0
62
7
10
339.901306
20
99.800087
30
0.0
70
0
0
VERTEX
5
145A
8
0
62
7
10
339.902435
20
99.875648
30
0.0
70
0
0
VERTEX
5
145B
8
0
62
7
10
339.898773
20
100.010849
30
0.0
70
0
0
VERTEX
5
145C
8
0
62
7
10
339.745148
20
102.847176
30
0.0
70
0
0
VERTEX
5
145D
8
0
62
7
10
339.607056
20
105.392189
30
0.0
70
0
0
VERTEX
5
145E
8
0
62
7
10
339.593842
20
105.546753
30
0.0
70
0
0
VERTEX
5
145F
8
0
62
7
10
339.449677
20
106.780861
30
0.0
70
0
0
VERTEX
5
1460
8
0
62
7
10
339.333191
20
107.756546
30
0.0
70
0
0
VERTEX
5
1461
8
0
62
7
10
339.318451
20
107.861176
30
0.0
70
0
0
VERTEX
5
1462
8
0
62
7
10
338.965149
20
110.035347
30
0.0
70
0
0
VERTEX
5
1463
8
0
62
7
10
338.707886
20
111.607018
30
0.0
70
0
0
VERTEX
5
1464
8
0
62
7
10
338.683655
20
111.734238
30
0.0
70
0
0
VERTEX
5
1465
8
0
62
7
10
338.108398
20
114.380524
30
0.0
70
0
0
VERTEX
5
1466
8
0
62
7
10
337.733368
20
116.098320
30
0.0
70
0
0
VERTEX
5
1467
8
0
62
7
10
337.709900
20
116.196281
30
0.0
70
0
0
VERTEX
5
1468
8
0
62
7
10
337.216217
20
118.088150
30
0.0
70
0
0
VERTEX
5
1469
8
0
62
7
10
336.920013
20
119.216217
30
0.0
70
0
0
VERTEX
5
146A
8
0
62
7
10
336.898102
20
119.294479
30
0.0
70
0
0
VERTEX
5
146B
8
0
62
7
10
336.255615
20
121.453049
30
0.0
70
0
0
VERTEX
5
146C
8
0
62
7
10
335.895691
20
122.651657
30
0.0
70
0
0
VERTEX
5
146D
8
0
62
7
10
335.868927
20
122.735405
30
0.0
70
0
0
VERTEX
5
146E
8
0
62
7
10
335.003021
20
125.289398
30
0.0
70
0
0
VERTEX
5
146F
8
0
62
7
10
334.557526
20
126.601562
30
0.0
70
0
0
VERTEX
5
1470
8
0
62
7
10
334.535034
20
126.664978
30
0.0
70
0
0
VERTEX
5
1471
8
0
62
7
10
333.648956
20
129.060989
30
0.0
70
0
0
VERTEX
5
1472
8
0
62
7
10
333.217987
20
130.222153
30
0.0
70
0
0
VERTEX
5
1473
8
0
62
7
10
333.206421
20
130.252686
30
0.0
70
0
0
VERTEX
5
1474
8
0
62
7
10
332.276764
20
132.660583
30
0.0
70
0
0
VERTEX
5
1475
8
0
62
7
10
331.838928
20
133.790604
30
0.0
70
0
0
VERTEX
5
1476
8
0
62
7
10
331.013611
20
135.931122
30
0.0
70
0
0
VERTEX
5
1477
8
0
62
7
10
330.620575
20
136.918976
30
0.0
70
0
0
VERTEX
5
1478
8
0
62
7
10
329.608398
20
139.568756
30
0.0
70
0
0
SEQEND
5
1479
0
POINT
5
147A
8
0
62
7
10
46.427742
20
17.037540
30
0.0
0
POINT
5
147B
8
0
62
7
10
41.512833
20
20.479000
30
0.0
0
POINT
5
147C
8
0
62
7
10
54.784111
20
18.510992
30
0.0
0
POINT
5
147D
8
0
62
7
10
49.869202
20
21.952450
30
0.0
0
POINT
5
147E
8
0
62
7
10
44.954288
20
25.393909
30
0.0
0
POINT
5
147F
8
0
62
7
10
40.039375
20
28.835367
30
0.0
0
POINT
5
1480
8
0
62
7
10
63.140488
20
19.984446
30
0.0
0
POINT
5
1481
8
0
62
7
10
58.225571
20
23.425905
30
0.0
0
POINT
5
1482
8
0
62
7
10
53.310661
20
26.867363
30
0.0
0
POINT
5
1483
8
0
62
7
10
48.395748
20
30.308823
30
0.0
0
POINT
5
1484
8
0
62
7
10
43.480835
20
33.750282
30
0.0
0
POINT
5
1485
8
0
62
7
10
71.496857
20
21.457901
30
0.0
0
POINT
5
1486
8
0
62
7
10
66.581940
20
24.899359
30
0.0
0
POINT
5
1487
8
0
62
7
10
61.667030
20
28.340818
30
0.0
0
POINT
5
1488
8
0
62
7
10
56.752121
20
31.782276
30
0.0
0
POINT
5
1489
8
0
62
7
10
51.837204
20
35.223736
30
0.0
0
POINT
5
148A
8
0
62
7
10
46.922295
20
38.665192
30
0.0
0
POINT
5
148B
8
0
62
7
10
42.007381
20
42.106651
30
0.0
0
POINT
5
148C
8
0
62
7
10
79.853226
20
22.931355
30
0.0
0
POINT
5
148D
8
0
62
7
10
74.938316
20
26.372814
30
0.0
0
POINT
5
148E
8
0
62
7
10
70.023407
20
29.814272
30
0.0
0
POINT
5
148F
8
0
62
7
10
65.108490
20
33.255730
30
0.0
0
POINT
5
1490
8
0
62
7
10
60.193581
20
36.697189
30
0.0
0
POINT
5
1491
8
0
62
7
10
55.278664
20
40.138649
30
0.0
0
POINT
5
1492
8
0
62
7
10
50.363754
20
43.580109
30
0.0
0
POINT
5
1493
8
0
62
7
10
45.448841
20
47.021564
30
0.0
0
POINT
5
1494
8
0
62
7
10
40.533928
20
50.463024
30
0.0
0
POINT
5
1495
8
0
62
7
10
88.209595
20
24.404808
30
0.0
0
POINT
5
1496
8
0
62
7
10
83.294685
20
27.846268
30
0.0
0
POINT
5
1497
8
0
62
7
10
78.379776
20
31.287727
30
0.0
0
POINT
5
1498
8
0
62
7
10
73.464859
20
34.729187
30
0.0
0
POINT
5
1499
8
0
62
7
10
68.549950
20
38.170647
30
0.0
0
POINT
5
149A
8
0
62
7
10
63.635040
20
41.612103
30
0.0
0
POINT
5
149B
8
0
62
7
10
58.720123
20
45.053562
30
0.0
0
POINT
5
149C
8
0
62
7
10
53.805214
20
48.495018
30
0.0
0
POINT
5
149D
8
0
62
7
10
48.890301
20
51.936478
30
0.0
0
POINT
5
149E
8
0
62
7
10
43.975388
20
55.377937
30
0.0
0
POINT
5
149F
8
0
62
7
10
39.060478
20
58.819397
30
0.0
0
POINT
5
14A0
8
0
62
7
10
96.565971
20
25.878265
30
0.0
0
POINT
5
14A1
8
0
62
7
10
91.651062
20
29.319721
30
0.0
0
POINT
5
14A2
8
0
62
7
10
86.736145
20
32.761181
30
0.0
0
POINT
5
14A3
8
0
62
7
10
81.821236
20
36.202641
30
0.0
0
POINT
5
14A4
8
0
62
7
10
76.906326
20
39.644096
30
0.0
0
POINT
5
14A5
8
0
62
7
10
71.991409
20
43.085556
30
0.0
0
POINT
5
14A6
8
0
62
7
10
67.076500
20
46.527016
30
0.0
0
POINT
5
14A7
8
0
62
7
10
62.161583
20
49.968475
30
0.0
0
POINT
5
14A8
8
0
62
7
10
57.246674
20
53.409935
30
0.0
0
POINT
5
14A9
8
0
62
7
10
52.331760
20
56.851391
30
0.0
0
POINT
5
14AA
8
0
62
7
10
47.416847
20
60.292850
30
0.0
0
POINT
5
14AB
8
0
62
7
10
42.501938
20
63.734310
30
0.0
0
POINT
5
14AC
8
0
62
7
10
37.587025
20
67.175766
30
0.0
0
POINT
5
14AD
8
0
62
7
10
109.837257
20
23.910255
30
0.0
0
POINT
5
14AE
8
0
62
7
10
104.922348
20
27.351715
30
0.0
0
POINT
5
14AF
8
0
62
7
10
100.007431
20
30.793175
30
0.0
0
POINT
5
14B0
8
0
62
7
10
95.092514
20
34.234631
30
0.0
0
POINT
5
14B1
8
0
62
7
10
90.177605
20
37.676090
30
0.0
0
POINT
5
14B2
8
0
62
7
10
85.262695
20
41.117550
30
0.0
0
POINT
5
14B3
8
0
62
7
10
80.347778
20
44.559006
30
0.0
0
POINT
5
14B4
8
0
62
7
10
75.432869
20
48.000465
30
0.0
0
POINT
5
14B5
8
0
62
7
10
70.517960
20
51.441925
30
0.0
0
POINT
5
14B6
8
0
62
7
10
65.603043
20
54.883385
30
0.0
0
POINT
5
14B7
8
0
62
7
10
60.688133
20
58.324844
30
0.0
0
POINT
5
14B8
8
0
62
7
10
55.773220
20
61.766300
30
0.0
0
POINT
5
14B9
8
0
62
7
10
50.858307
20
65.207756
30
0.0
0
POINT
5
14BA
8
0
62
7
10
45.943398
20
68.649216
30
0.0
0
POINT
5
14BB
8
0
62
7
10
41.028484
20
72.090675
30
0.0
0
POINT
5
14BC
8
0
62
7
10
36.113571
20
75.532135
30
0.0
0
POINT
5
14BD
8
0
62
7
10
118.193619
20
25.383713
30
0.0
0
POINT
5
14BE
8
0
62
7
10
113.278717
20
28.825172
30
0.0
0
POINT
5
14BF
8
0
62
7
10
108.363800
20
32.266632
30
0.0
0
POINT
5
14C0
8
0
62
7
10
54.299763
20
70.122673
30
0.0
0
POINT
5
14C1
8
0
62
7
10
49.384853
20
73.564133
30
0.0
0
POINT
5
14C2
8
0
62
7
10
44.469940
20
77.005592
30
0.0
0
POINT
5
14C3
8
0
62
7
10
39.555027
20
80.447052
30
0.0
0
POINT
5
14C4
8
0
62
7
10
34.640114
20
83.888512
30
0.0
0
POINT
5
14C5
8
0
62
7
10
126.550003
20
26.857166
30
0.0
0
POINT
5
14C6
8
0
62
7
10
121.635086
20
30.298622
30
0.0
0
POINT
5
14C7
8
0
62
7
10
52.826313
20
78.479042
30
0.0
0
POINT
5
14C8
8
0
62
7
10
47.911400
20
81.920502
30
0.0
0
POINT
5
14C9
8
0
62
7
10
42.996487
20
85.361961
30
0.0
0
POINT
5
14CA
8
0
62
7
10
38.081573
20
88.803421
30
0.0
0
POINT
5
14CB
8
0
62
7
10
33.166664
20
92.244881
30
0.0
0
POINT
5
14CC
8
0
62
7
10
134.906372
20
28.330624
30
0.0
0
POINT
5
14CD
8
0
62
7
10
46.437946
20
90.276878
30
0.0
0
POINT
5
14CE
8
0
62
7
10
41.523033
20
93.718338
30
0.0
0
POINT
5
14CF
8
0
62
7
10
36.608124
20
97.159798
30
0.0
0
POINT
5
14D0
8
0
62
7
10
31.693209
20
100.601257
30
0.0
0
POINT
5
14D1
8
0
62
7
10
143.262741
20
29.804073
30
0.0
0
POINT
5
14D2
8
0
62
7
10
44.964493
20
98.633247
30
0.0
0
POINT
5
14D3
8
0
62
7
10
40.049583
20
102.074707
30
0.0
0
POINT
5
14D4
8
0
62
7
10
35.134666
20
105.516167
30
0.0
0
POINT
5
14D5
8
0
62
7
10
30.219755
20
108.957626
30
0.0
0
POINT
5
14D6
8
0
62
7
10
151.619110
20
31.277523
30
0.0
0
POINT
5
14D7
8
0
62
7
10
48.405949
20
103.548157
30
0.0
0
POINT
5
14D8
8
0
62
7
10
43.491035
20
106.989616
30
0.0
0
POINT
5
14D9
8
0
62
7
10
38.576126
20
110.431076
30
0.0
0
POINT
5
14DA
8
0
62
7
10
33.661209
20
113.872536
30
0.0
0
POINT
5
14DB
8
0
62
7
10
28.746300
20
117.313995
30
0.0
0
POINT
5
14DC
8
0
62
7
10
164.890396
20
29.309525
30
0.0
0
POINT
5
14DD
8
0
62
7
10
159.975479
20
32.750984
30
0.0
0
POINT
5
14DE
8
0
62
7
10
46.932495
20
111.904533
30
0.0
0
POINT
5
14DF
8
0
62
7
10
42.017586
20
115.345993
30
0.0
0
POINT
5
14E0
8
0
62
7
10
37.102669
20
118.787453
30
0.0
0
POINT
5
14E1
8
0
62
7
10
32.187759
20
122.228912
30
0.0
0
POINT
5
14E2
8
0
62
7
10
27.272846
20
125.670364
30
0.0
0
POINT
5
14E3
8
0
62
7
10
173.246765
20
30.782974
30
0.0
0
POINT
5
14E4
8
0
62
7
10
168.331848
20
34.224434
30
0.0
0
POINT
5
14E5
8
0
62
7
10
114.267815
20
72.080475
30
0.0
0
POINT
5
14E6
8
0
62
7
10
109.352905
20
75.521942
30
0.0
0
POINT
5
14E7
8
0
62
7
10
104.437988
20
78.963394
30
0.0
0
POINT
5
14E8
8
0
62
7
10
99.523079
20
82.404854
30
0.0
0
POINT
5
14E9
8
0
62
7
10
94.608170
20
85.846313
30
0.0
0
POINT
5
14EA
8
0
62
7
10
50.373955
20
116.819443
30
0.0
0
POINT
5
14EB
8
0
62
7
10
45.459045
20
120.260902
30
0.0
0
POINT
5
14EC
8
0
62
7
10
40.544128
20
123.702362
30
0.0
0
POINT
5
14ED
8
0
62
7
10
35.629219
20
127.143814
30
0.0
0
POINT
5
14EE
8
0
62
7
10
30.714306
20
130.585281
30
0.0
0
POINT
5
14EF
8
0
62
7
10
25.799393
20
134.026733
30
0.0
0
POINT
5
14F0
8
0
62
7
10
181.603134
20
32.256432
30
0.0
0
POINT
5
14F1
8
0
62
7
10
176.688232
20
35.697891
30
0.0
0
POINT
5
14F2
8
0
62
7
10
171.773315
20
39.139351
30
0.0
0
POINT
5
14F3
8
0
62
7
10
122.624191
20
73.553940
30
0.0
0
POINT
5
14F4
8
0
62
7
10
117.709274
20
76.995392
30
0.0
0
POINT
5
14F5
8
0
62
7
10
112.794365
20
80.436859
30
0.0
0
POINT
5
14F6
8
0
62
7
10
107.879456
20
83.878311
30
0.0
0
POINT
5
14F7
8
0
62
7
10
102.964539
20
87.319771
30
0.0
0
POINT
5
14F8
8
0
62
7
10
98.049629
20
90.761230
30
0.0
0
POINT
5
14F9
8
0
62
7
10
93.134712
20
94.202690
30
0.0
0
POINT
5
14FA
8
0
62
7
10
88.219803
20
97.644150
30
0.0
0
POINT
5
14FB
8
0
62
7
10
48.900505
20
125.175819
30
0.0
0
POINT
5
14FC
8
0
62
7
10
43.985588
20
128.617279
30
0.0
0
POINT
5
14FD
8
0
62
7
10
39.070679
20
132.058731
30
0.0
0
POINT
5
14FE
8
0
62
7
10
34.155766
20
135.500198
30
0.0
0
POINT
5
14FF
8
0
62
7
10
194.874420
20
30.288422
30
0.0
0
POINT
5
1500
8
0
62
7
10
189.959503
20
33.729881
30
0.0
0
POINT
5
1501
8
0
62
7
10
185.044586
20
37.171341
30
0.0
0
POINT
5
1502
8
0
62
7
10
180.129684
20
40.612801
30
0.0
0
POINT
5
1503
8
0
62
7
10
135.895477
20
71.585930
30
0.0
0
POINT
5
1504
8
0
62
7
10
130.980560
20
75.027390
30
0.0
0
POINT
5
1505
8
0
62
7
10
126.065643
20
78.468842
30
0.0
0
POINT
5
1506
8
0
62
7
10
121.150734
20
81.910309
30
0.0
0
POINT
5
1507
8
0
62
7
10
116.235825
20
85.351761
30
0.0
0
POINT
5
1508
8
0
62
7
10
111.320908
20
88.793221
30
0.0
0
POINT
5
1509
8
0
62
7
10
106.405998
20
92.234680
30
0.0
0
POINT
5
150A
8
0
62
7
10
101.491089
20
95.676140
30
0.0
0
POINT
5
150B
8
0
62
7
10
96.576172
20
99.117599
30
0.0
0
POINT
5
150C
8
0
62
7
10
91.661263
20
102.559059
30
0.0
0
POINT
5
150D
8
0
62
7
10
52.341965
20
130.090729
30
0.0
0
POINT
5
150E
8
0
62
7
10
47.427048
20
133.532181
30
0.0
0
POINT
5
150F
8
0
62
7
10
42.512138
20
136.973648
30
0.0
0
POINT
5
1510
8
0
62
7
10
37.597225
20
140.415100
30
0.0
0
POINT
5
1511
8
0
62
7
10
203.230789
20
31.761879
30
0.0
0
POINT
5
1512
8
0
62
7
10
198.315887
20
35.203331
30
0.0
0
POINT
5
1513
8
0
62
7
10
193.400970
20
38.644791
30
0.0
0
POINT
5
1514
8
0
62
7
10
188.486053
20
42.086250
30
0.0
0
POINT
5
1515
8
0
62
7
10
183.571136
20
45.527710
30
0.0
0
POINT
5
1516
8
0
62
7
10
144.251846
20
73.059380
30
0.0
0
POINT
5
1517
8
0
62
7
10
139.336929
20
76.500839
30
0.0
0
POINT
5
1518
8
0
62
7
10
134.422028
20
79.942299
30
0.0
0
POINT
5
1519
8
0
62
7
10
129.507111
20
83.383759
30
0.0
0
POINT
5
151A
8
0
62
7
10
124.592194
20
86.825211
30
0.0
0
POINT
5
151B
8
0
62
7
10
119.677284
20
90.266678
30
0.0
0
POINT
5
151C
8
0
62
7
10
114.762375
20
93.708130
30
0.0
0
POINT
5
151D
8
0
62
7
10
109.847458
20
97.149590
30
0.0
0
POINT
5
151E
8
0
62
7
10
104.932549
20
100.591049
30
0.0
0
POINT
5
151F
8
0
62
7
10
100.017632
20
104.032509
30
0.0
0
POINT
5
1520
8
0
62
7
10
95.102722
20
107.473969
30
0.0
0
POINT
5
1521
8
0
62
7
10
90.187813
20
110.915428
30
0.0
0
POINT
5
1522
8
0
62
7
10
55.783424
20
135.005630
30
0.0
0
POINT
5
1523
8
0
62
7
10
50.868507
20
138.447098
30
0.0
0
POINT
5
1524
8
0
62
7
10
45.953598
20
141.888550
30
0.0
0
POINT
5
1525
8
0
62
7
10
41.038685
20
145.330017
30
0.0
0
POINT
5
1526
8
0
62
7
10
211.587158
20
33.235336
30
0.0
0
POINT
5
1527
8
0
62
7
10
206.672241
20
36.676796
30
0.0
0
POINT
5
1528
8
0
62
7
10
201.757324
20
40.118248
30
0.0
0
POINT
5
1529
8
0
62
7
10
196.842422
20
43.559708
30
0.0
0
POINT
5
152A
8
0
62
7
10
191.927505
20
47.001167
30
0.0
0
POINT
5
152B
8
0
62
7
10
152.608215
20
74.532837
30
0.0
0
POINT
5
152C
8
0
62
7
10
147.693298
20
77.974297
30
0.0
0
POINT
5
152D
8
0
62
7
10
142.778381
20
81.415756
30
0.0
0
POINT
5
152E
8
0
62
7
10
137.863464
20
84.857216
30
0.0
0
POINT
5
152F
8
0
62
7
10
132.948563
20
88.298676
30
0.0
0
POINT
5
1530
8
0
62
7
10
128.033646
20
91.740128
30
0.0
0
POINT
5
1531
8
0
62
7
10
123.118736
20
95.181595
30
0.0
0
POINT
5
1532
8
0
62
7
10
118.203827
20
98.623047
30
0.0
0
POINT
5
1533
8
0
62
7
10
113.288910
20
102.064507
30
0.0
0
POINT
5
1534
8
0
62
7
10
108.374001
20
105.505966
30
0.0
0
POINT
5
1535
8
0
62
7
10
103.459084
20
108.947426
30
0.0
0
POINT
5
1536
8
0
62
7
10
98.544174
20
112.388885
30
0.0
0
POINT
5
1537
8
0
62
7
10
93.629265
20
115.830345
30
0.0
0
POINT
5
1538
8
0
62
7
10
54.309959
20
143.362015
30
0.0
0
POINT
5
1539
8
0
62
7
10
49.395050
20
146.803467
30
0.0
0
POINT
5
153A
8
0
62
7
10
44.480137
20
150.244934
30
0.0
0
POINT
5
153B
8
0
62
7
10
224.858429
20
31.267326
30
0.0
0
POINT
5
153C
8
0
62
7
10
219.943542
20
34.708786
30
0.0
0
POINT
5
153D
8
0
62
7
10
215.028625
20
38.150246
30
0.0
0
POINT
5
153E
8
0
62
7
10
210.113708
20
41.591705
30
0.0
0
POINT
5
153F
8
0
62
7
10
205.198792
20
45.033157
30
0.0
0
POINT
5
1540
8
0
62
7
10
200.283875
20
48.474617
30
0.0
0
POINT
5
1541
8
0
62
7
10
195.368958
20
51.916077
30
0.0
0
POINT
5
1542
8
0
62
7
10
156.049667
20
79.447746
30
0.0
0
POINT
5
1543
8
0
62
7
10
151.134766
20
82.889206
30
0.0
0
POINT
5
1544
8
0
62
7
10
146.219849
20
86.330666
30
0.0
0
POINT
5
1545
8
0
62
7
10
141.304932
20
89.772125
30
0.0
0
POINT
5
1546
8
0
62
7
10
136.390015
20
93.213577
30
0.0
0
POINT
5
1547
8
0
62
7
10
131.475098
20
96.655045
30
0.0
0
POINT
5
1548
8
0
62
7
10
126.560196
20
100.096497
30
0.0
0
POINT
5
1549
8
0
62
7
10
121.645279
20
103.537956
30
0.0
0
POINT
5
154A
8
0
62
7
10
116.730370
20
106.979416
30
0.0
0
POINT
5
154B
8
0
62
7
10
111.815460
20
110.420876
30
0.0
0
POINT
5
154C
8
0
62
7
10
106.900543
20
113.862335
30
0.0
0
POINT
5
154D
8
0
62
7
10
101.985634
20
117.303795
30
0.0
0
POINT
5
154E
8
0
62
7
10
97.070724
20
120.745255
30
0.0
0
POINT
5
154F
8
0
62
7
10
57.751419
20
148.276917
30
0.0
0
POINT
5
1550
8
0
62
7
10
52.836510
20
151.718384
30
0.0
0
POINT
5
1551
8
0
62
7
10
238.129730
20
29.299316
30
0.0
0
POINT
5
1552
8
0
62
7
10
233.214813
20
32.740776
30
0.0
0
POINT
5
1553
8
0
62
7
10
228.299896
20
36.182236
30
0.0
0
POINT
5
1554
8
0
62
7
10
223.384995
20
39.623695
30
0.0
0
POINT
5
1555
8
0
62
7
10
218.470078
20
43.065155
30
0.0
0
POINT
5
1556
8
0
62
7
10
213.555161
20
46.506615
30
0.0
0
POINT
5
1557
8
0
62
7
10
208.640259
20
49.948067
30
0.0
0
POINT
5
1558
8
0
62
7
10
203.725342
20
53.389526
30
0.0
0
POINT
5
1559
8
0
62
7
10
198.810425
20
56.830986
30
0.0
0
POINT
5
155A
8
0
62
7
10
164.406036
20
80.921204
30
0.0
0
POINT
5
155B
8
0
62
7
10
159.491119
20
84.362656
30
0.0
0
POINT
5
155C
8
0
62
7
10
154.576218
20
87.804115
30
0.0
0
POINT
5
155D
8
0
62
7
10
149.661301
20
91.245575
30
0.0
0
POINT
5
155E
8
0
62
7
10
144.746399
20
94.687035
30
0.0
0
POINT
5
155F
8
0
62
7
10
139.831482
20
98.128494
30
0.0
0
POINT
5
1560
8
0
62
7
10
134.916565
20
101.569946
30
0.0
0
POINT
5
1561
8
0
62
7
10
130.001648
20
105.011414
30
0.0
0
POINT
5
1562
8
0
62
7
10
125.086746
20
108.452866
30
0.0
0
POINT
5
1563
8
0
62
7
10
120.171829
20
111.894325
30
0.0
0
POINT
5
1564
8
0
62
7
10
115.256920
20
115.335785
30
0.0
0
POINT
5
1565
8
0
62
7
10
110.342003
20
118.777245
30
0.0
0
POINT
5
1566
8
0
62
7
10
105.427094
20
122.218704
30
0.0
0
POINT
5
1567
8
0
62
7
10
100.512184
20
125.660164
30
0.0
0
POINT
5
1568
8
0
62
7
10
61.192879
20
153.191833
30
0.0
0
POINT
5
1569
8
0
62
7
10
56.277969
20
156.633286
30
0.0
0
POINT
5
156A
8
0
62
7
10
246.486084
20
30.772774
30
0.0
0
POINT
5
156B
8
0
62
7
10
241.571198
20
34.214233
30
0.0
0
POINT
5
156C
8
0
62
7
10
236.656281
20
37.655693
30
0.0
0
POINT
5
156D
8
0
62
7
10
231.741364
20
41.097153
30
0.0
0
POINT
5
156E
8
0
62
7
10
167.847504
20
85.836121
30
0.0
0
POINT
5
156F
8
0
62
7
10
162.932587
20
89.277573
30
0.0
0
POINT
5
1570
8
0
62
7
10
158.017670
20
92.719032
30
0.0
0
POINT
5
1571
8
0
62
7
10
153.102768
20
96.160492
30
0.0
0
POINT
5
1572
8
0
62
7
10
148.187851
20
99.601952
30
0.0
0
POINT
5
1573
8
0
62
7
10
143.272934
20
103.043411
30
0.0
0
POINT
5
1574
8
0
62
7
10
138.358032
20
106.484863
30
0.0
0
POINT
5
1575
8
0
62
7
10
133.443115
20
109.926331
30
0.0
0
POINT
5
1576
8
0
62
7
10
128.528198
20
113.367783
30
0.0
0
POINT
5
1577
8
0
62
7
10
123.613289
20
116.809242
30
0.0
0
POINT
5
1578
8
0
62
7
10
118.698380
20
120.250702
30
0.0
0
POINT
5
1579
8
0
62
7
10
113.783463
20
123.692162
30
0.0
0
POINT
5
157A
8
0
62
7
10
108.868553
20
127.133621
30
0.0
0
POINT
5
157B
8
0
62
7
10
103.953644
20
130.575073
30
0.0
0
POINT
5
157C
8
0
62
7
10
99.038727
20
134.016541
30
0.0
0
POINT
5
157D
8
0
62
7
10
64.634338
20
158.106750
30
0.0
0
POINT
5
157E
8
0
62
7
10
59.719429
20
161.548203
30
0.0
0
POINT
5
157F
8
0
62
7
10
259.757385
20
28.804779
30
0.0
0
POINT
5
1580
8
0
62
7
10
254.842468
20
32.246231
30
0.0
0
POINT
5
1581
8
0
62
7
10
171.288971
20
90.751038
30
0.0
0
POINT
5
1582
8
0
62
7
10
166.374054
20
94.192490
30
0.0
0
POINT
5
1583
8
0
62
7
10
161.459137
20
97.633949
30
0.0
0
POINT
5
1584
8
0
62
7
10
156.544220
20
101.075409
30
0.0
0
POINT
5
1585
8
0
62
7
10
151.629303
20
104.516869
30
0.0
0
POINT
5
1586
8
0
62
7
10
146.714401
20
107.958328
30
0.0
0
POINT
5
1587
8
0
62
7
10
141.799484
20
111.399780
30
0.0
0
POINT
5
1588
8
0
62
7
10
136.884583
20
114.841248
30
0.0
0
POINT
5
1589
8
0
62
7
10
131.969666
20
118.282700
30
0.0
0
POINT
5
158A
8
0
62
7
10
127.054749
20
121.724159
30
0.0
0
POINT
5
158B
8
0
62
7
10
122.139839
20
125.165619
30
0.0
0
POINT
5
158C
8
0
62
7
10
117.224922
20
128.607071
30
0.0
0
POINT
5
158D
8
0
62
7
10
112.310013
20
132.048538
30
0.0
0
POINT
5
158E
8
0
62
7
10
107.395103
20
135.489990
30
0.0
0
POINT
5
158F
8
0
62
7
10
102.480186
20
138.931458
30
0.0
0
POINT
5
1590
8
0
62
7
10
63.160889
20
166.463120
30
0.0
0
POINT
5
1591
8
0
62
7
10
273.028656
20
26.836761
30
0.0
0
POINT
5
1592
8
0
62
7
10
268.113739
20
30.278221
30
0.0
0
POINT
5
1593
8
0
62
7
10
174.730423
20
95.665939
30
0.0
0
POINT
5
1594
8
0
62
7
10
169.815506
20
99.107391
30
0.0
0
POINT
5
1595
8
0
62
7
10
164.900604
20
102.548851
30
0.0
0
POINT
5
1596
8
0
62
7
10
159.985687
20
105.990311
30
0.0
0
POINT
5
1597
8
0
62
7
10
155.070770
20
109.431770
30
0.0
0
POINT
5
1598
8
0
62
7
10
150.155853
20
112.873230
30
0.0
0
POINT
5
1599
8
0
62
7
10
145.240936
20
116.314682
30
0.0
0
POINT
5
159A
8
0
62
7
10
140.326035
20
119.756149
30
0.0
0
POINT
5
159B
8
0
62
7
10
135.411118
20
123.197601
30
0.0
0
POINT
5
159C
8
0
62
7
10
130.496216
20
126.639061
30
0.0
0
POINT
5
159D
8
0
62
7
10
125.581299
20
130.080521
30
0.0
0
POINT
5
159E
8
0
62
7
10
120.666382
20
133.521973
30
0.0
0
POINT
5
159F
8
0
62
7
10
115.751472
20
136.963440
30
0.0
0
POINT
5
15A0
8
0
62
7
10
110.836563
20
140.404892
30
0.0
0
POINT
5
15A1
8
0
62
7
10
105.921646
20
143.846359
30
0.0
0
POINT
5
15A2
8
0
62
7
10
66.602348
20
171.378021
30
0.0
0
POINT
5
15A3
8
0
62
7
10
286.299957
20
24.868759
30
0.0
0
POINT
5
15A4
8
0
62
7
10
281.385040
20
28.310219
30
0.0
0
POINT
5
15A5
8
0
62
7
10
276.470123
20
31.751678
30
0.0
0
POINT
5
15A6
8
0
62
7
10
173.256958
20
104.022308
30
0.0
0
POINT
5
15A7
8
0
62
7
10
168.342056
20
107.463768
30
0.0
0
POINT
5
15A8
8
0
62
7
10
163.427139
20
110.905228
30
0.0
0
POINT
5
15A9
8
0
62
7
10
158.512238
20
114.346687
30
0.0
0
POINT
5
15AA
8
0
62
7
10
153.597321
20
117.788147
30
0.0
0
POINT
5
15AB
8
0
62
7
10
148.682404
20
121.229599
30
0.0
0
POINT
5
15AC
8
0
62
7
10
143.767487
20
124.671066
30
0.0
0
POINT
5
15AD
8
0
62
7
10
138.852585
20
128.112518
30
0.0
0
POINT
5
15AE
8
0
62
7
10
133.937668
20
131.553986
30
0.0
0
POINT
5
15AF
8
0
62
7
10
129.022751
20
134.995438
30
0.0
0
POINT
5
15B0
8
0
62
7
10
124.107841
20
138.436890
30
0.0
0
POINT
5
15B1
8
0
62
7
10
119.192932
20
141.878357
30
0.0
0
POINT
5
15B2
8
0
62
7
10
114.278023
20
145.319809
30
0.0
0
POINT
5
15B3
8
0
62
7
10
109.363106
20
148.761276
30
0.0
0
POINT
5
15B4
8
0
62
7
10
294.656311
20
26.342224
30
0.0
0
POINT
5
15B5
8
0
62
7
10
289.741425
20
29.783676
30
0.0
0
POINT
5
15B6
8
0
62
7
10
171.783508
20
112.378685
30
0.0
0
POINT
5
15B7
8
0
62
7
10
166.868607
20
115.820145
30
0.0
0
POINT
5
15B8
8
0
62
7
10
161.953690
20
119.261604
30
0.0
0
POINT
5
15B9
8
0
62
7
10
157.038773
20
122.703064
30
0.0
0
POINT
5
15BA
8
0
62
7
10
152.123871
20
126.144516
30
0.0
0
POINT
5
15BB
8
0
62
7
10
147.208954
20
129.585983
30
0.0
0
POINT
5
15BC
8
0
62
7
10
142.294037
20
133.027435
30
0.0
0
POINT
5
15BD
8
0
62
7
10
137.379120
20
136.468903
30
0.0
0
POINT
5
15BE
8
0
62
7
10
132.464218
20
139.910355
30
0.0
0
POINT
5
15BF
8
0
62
7
10
127.549301
20
143.351807
30
0.0
0
POINT
5
15C0
8
0
62
7
10
122.634392
20
146.793274
30
0.0
0
POINT
5
15C1
8
0
62
7
10
117.719482
20
150.234726
30
0.0
0
POINT
5
15C2
8
0
62
7
10
112.804565
20
153.676193
30
0.0
0
POINT
5
15C3
8
0
62
7
10
107.889656
20
157.117645
30
0.0
0
POINT
5
15C4
8
0
62
7
10
307.927612
20
24.374207
30
0.0
0
POINT
5
15C5
8
0
62
7
10
303.012695
20
27.815659
30
0.0
0
POINT
5
15C6
8
0
62
7
10
298.097778
20
31.257126
30
0.0
0
POINT
5
15C7
8
0
62
7
10
155.565308
20
131.059418
30
0.0
0
POINT
5
15C8
8
0
62
7
10
150.650406
20
134.500885
30
0.0
0
POINT
5
15C9
8
0
62
7
10
145.735489
20
137.942337
30
0.0
0
POINT
5
15CA
8
0
62
7
10
140.820587
20
141.383804
30
0.0
0
POINT
5
15CB
8
0
62
7
10
135.905670
20
144.825256
30
0.0
0
POINT
5
15CC
8
0
62
7
10
130.990753
20
148.266708
30
0.0
0
POINT
5
15CD
8
0
62
7
10
126.075844
20
151.708176
30
0.0
0
POINT
5
15CE
8
0
62
7
10
121.160934
20
155.149628
30
0.0
0
POINT
5
15CF
8
0
62
7
10
116.246017
20
158.591095
30
0.0
0
POINT
5
15D0
8
0
62
7
10
111.331108
20
162.032547
30
0.0
0
POINT
5
15D1
8
0
62
7
10
321.198883
20
22.406204
30
0.0
0
POINT
5
15D2
8
0
62
7
10
316.283966
20
25.847656
30
0.0
0
POINT
5
15D3
8
0
62
7
10
311.369080
20
29.289124
30
0.0
0
POINT
5
15D4
8
0
62
7
10
306.454163
20
32.730576
30
0.0
0
POINT
5
15D5
8
0
62
7
10
334.470184
20
20.438187
30
0.0
0
POINT
5
15D6
8
0
62
7
10
329.555267
20
23.879654
30
0.0
0
POINT
5
15D7
8
0
62
7
10
324.640350
20
27.321121
30
0.0
0
POINT
5
15D8
8
0
62
7
10
319.725433
20
30.762573
30
0.0
0
POINT
5
15D9
8
0
62
7
10
314.810516
20
34.204041
30
0.0
0
POINT
5
15DA
8
0
62
7
10
260.746490
20
72.060081
30
0.0
0
POINT
5
15DB
8
0
62
7
10
255.831573
20
75.501541
30
0.0
0
POINT
5
15DC
8
0
62
7
10
250.916656
20
78.943001
30
0.0
0
POINT
5
15DD
8
0
62
7
10
246.001740
20
82.384460
30
0.0
0
POINT
5
15DE
8
0
62
7
10
241.086823
20
85.825920
30
0.0
0
POINT
5
15DF
8
0
62
7
10
236.171921
20
89.267372
30
0.0
0
POINT
5
15E0
8
0
62
7
10
231.257019
20
92.708832
30
0.0
0
POINT
5
15E1
8
0
62
7
10
347.741455
20
18.470184
30
0.0
0
POINT
5
15E2
8
0
62
7
10
342.826538
20
21.911636
30
0.0
0
POINT
5
15E3
8
0
62
7
10
337.911621
20
25.353088
30
0.0
0
POINT
5
15E4
8
0
62
7
10
332.996735
20
28.794556
30
0.0
0
POINT
5
15E5
8
0
62
7
10
328.081787
20
32.236023
30
0.0
0
POINT
5
15E6
8
0
62
7
10
323.166870
20
35.677475
30
0.0
0
POINT
5
15E7
8
0
62
7
10
318.251984
20
39.118942
30
0.0
0
POINT
5
15E8
8
0
62
7
10
269.102844
20
73.533524
30
0.0
0
POINT
5
15E9
8
0
62
7
10
264.187927
20
76.974983
30
0.0
0
POINT
5
15EA
8
0
62
7
10
259.273010
20
80.416443
30
0.0
0
POINT
5
15EB
8
0
62
7
10
254.358124
20
83.857903
30
0.0
0
POINT
5
15EC
8
0
62
7
10
249.443207
20
87.299362
30
0.0
0
POINT
5
15ED
8
0
62
7
10
244.528290
20
90.740822
30
0.0
0
POINT
5
15EE
8
0
62
7
10
239.613373
20
94.182274
30
0.0
0
POINT
5
15EF
8
0
62
7
10
234.698471
20
97.623734
30
0.0
0
POINT
5
15F0
8
0
62
7
10
229.783554
20
101.065193
30
0.0
0
POINT
5
15F1
8
0
62
7
10
356.097839
20
19.943634
30
0.0
0
POINT
5
15F2
8
0
62
7
10
351.182922
20
23.385101
30
0.0
0
POINT
5
15F3
8
0
62
7
10
346.268005
20
26.826553
30
0.0
0
POINT
5
15F4
8
0
62
7
10
341.353088
20
30.268005
30
0.0
0
POINT
5
15F5
8
0
62
7
10
336.438202
20
33.709473
30
0.0
0
POINT
5
15F6
8
0
62
7
10
331.523254
20
37.150940
30
0.0
0
POINT
5
15F7
8
0
62
7
10
326.608337
20
40.592392
30
0.0
0
POINT
5
15F8
8
0
62
7
10
282.374146
20
71.565521
30
0.0
0
POINT
5
15F9
8
0
62
7
10
277.459229
20
75.006981
30
0.0
0
POINT
5
15FA
8
0
62
7
10
272.544312
20
78.448441
30
0.0
0
POINT
5
15FB
8
0
62
7
10
267.629395
20
81.889900
30
0.0
0
POINT
5
15FC
8
0
62
7
10
262.714478
20
85.331360
30
0.0
0
POINT
5
15FD
8
0
62
7
10
257.799591
20
88.772820
30
0.0
0
POINT
5
15FE
8
0
62
7
10
252.884674
20
92.214279
30
0.0
0
POINT
5
15FF
8
0
62
7
10
247.969757
20
95.655739
30
0.0
0
POINT
5
1600
8
0
62
7
10
243.054840
20
99.097191
30
0.0
0
POINT
5
1601
8
0
62
7
10
238.139923
20
102.538651
30
0.0
0
POINT
5
1602
8
0
62
7
10
233.225006
20
105.980110
30
0.0
0
POINT
5
1603
8
0
62
7
10
95.607468
20
202.340958
30
0.0
0
POINT
5
1604
8
0
62
7
10
364.454224
20
21.417099
30
0.0
0
POINT
5
1605
8
0
62
7
10
359.539307
20
24.858551
30
0.0
0
POINT
5
1606
8
0
62
7
10
354.624390
20
28.300018
30
0.0
0
POINT
5
1607
8
0
62
7
10
349.709473
20
31.741470
30
0.0
0
POINT
5
1608
8
0
62
7
10
344.794556
20
35.182922
30
0.0
0
POINT
5
1609
8
0
62
7
10
339.879639
20
38.624390
30
0.0
0
POINT
5
160A
8
0
62
7
10
334.964722
20
42.065857
30
0.0
0
POINT
5
160B
8
0
62
7
10
330.049805
20
45.507309
30
0.0
0
POINT
5
160C
8
0
62
7
10
290.730530
20
73.038986
30
0.0
0
POINT
5
160D
8
0
62
7
10
285.815613
20
76.480438
30
0.0
0
POINT
5
160E
8
0
62
7
10
280.900696
20
79.921898
30
0.0
0
POINT
5
160F
8
0
62
7
10
275.985779
20
83.363358
30
0.0
0
POINT
5
1610
8
0
62
7
10
271.070862
20
86.804817
30
0.0
0
POINT
5
1611
8
0
62
7
10
266.155945
20
90.246277
30
0.0
0
POINT
5
1612
8
0
62
7
10
261.241028
20
93.687737
30
0.0
0
POINT
5
1613
8
0
62
7
10
256.326111
20
97.129196
30
0.0
0
POINT
5
1614
8
0
62
7
10
251.411209
20
100.570656
30
0.0
0
POINT
5
1615
8
0
62
7
10
246.496307
20
104.012108
30
0.0
0
POINT
5
1616
8
0
62
7
10
241.581390
20
107.453568
30
0.0
0
POINT
5
1617
8
0
62
7
10
236.666473
20
110.895027
30
0.0
0
POINT
5
1618
8
0
62
7
10
99.048927
20
207.255875
30
0.0
0
POINT
5
1619
8
0
62
7
10
362.980743
20
29.773468
30
0.0
0
POINT
5
161A
8
0
62
7
10
358.065857
20
33.214935
30
0.0
0
POINT
5
161B
8
0
62
7
10
353.150940
20
36.656387
30
0.0
0
POINT
5
161C
8
0
62
7
10
348.236023
20
40.097839
30
0.0
0
POINT
5
161D
8
0
62
7
10
343.321106
20
43.539307
30
0.0
0
POINT
5
161E
8
0
62
7
10
338.406189
20
46.980774
30
0.0
0
POINT
5
161F
8
0
62
7
10
333.491272
20
50.422226
30
0.0
0
POINT
5
1620
8
0
62
7
10
299.086853
20
74.512444
30
0.0
0
POINT
5
1621
8
0
62
7
10
294.171967
20
77.953903
30
0.0
0
POINT
5
1622
8
0
62
7
10
289.257050
20
81.395355
30
0.0
0
POINT
5
1623
8
0
62
7
10
284.342133
20
84.836815
30
0.0
0
POINT
5
1624
8
0
62
7
10
279.427246
20
88.278275
30
0.0
0
POINT
5
1625
8
0
62
7
10
274.512329
20
91.719734
30
0.0
0
POINT
5
1626
8
0
62
7
10
269.597412
20
95.161194
30
0.0
0
POINT
5
1627
8
0
62
7
10
264.682495
20
98.602654
30
0.0
0
POINT
5
1628
8
0
62
7
10
259.767578
20
102.044113
30
0.0
0
POINT
5
1629
8
0
62
7
10
254.852661
20
105.485573
30
0.0
0
POINT
5
162A
8
0
62
7
10
249.937744
20
108.927025
30
0.0
0
POINT
5
162B
8
0
62
7
10
245.022842
20
112.368484
30
0.0
0
POINT
5
162C
8
0
62
7
10
240.107925
20
115.809944
30
0.0
0
POINT
5
162D
8
0
62
7
10
112.320206
20
205.287872
30
0.0
0
POINT
5
162E
8
0
62
7
10
107.405296
20
208.729324
30
0.0
0
POINT
5
162F
8
0
62
7
10
102.490379
20
212.170792
30
0.0
0
POINT
5
1630
8
0
62
7
10
366.422211
20
34.688370
30
0.0
0
POINT
5
1631
8
0
62
7
10
361.507324
20
38.129837
30
0.0
0
POINT
5
1632
8
0
62
7
10
356.592407
20
41.571289
30
0.0
0
POINT
5
1633
8
0
62
7
10
351.677490
20
45.012741
30
0.0
0
POINT
5
1634
8
0
62
7
10
346.762573
20
48.454208
30
0.0
0
POINT
5
1635
8
0
62
7
10
341.847656
20
51.895676
30
0.0
0
POINT
5
1636
8
0
62
7
10
302.528320
20
79.427345
30
0.0
0
POINT
5
1637
8
0
62
7
10
297.613434
20
82.868805
30
0.0
0
POINT
5
1638
8
0
62
7
10
292.698517
20
86.310257
30
0.0
0
POINT
5
1639
8
0
62
7
10
287.783600
20
89.751717
30
0.0
0
POINT
5
163A
8
0
62
7
10
282.868713
20
93.193176
30
0.0
0
POINT
5
163B
8
0
62
7
10
277.953796
20
96.634636
30
0.0
0
POINT
5
163C
8
0
62
7
10
273.038879
20
100.076096
30
0.0
0
POINT
5
163D
8
0
62
7
10
268.123962
20
103.517555
30
0.0
0
POINT
5
163E
8
0
62
7
10
263.209045
20
106.959015
30
0.0
0
POINT
5
163F
8
0
62
7
10
258.294128
20
110.400475
30
0.0
0
POINT
5
1640
8
0
62
7
10
253.379211
20
113.841927
30
0.0
0
POINT
5
1641
8
0
62
7
10
248.464310
20
117.283386
30
0.0
0
POINT
5
1642
8
0
62
7
10
243.549393
20
120.724846
30
0.0
0
POINT
5
1643
8
0
62
7
10
130.506409
20
199.878403
30
0.0
0
POINT
5
1644
8
0
62
7
10
125.591499
20
203.319855
30
0.0
0
POINT
5
1645
8
0
62
7
10
120.676590
20
206.761322
30
0.0
0
POINT
5
1646
8
0
62
7
10
115.761673
20
210.202774
30
0.0
0
POINT
5
1647
8
0
62
7
10
110.846764
20
213.644226
30
0.0
0
POINT
5
1648
8
0
62
7
10
105.931847
20
217.085693
30
0.0
0
POINT
5
1649
8
0
62
7
10
364.948761
20
43.044754
30
0.0
0
POINT
5
164A
8
0
62
7
10
360.033844
20
46.486206
30
0.0
0
POINT
5
164B
8
0
62
7
10
355.118927
20
49.927658
30
0.0
0
POINT
5
164C
8
0
62
7
10
350.204041
20
53.369125
30
0.0
0
POINT
5
164D
8
0
62
7
10
345.289093
20
56.810593
30
0.0
0
POINT
5
164E
8
0
62
7
10
305.969788
20
84.342262
30
0.0
0
POINT
5
164F
8
0
62
7
10
301.054871
20
87.783722
30
0.0
0
POINT
5
1650
8
0
62
7
10
296.139954
20
91.225174
30
0.0
0
POINT
5
1651
8
0
62
7
10
291.225037
20
94.666634
30
0.0
0
POINT
5
1652
8
0
62
7
10
286.310150
20
98.108093
30
0.0
0
POINT
5
1653
8
0
62
7
10
281.395233
20
101.549553
30
0.0
0
POINT
5
1654
8
0
62
7
10
276.480316
20
104.991013
30
0.0
0
POINT
5
1655
8
0
62
7
10
271.565430
20
108.432472
30
0.0
0
POINT
5
1656
8
0
62
7
10
266.650513
20
111.873932
30
0.0
0
POINT
5
1657
8
0
62
7
10
261.735596
20
115.315392
30
0.0
0
POINT
5
1658
8
0
62
7
10
256.820679
20
118.756844
30
0.0
0
POINT
5
1659
8
0
62
7
10
251.905762
20
122.198303
30
0.0
0
POINT
5
165A
8
0
62
7
10
246.990845
20
125.639763
30
0.0
0
POINT
5
165B
8
0
62
7
10
114.288216
20
218.559143
30
0.0
0
POINT
5
165C
8
0
62
7
10
109.373299
20
222.000610
30
0.0
0
POINT
5
165D
8
0
62
7
10
368.390228
20
47.959671
30
0.0
0
POINT
5
165E
8
0
62
7
10
363.475311
20
51.401123
30
0.0
0
POINT
5
165F
8
0
62
7
10
358.560394
20
54.842575
30
0.0
0
POINT
5
1660
8
0
62
7
10
353.645508
20
58.284042
30
0.0
0
POINT
5
1661
8
0
62
7
10
348.730560
20
61.725510
30
0.0
0
POINT
5
1662
8
0
62
7
10
309.411255
20
89.257179
30
0.0
0
POINT
5
1663
8
0
62
7
10
304.496338
20
92.698639
30
0.0
0
POINT
5
1664
8
0
62
7
10
299.581421
20
96.140091
30
0.0
0
POINT
5
1665
8
0
62
7
10
294.666504
20
99.581551
30
0.0
0
POINT
5
1666
8
0
62
7
10
289.751617
20
103.023010
30
0.0
0
POINT
5
1667
8
0
62
7
10
284.836700
20
106.464470
30
0.0
0
POINT
5
1668
8
0
62
7
10
279.921783
20
109.905930
30
0.0
0
POINT
5
1669
8
0
62
7
10
275.006897
20
113.347389
30
0.0
0
POINT
5
166A
8
0
62
7
10
270.091980
20
116.788849
30
0.0
0
POINT
5
166B
8
0
62
7
10
265.177063
20
120.230309
30
0.0
0
POINT
5
166C
8
0
62
7
10
260.262146
20
123.671761
30
0.0
0
POINT
5
166D
8
0
62
7
10
255.347229
20
127.113220
30
0.0
0
POINT
5
166E
8
0
62
7
10
250.432312
20
130.554688
30
0.0
0
POINT
5
166F
8
0
62
7
10
366.916748
20
56.316025
30
0.0
0
POINT
5
1670
8
0
62
7
10
362.001831
20
59.757477
30
0.0
0
POINT
5
1671
8
0
62
7
10
357.086945
20
63.198944
30
0.0
0
POINT
5
1672
8
0
62
7
10
352.171997
20
66.640411
30
0.0
0
POINT
5
1673
8
0
62
7
10
312.852722
20
94.172081
30
0.0
0
POINT
5
1674
8
0
62
7
10
307.937805
20
97.613541
30
0.0
0
POINT
5
1675
8
0
62
7
10
303.022888
20
101.054993
30
0.0
0
POINT
5
1676
8
0
62
7
10
298.107971
20
104.496452
30
0.0
0
POINT
5
1677
8
0
62
7
10
293.193054
20
107.937912
30
0.0
0
POINT
5
1678
8
0
62
7
10
288.278137
20
111.379372
30
0.0
0
POINT
5
1679
8
0
62
7
10
283.363220
20
114.820831
30
0.0
0
POINT
5
167A
8
0
62
7
10
278.448334
20
118.262291
30
0.0
0
POINT
5
167B
8
0
62
7
10
273.533417
20
121.703751
30
0.0
0
POINT
5
167C
8
0
62
7
10
268.618500
20
125.145210
30
0.0
0
POINT
5
167D
8
0
62
7
10
263.703583
20
128.586670
30
0.0
0
POINT
5
167E
8
0
62
7
10
258.788696
20
132.028122
30
0.0
0
POINT
5
167F
8
0
62
7
10
370.358215
20
61.230927
30
0.0
0
POINT
5
1680
8
0
62
7
10
365.443298
20
64.672379
30
0.0
0
POINT
5
1681
8
0
62
7
10
360.528381
20
68.113846
30
0.0
0
POINT
5
1682
8
0
62
7
10
355.613464
20
71.555313
30
0.0
0
POINT
5
1683
8
0
62
7
10
316.294159
20
99.086983
30
0.0
0
POINT
5
1684
8
0
62
7
10
311.379272
20
102.528442
30
0.0
0
POINT
5
1685
8
0
62
7
10
306.464355
20
105.969894
30
0.0
0
POINT
5
1686
8
0
62
7
10
301.549438
20
109.411354
30
0.0
0
POINT
5
1687
8
0
62
7
10
296.634521
20
112.852814
30
0.0
0
POINT
5
1688
8
0
62
7
10
291.719604
20
116.294273
30
0.0
0
POINT
5
1689
8
0
62
7
10
286.804688
20
119.735733
30
0.0
0
POINT
5
168A
8
0
62
7
10
281.889771
20
123.177193
30
0.0
0
POINT
5
168B
8
0
62
7
10
276.974854
20
126.618652
30
0.0
0
POINT
5
168C
8
0
62
7
10
272.059937
20
130.060120
30
0.0
0
POINT
5
168D
8
0
62
7
10
267.145050
20
133.501556
30
0.0
0
POINT
5
168E
8
0
62
7
10
262.230133
20
136.943024
30
0.0
0
POINT
5
168F
8
0
62
7
10
368.884766
20
69.587296
30
0.0
0
POINT
5
1690
8
0
62
7
10
363.969849
20
73.028763
30
0.0
0
POINT
5
1691
8
0
62
7
10
359.054932
20
76.470230
30
0.0
0
POINT
5
1692
8
0
62
7
10
354.140015
20
79.911682
30
0.0
0
POINT
5
1693
8
0
62
7
10
314.820709
20
107.443359
30
0.0
0
POINT
5
1694
8
0
62
7
10
309.905792
20
110.884811
30
0.0
0
POINT
5
1695
8
0
62
7
10
304.990875
20
114.326271
30
0.0
0
POINT
5
1696
8
0
62
7
10
300.075989
20
117.767731
30
0.0
0
POINT
5
1697
8
0
62
7
10
295.161072
20
121.209190
30
0.0
0
POINT
5
1698
8
0
62
7
10
290.246155
20
124.650650
30
0.0
0
POINT
5
1699
8
0
62
7
10
285.331238
20
128.092102
30
0.0
0
POINT
5
169A
8
0
62
7
10
280.416321
20
131.533569
30
0.0
0
POINT
5
169B
8
0
62
7
10
275.501404
20
134.975037
30
0.0
0
POINT
5
169C
8
0
62
7
10
270.586487
20
138.416473
30
0.0
0
POINT
5
169D
8
0
62
7
10
265.671570
20
141.857941
30
0.0
0
POINT
5
169E
8
0
62
7
10
372.326233
20
74.502213
30
0.0
0
POINT
5
169F
8
0
62
7
10
367.411316
20
77.943680
30
0.0
0
POINT
5
16A0
8
0
62
7
10
362.496399
20
81.385147
30
0.0
0
POINT
5
16A1
8
0
62
7
10
357.581482
20
84.826599
30
0.0
0
POINT
5
16A2
8
0
62
7
10
313.347260
20
115.799728
30
0.0
0
POINT
5
16A3
8
0
62
7
10
308.432343
20
119.241188
30
0.0
0
POINT
5
16A4
8
0
62
7
10
303.517456
20
122.682648
30
0.0
0
POINT
5
16A5
8
0
62
7
10
298.602539
20
126.124107
30
0.0
0
POINT
5
16A6
8
0
62
7
10
293.687622
20
129.565567
30
0.0
0
POINT
5
16A7
8
0
62
7
10
288.772705
20
133.007019
30
0.0
0
POINT
5
16A8
8
0
62
7
10
283.857788
20
136.448486
30
0.0
0
POINT
5
16A9
8
0
62
7
10
278.942871
20
139.889954
30
0.0
0
POINT
5
16AA
8
0
62
7
10
274.027954
20
143.331390
30
0.0
0
POINT
5
16AB
8
0
62
7
10
269.113037
20
146.772858
30
0.0
0
POINT
5
16AC
8
0
62
7
10
370.852783
20
82.858582
30
0.0
0
POINT
5
16AD
8
0
62
7
10
365.937836
20
86.300049
30
0.0
0
POINT
5
16AE
8
0
62
7
10
361.022919
20
89.741501
30
0.0
0
POINT
5
16AF
8
0
62
7
10
311.873779
20
124.156090
30
0.0
0
POINT
5
16B0
8
0
62
7
10
306.958893
20
127.597549
30
0.0
0
POINT
5
16B1
8
0
62
7
10
302.043976
20
131.039001
30
0.0
0
POINT
5
16B2
8
0
62
7
10
297.129059
20
134.480469
30
0.0
0
POINT
5
16B3
8
0
62
7
10
292.214172
20
137.921936
30
0.0
0
POINT
5
16B4
8
0
62
7
10
287.299255
20
141.363388
30
0.0
0
POINT
5
16B5
8
0
62
7
10
282.384338
20
144.804840
30
0.0
0
POINT
5
16B6
8
0
62
7
10
277.469421
20
148.246307
30
0.0
0
POINT
5
16B7
8
0
62
7
10
374.294250
20
87.773499
30
0.0
0
POINT
5
16B8
8
0
62
7
10
369.379303
20
91.214966
30
0.0
0
POINT
5
16B9
8
0
62
7
10
364.464386
20
94.656418
30
0.0
0
POINT
5
16BA
8
0
62
7
10
359.549500
20
98.097885
30
0.0
0
POINT
5
16BB
8
0
62
7
10
305.485443
20
135.953918
30
0.0
0
POINT
5
16BC
8
0
62
7
10
300.570526
20
139.395386
30
0.0
0
POINT
5
16BD
8
0
62
7
10
295.655640
20
142.836853
30
0.0
0
POINT
5
16BE
8
0
62
7
10
290.740723
20
146.278305
30
0.0
0
POINT
5
16BF
8
0
62
7
10
285.825806
20
149.719757
30
0.0
0
POINT
5
16C0
8
0
62
7
10
280.910889
20
153.161224
30
0.0
0
POINT
5
16C1
8
0
62
7
10
372.820740
20
96.129883
30
0.0
0
POINT
5
16C2
8
0
62
7
10
367.905823
20
99.571335
30
0.0
0
POINT
5
16C3
8
0
62
7
10
362.990936
20
103.012802
30
0.0
0
POINT
5
16C4
8
0
62
7
10
358.076019
20
106.454254
30
0.0
0
POINT
5
16C5
8
0
62
7
10
304.011963
20
144.310303
30
0.0
0
POINT
5
16C6
8
0
62
7
10
299.097076
20
147.751770
30
0.0
0
POINT
5
16C7
8
0
62
7
10
294.182159
20
151.193222
30
0.0
0
POINT
5
16C8
8
0
62
7
10
289.267242
20
154.634674
30
0.0
0
POINT
5
16C9
8
0
62
7
10
284.352325
20
158.076141
30
0.0
0
POINT
5
16CA
8
0
62
7
10
376.262207
20
101.044785
30
0.0
0
POINT
5
16CB
8
0
62
7
10
371.347290
20
104.486237
30
0.0
0
POINT
5
16CC
8
0
62
7
10
366.432404
20
107.927704
30
0.0
0
POINT
5
16CD
8
0
62
7
10
361.517487
20
111.369156
30
0.0
0
POINT
5
16CE
8
0
62
7
10
356.602570
20
114.810623
30
0.0
0
POINT
5
16CF
8
0
62
7
10
297.623627
20
156.108124
30
0.0
0
POINT
5
16D0
8
0
62
7
10
292.708710
20
159.549591
30
0.0
0
POINT
5
16D1
8
0
62
7
10
374.788757
20
109.401154
30
0.0
0
POINT
5
16D2
8
0
62
7
10
369.873840
20
112.842621
30
0.0
0
POINT
5
16D3
8
0
62
7
10
364.958923
20
116.284073
30
0.0
0
POINT
5
16D4
8
0
62
7
10
360.044006
20
119.725540
30
0.0
0
POINT
5
16D5
8
0
62
7
10
355.129120
20
123.166992
30
0.0
0
POINT
5
16D6
8
0
62
7
10
296.150146
20
164.464508
30
0.0
0
POINT
5
16D7
8
0
62
7
10
378.230225
20
114.316071
30
0.0
0
POINT
5
16D8
8
0
62
7
10
373.315308
20
117.757538
30
0.0
0
POINT
5
16D9
8
0
62
7
10
368.400391
20
121.198990
30
0.0
0
POINT
5
16DA
8
0
62
7
10
363.485474
20
124.640457
30
0.0
0
POINT
5
16DB
8
0
62
7
10
358.570557
20
128.081909
30
0.0
0
POINT
5
16DC
8
0
62
7
10
353.655640
20
131.523376
30
0.0
0
POINT
5
16DD
8
0
62
7
10
376.756775
20
122.672440
30
0.0
0
POINT
5
16DE
8
0
62
7
10
371.841858
20
126.113892
30
0.0
0
POINT
5
16DF
8
0
62
7
10
366.926941
20
129.555359
30
0.0
0
POINT
5
16E0
8
0
62
7
10
362.012024
20
132.996811
30
0.0
0
POINT
5
16E1
8
0
62
7
10
357.097107
20
136.438263
30
0.0
0
POINT
5
16E2
8
0
62
7
10
352.182190
20
139.879730
30
0.0
0
POINT
5
16E3
8
0
62
7
10
347.267273
20
143.321198
30
0.0
0
POINT
5
16E4
8
0
62
7
10
380.198242
20
127.587357
30
0.0
0
POINT
5
16E5
8
0
62
7
10
375.283325
20
131.028809
30
0.0
0
POINT
5
16E6
8
0
62
7
10
370.368408
20
134.470276
30
0.0
0
POINT
5
16E7
8
0
62
7
10
365.453491
20
137.911728
30
0.0
0
POINT
5
16E8
8
0
62
7
10
360.538574
20
141.353180
30
0.0
0
POINT
5
16E9
8
0
62
7
10
355.623657
20
144.794647
30
0.0
0
POINT
5
16EA
8
0
62
7
10
350.708740
20
148.236115
30
0.0
0
POINT
5
16EB
8
0
62
7
10
345.793823
20
151.677567
30
0.0
0
POINT
5
16EC
8
0
62
7
10
276.985046
20
199.857986
30
0.0
0
POINT
5
16ED
8
0
62
7
10
378.724792
20
135.943726
30
0.0
0
POINT
5
16EE
8
0
62
7
10
373.809875
20
139.385193
30
0.0
0
POINT
5
16EF
8
0
62
7
10
368.894958
20
142.826645
30
0.0
0
POINT
5
16F0
8
0
62
7
10
363.980042
20
146.268097
30
0.0
0
POINT
5
16F1
8
0
62
7
10
359.065125
20
149.709564
30
0.0
0
POINT
5
16F2
8
0
62
7
10
354.150208
20
153.151031
30
0.0
0
POINT
5
16F3
8
0
62
7
10
349.235291
20
156.592484
30
0.0
0
POINT
5
16F4
8
0
62
7
10
344.320374
20
160.033936
30
0.0
0
POINT
5
16F5
8
0
62
7
10
339.405457
20
163.475403
30
0.0
0
POINT
5
16F6
8
0
62
7
10
280.426514
20
204.772903
30
0.0
0
POINT
5
16F7
8
0
62
7
10
337.932007
20
171.831772
30
0.0
0
POINT
5
16F8
8
0
62
7
10
288.782898
20
206.246368
30
0.0
0
POINT
5
16F9
8
0
62
7
10
283.867981
20
209.687820
30
0.0
0
POINT
5
16FA
8
0
62
7
10
302.054199
20
204.278351
30
0.0
0
POINT
5
16FB
8
0
62
7
10
297.139282
20
207.719818
30
0.0
0
POINT
5
16FC
8
0
62
7
10
292.224365
20
211.161285
30
0.0
0
POINT
5
16FD
8
0
62
7
10
310.410553
20
205.751785
30
0.0
0
POINT
5
16FE
8
0
62
7
10
305.495636
20
209.193237
30
0.0
0
POINT
5
16FF
8
0
62
7
10
300.580719
20
212.634705
30
0.0
0
POINT
5
1700
8
0
62
7
10
295.665833
20
216.076172
30
0.0
0
POINT
5
1701
8
0
62
7
10
299.107300
20
220.991089
30
0.0
0
ENDSEC
0
EOF
